<?xml version="1.0" encoding="UTF-8"?>
<svg version="1.1" xmlns="http://www.w3.org/2000/svg" width="2000" height="1351">
<path d="M0 0 C1.31176758 1.84399414 1.31176758 1.84399414 2.64453125 4.28515625 C3.14895752 5.19547607 3.65338379 6.1057959 4.1730957 7.04370117 C4.98460083 8.53800659 4.98460083 8.53800659 5.8125 10.0625 C6.98801246 12.18576628 8.1651458 14.30813586 9.34375 16.4296875 C9.94960937 17.5237793 10.55546875 18.61787109 11.1796875 19.74511719 C13.98804764 24.76671823 16.89771275 29.72716042 19.8125 34.6875 C24.93339038 43.42549878 29.98661614 52.20007608 35 61 C39.95363499 69.6941016 44.94369338 78.36502888 50 87 C55.4035646 96.22800529 60.72652361 105.4999467 66.02050781 114.79101562 C70.63502804 122.88744133 75.29095255 130.95806509 80 139 C85.05630923 147.63497557 90.04607122 156.30606319 95 165 C100.53985933 174.72124506 106.13374932 184.40894868 111.78344727 194.06689453 C117.93766742 204.59084625 124.02369996 215.15380137 130.10888672 225.71777344 C133.23680148 231.14659942 136.36858448 236.57319281 139.5 242 C140.75001879 244.16665583 142.00001878 246.3333225 143.25 248.5 C143.86875 249.5725 144.4875 250.645 145.125 251.75 C207 359 268.875 466.25 467.62524414 810.75048828 C468.87435518 812.91557071 470.12354129 815.08060982 471.37280273 817.24560547 C474.51202309 822.68615706 477.64990563 828.12747216 480.78515625 833.5703125 C482.04426459 835.75521193 483.30337914 837.94010779 484.5625 840.125 C485.17295166 841.18525391 485.78340332 842.24550781 486.41235352 843.33789062 C489.60282634 848.87215172 492.81287582 854.39409569 496.0546875 859.8984375 C496.70622803 861.00687012 497.35776855 862.11530273 498.02905273 863.25732422 C499.2773778 865.37837494 500.52934949 867.49728476 501.78540039 869.61376953 C502.3396167 870.55591309 502.89383301 871.49805664 503.46484375 872.46875 C503.955896 873.29826172 504.44694824 874.12777344 504.95288086 874.98242188 C506 877 506 877 506 879 C455.9431096 879.2974752 405.88630841 879.52658441 355.82870814 879.66384928 C349.92063471 879.68010871 344.01256302 879.69693488 338.10449219 879.71411133 C336.34018658 879.71922638 336.34018658 879.71922638 334.54023844 879.72444477 C315.48851898 879.78103122 296.43730882 879.88354066 277.38589162 880.00298635 C257.84119028 880.12450387 238.2967559 880.19675283 218.7516923 880.22315043 C206.68841005 880.24099954 194.62656722 880.29739428 182.56372803 880.40291407 C174.29469612 880.4715682 166.02640959 880.49241648 157.75711328 880.47551791 C152.98360655 880.4671799 148.21261655 880.48006284 143.43955612 880.54967117 C139.06833468 880.61295408 134.70131978 880.61614007 130.32990438 880.57168563 C128.74960697 880.56619292 127.16904695 880.5826926 125.58926648 880.62348137 C120.82439264 880.73934532 116.54489803 880.63337738 112 879 C108.26656416 875.03909384 106.23894279 870.97046767 104 866 C102.97404485 864.17059668 101.93315629 862.34934939 100.8671875 860.54296875 C99.86771031 858.75897698 98.87036525 856.97378926 97.875 855.1875 C93.34904096 847.11934156 88.74577381 839.10281866 84.0625 831.125 C79.27868276 822.96862478 74.59886471 814.76202967 70 806.5 C64.90162887 797.34280035 59.68692031 788.26306978 54.38623047 779.22167969 C49.91721168 771.59201024 45.50651115 763.93015345 41.125 756.25 C40.79196869 755.66634674 40.45893738 755.08269348 40.11581421 754.48135376 C38.42200953 751.51240496 36.72904238 748.54297977 35.03662109 745.57324219 C31.67347949 739.67198311 28.30621933 733.7730765 24.9375 727.875 C24.60606995 727.29463989 24.27463989 726.71427979 23.9331665 726.11633301 C19.14392337 717.73158738 14.33051209 709.3610388 9.5 701 C4.33176906 692.05441025 -0.81431341 683.09645156 -5.9375 674.125 C-6.26894012 673.54461975 -6.60038025 672.9642395 -6.94186401 672.36627197 C-9.63234108 667.6544859 -12.32138652 662.94188318 -15.01037598 658.22924805 C-17.36041657 654.11078415 -19.7110209 649.99264275 -22.0625 645.875 C-22.55978104 645.00418793 -22.55978104 645.00418793 -23.06710815 644.11578369 C-27.85626544 635.73122469 -32.6695903 627.36086157 -37.5 619 C-42.66823094 610.05441025 -47.81431341 601.09645156 -52.9375 592.125 C-53.26894012 591.54461975 -53.60038025 590.9642395 -53.94186401 590.36627197 C-56.63234108 585.6544859 -59.32138652 580.94188318 -62.01037598 576.22924805 C-64.36041657 572.11078415 -66.7110209 567.99264275 -69.0625 563.875 C-69.39402069 563.29445862 -69.72554138 562.71391724 -70.06710815 562.11578369 C-74.85626544 553.73122469 -79.6695903 545.36086157 -84.5 537 C-89.66823143 528.05440941 -94.81416306 519.09636619 -99.9375 510.125 C-100.26860779 509.54528442 -100.59971558 508.96556885 -100.94085693 508.36828613 C-104.31521064 502.45983362 -107.68690462 496.54986911 -111.05583191 490.63832092 C-112.74476211 487.67509502 -114.43465122 484.71241688 -116.125 481.75 C-116.45746735 481.16723297 -116.78993469 480.58446594 -117.13247681 479.98403931 C-121.74769243 471.89790307 -126.4161144 463.84444921 -131.125 455.8125 C-136.45362814 446.72204419 -141.6291316 437.55424471 -146.75488281 428.34814453 C-151.27590565 420.24682422 -155.92174004 412.22487741 -160.61376953 404.22167969 C-165.08278832 396.59201024 -169.49348885 388.93015345 -173.875 381.25 C-174.37454697 380.37452011 -174.37454697 380.37452011 -174.88418579 379.48135376 C-176.57799047 376.51240496 -178.27095762 373.54297977 -179.96337891 370.57324219 C-183.32652051 364.67198311 -186.69378067 358.7730765 -190.0625 352.875 C-190.39393005 352.29463989 -190.72536011 351.71427979 -191.0668335 351.11633301 C-195.85607663 342.73158738 -200.66948791 334.3610388 -205.5 326 C-210.66823094 317.05441025 -215.81431341 308.09645156 -220.9375 299.125 C-221.43466019 298.25442963 -221.43466019 298.25442963 -221.94186401 297.36627197 C-224.63234108 292.6544859 -227.32138652 287.94188318 -230.01037598 283.22924805 C-232.36041657 279.11078415 -234.7110209 274.99264275 -237.0625 270.875 C-237.39402069 270.29445862 -237.72554138 269.71391724 -238.06710815 269.11578369 C-242.85626544 260.73122469 -247.6695903 252.36086157 -252.5 244 C-258.66947912 233.32136938 -264.80232304 222.62222135 -270.91235352 211.90950012 C-271.24162842 211.33221664 -271.57090332 210.75493317 -271.91015625 210.16015625 C-272.24039795 209.58114059 -272.57063965 209.00212494 -272.91088867 208.40556335 C-275.05437642 204.64983574 -277.2062651 200.89903413 -279.36360168 197.15124512 C-280.84574197 194.57609651 -282.32553634 191.99960331 -283.8052063 189.42303467 C-284.5112997 188.19503039 -285.21853179 186.96768005 -285.92697144 185.74102783 C-286.90999734 184.03868963 -287.88868323 182.3338475 -288.8671875 180.62890625 C-289.42519043 179.66025635 -289.98319336 178.69160645 -290.55810547 177.69360352 C-291.90626107 175.17511373 -292.99936551 172.67291526 -294 170 C-292.99138916 169.42052612 -292.99138916 169.42052612 -291.96240234 168.8293457 C-279.44578214 161.63404196 -266.94847301 154.41130552 -254.52905273 147.04907227 C-247.01170216 142.59347524 -239.47752295 138.16706664 -231.9375 133.75 C-231.32956604 133.39379578 -230.72163208 133.03759155 -230.09527588 132.67059326 C-225.10220741 129.74504319 -220.10855679 126.82048744 -215.11486816 123.89599609 C-210.76380661 121.34779516 -206.41297039 118.79921011 -202.0625 116.25 C-201.45373016 115.89329224 -200.84496033 115.53658447 -200.21774292 115.16906738 C-192.46931917 110.62818227 -184.72895912 106.07395984 -177 101.5 C-168.65768032 96.5630564 -160.30111986 91.65073781 -151.9375 86.75 C-151.32763245 86.39261749 -150.71776489 86.03523499 -150.0894165 85.66702271 C-143.88705535 82.03266565 -137.68367895 78.40004476 -131.47952271 74.76875305 C-128.44439897 72.99215151 -125.40959932 71.21499711 -122.375 69.4375 C-121.47642273 68.91118484 -121.47642273 68.91118484 -120.55969238 68.37423706 C-111.75261161 63.21433397 -102.96468995 58.02308978 -94.1875 52.8125 C-82.8856271 46.10354366 -71.54162211 39.46959783 -60.18408203 32.85546875 C-54.92372896 29.79008895 -49.66624159 26.71984429 -44.41174316 23.6444397 C-43.18489627 22.9266464 -41.95776671 22.209336 -40.73034668 21.49252319 C-34.01822441 17.57203053 -27.33450324 13.61299064 -20.70703125 9.55078125 C-19.5442285 8.84100048 -18.38138748 8.1312824 -17.21850586 7.42163086 C-15.03283008 6.08373235 -12.85239308 4.73722752 -10.67797852 3.38110352 C-9.70916748 2.78869873 -8.74035645 2.19629395 -7.7421875 1.5859375 C-6.8951123 1.0604834 -6.04803711 0.5350293 -5.17529297 -0.00634766 C-3 -1 -3 -1 0 0 Z " fill="#000000" transform="translate(1196,7)"/>
<path d="M0 0 C2.61712286 2.36271395 4.17321749 4.83435853 5.86328125 7.91796875 C6.41306641 8.91248047 6.96285156 9.90699219 7.52929688 10.93164062 C8.11775391 12.00607422 8.70621094 13.08050781 9.3125 14.1875 C10.57760754 16.47366409 11.84458199 18.75879592 13.11328125 21.04296875 C13.43660431 21.62537323 13.75992737 22.20777771 14.0930481 22.80783081 C17.31083583 28.58858251 20.64608171 34.29753233 24 40 C28.76495014 48.1137973 33.42412772 56.27810842 38 64.5 C43.09830924 73.65723315 48.31308055 82.7369317 53.61376953 91.77832031 C58.08278735 99.4079881 62.49361631 107.06977486 66.875 114.75 C67.37504547 115.6264769 67.37504547 115.6264769 67.88519287 116.5206604 C69.5800349 119.4919198 71.27407984 122.46363272 72.96777344 125.43554688 C75.97470744 130.71093295 78.98859617 135.98234438 82.00201416 141.25402832 C83.6682993 144.16918658 85.33412627 147.08460663 87 150 C87.66666448 151.16666792 88.33333114 152.33333459 89 153.5 C101 174.5 113 195.5 125 216.5 C125.49499245 217.36623489 125.49499245 217.36623489 125.99998474 218.24996948 C126.66670665 219.41673537 127.33342418 220.58350376 128.00013733 221.75027466 C129.66592284 224.66544378 131.33178427 227.58056947 132.99780273 230.49560547 C136.00840313 235.76343195 139.01844147 241.03157559 142.02566528 246.30133057 C148.82477958 258.21576145 155.63753173 270.12188804 162.5 282 C169.70212794 294.46602223 176.84829676 306.96361244 183.98388672 319.46777344 C186.98733176 324.7304792 189.99429965 329.99117186 193.00100708 335.25201416 C194.66748282 338.16792672 196.33372982 341.08396998 198 344 C198.66666557 345.16666729 199.33333224 346.33333396 200 347.5 C201.33333333 349.83333333 202.66666667 352.16666667 204 354.5 C204.32999496 355.07748993 204.65998993 355.65497986 204.99998474 356.24996948 C205.66670665 357.41673537 206.33342418 358.58350376 207.00013733 359.75027466 C208.66592284 362.66544378 210.33178427 365.58056947 211.99780273 368.49560547 C215.00840313 373.76343195 218.01844147 379.03157559 221.02566528 384.30133057 C227.82477958 396.21576145 234.63753173 408.12188804 241.5 420 C248.70212794 432.46602223 255.84829676 444.96361244 262.98388672 457.46777344 C265.98733176 462.7304792 268.99429965 467.99117186 272.00100708 473.25201416 C273.66748282 476.16792672 275.33372982 479.08396998 277 482 C277.66666557 483.16666729 278.33333224 484.33333396 279 485.5 C282.99999993 492.49999988 282.99999993 492.49999988 283.99995422 494.24992371 C284.6667691 495.41684719 285.33358835 496.58376817 286.00041199 497.75068665 C287.66484701 500.66340351 289.32920639 503.57616355 290.9934082 506.48901367 C294.36240543 512.38557083 297.73272809 518.28136439 301.10546875 524.17578125 C304.43166648 529.98904146 307.75308593 535.80500895 311.07177734 541.62255859 C312.36742842 543.89199858 313.66465367 546.16054051 314.96337891 548.42822266 C316.81290309 551.65822609 318.65706308 554.89123481 320.5 558.125 C321.33760864 559.58353394 321.33760864 559.58353394 322.19213867 561.0715332 C322.69592041 561.95800537 323.19970215 562.84447754 323.71875 563.7578125 C324.16154297 564.5327002 324.60433594 565.30758789 325.06054688 566.10595703 C326 568 326 568 326 570 C224.36 570 122.72 570 18 570 C18 597.72 18 625.44 18 654 C-10.38 654 -38.76 654 -68 654 C-67.5625 613.1875 -67.5625 613.1875 -67.30688477 600.48510742 C-67.15751976 578.30171661 -69.06495075 562.94263306 -82.20077515 544.55239868 C-84.57462939 541.1848249 -86.54751941 537.66426657 -88.5078125 534.046875 C-89.71194531 531.94700046 -90.91761819 529.84800812 -92.125 527.75 C-93.47232405 525.40159719 -94.81823616 523.05238636 -96.1640625 520.703125 C-96.81149414 519.57326172 -97.45892578 518.44339844 -98.12597656 517.27929688 C-100.9354552 512.36307527 -103.7191263 507.43244181 -106.5 502.5 C-111.30345652 493.98280847 -116.14340892 485.48695617 -121 477 C-126.38451665 467.59048701 -131.74064725 458.16558554 -137.06640625 448.72265625 C-141.3507191 441.1330013 -145.67133366 433.56440081 -150 426 C-155.38451665 416.59048701 -160.74064725 407.16558554 -166.06640625 397.72265625 C-170.3507191 390.1330013 -174.67133366 382.56440081 -179 375 C-184.38451665 365.59048701 -189.74064725 356.16558554 -195.06640625 346.72265625 C-199.3507191 339.1330013 -203.67133366 331.56440081 -208 324 C-213.38451665 314.59048701 -218.74064725 305.16558554 -224.06640625 295.72265625 C-228.3507191 288.1330013 -232.67133366 280.56440081 -237 273 C-242.38451665 263.59048701 -247.74064725 254.16558554 -253.06640625 244.72265625 C-257.35071968 237.13300027 -261.67144921 229.56446766 -266 222 C-276.08185639 204.37951776 -286.05827421 186.69986839 -296 169 C-293.08567977 165.83123107 -290.21629541 163.80297165 -286.44140625 161.75 C-285.34425293 161.14792725 -284.24709961 160.54585449 -283.11669922 159.92553711 C-282.53756775 159.61180145 -281.95843628 159.2980658 -281.36175537 158.974823 C-278.91136951 157.64722241 -276.4693097 156.30464148 -274.02679443 154.96263123 C-272.78618466 154.28104946 -271.54517586 153.60019352 -270.30377197 152.9200592 C-264.95768068 149.98830445 -259.65910337 146.97915715 -254.375 143.9375 C-246.7783726 139.57343302 -239.14898569 135.27162491 -231.5 131 C-223.81073091 126.7053305 -216.13968876 122.38227545 -208.5 118 C-200.86030998 113.61772382 -193.18921134 109.29477447 -185.5 105 C-176.90938954 100.20113892 -168.34572715 95.35899811 -159.80810547 90.46655273 C-150.53022024 85.15170272 -141.21897627 79.89633643 -131.90722656 74.64111328 C-126.14144094 71.38635925 -120.37814842 68.12719247 -114.61450195 64.86865234 C-109.88604317 62.19561012 -105.15683916 59.5239084 -100.42578125 56.85546875 C-90.56999093 51.29426979 -80.72968902 45.70721453 -70.90911865 40.08404541 C-60.34381514 34.034595 -49.75123864 28.03713357 -39.12207031 22.1003418 C-31.86172929 18.04511599 -24.61386082 13.96844836 -17.375 9.875 C-15.96190552 9.07606323 -15.96190552 9.07606323 -14.52026367 8.26098633 C-9.67359578 5.51872885 -4.83251988 2.76711412 0 0 Z " fill="#000000" transform="translate(860,316)"/>
<path d="M0 0 C28.05 0 56.1 0 85 0 C85 149.82 85 299.64 85 454 C56.95 454 28.9 454 0 454 C0 447.4 0 440.8 0 434 C-3.465 436.0109375 -3.465 436.0109375 -7 438.0625 C-50.06488674 462.51312981 -101.37481104 468.04854531 -149.16259766 455.7890625 C-192.86565897 443.63553521 -229.8576567 413.97866155 -252.26269531 374.79150391 C-275.53225708 333.24864549 -281.73829323 283.82148178 -269.03271484 237.75073242 C-268.377699 235.4928515 -267.69806054 233.24492222 -267 231 C-266.79568359 230.3390332 -266.59136719 229.67806641 -266.38085938 228.99707031 C-259.30992248 206.85269174 -247.1231034 186.28964895 -231.2421875 169.39453125 C-229.371071 167.39628314 -227.61006894 165.36490836 -225.875 163.25 C-206.96696757 141.09460466 -176.4077238 125.79436869 -148.6875 118.3125 C-147.99035889 118.12212158 -147.29321777 117.93174316 -146.57495117 117.7355957 C-131.37545812 113.84711667 -116.51432281 112.4489904 -100.875 112.5625 C-99.98124664 112.56554138 -99.08749329 112.56858276 -98.16665649 112.57171631 C-83.80846375 112.64374015 -69.98476789 113.51115999 -56 117 C-55.14293457 117.20898926 -54.28586914 117.41797852 -53.40283203 117.63330078 C-43.83072139 120.04575457 -34.71524689 123.32921076 -25.6875 127.3125 C-24.93629883 127.6427417 -24.18509766 127.9729834 -23.41113281 128.31323242 C-15.50038897 131.9654554 -8.59257411 136.44445553 -1 141 C-0.67 94.47 -0.34 47.94 0 0 Z M-166 219 C-166.98806641 219.87591797 -166.98806641 219.87591797 -167.99609375 220.76953125 C-184.49724045 235.82254037 -192.93160042 260.77556866 -194.203125 282.46484375 C-194.54594421 307.86203377 -186.69446883 332.45867648 -168.93994141 350.99853516 C-167.63059725 352.33625378 -166.3154998 353.66833431 -165 355 C-164.41863281 355.65355469 -163.83726562 356.30710937 -163.23828125 356.98046875 C-147.47493428 374.33206227 -121.84370409 381.60949227 -99.32421875 383.1875 C-75.92352562 383.80028411 -52.42722518 374.32393938 -35 359 C-34.23171875 358.36320312 -33.4634375 357.72640625 -32.671875 357.0703125 C-14.53184005 341.70681352 -2.1698345 318.02901361 -0.125 294.2578125 C1.28960283 268.70654895 -6.82559045 245.72892205 -23 226 C-23.66386719 225.15953125 -24.32773437 224.3190625 -25.01171875 223.453125 C-39.69531093 205.88875187 -63.1664568 192.77780331 -86 190 C-117.73974263 188.10970132 -143.07297712 196.93067869 -166 219 Z " fill="#000000" transform="translate(670,888)"/>
<path d="M0 0 C28.38 0 56.76 0 86 0 C86 149.82 86 299.64 86 454 C57.62 454 29.24 454 0 454 C-0.33 447.73 -0.66 441.46 -1 435 C-2.155 435.825 -3.31 436.65 -4.5 437.5 C-25.18066445 451.25459286 -49.4548393 458.40358694 -74 461 C-75.03769531 461.11085938 -76.07539062 461.22171875 -77.14453125 461.3359375 C-122.31818728 465.45782473 -170.33016893 453.83508673 -206 425 C-206.87060059 424.29641357 -206.87060059 424.29641357 -207.75878906 423.57861328 C-225.14527052 409.36481321 -239.57411197 393.33807396 -251 374 C-251.37366699 373.36787598 -251.74733398 372.73575195 -252.13232422 372.08447266 C-274.50452763 333.5699374 -280.29126555 285.76891308 -269.41650391 242.68847656 C-268.16887831 238.03359277 -266.65564037 233.52509334 -265 229 C-264.57074219 227.79859375 -264.14148438 226.5971875 -263.69921875 225.359375 C-247.56218445 182.63032643 -215.04567394 148.7333518 -174 129 C-149.75391396 118.21603966 -124.62862083 112.41381056 -98.09326172 112.60888672 C-95.50044201 112.62499725 -92.90918006 112.60890467 -90.31640625 112.58984375 C-75.01931421 112.56962347 -60.00241045 114.33938549 -45.3125 118.75 C-44.44222168 119.00676514 -43.57194336 119.26353027 -42.67529297 119.52807617 C-27.23873721 124.23261768 -12.93060607 131.30204545 0 141 C0 94.47 0 47.94 0 0 Z M-124 194 C-125.1240625 194.36222656 -126.248125 194.72445313 -127.40625 195.09765625 C-153.21452205 204.1612756 -172.83451342 224.49029005 -184.94921875 248.49609375 C-195.25458232 270.13310078 -195.68515201 294.58095241 -188.04980469 317.07470703 C-178.87511112 342.5876463 -159.37088158 362.25878907 -135.38012695 374.24682617 C-112.87387361 384.79839303 -87.42724966 385.59246289 -64.046875 377.53515625 C-38.49496895 368.14180066 -19.39229995 350.2893757 -7.5703125 325.765625 C1.18067187 305.72962888 3.68472378 280.98751013 -3 260 C-3.19867676 259.36835937 -3.39735352 258.73671875 -3.60205078 258.0859375 C-8.28916761 243.5365651 -15.86065122 231.4517113 -26 220 C-26.62390625 219.29230469 -27.2478125 218.58460938 -27.890625 217.85546875 C-43.33671714 201.40343363 -67.16867003 190.54972293 -89.6640625 189.6640625 C-101.77176207 189.48184801 -112.48473383 190.11487148 -124 194 Z " fill="#000000" transform="translate(1185,888)"/>
<path d="M0 0 C0.86915039 0.21430664 1.73830078 0.42861328 2.63378906 0.64941406 C21.66977057 5.51644767 38.29667919 13.80814323 55 24 C55.33 15.75 55.66 7.5 56 -1 C84.05 -1 112.1 -1 141 -1 C141 110.54 141 222.08 141 337 C112.95 337 84.9 337 56 337 C55.67 330.73 55.34 324.46 55 318 C52.504375 319.52625 50.00875 321.0525 47.4375 322.625 C39.54668447 327.31499565 31.70603766 331.03046641 23 334 C22.27538574 334.25233398 21.55077148 334.50466797 20.80419922 334.76464844 C2.61221632 340.99156367 -16.76491959 344.47457619 -36 345 C-37.29164063 345.03996094 -38.58328125 345.07992188 -39.9140625 345.12109375 C-81.97113024 345.99522491 -124.23940657 331.95722532 -156 304 C-156.83917969 303.27039062 -157.67835938 302.54078125 -158.54296875 301.7890625 C-174.85231677 287.37615029 -187.27374525 271.88022583 -198 253 C-198.37253906 252.34837891 -198.74507812 251.69675781 -199.12890625 251.02539062 C-220.73560232 212.55590408 -224.62966402 164.27114756 -213.18212891 122.05004883 C-199.67252423 75.50011845 -168.03398832 38.21139518 -125.87988281 14.82373047 C-88.18687488 -5.20238135 -41.40058815 -10.2991997 0 0 Z M-102 96 C-102.84433594 96.7115625 -103.68867187 97.423125 -104.55859375 98.15625 C-122.70908509 113.84799898 -135.49534181 136.8043983 -137.875 160.8984375 C-139.42256919 186.91694451 -131.41796523 211.80703351 -114.22338867 231.47851562 C-97.20132106 250.25904913 -73.71347681 263.93209107 -48.046875 265.91015625 C-47.37140625 265.93980469 -46.6959375 265.96945312 -46 266 C-45.26265625 266.03996094 -44.5253125 266.07992187 -43.765625 266.12109375 C-18.87988725 266.81236424 5.7676943 257.94430922 24 241 C24.87269531 240.195625 25.74539062 239.39125 26.64453125 238.5625 C45.68758121 220.29030813 55.4193396 195.69023392 56.25 169.5 C55.35957101 141.47767583 43.62614267 116.13657659 23.2890625 96.88671875 C2.92455109 78.49713427 -22.43211291 71.50391076 -49.42675781 72.81542969 C-68.83937045 74.2078334 -87.48293305 83.34772702 -102 96 Z " fill="#000000" transform="translate(225,1005)"/>
<path d="M0 0 C0.86757935 0.00304138 1.73515869 0.00608276 2.62902832 0.00921631 C37.37075841 0.18851098 70.25121129 9.06330753 99.3125 28.4375 C99.6425 20.1875 99.9725 11.9375 100.3125 3.4375 C127.0425 3.4375 153.7725 3.4375 181.3125 3.4375 C181.3125 114.9775 181.3125 226.5175 181.3125 341.4375 C154.5825 341.4375 127.8525 341.4375 100.3125 341.4375 C99.9825 335.1675 99.6525 328.8975 99.3125 322.4375 C97.87261719 323.22253906 96.43273438 324.00757813 94.94921875 324.81640625 C49.52892843 349.26300345 -2.13162288 356.51827913 -52.140625 342.1953125 C-77.90667708 334.36423043 -103.2401215 320.30390762 -121.6875 300.4375 C-122.5125 299.6125 -123.3375 298.7875 -124.1875 297.9375 C-125.0125 297.1125 -125.8375 296.2875 -126.6875 295.4375 C-127.20521973 294.93790771 -127.72293945 294.43831543 -128.25634766 293.92358398 C-132.41399096 289.86920318 -136.09561811 285.65577725 -139.5625 281 C-140.0771582 280.30898193 -140.59181641 279.61796387 -141.12207031 278.90600586 C-146.33033897 271.7684794 -150.65507557 264.28801963 -154.6875 256.4375 C-155.03264648 255.7770166 -155.37779297 255.1165332 -155.73339844 254.43603516 C-177.07798594 213.17985359 -180.22287273 164.10009596 -166.90136719 119.82470703 C-163.23145075 108.53586825 -158.37760948 97.841357 -152.6875 87.4375 C-152.18162354 86.50260742 -152.18162354 86.50260742 -151.66552734 85.54882812 C-130.02576879 46.06936353 -92.35132163 19.35581492 -49.94921875 6.28515625 C-33.49224118 1.60083933 -17.06700141 -0.12805398 0 0 Z M-22.6875 80.4375 C-23.63713623 80.73551514 -23.63713623 80.73551514 -24.60595703 81.03955078 C-50.51761399 89.38907095 -70.81244434 107.25692885 -83.4375 131.25 C-93.84448628 152.86264825 -97.02663471 179.4603105 -89.37646484 202.49902344 C-80.1577996 228.43672791 -63.03504769 248.72679268 -38.30078125 261.13671875 C-26.78115133 266.35142009 -14.37349917 269.90983279 -1.6875 270.4375 C-0.97464844 270.4890625 -0.26179688 270.540625 0.47265625 270.59375 C27.19478649 271.69380339 51.02598759 260.01912733 70.3125 242.4375 C70.97765625 241.85484375 71.6428125 241.2721875 72.328125 240.671875 C86.73140155 227.34547894 95.33263719 208.34759959 99.3125 189.4375 C99.53873047 188.37402344 99.53873047 188.37402344 99.76953125 187.2890625 C100.0916008 185.32229113 100.22961427 183.43021118 100.3125 181.4375 C100.3640625 180.29152344 100.415625 179.14554688 100.46875 177.96484375 C101.27980861 150.95860299 90.64156988 127.83397733 72.9375 107.7421875 C55.45608536 89.39820306 31.6825658 77.66765857 6.28393555 77.0222168 C-3.71450161 76.95189778 -13.09933591 77.41625923 -22.6875 80.4375 Z " fill="#000000" transform="translate(1473.6875,1000.5625)"/>
<path d="M0 0 C0.61705811 1.0837793 0.61705811 1.0837793 1.24658203 2.18945312 C10.17538371 17.86374539 19.16756356 33.49725344 28.28222656 49.06445312 C31.19360707 54.03978559 34.09631397 59.02017442 37 64 C38.1666262 66.00002361 39.33329284 68.00002362 40.5 70 C61.5 106 82.5 142 103.5 178 C104.07741943 178.98983887 104.65483887 179.97967773 105.24975586 180.99951172 C106.41731728 183.00109211 107.58479764 185.00271977 108.75219727 187.00439453 C111.65451416 191.98060392 114.55819916 196.95600455 117.46484375 201.9296875 C124.15937538 213.38906732 130.81399021 224.87030867 137.43164062 236.37426758 C142.26496549 244.76206833 147.17453406 253.10286629 152.14086914 261.41259766 C152.64996826 262.26772949 153.15906738 263.12286133 153.68359375 264.00390625 C154.13275146 264.75486572 154.58190918 265.5058252 155.04467773 266.27954102 C156 268 156 268 156 269 C25.65 269 -104.7 269 -239 269 C-244.28 259.43 -249.56 249.86 -255 240 C-259.36727556 232.13168535 -263.73600433 224.26427305 -268.11035156 216.39990234 C-269.73769636 213.47194321 -271.36323871 210.54300173 -272.98738098 207.61326599 C-273.98530528 205.81319551 -274.98371202 204.01339326 -275.98217773 202.21362305 C-277.26728611 199.89703089 -278.5502974 197.57931659 -279.83227539 195.26098633 C-282.42198999 190.58768915 -285.01794617 185.92548755 -287.75390625 181.3359375 C-288.14263916 180.68020752 -288.53137207 180.02447754 -288.93188477 179.34887695 C-289.90160322 177.7270644 -290.88741624 176.11490226 -291.875 174.50390625 C-293 172 -293 172 -292.87475586 170.04003906 C-291.61789876 167.10889255 -289.89515945 166.39739833 -287.12890625 164.85546875 C-285.57502197 163.97556274 -285.57502197 163.97556274 -283.98974609 163.07788086 C-282.85875488 162.45405518 -281.72776367 161.83022949 -280.5625 161.1875 C-279.38285211 160.52424292 -278.20398935 159.85958767 -277.02587891 159.19360352 C-274.5741611 157.80912669 -272.11915721 156.43076133 -269.66162109 155.05664062 C-264.03500806 151.9043871 -258.45700001 148.66786917 -252.875 145.4375 C-251.80080811 144.8177832 -250.72661621 144.19806641 -249.61987305 143.55957031 C-238.38949191 137.08040678 -227.19355698 130.54250475 -216 124 C-202.59382119 116.16424334 -189.17079317 108.35962289 -175.71582031 100.60791016 C-164.4520275 94.11500122 -153.22447236 87.56057444 -142 81 C-128.59241282 73.16342017 -115.16840721 65.35721392 -101.71142578 57.60571289 C-94.46078014 53.42672406 -87.22527414 49.2226866 -80 45 C-71.68248149 40.13897005 -63.34789436 35.30867491 -55 30.5 C-46.4268633 25.55985258 -37.86175909 20.60637281 -29.3125 15.625 C-27.82713745 14.76044189 -27.82713745 14.76044189 -26.31176758 13.87841797 C-21.94336319 11.32929262 -17.58834214 8.76383676 -13.2734375 6.125 C-12.57307373 5.69751465 -11.87270996 5.2700293 -11.15112305 4.82958984 C-9.88831491 4.05491679 -8.62903526 3.27444626 -7.37426758 2.48681641 C-4.65762495 0.81720892 -3.25994062 0 0 0 Z " fill="#000000" transform="translate(515,617)"/>
<path d="M0 0 C19.1848875 17.72725783 30.63684331 42.77966461 32.875 68.75 C32.875 70.4 32.875 72.05 32.875 73.75 C4.495 73.75 -23.885 73.75 -53.125 73.75 C-54.115 65.83 -54.115 65.83 -55.125 57.75 C-58.07145293 48.60048828 -62.63492472 41.44327143 -71.125 36.75 C-82.95128095 30.8048966 -93.98333868 29.39404645 -107.09960938 29.43432617 C-109.22579372 29.43746427 -111.35055126 29.41402842 -113.4765625 29.38867188 C-128.352049 29.3188854 -144.37674817 30.68248124 -156.27734375 40.53125 C-161.50170025 45.92128377 -165.05179114 52.79376017 -165.1640625 60.39453125 C-164.24564467 67.03775353 -161.32664146 71.59561082 -156.125 75.75 C-135.59709032 88.83552011 -109.34333107 90.61923413 -85.86328125 94.41015625 C-32.10041996 103.10938189 -32.10041996 103.10938189 -10.125 113.75 C-9.1980835 114.19279297 -9.1980835 114.19279297 -8.25244141 114.64453125 C0.18912861 118.73798009 7.578349 123.88118286 14.875 129.75 C15.98681641 130.62978516 15.98681641 130.62978516 17.12109375 131.52734375 C33.58226158 145.16476349 43.13688635 165.45845987 45.59765625 186.43359375 C48.03986622 215.63692144 40.42342308 244.41724761 21.859375 267.2265625 C12.43807384 278.17289442 1.6208809 286.18205758 -11.125 292.75 C-12.28644531 293.35714844 -13.44789063 293.96429687 -14.64453125 294.58984375 C-61.21340691 318.06203364 -126.24302053 318.04163244 -175.05859375 302.1875 C-194.97272105 295.37967982 -211.79096479 285.18505492 -227.125 270.75 C-227.80175781 270.14929687 -228.47851562 269.54859375 -229.17578125 268.9296875 C-248.38615143 251.14373354 -257.56159235 224.17338541 -260.125 198.75 C-260.125 197.43 -260.125 196.11 -260.125 194.75 C-230.425 194.75 -200.725 194.75 -170.125 194.75 C-169.135 200.36 -168.145 205.97 -167.125 211.75 C-160.75904618 226.56308485 -153.33579271 236.06350997 -138.26123047 242.55224609 C-117.26037549 250.78223757 -93.37636613 251.97054337 -72.37890625 243.2421875 C-60.21805951 237.61337792 -50.70816811 229.87079155 -45.75 217.25 C-44.50249887 210.2639937 -45.80601163 204.91198791 -49.4375 198.91796875 C-62.50654302 182.12787876 -91.81402164 181.11273059 -111.17578125 177.90234375 C-209.18618446 161.64250257 -209.18618446 161.64250257 -233.0703125 130.671875 C-249.21919246 107.70730806 -254.58511923 80.32071275 -250.47265625 52.5546875 C-245.79904458 27.28454678 -230.68960464 4.86186856 -210.125 -10.25 C-190.44525269 -23.6458676 -169.44533547 -31.25850056 -146.125 -35.25 C-145.44663086 -35.36859375 -144.76826172 -35.4871875 -144.06933594 -35.609375 C-94.22505406 -43.85540095 -38.33574558 -34.10062819 0 0 Z " fill="#000000" transform="translate(1948.125,1037.25)"/>
<path d="M0 0 C28.71 0 57.42 0 87 0 C87 112.2 87 224.4 87 340 C58.29 340 29.58 340 0 340 C0 227.8 0 115.6 0 0 Z " fill="#000000" transform="translate(792,999)"/>
<path d="M0 0 C8.8029997 6.7274957 14.64416995 16.05259084 16.6875 26.9375 C17.84145943 40.40036001 15.97126465 51.91649138 7.6875 62.9375 C2.72685736 68.26559765 -2.57278091 72.19813031 -9.3125 74.9375 C-10.22 75.329375 -11.1275 75.72125 -12.0625 76.125 C-24.77164038 79.30228509 -35.95161164 77.86322251 -47.453125 71.6953125 C-58.01186956 65.20428101 -64.92509816 55.8624542 -68.3125 43.9375 C-68.74888802 41.00679582 -68.83781234 38.14776266 -68.8125 35.1875 C-68.80677979 34.4025415 -68.80105957 33.61758301 -68.79516602 32.80883789 C-68.46399921 21.92493488 -63.96042595 12.65967766 -56.3125 4.9375 C-39.83224015 -8.83704555 -18.62954009 -11.81385469 0 0 Z M-51.3125 10.9375 C-58.30615076 20.46440648 -60.2687986 29.21904733 -59.3125 40.9375 C-57.73637266 49.89096288 -53.6187088 58.68953088 -46.375 64.375 C-37.91796171 70.08834266 -28.88654907 72.32099503 -18.7890625 70.4765625 C-9.84520888 68.13740078 -2.35859261 62.73872923 2.6875 54.9375 C7.66803235 44.73775165 9.17026366 33.83185923 5.6875 22.9375 C1.84542773 13.50695898 -3.04793543 6.56140565 -12.3125 1.9375 C-26.29061676 -3.63815048 -41.40751299 -0.22155189 -51.3125 10.9375 Z " fill="#000000" transform="translate(1964.3125,895.0625)"/>
<path d="M0 0 C23 0 23 0 31 6 C33.12793085 10.2558617 33.58913645 13.3672452 33 18 C31.5739359 21.59911415 30.08512658 24.58555311 27 27 C26.34 27 25.68 27 25 27 C25.24234375 27.5347998 25.4846875 28.06959961 25.734375 28.62060547 C26.82677465 31.03701451 27.91344904 33.45595579 29 35.875 C29.3815625 36.71675781 29.763125 37.55851563 30.15625 38.42578125 C30.5171875 39.23144531 30.878125 40.03710938 31.25 40.8671875 C31.58515625 41.61081543 31.9203125 42.35444336 32.265625 43.12060547 C33 45 33 45 33 47 C30.03 47 27.06 47 24 47 C22.65929682 44.39939496 21.32726646 41.79495084 20 39.1875 C19.6184375 38.44951172 19.236875 37.71152344 18.84375 36.95117188 C18.4828125 36.23896484 18.121875 35.52675781 17.75 34.79296875 C17.41484375 34.1383667 17.0796875 33.48376465 16.734375 32.80932617 C16 31 16 31 16 28 C13.36 28 10.72 28 8 28 C8 34.27 8 40.54 8 47 C5.36 47 2.72 47 0 47 C0 31.49 0 15.98 0 0 Z M8 7 C8 11.62 8 16.24 8 21 C15.94305918 21.64266807 15.94305918 21.64266807 23 19 C23.83572001 15.52854767 24.35698727 13.04350124 23.1875 9.625 C22.08014273 7.84911756 22.08014273 7.84911756 20 7 C17.95944995 6.92934383 15.91665743 6.91578024 13.875 6.9375 C11.93625 6.958125 9.9975 6.97875 8 7 Z " fill="#000000" transform="translate(1923,907)"/>
</svg>
