<?xml version="1.0" encoding="UTF-8"?>
<!DOCTYPE svg PUBLIC "-//W3C//DTD SVG 1.1//EN" "http://www.w3.org/Graphics/SVG/1.1/DTD/svg11.dtd">
<svg xmlns="http://www.w3.org/2000/svg" version="1.1" width="5000px" height="5000px" style="shape-rendering:geometricPrecision; text-rendering:geometricPrecision; image-rendering:optimizeQuality; fill-rule:evenodd; clip-rule:evenodd" xmlns:xlink="http://www.w3.org/1999/xlink">
<g><path style="opacity:0.203" fill="#fefefe" d="M -0.5,-0.5 C 1666.17,-0.5 3332.83,-0.5 4999.5,-0.5C 4999.5,1666.17 4999.5,3332.83 4999.5,4999.5C 3332.83,4999.5 1666.17,4999.5 -0.5,4999.5C -0.5,3332.83 -0.5,1666.17 -0.5,-0.5 Z"/></g>
<g><path style="opacity:1" fill="#c1252b" d="M 2750.5,2507.5 C 2750.93,2510.01 2751.59,2512.34 2752.5,2514.5C 2760.43,2569.52 2760.43,2624.52 2752.5,2679.5C 2751.54,2681.26 2751.21,2683.26 2751.5,2685.5C 2743.29,2718.1 2737.62,2751.27 2734.5,2785C 2734.48,2800.07 2737.32,2814.57 2743,2828.5C 2745.33,2832.32 2747.83,2835.99 2750.5,2839.5C 2750.83,2840.5 2751.5,2841.17 2752.5,2841.5C 2758.18,2848.18 2764.84,2853.68 2772.5,2858C 2781.72,2861.31 2791.05,2864.31 2800.5,2867C 2806.2,2869.69 2811.03,2873.52 2815,2878.5C 2818.94,2886.05 2822.61,2893.71 2826,2901.5C 2830.38,2919.01 2835.38,2936.34 2841,2953.5C 2843.33,2958.83 2845.67,2964.17 2848,2969.5C 2887.68,3000.26 2929.18,3028.43 2972.5,3054C 2999.69,3069.76 3027.35,3084.76 3055.5,3099C 3066.75,3103.79 3078.08,3108.29 3089.5,3112.5C 3091.55,3112.96 3093.55,3113.63 3095.5,3114.5C 3093.94,3144.22 3105.28,3167.38 3129.5,3184C 3137.18,3188.84 3145.18,3193.18 3153.5,3197C 3184.25,3207.54 3213.92,3220.54 3242.5,3236C 3259.83,3250 3277.17,3264 3294.5,3278C 3334.35,3306.84 3375.01,3334.51 3416.5,3361C 3489.17,3421.67 3561.83,3482.33 3634.5,3543C 3656.82,3563.97 3675.32,3587.81 3690,3614.5C 3718.9,3641.47 3751.06,3645.97 3786.5,3628C 3795.83,3620.67 3805.17,3613.33 3814.5,3606C 3816.92,3605.31 3819.09,3605.81 3821,3607.5C 3821.98,3610.24 3822.48,3613.07 3822.5,3616C 3820.13,3632.43 3818.97,3648.93 3819,3665.5C 3826.03,3675.96 3835.53,3683.46 3847.5,3688C 3873.27,3697.19 3899.27,3697.85 3925.5,3690C 3928.66,3688.59 3931.66,3686.92 3934.5,3685C 3945.97,3674.42 3958.97,3666.09 3973.5,3660C 4002.04,3646.64 4032.04,3640.97 4063.5,3643C 4072.97,3644.15 4081.14,3647.99 4088,3654.5C 4090.88,3658.79 4091.88,3663.46 4091,3668.5C 4088.48,3676.54 4085.15,3684.2 4081,3691.5C 4068,3709.84 4053.5,3727.01 4037.5,3743C 3996.32,3778.93 3951.65,3809.93 3903.5,3836C 3867.65,3860.84 3832.65,3886.84 3798.5,3914C 3783.18,3924.33 3766.35,3930.5 3748,3932.5C 3742.43,3933.04 3737.27,3931.87 3732.5,3929C 3727.08,3925.58 3722.24,3921.41 3718,3916.5C 3681.8,3831.31 3624.97,3763.48 3547.5,3713C 3442.75,3657.66 3343.41,3594.32 3249.5,3523C 3225.5,3503.67 3201.5,3484.33 3177.5,3465C 3107.28,3413.07 3028.95,3379.41 2942.5,3364C 2819.56,3329.69 2700.9,3284.36 2586.5,3228C 2558.07,3215.97 2528.74,3206.97 2498.5,3201C 2445.64,3197.64 2395.64,3207.97 2348.5,3232C 2284.11,3271.2 2218.11,3307.87 2150.5,3342C 2091.04,3362.89 2035.38,3390.89 1983.5,3426C 1927.53,3467 1868.87,3504 1807.5,3537C 1770.8,3555.02 1734.14,3573.02 1697.5,3591C 1659.77,3617.38 1623.77,3646.05 1589.5,3677C 1573.9,3688.97 1556.9,3698.64 1538.5,3706C 1457.05,3726.83 1393.55,3772.33 1348,3842.5C 1328.48,3866.36 1304.65,3884.52 1276.5,3897C 1219.52,3924.11 1159.52,3937.77 1096.5,3938C 1075.05,3935.14 1054.38,3929.47 1034.5,3921C 990.805,3899.11 972.305,3863.94 979,3815.5C 986.238,3798.27 998.738,3786.43 1016.5,3780C 1034.51,3773 1053.18,3768.66 1072.5,3767C 1099.19,3763.83 1125.86,3760.5 1152.5,3757C 1177.96,3750.7 1198.13,3736.87 1213,3715.5C 1234.01,3684.8 1246.51,3650.96 1250.5,3614C 1252.26,3613.2 1253.93,3613.37 1255.5,3614.5C 1262.9,3628.48 1272.57,3640.64 1284.5,3651C 1288.17,3651.67 1291.83,3651.67 1295.5,3651C 1315.66,3646.09 1333.32,3636.76 1348.5,3623C 1357.02,3615.9 1365.35,3608.57 1373.5,3601C 1463.35,3497.76 1567.35,3412.43 1685.5,3345C 1709.85,3331.82 1734.52,3319.16 1759.5,3307C 1831.68,3276.44 1896.68,3235.11 1954.5,3183C 1973.87,3164.46 1988.2,3142.63 1997.5,3117.5C 2000.44,3110.86 2003.11,3104.02 2005.5,3097C 2058.36,3076.94 2103.36,3045.78 2140.5,3003.5C 2149.35,2993.48 2157.68,2982.98 2165.5,2972C 2194.38,2972.45 2214.22,2959.28 2225,2932.5C 2227.4,2926.64 2229.4,2920.64 2231,2914.5C 2236.07,2883.69 2239.41,2852.69 2241,2821.5C 2244.54,2811.29 2251.04,2803.45 2260.5,2798C 2276.17,2789.67 2291.83,2781.33 2307.5,2773C 2311.33,2769.17 2315.17,2765.33 2319,2761.5C 2320.91,2757.74 2321.75,2753.74 2321.5,2749.5C 2311.94,2698.66 2296.44,2649.66 2275,2602.5C 2261.35,2576.18 2243.85,2552.68 2222.5,2532C 2212.89,2528.4 2203.89,2529.74 2195.5,2536C 2167.34,2557.17 2150.34,2585.17 2144.5,2620C 2145.98,2624.75 2146.81,2629.59 2147,2634.5C 2140.34,2643.99 2133.5,2653.33 2126.5,2662.5C 2118.37,2670.8 2110.37,2679.3 2102.5,2688C 2068.8,2715.53 2036.46,2744.7 2005.5,2775.5C 1999.54,2776.5 1993.54,2776.83 1987.5,2776.5C 1984.7,2775.36 1981.7,2775.2 1978.5,2776C 1976,2778.5 1973.5,2781 1971,2783.5C 1970.5,2804.5 1970.33,2825.5 1970.5,2846.5C 1954.97,2843.52 1943.8,2849.18 1937,2863.5C 1930.13,2878.89 1926.97,2895.06 1927.5,2912C 1927.61,2927.95 1931.11,2943.12 1938,2957.5C 1942.26,2963.76 1947.76,2968.6 1954.5,2972C 1958.82,2972.5 1963.15,2972.67 1967.5,2972.5C 1969.49,2989.47 1970.15,3006.8 1969.5,3024.5C 1941.98,3021.28 1914.65,3016.95 1887.5,3011.5C 1853.07,3003.63 1826.41,3014.29 1807.5,3043.5C 1801.85,3038.34 1795.52,3034.17 1788.5,3031C 1774.06,3025.13 1759.4,3019.97 1744.5,3015.5C 1729.07,3009.85 1713.73,3003.68 1698.5,2997C 1695.04,2994.54 1691.87,2991.7 1689,2988.5C 1687.21,2984.31 1685.88,2979.97 1685,2975.5C 1683.58,2974.54 1682.08,2973.71 1680.5,2973C 1671.61,2971.21 1662.61,2970.21 1653.5,2970C 1637.83,2969.67 1622.17,2969.33 1606.5,2969C 1602.9,2968.85 1599.57,2967.85 1596.5,2966C 1593.81,2963.35 1592.97,2960.18 1594,2956.5C 1602.67,2943.54 1614.84,2935.71 1630.5,2933C 1650.75,2930.38 1671.08,2929.05 1691.5,2929C 1700.79,2927.24 1709.46,2923.9 1717.5,2919C 1726.91,2913.3 1735.91,2907.14 1744.5,2900.5C 1769.75,2881.09 1790.58,2857.75 1807,2830.5C 1839.59,2802.42 1866.43,2769.75 1887.5,2732.5C 1888.4,2731.71 1889.07,2730.71 1889.5,2729.5C 1898.35,2715.13 1906.68,2700.46 1914.5,2685.5C 1939.01,2645.47 1964.18,2605.81 1990,2566.5C 2015.37,2536.09 2038.04,2503.76 2058,2469.5C 2081.99,2419.51 2108.49,2371.18 2137.5,2324.5C 2152.77,2301.47 2168.44,2278.64 2184.5,2256C 2204.12,2256.01 2223.12,2252.67 2241.5,2246C 2256.77,2238.47 2264.44,2226.14 2264.5,2209C 2263.3,2195.05 2260.14,2181.55 2255,2168.5C 2240.08,2139.66 2225.41,2110.66 2211,2081.5C 2200.42,2054.27 2202.76,2028.27 2218,2003.5C 2251.21,1952.63 2298.04,1923.13 2358.5,1915C 2382.1,1913.87 2403.44,1920.2 2422.5,1934C 2448.2,1958.04 2474.2,1981.7 2500.5,2005C 2509.84,2011.68 2520.17,2015.51 2531.5,2016.5C 2535.26,2016.54 2538.92,2016.04 2542.5,2015C 2572.87,1998.29 2594.37,1973.79 2607,1941.5C 2628.83,1878 2644.5,1813 2654,1746.5C 2660.35,1718.1 2669.02,1690.43 2680,1663.5C 2696.78,1629.28 2710.78,1593.95 2722,1557.5C 2730.17,1528.68 2735.83,1499.34 2739,1469.5C 2741.06,1439.54 2736.73,1410.54 2726,1382.5C 2707.77,1343.15 2693.11,1302.48 2682,1260.5C 2672.94,1195.67 2692.11,1140.83 2739.5,1096C 2763.19,1075.33 2790.85,1063.67 2822.5,1061C 2864.13,1058.15 2901.8,1068.82 2935.5,1093C 2944.8,1100.63 2953.8,1108.63 2962.5,1117C 3005.89,1159.51 3021.72,1210.67 3010,1270.5C 2999.98,1309.07 2979.15,1340.23 2947.5,1364C 2929.12,1373.57 2909.78,1380.57 2889.5,1385C 2879.23,1388.37 2870.4,1393.87 2863,1401.5C 2859.9,1406.27 2857.23,1411.27 2855,1416.5C 2838.17,1461.99 2828.5,1508.99 2826,1557.5C 2828.05,1618.82 2822.72,1679.49 2810,1739.5C 2807.51,1752.49 2803.84,1765.15 2799,1777.5C 2790.27,1796.62 2781.27,1815.62 2772,1834.5C 2754.31,1876.25 2742.31,1919.58 2736,1964.5C 2730.23,2041.37 2715.23,2116.37 2691,2189.5C 2680.83,2231.13 2678.83,2273.13 2685,2315.5C 2687.14,2322.24 2689.47,2328.91 2692,2335.5C 2720.92,2389.66 2740.42,2446.99 2750.5,2507.5 Z"/></g>
<g><path style="opacity:1" fill="#000000" d="M 1099.5,1983.5 C 1129.27,1981.87 1157.27,1988.03 1183.5,2002C 1214.09,2025.67 1236.59,2055.5 1251,2091.5C 1267.34,2134.18 1278.67,2178.18 1285,2223.5C 1295.25,2311.53 1300.58,2399.86 1301,2488.5C 1303.03,2640.74 1298.03,2792.74 1286,2944.5C 1280.13,2999.98 1266.13,3053.32 1244,3104.5C 1232.38,3130.92 1215.54,3153.42 1193.5,3172C 1190.28,3174.1 1187.28,3176.44 1184.5,3179C 1139.39,3202.54 1093.39,3204.54 1046.5,3185C 1025.19,3173.02 1007.69,3156.86 994,3136.5C 983.915,3122.33 975.915,3107 970,3090.5C 952.837,3046.18 940.837,3000.51 934,2953.5C 930.137,2916.22 926.803,2878.89 924,2841.5C 922.308,2798.5 920.641,2755.5 919,2712.5C 918.085,2614.83 918.418,2517.16 920,2419.5C 922.956,2361.76 926.956,2304.09 932,2246.5C 937.182,2190.44 950.515,2136.44 972,2084.5C 986.292,2052.38 1007.13,2025.38 1034.5,2003.5C 1055,1992.63 1076.67,1985.96 1099.5,1983.5 Z"/></g>
<g><path style="opacity:1" fill="#515151" d="M 444.5,2135.5 C 444.5,2093.83 444.5,2052.17 444.5,2010.5C 387.5,2010.5 330.5,2010.5 273.5,2010.5C 273.5,2259.5 273.5,2508.5 273.5,2757.5C 272.5,2508.33 272.167,2259 272.5,2009.5C 330.167,2009.5 387.833,2009.5 445.5,2009.5C 445.832,2051.67 445.499,2093.67 444.5,2135.5 Z"/></g>
<g><path style="opacity:1" fill="#3f3f3f" d="M 3938.5,2010.5 C 3877.43,2010.17 3816.43,2010.5 3755.5,2011.5C 3785.66,2010.17 3816.16,2009.5 3847,2009.5C 3877.67,2009.5 3908.17,2009.83 3938.5,2010.5 Z"/></g>
<g><path style="opacity:1" fill="#5a5a5a" d="M 4762.5,3170.5 C 4816.83,3170.5 4871.17,3170.5 4925.5,3170.5C 4925.5,2783.83 4925.5,2397.17 4925.5,2010.5C 4872.83,2010.5 4820.17,2010.5 4767.5,2010.5C 4767.5,2039.5 4767.5,2068.5 4767.5,2097.5C 4766.5,2068.34 4766.17,2039 4766.5,2009.5C 4819.83,2009.5 4873.17,2009.5 4926.5,2009.5C 4926.5,2396.83 4926.5,2784.17 4926.5,3171.5C 4871.66,3171.83 4817,3171.5 4762.5,3170.5 Z"/></g>
<g><path style="opacity:1" fill="#000000" d="M 444.5,2135.5 C 444.362,2410.83 443.862,2686.17 443,2961.5C 441.292,2999.75 434.625,3037.09 423,3073.5C 390.374,3164.25 325.874,3205.08 229.5,3196C 180.718,3188.5 143.885,3163.67 119,3121.5C 94.7951,3078.7 80.7951,3032.7 77,2983.5C 75.6035,2972.2 74.6035,2960.87 74,2949.5C 73.5,2889.17 73.3333,2828.83 73.5,2768.5C 127.833,2768.5 182.167,2768.5 236.5,2768.5C 236.038,2830.19 236.538,2891.85 238,2953.5C 239.042,2963.29 241.708,2972.63 246,2981.5C 250.981,2987.35 256.647,2988.02 263,2983.5C 264.711,2981.04 266.044,2978.38 267,2975.5C 268.893,2966.25 270.227,2956.91 271,2947.5C 272.9,2884.18 273.733,2820.85 273.5,2757.5C 273.5,2508.5 273.5,2259.5 273.5,2010.5C 330.5,2010.5 387.5,2010.5 444.5,2010.5C 444.5,2052.17 444.5,2093.83 444.5,2135.5 Z"/></g>
<g><path style="opacity:1" fill="#000000" d="M 2137.5,2324.5 C 2108.49,2371.18 2081.99,2419.51 2058,2469.5C 2038.04,2503.76 2015.37,2536.09 1990,2566.5C 1964.18,2605.81 1939.01,2645.47 1914.5,2685.5C 1910.17,2685.5 1905.83,2685.5 1901.5,2685.5C 1897.03,2684.51 1892.36,2684.18 1887.5,2684.5C 1887.5,2700.5 1887.5,2716.5 1887.5,2732.5C 1866.43,2769.75 1839.59,2802.42 1807,2830.5C 1790.58,2857.75 1769.75,2881.09 1744.5,2900.5C 1744.5,2603.5 1744.5,2306.5 1744.5,2009.5C 1820.83,2009.33 1897.17,2009.5 1973.5,2010C 2016.94,2013.63 2052.44,2032.13 2080,2065.5C 2093.45,2083.05 2103.78,2102.39 2111,2123.5C 2118.2,2142.32 2123.54,2161.65 2127,2181.5C 2134.4,2228.87 2137.9,2276.54 2137.5,2324.5 Z"/></g>
<g><path style="opacity:1" fill="#b9b9b9" d="M 2752.5,2009.5 C 2752.5,2177.83 2752.5,2346.17 2752.5,2514.5C 2751.59,2512.34 2750.93,2510.01 2750.5,2507.5C 2751.17,2341.5 2751.83,2175.5 2752.5,2009.5 Z"/></g>
<g><path style="opacity:1" fill="#000000" d="M 2752.5,2009.5 C 2824.5,2009.33 2896.5,2009.5 2968.5,2010C 2990.43,2011.48 3011.77,2015.82 3032.5,2023C 3070.17,2042 3097.67,2070.84 3115,2109.5C 3134.71,2155.99 3147.71,2204.33 3154,2254.5C 3159.11,2287.97 3162.11,2321.64 3163,2355.5C 3166.83,2511.85 3166.16,2668.19 3161,2824.5C 3155.81,2894.83 3144.48,2964.17 3127,3032.5C 3119,3061.48 3106.5,3088.15 3089.5,3112.5C 3078.08,3108.29 3066.75,3103.79 3055.5,3099C 3027.35,3084.76 2999.69,3069.76 2972.5,3054C 2929.18,3028.43 2887.68,3000.26 2848,2969.5C 2845.67,2964.17 2843.33,2958.83 2841,2953.5C 2835.38,2936.34 2830.38,2919.01 2826,2901.5C 2822.61,2893.71 2818.94,2886.05 2815,2878.5C 2811.03,2873.52 2806.2,2869.69 2800.5,2867C 2791.05,2864.31 2781.72,2861.31 2772.5,2858C 2764.84,2853.68 2758.18,2848.18 2752.5,2841.5C 2752.5,2787.5 2752.5,2733.5 2752.5,2679.5C 2760.43,2624.52 2760.43,2569.52 2752.5,2514.5C 2752.5,2346.17 2752.5,2177.83 2752.5,2009.5 Z"/></g>
<g><path style="opacity:1" fill="#000000" d="M 3938.5,2010.5 C 3984.91,2396.12 4030.91,2781.78 4076.5,3167.5C 4076.5,3168.5 4076.5,3169.5 4076.5,3170.5C 4023.17,3170.5 3969.83,3170.5 3916.5,3170.5C 3907.7,3078.15 3898.7,2985.82 3889.5,2893.5C 3859.83,2893.5 3830.17,2893.5 3800.5,2893.5C 3791.42,2985.82 3782.42,3078.15 3773.5,3170.5C 3722.5,3170.5 3671.5,3170.5 3620.5,3170.5C 3620.5,3168.83 3620.5,3167.17 3620.5,3165.5C 3665.06,2780.79 3710.06,2396.12 3755.5,2011.5C 3816.43,2010.5 3877.43,2010.17 3938.5,2010.5 Z"/></g>
<g><path style="opacity:1" fill="#000000" d="M 4643.5,2010.5 C 4684.63,2200.13 4725.63,2389.79 4766.5,2579.5C 4766.89,2581.18 4767.39,2582.85 4768,2584.5C 4768.83,2541.33 4768.66,2498.33 4767.5,2455.5C 4767.5,2336.17 4767.5,2216.83 4767.5,2097.5C 4767.5,2068.5 4767.5,2039.5 4767.5,2010.5C 4820.17,2010.5 4872.83,2010.5 4925.5,2010.5C 4925.5,2397.17 4925.5,2783.83 4925.5,3170.5C 4871.17,3170.5 4816.83,3170.5 4762.5,3170.5C 4720.86,2979.45 4679.02,2788.45 4637,2597.5C 4637.6,2758.5 4638.1,2919.5 4638.5,3080.5C 4638.5,3110.5 4638.5,3140.5 4638.5,3170.5C 4585.83,3170.5 4533.17,3170.5 4480.5,3170.5C 4480.5,2783.83 4480.5,2397.17 4480.5,2010.5C 4534.83,2010.5 4589.17,2010.5 4643.5,2010.5 Z"/></g>
<g><path style="opacity:1" fill="#fefefe" d="M 1103.5,2200.5 C 1121.86,2200.43 1134.03,2209.1 1140,2226.5C 1149.42,2259.18 1155.09,2292.52 1157,2326.5C 1161.78,2480.14 1162.78,2633.81 1160,2787.5C 1158.35,2830.3 1155.01,2872.97 1150,2915.5C 1147.41,2933.89 1141.74,2951.23 1133,2967.5C 1125.58,2977.81 1115.75,2981.31 1103.5,2978C 1100.17,2976.67 1096.83,2975.33 1093.5,2974C 1086.65,2965.48 1081.49,2955.98 1078,2945.5C 1068.33,2910.5 1063.33,2874.83 1063,2838.5C 1060.49,2791.2 1058.82,2743.86 1058,2696.5C 1056.66,2580.81 1057.66,2465.14 1061,2349.5C 1063.4,2313.52 1068.07,2277.86 1075,2242.5C 1078.42,2227.48 1085.59,2214.65 1096.5,2204C 1098.93,2202.79 1101.26,2201.62 1103.5,2200.5 Z"/></g>
<g><path style="opacity:1" fill="#c5c5c5" d="M 1929.5,2217.5 C 1915.83,2217.5 1902.17,2217.5 1888.5,2217.5C 1888.5,2304.5 1888.5,2391.5 1888.5,2478.5C 1904.17,2478.5 1919.83,2478.5 1935.5,2478.5C 1919.68,2479.5 1903.68,2479.83 1887.5,2479.5C 1887.5,2391.83 1887.5,2304.17 1887.5,2216.5C 1901.68,2216.17 1915.68,2216.5 1929.5,2217.5 Z"/></g>
<g><path style="opacity:1" fill="#fefefe" d="M 1929.5,2217.5 C 1944.96,2218.04 1958.46,2223.37 1970,2233.5C 1978.09,2246.42 1983.42,2260.42 1986,2275.5C 1990.83,2323.52 1990.49,2371.52 1985,2419.5C 1982.68,2433.8 1978.34,2447.46 1972,2460.5C 1969.54,2463.96 1966.7,2467.13 1963.5,2470C 1954.53,2474.16 1945.19,2476.99 1935.5,2478.5C 1919.83,2478.5 1904.17,2478.5 1888.5,2478.5C 1888.5,2391.5 1888.5,2304.5 1888.5,2217.5C 1902.17,2217.5 1915.83,2217.5 1929.5,2217.5 Z"/></g>
<g><path style="opacity:1" fill="#fdfdfd" d="M 2902.5,2224.5 C 2921.94,2224.01 2941.27,2225.17 2960.5,2228C 2968.63,2230.13 2975.13,2234.63 2980,2241.5C 2994.13,2274.37 3002.47,2308.7 3005,2344.5C 3012.56,2474.4 3014.56,2604.4 3011,2734.5C 3009.73,2773.93 3007.06,2813.26 3003,2852.5C 2999.06,2878.99 2993.06,2904.99 2985,2930.5C 2980.77,2941.73 2972.94,2949.23 2961.5,2953C 2941.88,2954.29 2922.21,2955.12 2902.5,2955.5C 2902.5,2711.83 2902.5,2468.17 2902.5,2224.5 Z"/></g>
<g><path style="opacity:1" fill="#efeff0" d="M 1486.5,2427.5 C 1501.74,2427.18 1516.91,2427.51 1532,2428.5C 1559.64,2498.43 1587.48,2568.26 1615.5,2638C 1599.84,2638.5 1584.17,2638.67 1568.5,2638.5C 1563.33,2622.5 1557.66,2606.66 1551.5,2591C 1523.17,2590.33 1494.83,2590.33 1466.5,2591C 1460.3,2606.59 1454.3,2622.26 1448.5,2638C 1433.84,2638.5 1419.17,2638.67 1404.5,2638.5C 1431.44,2568.02 1458.77,2497.68 1486.5,2427.5 Z"/></g>
<g><path style="opacity:1" fill="#eee9ea" d="M 2463.5,2435.5 C 2477.83,2435.5 2492.17,2435.5 2506.5,2435.5C 2506.67,2505.83 2506.5,2576.17 2506,2646.5C 2499.08,2647.16 2492.08,2647.49 2485,2647.5C 2477.92,2647.49 2470.92,2647.16 2464,2646.5C 2463.5,2576.17 2463.33,2505.83 2463.5,2435.5 Z"/></g>
<g><path style="opacity:1" fill="#efeff0" d="M 3343.5,2458.5 C 3381.5,2458.33 3419.5,2458.5 3457.5,2459C 3499.74,2462.92 3519.24,2486.08 3516,2528.5C 3512.21,2548.29 3501.04,2562.12 3482.5,2570C 3475.65,2572.73 3468.65,2575.06 3461.5,2577C 3473.15,2583.32 3482.99,2591.82 3491,2602.5C 3505.36,2624.03 3519.53,2645.7 3533.5,2667.5C 3516.17,2668.83 3498.83,2668.83 3481.5,2667.5C 3466.5,2646.18 3452,2624.51 3438,2602.5C 3431.64,2593.47 3423.47,2586.63 3413.5,2582C 3404.51,2581.5 3395.51,2581.33 3386.5,2581.5C 3386.5,2610.5 3386.5,2639.5 3386.5,2668.5C 3372.17,2668.5 3357.83,2668.5 3343.5,2668.5C 3343.5,2598.5 3343.5,2528.5 3343.5,2458.5 Z"/></g>
<g><path style="opacity:1" fill="#585858" d="M 3846.5,2460.5 C 3845.83,2460.83 3845.17,2461.17 3844.5,2461.5C 3845.09,2455.85 3845.75,2455.52 3846.5,2460.5 Z"/></g>
<g><path style="opacity:1" fill="#f8f8f8" d="M 3846.5,2460.5 C 3853.43,2529.14 3860.1,2597.81 3866.5,2666.5C 3866.5,2668.5 3866.5,2670.5 3866.5,2672.5C 3852.5,2672.5 3838.5,2672.5 3824.5,2672.5C 3824.5,2671.17 3824.5,2669.83 3824.5,2668.5C 3830.97,2599.48 3837.64,2530.48 3844.5,2461.5C 3845.17,2461.17 3845.83,2460.83 3846.5,2460.5 Z"/></g>
<g><path style="opacity:1" fill="#fefefe" d="M 1507.5,2476.5 C 1517.57,2502.21 1527.57,2528.04 1537.5,2554C 1518.16,2554.83 1498.82,2554.67 1479.5,2553.5C 1489.24,2527.95 1498.57,2502.28 1507.5,2476.5 Z"/></g>
<g><path style="opacity:1" fill="#fefefe" d="M 3386.5,2493.5 C 3406.17,2493.33 3425.84,2493.5 3445.5,2494C 3457.94,2493.63 3466.44,2499.13 3471,2510.5C 3475.26,2526.11 3470.43,2537.61 3456.5,2545C 3453.04,2545.18 3449.71,2545.85 3446.5,2547C 3426.5,2547.5 3406.5,2547.67 3386.5,2547.5C 3386.5,2529.5 3386.5,2511.5 3386.5,2493.5 Z"/></g>
<g><path style="opacity:1" fill="#6f6f6f" d="M 4767.5,2455.5 C 4768.66,2498.33 4768.83,2541.33 4768,2584.5C 4767.39,2582.85 4766.89,2581.18 4766.5,2579.5C 4767.5,2538.34 4767.83,2497 4767.5,2455.5 Z"/></g>
<g><path style="opacity:1" fill="#fefefe" d="M 2140.5,3003.5 C 2138.74,2918.83 2136.91,2834.17 2135,2749.5C 2133.76,2720.33 2130.92,2691.33 2126.5,2662.5C 2133.5,2653.33 2140.34,2643.99 2147,2634.5C 2146.81,2629.59 2145.98,2624.75 2144.5,2620C 2150.34,2585.17 2167.34,2557.17 2195.5,2536C 2203.89,2529.74 2212.89,2528.4 2222.5,2532C 2243.85,2552.68 2261.35,2576.18 2275,2602.5C 2296.44,2649.66 2311.94,2698.66 2321.5,2749.5C 2321.75,2753.74 2320.91,2757.74 2319,2761.5C 2315.17,2765.33 2311.33,2769.17 2307.5,2773C 2291.83,2781.33 2276.17,2789.67 2260.5,2798C 2251.04,2803.45 2244.54,2811.29 2241,2821.5C 2239.41,2852.69 2236.07,2883.69 2231,2914.5C 2229.4,2920.64 2227.4,2926.64 2225,2932.5C 2214.22,2959.28 2194.38,2972.45 2165.5,2972C 2157.68,2982.98 2149.35,2993.48 2140.5,3003.5 Z"/></g>
<g><path style="opacity:1" fill="#6e6e6e" d="M 4643.5,2010.5 C 4589.17,2010.5 4534.83,2010.5 4480.5,2010.5C 4480.5,2397.17 4480.5,2783.83 4480.5,3170.5C 4480.5,3170.83 4480.5,3171.17 4480.5,3171.5C 4479.5,2784.33 4479.17,2397 4479.5,2009.5C 4534.34,2009.17 4589,2009.5 4643.5,2010.5 Z"/></g>
<g><path style="opacity:1" fill="#000000" d="M 2126.5,2662.5 C 2130.92,2691.33 2133.76,2720.33 2135,2749.5C 2136.91,2834.17 2138.74,2918.83 2140.5,3003.5C 2103.36,3045.78 2058.36,3076.94 2005.5,3097C 2003.11,3104.02 2000.44,3110.86 1997.5,3117.5C 1994.5,3086.59 1992.66,3055.59 1992,3024.5C 1990.86,2947.17 1989.86,2869.84 1989,2792.5C 1988.32,2787.18 1987.82,2781.84 1987.5,2776.5C 1993.54,2776.83 1999.54,2776.5 2005.5,2775.5C 2036.46,2744.7 2068.8,2715.53 2102.5,2688C 2110.37,2679.3 2118.37,2670.8 2126.5,2662.5 Z"/></g>
<g><path style="opacity:1" fill="#999999" d="M 3866.5,2666.5 C 3867.47,2668.61 3867.8,2670.94 3867.5,2673.5C 3852.83,2673.5 3838.17,2673.5 3823.5,2673.5C 3823.22,2671.59 3823.55,2669.92 3824.5,2668.5C 3824.5,2669.83 3824.5,2671.17 3824.5,2672.5C 3838.5,2672.5 3852.5,2672.5 3866.5,2672.5C 3866.5,2670.5 3866.5,2668.5 3866.5,2666.5 Z"/></g>
<g><path style="opacity:1" fill="#b9b7b7" d="M 2752.5,2679.5 C 2752.5,2733.5 2752.5,2787.5 2752.5,2841.5C 2751.5,2841.17 2750.83,2840.5 2750.5,2839.5C 2751.5,2788.34 2751.83,2737 2751.5,2685.5C 2751.21,2683.26 2751.54,2681.26 2752.5,2679.5 Z"/></g>
<g><path style="opacity:1" fill="#d4d3d3" d="M 1901.5,2685.5 C 1897.17,2685.5 1892.83,2685.5 1888.5,2685.5C 1888.17,2700.34 1888.5,2715.01 1889.5,2729.5C 1889.07,2730.71 1888.4,2731.71 1887.5,2732.5C 1887.5,2716.5 1887.5,2700.5 1887.5,2684.5C 1892.36,2684.18 1897.03,2684.51 1901.5,2685.5 Z"/></g>
<g><path style="opacity:1" fill="#fefcfc" d="M 1901.5,2685.5 C 1905.83,2685.5 1910.17,2685.5 1914.5,2685.5C 1906.68,2700.46 1898.35,2715.13 1889.5,2729.5C 1888.5,2715.01 1888.17,2700.34 1888.5,2685.5C 1892.83,2685.5 1897.17,2685.5 1901.5,2685.5 Z"/></g>
<g><path style="opacity:1" fill="#fefbfb" d="M 2751.5,2685.5 C 2751.83,2737 2751.5,2788.34 2750.5,2839.5C 2747.83,2835.99 2745.33,2832.32 2743,2828.5C 2737.32,2814.57 2734.48,2800.07 2734.5,2785C 2737.62,2751.27 2743.29,2718.1 2751.5,2685.5 Z"/></g>
<g><path style="opacity:1" fill="#d77276" d="M 1967.5,2972.5 C 1968.21,2971.6 1969.21,2971.26 1970.5,2971.5C 1970.83,2989.34 1970.5,3007.01 1969.5,3024.5C 1970.15,3006.8 1969.49,2989.47 1967.5,2972.5 Z"/></g>
<g><path style="opacity:1" fill="#000000" d="M 1887.5,3011.5 C 1887.5,3064.83 1887.5,3118.17 1887.5,3171.5C 1839.83,3171.5 1792.17,3171.5 1744.5,3171.5C 1744.5,3119.5 1744.5,3067.5 1744.5,3015.5C 1759.4,3019.97 1774.06,3025.13 1788.5,3031C 1795.52,3034.17 1801.85,3038.34 1807.5,3043.5C 1826.41,3014.29 1853.07,3003.63 1887.5,3011.5 Z"/></g>
<g><path style="opacity:1" fill="#414141" d="M 3620.5,3165.5 C 3620.5,3167.17 3620.5,3168.83 3620.5,3170.5C 3671.5,3170.5 3722.5,3170.5 3773.5,3170.5C 3722.34,3171.5 3671,3171.83 3619.5,3171.5C 3619.21,3169.26 3619.54,3167.26 3620.5,3165.5 Z"/></g>
<g><path style="opacity:1" fill="#404040" d="M 4076.5,3167.5 C 4077.43,3168.57 4077.77,3169.9 4077.5,3171.5C 4023.66,3171.83 3970,3171.5 3916.5,3170.5C 3969.83,3170.5 4023.17,3170.5 4076.5,3170.5C 4076.5,3169.5 4076.5,3168.5 4076.5,3167.5 Z"/></g>
<g><path style="opacity:1" fill="#515151" d="M 4638.5,3080.5 C 4639.5,3110.66 4639.83,3141 4639.5,3171.5C 4586.5,3171.5 4533.5,3171.5 4480.5,3171.5C 4480.5,3171.17 4480.5,3170.83 4480.5,3170.5C 4533.17,3170.5 4585.83,3170.5 4638.5,3170.5C 4638.5,3140.5 4638.5,3110.5 4638.5,3080.5 Z"/></g>
</svg>
