<?xml version="1.0" encoding="UTF-8"?>
<!DOCTYPE svg PUBLIC "-//W3C//DTD SVG 1.1//EN" "http://www.w3.org/Graphics/SVG/1.1/DTD/svg11.dtd">
<svg xmlns="http://www.w3.org/2000/svg" version="1.1" width="5000px" height="1567px" style="shape-rendering:geometricPrecision; text-rendering:geometricPrecision; image-rendering:optimizeQuality; fill-rule:evenodd; clip-rule:evenodd" xmlns:xlink="http://www.w3.org/1999/xlink">
<g><path style="opacity:0.998" fill="#005e8c" d="M 2179.5,-0.5 C 2179.83,-0.5 2180.17,-0.5 2180.5,-0.5C 2180.83,0.833333 2181.17,0.833333 2181.5,-0.5C 2337.83,-0.5 2494.17,-0.5 2650.5,-0.5C 2814.7,12.8232 2945.2,85.4898 3042,217.5C 3098.54,298.776 3128.54,389.109 3132,488.5C 3132.67,682.167 3132.67,875.833 3132,1069.5C 3125.2,1211.58 3070.03,1330.74 2966.5,1427C 2876.3,1506.99 2770.63,1550.99 2649.5,1559C 2493.83,1559.67 2338.17,1559.67 2182.5,1559C 2032.36,1548.01 1908.86,1485.51 1812,1371.5C 1744.75,1288.26 1707.41,1192.93 1700,1085.5C 1699.33,881.167 1699.33,676.833 1700,472.5C 1713.78,313.041 1784.95,186.541 1913.5,93C 1993.57,37.6971 2082.24,6.53044 2179.5,-0.5 Z M 2314.5,353.5 C 2376.33,353.502 2438.17,353.502 2500,353.5C 2552.76,357.072 2597.93,377.238 2635.5,414C 2678.23,457.957 2704.73,510.457 2715,571.5C 2717.81,588.051 2719.47,604.718 2720,621.5C 2720.5,735.54 2720.66,849.374 2720.5,963C 2719.75,1017.83 2705.25,1068.66 2677,1115.5C 2636.72,1175.16 2580.38,1206.82 2508,1210.5C 2446.33,1210.5 2384.67,1210.5 2323,1210.5C 2231.82,1203.98 2168.49,1158.65 2133,1074.5C 2120.95,1043.62 2113.95,1011.62 2112,978.5C 2111.33,854.167 2111.33,729.833 2112,605.5C 2114.74,551.625 2129.41,501.292 2156,454.5C 2178.2,416.633 2209.03,388.133 2248.5,369C 2269.75,360.019 2291.75,354.853 2314.5,353.5 Z"/></g>
<g><path style="opacity:0.998" fill="#005e8c" d="M 3742.5,-0.5 C 3895.17,-0.5 4047.83,-0.5 4200.5,-0.5C 4257.09,1.6574 4312.75,10.4907 4367.5,26C 4490.91,63.073 4572.41,142.906 4612,265.5C 4631.32,331.414 4641.32,398.748 4642,467.5C 4642.5,500.832 4642.67,534.165 4642.5,567.5C 4504.17,567.667 4365.83,567.5 4227.5,567C 4220.73,517.674 4203.89,472.174 4177,430.5C 4157.47,401.833 4131.97,380.333 4100.5,366C 4081.98,358.631 4062.82,354.464 4043,353.5C 3985.33,353.5 3927.67,353.5 3870,353.5C 3817.04,357.485 3778.04,382.818 3753,429.5C 3735.44,463.849 3724.11,500.182 3719,538.5C 3716.61,554.09 3714.95,569.757 3714,585.5C 3712.87,654.156 3712.37,722.823 3712.5,791.5C 3712.37,859.844 3712.87,928.178 3714,996.5C 3715.95,1043.61 3727.29,1088.28 3748,1130.5C 3775.98,1181.76 3819.31,1208.43 3878,1210.5C 3936,1210.5 3994,1210.5 4052,1210.5C 4120.51,1206.59 4169.84,1173.93 4200,1112.5C 4219.08,1069.68 4229.58,1024.85 4231.5,978C 4368.5,977.5 4505.5,977.333 4642.5,977.5C 4642.84,1024.84 4642.34,1072.18 4641,1119.5C 4639.05,1185.52 4627.72,1249.85 4607,1312.5C 4570.39,1414.78 4501.22,1484.95 4399.5,1523C 4334.77,1545.55 4268.1,1557.55 4199.5,1559C 4045.17,1559.67 3890.83,1559.67 3736.5,1559C 3670.89,1556.88 3607.56,1543.88 3546.5,1520C 3444.79,1476.62 3372.96,1403.79 3331,1301.5C 3304.11,1232.39 3289.78,1160.72 3288,1086.5C 3287.33,883.5 3287.33,680.5 3288,477.5C 3297.15,329.378 3357.31,206.878 3468.5,110C 3547.9,44.1535 3639.23,7.32016 3742.5,-0.5 Z"/></g>
<g><path style="opacity:0.997" fill="#005e8c" d="M 1558.5,1566.5 C 1423.17,1566.5 1287.83,1566.5 1152.5,1566.5C 1152.5,1174.83 1152.5,783.167 1152.5,391.5C 1128.9,391.478 1105.4,390.478 1082,388.5C 1070.7,388.379 1059.2,388.546 1047.5,389C 1019.54,388.737 993.871,396.07 970.5,411C 957.496,422.526 945.996,435.359 936,449.5C 910.663,488.495 888.663,529.495 870,572.5C 721.59,903.905 573.09,1235.24 424.5,1566.5C 282.833,1566.5 141.167,1566.5 -0.5,1566.5C -0.5,1565.83 -0.5,1565.17 -0.5,1564.5C 156.891,1220.04 314.058,875.376 471,530.5C 502.066,451.369 537.732,374.369 578,299.5C 610.81,240.004 651.31,186.171 699.5,138C 775.893,68.1528 865.893,26.8195 969.5,14C 1017.62,7.86831 1065.46,5.36831 1113,6.5C 1121.09,7.31732 1129.25,7.81732 1137.5,8C 1277.83,8.5 1418.17,8.66667 1558.5,8.5C 1558.5,527.833 1558.5,1047.17 1558.5,1566.5 Z"/></g>
<g><path style="opacity:0.972" fill="#005e8c" d="M 4999.5,134.5 C 4999.5,144.5 4999.5,154.5 4999.5,164.5C 4991.23,217.612 4962.23,254.446 4912.5,275C 4860.38,292.017 4813.72,281.85 4772.5,244.5C 4734.29,203.223 4723.79,156.223 4741,103.5C 4761.26,54.247 4797.76,25.4136 4850.5,17C 4907.52,12.9244 4951.35,34.7578 4982,82.5C 4990.97,98.9127 4996.8,116.246 4999.5,134.5 Z M 4855.5,41.5 C 4912.21,39.9193 4950.38,65.586 4970,118.5C 4982.34,172.289 4965.51,214.122 4919.5,244C 4877.08,264.833 4836.75,261.5 4798.5,234C 4762.93,202.591 4751.1,163.758 4763,117.5C 4778.86,73.8347 4809.69,48.5013 4855.5,41.5 Z M 4844.5,98.5 C 4858.57,98.0528 4872.57,98.5528 4886.5,100C 4893.55,103.589 4896.88,109.422 4896.5,117.5C 4895.31,131.506 4887.65,137.673 4873.5,136C 4863.84,136.5 4854.17,136.666 4844.5,136.5C 4844.5,123.833 4844.5,111.167 4844.5,98.5 Z"/></g>
<g><path style="opacity:0.972" fill="#005e8c" d="M 4816.5,73.5 C 4828.66,72.8334 4841,72.5001 4853.5,72.5C 4867.87,72.3875 4882.2,72.8875 4896.5,74C 4910.84,78.3415 4919.67,87.8415 4923,102.5C 4927.15,120.357 4922.99,135.857 4910.5,149C 4904.52,152.824 4898.19,155.824 4891.5,158C 4897.33,162.5 4902.5,167.667 4907,173.5C 4916.42,190.006 4925.59,206.673 4934.5,223.5C 4923.85,224.666 4913.18,224.832 4902.5,224C 4892.71,206.254 4882.55,188.754 4872,171.5C 4864.98,162.609 4855.81,159.276 4844.5,161.5C 4844.67,182.169 4844.5,202.836 4844,223.5C 4839.58,224.153 4835.08,224.486 4830.5,224.5C 4825.66,224.641 4820.99,224.141 4816.5,223C 4817.74,173.049 4817.74,123.215 4816.5,73.5 Z M 4844.5,98.5 C 4844.5,111.167 4844.5,123.833 4844.5,136.5C 4854.17,136.666 4863.84,136.5 4873.5,136C 4887.65,137.673 4895.31,131.506 4896.5,117.5C 4896.88,109.422 4893.55,103.589 4886.5,100C 4872.57,98.5528 4858.57,98.0528 4844.5,98.5 Z"/></g>
</svg>
