<?xml version="1.0" encoding="UTF-8"?>
<!DOCTYPE svg PUBLIC "-//W3C//DTD SVG 1.1//EN" "http://www.w3.org/Graphics/SVG/1.1/DTD/svg11.dtd">
<svg xmlns="http://www.w3.org/2000/svg" version="1.1" width="5000px" height="873px" style="shape-rendering:geometricPrecision; text-rendering:geometricPrecision; image-rendering:optimizeQuality; fill-rule:evenodd; clip-rule:evenodd" xmlns:xlink="http://www.w3.org/1999/xlink">
<g><path style="opacity:0.989" fill="#000000" d="M 69.5,-0.5 C 111.5,-0.5 153.5,-0.5 195.5,-0.5C 213.992,0.830985 230.992,6.66432 246.5,17C 265.172,34.7846 271.338,55.9513 265,80.5C 258.899,105.197 244.065,122.364 220.5,132C 207.646,137.213 194.313,140.547 180.5,142C 133.187,143.444 85.854,143.944 38.5,143.5C 48.5182,95.4278 58.8515,47.4278 69.5,-0.5 Z"/></g>
<g><path style="opacity:0.989" fill="#000000" d="M 363.5,-0.5 C 405.5,-0.5 447.5,-0.5 489.5,-0.5C 505.266,1.03041 520.266,5.53041 534.5,13C 555.421,27.7224 563.921,47.889 560,73.5C 554.367,104.475 536.534,124.975 506.5,135C 495.734,138.442 484.734,140.775 473.5,142C 426.521,143.443 379.521,143.943 332.5,143.5C 342.208,95.3374 352.542,47.3374 363.5,-0.5 Z"/></g>
<g><path style="opacity:0.987" fill="#000000" d="M 2698.5,126.5 C 2735.17,126.5 2771.83,126.5 2808.5,126.5C 2786.82,226.876 2765.32,327.209 2744,427.5C 2808.13,370.37 2871.97,312.87 2935.5,255C 2986.5,254.333 3037.5,254.333 3088.5,255C 3013.66,317.675 2939,380.508 2864.5,443.5C 2908.42,529.011 2952.09,614.677 2995.5,700.5C 2954.84,701.667 2914.17,701.833 2873.5,701C 2842.27,637.365 2811.43,573.532 2781,509.5C 2758.52,526.978 2736.36,544.812 2714.5,563C 2704.43,609.164 2694.43,655.331 2684.5,701.5C 2647.83,701.5 2611.17,701.5 2574.5,701.5C 2615.58,509.774 2656.91,318.108 2698.5,126.5 Z"/></g>
<g><path style="opacity:0.989" fill="#000000" d="M 631.5,127.5 C 672.501,127.333 713.501,127.5 754.5,128C 775.779,128.536 794.779,135.202 811.5,148C 827.248,164.908 832.414,184.741 827,207.5C 822.694,228.632 811.194,244.466 792.5,255C 773.991,264.544 754.324,269.878 733.5,271C 689.168,271.5 644.835,271.667 600.5,271.5C 610.207,223.341 620.54,175.341 631.5,127.5 Z"/></g>
<g><path style="opacity:0.991" fill="#000000" d="M 1037.5,127.5 C 1115.17,127.333 1192.83,127.5 1270.5,128C 1310.05,129.518 1346.38,140.851 1379.5,162C 1425.62,198.343 1441.45,245.177 1427,302.5C 1414.51,341.991 1390.01,371.491 1353.5,391C 1341.29,397.437 1328.63,402.77 1315.5,407C 1365.5,428.192 1391.83,466.026 1394.5,520.5C 1393.95,577.098 1370.95,622.265 1325.5,656C 1289.33,680.735 1249.33,695.402 1205.5,700C 1183.69,701.092 1161.85,701.592 1140,701.5C 1118.48,701.598 1096.98,701.098 1075.5,700C 1036.2,695.435 1003.37,678.602 977,649.5C 950.954,614.631 941.954,575.631 950,532.5C 979.329,397.521 1008.5,262.521 1037.5,127.5 Z M 1129.5,234.5 C 1171.5,234.333 1213.5,234.5 1255.5,235C 1276.43,236.381 1293.27,245.214 1306,261.5C 1317.74,289.383 1311.57,312.55 1287.5,331C 1268.27,342.919 1247.27,348.919 1224.5,349C 1184.5,349.833 1144.5,349.667 1104.5,348.5C 1112.84,310.492 1121.17,272.492 1129.5,234.5 Z M 1081.5,456.5 C 1120.83,456.333 1160.17,456.5 1199.5,457C 1220.37,457.947 1239.37,464.28 1256.5,476C 1276.34,496.199 1280.51,519.366 1269,545.5C 1259.77,562.902 1245.93,575.402 1227.5,583C 1208.52,590.22 1188.85,593.886 1168.5,594C 1129.5,594.833 1090.5,594.667 1051.5,593.5C 1061.76,547.882 1071.76,502.215 1081.5,456.5 Z"/></g>
<g><path style="opacity:0.988" fill="#000000" d="M 1534.5,127.5 C 1570.83,127.5 1607.17,127.5 1643.5,127.5C 1614.12,265.912 1584.28,404.245 1554,542.5C 1551.57,553.906 1549.74,565.406 1548.5,577C 1548.68,593.706 1556.34,605.373 1571.5,612C 1577.33,614.099 1583.33,615.432 1589.5,616C 1602.85,616.666 1616.18,616.499 1629.5,615.5C 1623.17,646.163 1616.83,676.829 1610.5,707.5C 1589.59,710.254 1568.59,711.088 1547.5,710C 1520.09,707.759 1495.76,698.093 1474.5,681C 1454.25,662.301 1442.75,639.135 1440,611.5C 1438.48,588.987 1439.82,566.654 1444,544.5C 1474.23,405.496 1504.4,266.496 1534.5,127.5 Z"/></g>
<g><path style="opacity:0.991" fill="#000000" d="M 3123.5,127.5 C 3201.17,127.333 3278.83,127.5 3356.5,128C 3396.05,129.518 3432.38,140.851 3465.5,162C 3511.62,198.343 3527.45,245.177 3513,302.5C 3500.51,341.991 3476.01,371.491 3439.5,391C 3427.29,397.437 3414.63,402.77 3401.5,407C 3451.17,428.473 3477.5,466.306 3480.5,520.5C 3479.95,577.098 3456.95,622.265 3411.5,656C 3375.33,680.735 3335.33,695.402 3291.5,700C 3251.85,701.592 3212.19,701.925 3172.5,701C 3128.22,698.602 3091.38,681.102 3062,648.5C 3037.65,615.775 3028.65,579.109 3035,538.5C 3064.31,401.449 3093.81,264.449 3123.5,127.5 Z M 3215.5,234.5 C 3257.5,234.333 3299.5,234.5 3341.5,235C 3360.41,236.207 3376.24,243.707 3389,257.5C 3404.53,286.218 3399.37,310.718 3373.5,331C 3354.27,342.919 3333.27,348.919 3310.5,349C 3270.5,349.833 3230.5,349.667 3190.5,348.5C 3198.84,310.471 3207.17,272.471 3215.5,234.5 Z M 3167.5,456.5 C 3206.83,456.333 3246.17,456.5 3285.5,457C 3306.86,458.117 3326.19,464.784 3343.5,477C 3359.49,492.776 3364.65,511.609 3359,533.5C 3354.88,549.275 3346.38,562.108 3333.5,572C 3309.46,587.232 3283.12,594.565 3254.5,594C 3215.5,594.833 3176.5,594.667 3137.5,593.5C 3147.51,547.804 3157.51,502.137 3167.5,456.5 Z"/></g>
<g><path style="opacity:0.985" fill="#000000" d="M -0.5,359.5 C -0.5,357.5 -0.5,355.5 -0.5,353.5C 9.88086,307.44 20.2142,261.273 30.5,215C 73.1799,214.116 115.847,214.45 158.5,216C 181.12,217.067 200.287,225.567 216,241.5C 227.792,259.355 230.792,278.688 225,299.5C 217.444,323.391 201.944,339.891 178.5,349C 161.386,355.207 143.72,358.541 125.5,359C 83.5013,359.5 41.5013,359.667 -0.5,359.5 Z"/></g>
<g><path style="opacity:0.985" fill="#000000" d="M 323.5,214.5 C 366.514,214.115 409.514,214.615 452.5,216C 471.492,217.217 488.492,223.55 503.5,235C 520.553,253.076 525.719,274.243 519,298.5C 511.384,324.118 494.884,341.284 469.5,350C 453.265,355.372 436.599,358.372 419.5,359C 377.163,359.833 334.829,359.667 292.5,358.5C 303.152,310.561 313.485,262.561 323.5,214.5 Z"/></g>
<g><path style="opacity:0.989" fill="#000000" d="M 1914.5,253.5 C 1943.94,252.753 1972.94,255.919 2001.5,263C 2073.72,285.571 2103.56,334.404 2091,409.5C 2078.18,471.612 2064.84,533.612 2051,595.5C 2043.5,630.888 2043.67,666.221 2051.5,701.5C 2013.83,701.5 1976.17,701.5 1938.5,701.5C 1937.4,687.499 1936.23,673.499 1935,659.5C 1905.32,689.087 1869.49,705.92 1827.5,710C 1787.17,714.136 1749.51,706.136 1714.5,686C 1668.65,654.498 1649.48,610.998 1657,555.5C 1664.43,518.747 1684.27,490.913 1716.5,472C 1753.47,451.897 1792.81,438.564 1834.5,432C 1868.93,426.891 1903.26,421.225 1937.5,415C 1950.15,412.451 1962.15,408.117 1973.5,402C 1989.46,388.549 1989.46,374.882 1973.5,361C 1957.33,351.497 1939.83,347.331 1921,348.5C 1886.8,347.673 1857.13,358.673 1832,381.5C 1828.12,385.714 1824.62,390.214 1821.5,395C 1780.17,395.667 1738.83,395.667 1697.5,395C 1732.59,316.283 1792.92,270.283 1878.5,257C 1890.62,255.431 1902.62,254.264 1914.5,253.5 Z M 1958.5,496.5 C 1960.17,496.5 1961.83,496.5 1963.5,496.5C 1954.33,561.01 1917.67,598.843 1853.5,610C 1841.2,611.482 1828.87,611.815 1816.5,611C 1797.64,609.112 1783.14,600.279 1773,584.5C 1765.01,566.13 1768.84,550.63 1784.5,538C 1799.45,527.902 1815.78,520.902 1833.5,517C 1875.25,509.824 1916.92,502.991 1958.5,496.5 Z"/></g>
<g><path style="opacity:0.988" fill="#000000" d="M 2349.5,253.5 C 2396.36,250.264 2441.36,257.764 2484.5,276C 2535.8,300.982 2567.3,341.482 2579,397.5C 2580.43,407.797 2580.77,418.131 2580,428.5C 2541.23,429.829 2502.4,429.829 2463.5,428.5C 2449.95,388.202 2421.95,365.702 2379.5,361C 2326.41,357.793 2286.91,379.293 2261,425.5C 2243.87,458.504 2239.21,493.171 2247,529.5C 2264.98,584.262 2302.81,608.428 2360.5,602C 2394.76,595.397 2419.43,576.397 2434.5,545C 2475.64,544.007 2516.64,544.34 2557.5,546C 2530.17,642.644 2466.51,696.977 2366.5,709C 2314.98,715.029 2266.32,706.029 2220.5,682C 2171.2,650.981 2141.7,606.481 2132,548.5C 2118.8,465.273 2139.46,391.94 2194,328.5C 2236.37,284.064 2288.21,259.064 2349.5,253.5 Z"/></g>
<g><path style="opacity:0.99" fill="#000000" d="M 3749.5,253.5 C 3797.81,249.928 3843.47,259.095 3886.5,281C 3945.15,316.735 3976.99,369.235 3982,438.5C 3983.36,466.601 3980.53,494.267 3973.5,521.5C 3863.17,521.5 3752.83,521.5 3642.5,521.5C 3647.47,570.643 3674.14,600.477 3722.5,611C 3755.36,616.565 3785.36,609.898 3812.5,591C 3820.44,584.616 3827.11,577.116 3832.5,568.5C 3874.17,567.167 3915.83,567.167 3957.5,568.5C 3925.37,648.918 3866.37,695.418 3780.5,708C 3737.1,713.856 3694.77,709.523 3653.5,695C 3599.53,672.03 3563.2,632.697 3544.5,577C 3520.87,499.661 3530.37,426.828 3573,358.5C 3615.93,296.946 3674.76,261.946 3749.5,253.5 Z M 3756.5,353.5 C 3779.7,351.691 3802.04,355.191 3823.5,364C 3846.64,375.146 3860.81,393.313 3866,418.5C 3866.5,423.155 3866.67,427.821 3866.5,432.5C 3797.5,432.833 3728.5,432.5 3659.5,431.5C 3677.02,386.972 3709.35,360.972 3756.5,353.5 Z"/></g>
<g><path style="opacity:0.986" fill="#000000" d="M 4259.5,254.5 C 4280.33,254.49 4300.99,256.157 4321.5,259.5C 4313.66,293.057 4306.32,326.724 4299.5,360.5C 4220.3,346.165 4172.13,378.165 4155,456.5C 4137.48,538.248 4119.65,619.915 4101.5,701.5C 4065.17,702.5 4028.84,702.833 3992.5,702.5C 4012.01,610.444 4031.84,518.444 4052,426.5C 4064.16,380.327 4086.99,340.494 4120.5,307C 4152.56,278.977 4189.9,262.311 4232.5,257C 4241.66,256.221 4250.66,255.388 4259.5,254.5 Z"/></g>
<g><path style="opacity:0.987" fill="#000000" d="M 4999.5,254.5 C 4999.5,255.5 4999.5,256.5 4999.5,257.5C 4878.26,462.3 4757.26,667.3 4636.5,872.5C 4597.5,872.5 4558.5,872.5 4519.5,872.5C 4556.72,807.725 4594.22,743.058 4632,678.5C 4610.76,540 4588.26,401.667 4564.5,263.5C 4556.78,296.743 4549.45,330.076 4542.5,363.5C 4474.44,351.262 4432.27,378.596 4416,445.5C 4397.81,530.913 4379.31,616.247 4360.5,701.5C 4324.17,702.5 4287.84,702.833 4251.5,702.5C 4269.27,619.168 4287.1,535.835 4305,452.5C 4312.65,407.514 4329.98,366.848 4357,330.5C 4382.92,299.444 4415.42,278.277 4454.5,267C 4479.36,260.021 4504.69,256.021 4530.5,255C 4579.17,254.333 4627.83,254.333 4676.5,255C 4689.66,351.127 4702.83,447.294 4716,543.5C 4771.37,447.629 4826.53,351.629 4881.5,255.5C 4920.83,254.5 4960.16,254.167 4999.5,254.5 Z"/></g>
<g><path style="opacity:0.988" fill="#000000" d="M 588.5,352.5 C 630.501,352.333 672.501,352.5 714.5,353C 734.653,353.881 752.653,360.381 768.5,372.5C 784.406,389.109 789.906,408.775 785,431.5C 778.825,458.013 762.992,476.179 737.5,486C 721.715,492.017 705.382,495.35 688.5,496C 644.83,496.833 601.163,496.667 557.5,495.5C 568.217,447.913 578.551,400.246 588.5,352.5 Z"/></g>
<g><path style="opacity:0.989" fill="#000000" d="M 281.5,439.5 C 322.501,439.333 363.501,439.5 404.5,440C 424.681,440.623 443.014,446.623 459.5,458C 476.506,474.357 482.673,494.191 478,517.5C 472.338,544.168 456.838,562.668 431.5,573C 417.037,578.699 402.037,582.032 386.5,583C 341.163,583.833 295.83,583.667 250.5,582.5C 260.992,534.865 271.326,487.198 281.5,439.5 Z"/></g>
</svg>
