<?xml version="1.0" encoding="UTF-8"?>
<!DOCTYPE svg PUBLIC "-//W3C//DTD SVG 1.1//EN" "http://www.w3.org/Graphics/SVG/1.1/DTD/svg11.dtd">
<svg xmlns="http://www.w3.org/2000/svg" version="1.1" width="2400px" height="544px" style="shape-rendering:geometricPrecision; text-rendering:geometricPrecision; image-rendering:optimizeQuality; fill-rule:evenodd; clip-rule:evenodd" xmlns:xlink="http://www.w3.org/1999/xlink">
<g><path style="opacity:0.99" fill="#000000" d="M 1310.5,-0.5 C 1346.17,-0.5 1381.83,-0.5 1417.5,-0.5C 1417.33,42.8346 1417.5,86.1679 1418,129.5C 1488.54,79.4807 1558.37,80.3141 1627.5,132C 1651.23,152.279 1668.39,177.112 1679,206.5C 1680.81,212.056 1682.14,217.722 1683,223.5C 1683.5,324.166 1683.67,424.833 1683.5,525.5C 1649.83,525.5 1616.17,525.5 1582.5,525.5C 1582.67,451.833 1582.5,378.166 1582,304.5C 1582.48,280.567 1577.48,257.9 1567,236.5C 1557.8,222.301 1544.96,213.135 1528.5,209C 1471.36,199.79 1434.53,222.957 1418,278.5C 1417.5,361.833 1417.33,445.166 1417.5,528.5C 1381.83,528.5 1346.17,528.5 1310.5,528.5C 1310.67,518.828 1310.5,509.161 1310,499.5C 1278.74,529.522 1241.24,543.522 1197.5,541.5C 1117.38,542.166 1064.21,504.832 1038,429.5C 1033.44,414.383 1029.78,399.05 1027,383.5C 1004.66,452.842 959.822,501.342 892.5,529C 870.071,537.251 847.071,542.085 823.5,543.5C 816.167,543.5 808.833,543.5 801.5,543.5C 707.647,534.142 642.147,486.142 605,399.5C 582.461,334.286 587.628,271.452 620.5,211C 575.352,211.134 546.518,232.968 534,276.5C 532.128,283.396 530.795,290.396 530,297.5C 529.5,376.499 529.333,455.499 529.5,534.5C 495.5,534.5 461.5,534.5 427.5,534.5C 427.333,448.499 427.5,362.499 428,276.5C 431.113,225.428 450.947,182.262 487.5,147C 520.925,120.074 559.258,105.741 602.5,104C 616.829,103.5 631.163,103.333 645.5,103.5C 645.333,127.502 645.5,151.502 646,175.5C 694.387,121.908 754.887,96.7416 827.5,100C 914.504,108.388 977.337,151.555 1016,229.5C 1018.61,235.053 1020.94,240.719 1023,246.5C 1023.5,167.167 1023.67,87.834 1023.5,8.5C 1058.49,7.66675 1093.49,7.33342 1128.5,7.5C 1128.5,39.1667 1128.5,70.8333 1128.5,102.5C 1179.5,102.5 1230.5,102.5 1281.5,102.5C 1281.5,137.5 1281.5,172.5 1281.5,207.5C 1230.5,207.5 1179.5,207.5 1128.5,207.5C 1128.33,253.501 1128.5,299.501 1129,345.5C 1134.85,405.824 1168.02,435.991 1228.5,436C 1256.03,432.49 1276.53,418.657 1290,394.5C 1300.27,375.013 1306.94,354.346 1310,332.5C 1310.5,221.501 1310.67,110.501 1310.5,-0.5 Z M 798.5,207.5 C 849.781,203.944 888.614,223.944 915,267.5C 938.293,318.236 931.126,364.069 893.5,405C 851.331,440.927 805.331,446.594 755.5,422C 706.786,390.563 688.953,346.397 702,289.5C 718.104,243.227 750.271,215.894 798.5,207.5 Z"/></g>
<g><path style="opacity:0.99" fill="#000000" d="M -0.5,11.5 C 30.8333,11.5 62.1667,11.5 93.5,11.5C 93.3333,58.5012 93.5,105.501 94,152.5C 148.464,108.872 209.63,96.0385 277.5,114C 347.843,137.01 393.009,184.177 413,255.5C 425.814,306.258 425.481,356.925 412,407.5C 387.989,484.164 336.156,528.664 256.5,541C 250.327,541.645 244.327,542.478 238.5,543.5C 223.167,543.5 207.833,543.5 192.5,543.5C 93.9662,532.471 31.4662,479.137 5,383.5C 2.63656,372.104 0.803223,360.77 -0.5,349.5C -0.5,236.833 -0.5,124.167 -0.5,11.5 Z M 196.5,213.5 C 228.692,210.381 258.025,217.881 284.5,236C 315.511,262.203 330.011,295.703 328,336.5C 319.159,384.674 291.993,417.841 246.5,436C 209.426,448.643 175.759,442.643 145.5,418C 127.255,401.428 112.422,382.262 101,360.5C 100.333,335.167 100.333,309.833 101,284.5C 120.781,244.544 152.614,220.877 196.5,213.5 Z"/></g>
<g><path style="opacity:0.99" fill="#000000" d="M 1898.5,91.5 C 2005.14,90.3519 2073.64,140.685 2104,242.5C 2113.17,275.544 2117.34,309.21 2116.5,343.5C 2008.5,343.5 1900.5,343.5 1792.5,343.5C 1800.51,374.641 1816.17,401.141 1839.5,423C 1868.41,445.303 1900.08,449.969 1934.5,437C 1958.06,426.438 1976.23,409.938 1989,387.5C 1993.11,379.622 1996.94,371.622 2000.5,363.5C 2035.49,362.5 2070.49,362.167 2105.5,362.5C 2098.68,421.005 2071.68,467.505 2024.5,502C 1987.19,524.996 1946.52,535.83 1902.5,534.5C 1806.06,535.246 1739.9,491.246 1704,402.5C 1676.16,328.741 1681.16,257.408 1719,188.5C 1753.52,132.742 1803.69,101.242 1869.5,94C 1879.32,93.1812 1888.99,92.3478 1898.5,91.5 Z M 1881.5,194.5 C 1913.99,191.12 1943.32,198.954 1969.5,218C 1981.85,228.17 1990.85,240.67 1996.5,255.5C 1931.5,255.667 1866.5,255.5 1801.5,255C 1818.03,221.289 1844.7,201.122 1881.5,194.5 Z"/></g>
<g><path style="opacity:0.988" fill="#000000" d="M 2300.5,92.5 C 2312.17,92.5 2323.83,92.5 2335.5,92.5C 2335.5,128.5 2335.5,164.5 2335.5,200.5C 2267.73,192.462 2229.23,222.129 2220,289.5C 2219.5,367.499 2219.33,445.499 2219.5,523.5C 2185.5,523.5 2151.5,523.5 2117.5,523.5C 2117.33,438.166 2117.5,352.833 2118,267.5C 2120.73,214.228 2141.56,169.728 2180.5,134C 2206.35,113.595 2235.68,100.928 2268.5,96C 2279.31,94.7537 2289.98,93.587 2300.5,92.5 Z"/></g>
<g><path style="opacity:0.882" fill="#000000" d="M 2399.5,464.5 C 2399.5,471.833 2399.5,479.167 2399.5,486.5C 2389.27,521.971 2365.61,538.138 2328.5,535C 2296.43,528.094 2279.1,508.261 2276.5,475.5C 2279.64,441.529 2297.97,421.362 2331.5,415C 2360.37,413.226 2381.53,425.059 2395,450.5C 2396.52,455.286 2398.02,459.952 2399.5,464.5 Z M 2333.5,424.5 C 2362.77,424.373 2381.27,438.373 2389,466.5C 2391.61,493.544 2380.45,512.377 2355.5,523C 2329.65,529.72 2309.15,522.22 2294,500.5C 2281.58,473.567 2287.08,451.067 2310.5,433C 2317.74,428.645 2325.41,425.812 2333.5,424.5 Z M 2325.5,449.5 C 2333.22,449.238 2340.89,449.738 2348.5,451C 2354.74,454.77 2356.07,459.937 2352.5,466.5C 2351.33,467.584 2350,468.417 2348.5,469C 2340.89,470.262 2333.22,470.762 2325.5,470.5C 2325.5,463.5 2325.5,456.5 2325.5,449.5 Z"/></g>
<g><path style="opacity:0.902" fill="#000000" d="M 2314.5,440.5 C 2327.55,440.099 2340.55,440.599 2353.5,442C 2362.91,444.955 2367.24,451.455 2366.5,461.5C 2365.55,471.948 2359.89,478.114 2349.5,480C 2355.38,489.584 2361.38,499.084 2367.5,508.5C 2363.17,509.833 2358.83,509.833 2354.5,508.5C 2348.96,499.25 2343.29,490.083 2337.5,481C 2333.51,480.501 2329.51,480.334 2325.5,480.5C 2325.5,490.167 2325.5,499.833 2325.5,509.5C 2321.83,509.5 2318.17,509.5 2314.5,509.5C 2314.5,486.5 2314.5,463.5 2314.5,440.5 Z M 2325.5,449.5 C 2325.5,456.5 2325.5,463.5 2325.5,470.5C 2333.22,470.762 2340.89,470.262 2348.5,469C 2350,468.417 2351.33,467.584 2352.5,466.5C 2356.07,459.937 2354.74,454.77 2348.5,451C 2340.89,449.738 2333.22,449.238 2325.5,449.5 Z"/></g>
</svg>
