<?xml version="1.0" encoding="UTF-8"?>
<!DOCTYPE svg PUBLIC "-//W3C//DTD SVG 1.1//EN" "http://www.w3.org/Graphics/SVG/1.1/DTD/svg11.dtd">
<svg xmlns="http://www.w3.org/2000/svg" version="1.1" width="1280px" height="820px" style="shape-rendering:geometricPrecision; text-rendering:geometricPrecision; image-rendering:optimizeQuality; fill-rule:evenodd; clip-rule:evenodd" xmlns:xlink="http://www.w3.org/1999/xlink">
<g><path style="opacity:0.993" fill="#151312" d="M 492.5,-0.5 C 508.5,-0.5 524.5,-0.5 540.5,-0.5C 582.398,3.47755 621.731,15.8109 658.5,36.5C 695.675,15.8845 735.341,3.55121 777.5,-0.5C 793.167,-0.5 808.833,-0.5 824.5,-0.5C 926.265,10.814 1003.27,60.314 1055.5,148C 1055.36,148.772 1055.02,149.439 1054.5,150C 1027.5,163.833 1000.5,177.667 973.5,191.5C 923.345,114.935 852.679,83.1016 761.5,96C 753.543,97.5426 745.876,99.876 738.5,103C 796.442,173.925 817.609,254.758 802,345.5C 791.802,395.392 770.302,439.559 737.5,478C 807.621,499.508 871.288,487.508 928.5,442C 945.231,427.446 959.564,410.946 971.5,392.5C 998.5,406.333 1025.5,420.167 1052.5,434C 1053.02,434.561 1053.36,435.228 1053.5,436C 1005.68,515.115 936.011,562.782 844.5,579C 778.573,588.38 716.573,576.88 658.5,544.5C 589.198,582.621 516.198,591.788 439.5,572C 362.601,549.749 303.935,504.249 263.5,435.5C 290.483,420.673 317.817,406.34 345.5,392.5C 393.964,464.724 461.631,495.891 548.5,486C 559.13,484.426 569.463,481.759 579.5,478C 516.129,400.321 496.295,312.488 520,214.5C 531.591,172.821 551.091,135.488 578.5,102.5C 494.875,78.7708 423.708,98.7708 365,162.5C 357.745,172.02 350.745,181.687 344,191.5C 316.091,177.797 288.591,163.463 261.5,148.5C 304.69,73.8707 368.357,26.3707 452.5,6C 465.88,3.21042 479.213,1.04376 492.5,-0.5 Z M 657.5,155.5 C 660.394,156.882 662.894,158.882 665,161.5C 713.636,220.635 725.636,286.635 701,359.5C 691.036,384.781 677.036,407.448 659,427.5C 608.496,371.479 592.829,306.812 612,233.5C 621.293,203.891 636.46,177.891 657.5,155.5 Z"/></g>
<g><path style="opacity:0.982" fill="#151312" d="M -0.5,731.5 C -0.5,722.5 -0.5,713.5 -0.5,704.5C 7.37758,660.116 33.0442,631.616 76.5,619C 125.311,611.74 161.644,629.573 185.5,672.5C 175.186,680.657 164.52,688.324 153.5,695.5C 137.316,662.74 111.649,651.24 76.5,661C 47.6769,674.808 35.1769,697.641 39,729.5C 48.5445,764.371 71.3778,780.538 107.5,778C 128.319,773.015 143.319,760.848 152.5,741.5C 163.087,748.71 173.587,756.044 184,763.5C 182.779,768.609 180.446,773.275 177,777.5C 152.159,810.158 119.326,823.324 78.5,817C 33.9229,805.26 7.58961,776.76 -0.5,731.5 Z"/></g>
<g><path style="opacity:0.976" fill="#161413" d="M 224.5,618.5 C 237.167,618.5 249.833,618.5 262.5,618.5C 262.5,641.833 262.5,665.167 262.5,688.5C 295.167,688.5 327.833,688.5 360.5,688.5C 360.5,665.167 360.5,641.833 360.5,618.5C 373.5,618.5 386.5,618.5 399.5,618.5C 399.5,683.833 399.5,749.167 399.5,814.5C 386.5,814.5 373.5,814.5 360.5,814.5C 360.5,786.167 360.5,757.833 360.5,729.5C 327.833,729.5 295.167,729.5 262.5,729.5C 262.5,757.833 262.5,786.167 262.5,814.5C 249.833,814.5 237.167,814.5 224.5,814.5C 224.5,749.167 224.5,683.833 224.5,618.5 Z"/></g>
<g><path style="opacity:0.987" fill="#151312" d="M 515.5,618.5 C 533.512,618.167 551.512,618.5 569.5,619.5C 598.5,684.167 627.5,748.833 656.5,813.5C 640.833,814.833 625.167,814.833 609.5,813.5C 604.167,801.5 598.833,789.5 593.5,777.5C 559.838,776.333 526.172,776.167 492.5,777C 486.934,789.192 481.267,801.359 475.5,813.5C 459.844,814.666 444.177,814.833 428.5,814C 457.643,748.882 486.643,683.715 515.5,618.5 Z M 541.5,661.5 C 543.686,662.823 545.186,664.823 546,667.5C 555.892,690.285 566.059,712.952 576.5,735.5C 554.51,736.5 532.51,736.833 510.5,736.5C 520.635,711.431 530.968,686.431 541.5,661.5 Z"/></g>
<g><path style="opacity:0.985" fill="#151312" d="M 686.5,618.5 C 704.503,618.333 722.503,618.5 740.5,619C 767.298,657.43 794.465,695.597 822,733.5C 822.5,695.168 822.667,656.835 822.5,618.5C 835.5,618.5 848.5,618.5 861.5,618.5C 861.5,683.833 861.5,749.167 861.5,814.5C 850.813,814.832 840.146,814.499 829.5,813.5C 794.755,765.676 760.255,717.676 726,669.5C 725.5,717.832 725.333,766.166 725.5,814.5C 712.5,814.5 699.5,814.5 686.5,814.5C 686.5,749.167 686.5,683.833 686.5,618.5 Z"/></g>
<g><path style="opacity:0.986" fill="#151312" d="M 929.5,618.5 C 975.5,618.5 1021.5,618.5 1067.5,618.5C 1067.5,632.167 1067.5,645.833 1067.5,659.5C 1034.5,659.5 1001.5,659.5 968.5,659.5C 968.5,672.167 968.5,684.833 968.5,697.5C 998.833,697.5 1029.17,697.5 1059.5,697.5C 1059.5,710.833 1059.5,724.167 1059.5,737.5C 1029.17,737.5 998.833,737.5 968.5,737.5C 968.5,750.167 968.5,762.833 968.5,775.5C 1006.17,775.5 1043.83,775.5 1081.5,775.5C 1081.5,788.5 1081.5,801.5 1081.5,814.5C 1030.83,814.5 980.167,814.5 929.5,814.5C 929.5,749.167 929.5,683.833 929.5,618.5 Z"/></g>
<g><path style="opacity:0.989" fill="#161412" d="M 1133.5,618.5 C 1146.5,618.5 1159.5,618.5 1172.5,618.5C 1172.5,670.833 1172.5,723.167 1172.5,775.5C 1207.83,775.5 1243.17,775.5 1278.5,775.5C 1278.5,788.5 1278.5,801.5 1278.5,814.5C 1230.17,814.5 1181.83,814.5 1133.5,814.5C 1133.5,749.167 1133.5,683.833 1133.5,618.5 Z"/></g>
</svg>
