<?xml version="1.0" encoding="UTF-8"?>
<!DOCTYPE svg PUBLIC "-//W3C//DTD SVG 1.1//EN" "http://www.w3.org/Graphics/SVG/1.1/DTD/svg11.dtd">
<svg xmlns="http://www.w3.org/2000/svg" version="1.1" width="1280px" height="439px" style="shape-rendering:geometricPrecision; text-rendering:geometricPrecision; image-rendering:optimizeQuality; fill-rule:evenodd; clip-rule:evenodd" xmlns:xlink="http://www.w3.org/1999/xlink">
<g><path style="opacity:0.995" fill="#007ac8" d="M -0.5,-0.5 C 426.167,-0.5 852.833,-0.5 1279.5,-0.5C 1279.5,145.833 1279.5,292.167 1279.5,438.5C 852.833,438.5 426.167,438.5 -0.5,438.5C -0.5,292.167 -0.5,145.833 -0.5,-0.5 Z M 746.5,68.5 C 763.258,68.4455 774.758,76.1122 781,91.5C 785.697,113.96 777.197,128.46 755.5,135C 731.689,136.755 718.355,125.755 715.5,102C 717.766,83.2382 728.099,72.0716 746.5,68.5 Z M 300.5,82.5 C 319.833,82.5 339.167,82.5 358.5,82.5C 358.5,175.167 358.5,267.833 358.5,360.5C 339.167,360.5 319.833,360.5 300.5,360.5C 300.5,267.833 300.5,175.167 300.5,82.5 Z M 169.5,119.5 C 208.669,118.502 239.503,133.835 262,165.5C 267.794,175.412 270.961,186.079 271.5,197.5C 252.833,197.5 234.167,197.5 215.5,197.5C 215.239,180.526 208.906,166.359 196.5,155C 175.353,142.964 157.52,146.797 143,166.5C 130.419,190.397 124.586,215.897 125.5,243C 125.302,266.98 129.469,290.147 138,312.5C 142.854,323.404 150.354,331.904 160.5,338C 177.669,343.167 191.836,338.667 203,324.5C 210.595,312.216 215.095,298.883 216.5,284.5C 235.488,283.5 254.488,283.167 273.5,283.5C 270.629,309.864 258.629,331.031 237.5,347C 206.286,369.841 172.286,375.174 135.5,363C 108.965,351.465 90.1321,332.298 79,305.5C 63.2375,267.049 62.5708,228.383 77,189.5C 94.6036,148.364 125.437,125.031 169.5,119.5 Z M 1116.5,138.5 C 1140.01,138.043 1162.01,143.543 1182.5,155C 1194.83,162.325 1203.99,172.492 1210,185.5C 1211.09,190.437 1211.75,195.437 1212,200.5C 1212.5,253.832 1212.67,307.166 1212.5,360.5C 1193.83,360.5 1175.17,360.5 1156.5,360.5C 1156.96,304.81 1156.46,249.143 1155,193.5C 1146.97,171.566 1131.47,162.733 1108.5,167C 1098.09,171.08 1090.59,178.246 1086,188.5C 1085.5,245.832 1085.33,303.166 1085.5,360.5C 1066.17,360.5 1046.83,360.5 1027.5,360.5C 1027.5,299.167 1027.5,237.833 1027.5,176.5C 1031.67,175.956 1035.67,174.79 1039.5,173C 1052.36,163.148 1066.03,154.482 1080.5,147C 1092.22,142.427 1104.22,139.593 1116.5,138.5 Z M 889.5,140.5 C 954.994,138.676 993.828,170.01 1006,234.5C 1011.39,269.549 1004.06,301.549 984,330.5C 966.479,351.648 943.979,363.815 916.5,367C 851.254,370.127 812.42,339.627 800,275.5C 794.228,235.22 804.562,199.886 831,169.5C 847.436,153.532 866.936,143.865 889.5,140.5 Z M 473.5,141.5 C 497.75,138.847 520.083,144.014 540.5,157C 552.545,167.256 560.378,180.089 564,195.5C 564.667,249.5 564.667,303.5 564,357.5C 563.667,357.833 563.333,358.167 563,358.5C 561.266,357.751 559.433,357.251 557.5,357C 550.5,356.333 543.5,356.333 536.5,357C 518.051,359.69 499.717,363.023 481.5,367C 456.064,371.045 432.064,367.045 409.5,355C 385.266,337.993 376.1,314.826 382,285.5C 385.294,274.416 391.46,265.25 400.5,258C 407.68,252.907 415.347,248.574 423.5,245C 440.683,238.605 458.017,232.605 475.5,227C 486.69,223.826 496.19,217.993 504,209.5C 512.025,195.936 510.525,183.436 499.5,172C 496.785,170.092 493.785,168.759 490.5,168C 470.263,164.024 457.43,171.857 452,191.5C 451.083,197.168 450.25,202.835 449.5,208.5C 431.167,208.5 412.833,208.5 394.5,208.5C 395.992,184.017 407.659,166.184 429.5,155C 443.456,147.734 458.122,143.234 473.5,141.5 Z M 685.5,142.5 C 688.167,142.5 690.833,142.5 693.5,142.5C 693.666,150.174 693.5,157.841 693,165.5C 678.057,167.795 666.39,175.129 658,187.5C 655.816,190.866 654.483,194.533 654,198.5C 653.5,252.499 653.333,306.499 653.5,360.5C 634.5,360.5 615.5,360.5 596.5,360.5C 596.5,299.5 596.5,238.5 596.5,177.5C 601.887,176.81 606.887,174.977 611.5,172C 632.809,153.504 657.476,143.671 685.5,142.5 Z M 721.5,146.5 C 740.5,146.5 759.5,146.5 778.5,146.5C 778.5,217.833 778.5,289.167 778.5,360.5C 759.5,360.5 740.5,360.5 721.5,360.5C 721.5,289.167 721.5,217.833 721.5,146.5 Z"/></g>
<g><path style="opacity:0.99" fill="#007ac8" d="M 897.5,165.5 C 920.671,164.339 935.171,175.006 941,197.5C 943.875,207.291 945.542,217.291 946,227.5C 946.667,247.167 946.667,266.833 946,286.5C 945.251,301.173 941.251,314.84 934,327.5C 923.258,339.902 909.758,344.402 893.5,341C 880.627,337.797 871.793,329.964 867,317.5C 864.058,309.732 862.058,301.732 861,293.5C 859.6,272.516 859.267,251.516 860,230.5C 859.842,212.126 864.509,195.126 874,179.5C 880.045,171.58 887.879,166.913 897.5,165.5 Z"/></g>
<g><path style="opacity:0.984" fill="#007ac8" d="M 506.5,233.5 C 507.832,244.981 508.499,256.814 508.5,269C 508.333,280.833 508.167,292.667 508,304.5C 504.772,331.42 489.939,342.587 463.5,338C 451.146,332.517 443.646,323.017 441,309.5C 436.18,289.955 441.68,274.121 457.5,262C 469.581,254.931 481.914,248.265 494.5,242C 498.742,239.39 502.742,236.557 506.5,233.5 Z"/></g>
</svg>
