<?xml version="1.0" encoding="UTF-8"?>
<!DOCTYPE svg PUBLIC "-//W3C//DTD SVG 1.1//EN" "http://www.w3.org/Graphics/SVG/1.1/DTD/svg11.dtd">
<svg xmlns="http://www.w3.org/2000/svg" version="1.1" width="940px" height="303px" style="shape-rendering:geometricPrecision; text-rendering:geometricPrecision; image-rendering:optimizeQuality; fill-rule:evenodd; clip-rule:evenodd" xmlns:xlink="http://www.w3.org/1999/xlink">
<g><path style="opacity:1" fill="#fefefe" d="M -0.5,-0.5 C 312.833,-0.5 626.167,-0.5 939.5,-0.5C 939.5,100.5 939.5,201.5 939.5,302.5C 626.167,302.5 312.833,302.5 -0.5,302.5C -0.5,201.5 -0.5,100.5 -0.5,-0.5 Z"/></g>
<g><path style="opacity:1" fill="#272727" d="M 470.5,35.5 C 468.972,35.5173 468.472,36.184 469,37.5C 471.985,40.1616 474.485,43.1616 476.5,46.5C 475.833,46.5 475.5,46.8333 475.5,47.5C 470.352,41.2368 465.186,34.9035 460,28.5C 457.007,29.0984 454.507,28.0984 452.5,25.5C 447.345,23.8416 443.179,20.8416 440,16.5C 439.066,11.9167 440.9,10.4167 445.5,12C 451.43,16.3173 456.597,21.484 461,27.5C 463.775,30.7797 466.942,33.4463 470.5,35.5 Z"/></g>
<g><path style="opacity:1" fill="#f1f1f1" d="M 452.5,25.5 C 448.792,22.8732 445.292,19.8732 442,16.5C 441.517,15.552 441.351,14.552 441.5,13.5C 443.655,13.372 445.655,13.872 447.5,15C 451.535,18.7002 455.202,22.7002 458.5,27C 456.494,26.8497 454.494,26.3497 452.5,25.5 Z"/></g>
<g><path style="opacity:1" fill="#121212" d="M 482.5,22.5 C 486.182,22.3347 489.848,22.5014 493.5,23C 495.303,23.6368 496.636,24.8035 497.5,26.5C 495.703,28.1311 494.536,30.1311 494,32.5C 491.743,34.0456 489.576,35.7123 487.5,37.5C 486.36,40.9227 485.026,44.256 483.5,47.5C 483.167,47.3333 482.833,47.1667 482.5,47C 483.784,42.4763 485.45,38.143 487.5,34C 486.572,33.6121 485.905,32.9454 485.5,32C 484.932,28.6237 483.932,25.457 482.5,22.5 Z"/></g>
<g><path style="opacity:1" fill="#2f2f2f" d="M 470.5,35.5 C 472.027,35.427 473.027,36.0937 473.5,37.5C 471.973,37.573 470.973,36.9063 470.5,35.5 Z"/></g>
<g><path style="opacity:1" fill="#090909" d="M 547.5,45.5 C 540.765,44.1735 533.932,44.1735 527,45.5C 526.5,54.4938 526.334,63.4938 526.5,72.5C 521.489,72.3341 516.489,72.5007 511.5,73C 516.684,73.1739 521.684,73.6739 526.5,74.5C 526.196,80.5771 526.696,86.5771 528,92.5C 528.833,93.3333 529.667,94.1667 530.5,95C 535.618,95.888 540.618,95.5547 545.5,94C 546.126,93.2496 546.626,92.4162 547,91.5C 547.499,87.1794 547.666,82.8461 547.5,78.5C 547.5,76.8333 547.5,75.1667 547.5,73.5C 554.841,73.3337 562.174,73.5003 569.5,74C 570.113,84.0886 565.78,91.4219 556.5,96C 552.284,97.6842 547.951,98.8509 543.5,99.5C 543.5,100.5 543.5,101.5 543.5,102.5C 560.783,102.845 560.783,103.845 543.5,105.5C 543.833,106.167 544.167,106.833 544.5,107.5C 539.5,108.833 534.5,108.833 529.5,107.5C 529.624,106.893 529.957,106.56 530.5,106.5C 531.043,106.44 531.376,106.107 531.5,105.5C 522.024,104.976 512.691,104.143 503.5,103C 512.851,102.832 522.184,102.332 531.5,101.5C 531.376,100.893 531.043,100.56 530.5,100.5C 518.126,98.5576 508.626,92.2243 502,81.5C 494.535,80.793 487.035,80.793 479.5,81.5C 479.816,75.5865 481.149,69.9199 483.5,64.5C 481.604,63.5344 479.604,63.2011 477.5,63.5C 477.628,65.6547 477.128,67.6547 476,69.5C 472.604,72.3928 469.771,75.7261 467.5,79.5C 468.09,80.7989 469.09,81.6322 470.5,82C 475.833,82.3333 481.167,82.6667 486.5,83C 500.827,86.1112 500.827,88.2779 486.5,89.5C 488.226,91.2279 489.559,93.2279 490.5,95.5C 490.167,95.8333 489.833,96.1667 489.5,96.5C 487.144,94.3608 484.811,92.3608 482.5,90.5C 481.833,90.8333 481.167,91.1667 480.5,91.5C 479.33,94.2087 478.163,96.8754 477,99.5C 476.713,95.3972 477.047,91.3972 478,87.5C 474.053,86.8105 470.22,85.6438 466.5,84C 462.311,79.3124 458.311,74.4791 454.5,69.5C 454.667,69.1667 454.833,68.8333 455,68.5C 457.799,70.5428 460.799,72.2095 464,73.5C 465.605,72.8993 466.938,71.8993 468,70.5C 469.924,66.9829 471.591,63.3163 473,59.5C 475.43,58.0352 477.93,56.7018 480.5,55.5C 479.758,54.7132 478.925,54.0465 478,53.5C 477.764,51.1887 476.931,49.1887 475.5,47.5C 475.5,46.8333 475.833,46.5 476.5,46.5C 476.953,47.4584 477.619,48.2917 478.5,49C 480.81,49.4966 483.143,49.6633 485.5,49.5C 485.822,51.7224 485.155,53.5557 483.5,55C 485.464,55.624 487.131,55.124 488.5,53.5C 489.021,50.2224 489.187,46.8891 489,43.5C 490.08,41.0038 491.414,38.6705 493,36.5C 494,35.1667 495,35.1667 496,36.5C 497.268,40.8049 498.435,45.1382 499.5,49.5C 499.061,51.1043 498.394,52.6043 497.5,54C 498.367,57.1052 498.701,60.2719 498.5,63.5C 496.897,63.3118 495.563,63.8118 494.5,65C 496.991,65.4094 498.991,66.5761 500.5,68.5C 501.192,67.9747 501.692,67.3081 502,66.5C 502.316,59.1521 502.816,51.8187 503.5,44.5C 503.674,42.3066 503.007,40.4733 501.5,39C 505.935,39.121 509.935,37.9544 513.5,35.5C 514.308,35.8076 514.975,36.3076 515.5,37C 533.83,37.4999 552.164,37.6666 570.5,37.5C 569.948,39.3307 569.948,40.9974 570.5,42.5C 572.167,41.1667 573.833,39.8333 575.5,38.5C 576.524,39.8532 577.857,40.5198 579.5,40.5C 579.421,47.3939 578.421,54.0606 576.5,60.5C 575.5,60.5 574.5,60.5 573.5,60.5C 573.785,58.712 573.452,57.0453 572.5,55.5C 571.914,55.7093 571.414,56.0426 571,56.5C 570.501,61.8229 570.334,67.1563 570.5,72.5C 562.833,72.5 555.167,72.5 547.5,72.5C 547.5,63.5 547.5,54.5 547.5,45.5 Z"/></g>
<g><path style="opacity:1" fill="#505050" d="M 473.5,37.5 C 474.756,37.4614 475.756,37.9614 476.5,39C 475.002,39.5847 474.002,39.0847 473.5,37.5 Z"/></g>
<g><path style="opacity:1" fill="#0c0c0c" d="M 347.5,57.5 C 343.287,60.7106 341.454,59.7106 342,54.5C 343.518,53.8366 344.685,52.8366 345.5,51.5C 346.496,51.5858 347.329,51.2524 348,50.5C 348.727,47.0452 350.893,45.3785 354.5,45.5C 354.169,38.0088 355.836,37.5088 359.5,44C 365.746,46.4746 368.746,51.1413 368.5,58C 368.456,59.7642 368.122,61.4309 367.5,63C 363.494,66.0053 359.16,68.5053 354.5,70.5C 354.167,70 353.833,69.5 353.5,69C 355.049,65.3204 355.716,61.4871 355.5,57.5C 352.833,57.5 350.167,57.5 347.5,57.5 Z"/></g>
<g><path style="opacity:1" fill="#f3f3f3" d="M 511.5,42.5 C 512.833,42.5 514.167,42.5 515.5,42.5C 515.5,46.1667 515.5,49.8333 515.5,53.5C 514.167,53.5 512.833,53.5 511.5,53.5C 511.5,49.8333 511.5,46.1667 511.5,42.5 Z"/></g>
<g><path style="opacity:1" fill="#e8e8e8" d="M 572.5,42.5 C 574.167,42.5 575.833,42.5 577.5,42.5C 577.5,46.1667 577.5,49.8333 577.5,53.5C 576.167,53.5 574.833,53.5 573.5,53.5C 573.276,49.8212 572.942,46.1545 572.5,42.5 Z"/></g>
<g><path style="opacity:1" fill="#c2c2c2" d="M 547.5,45.5 C 546.508,45.3284 545.842,45.6618 545.5,46.5C 539.833,46.5 534.167,46.5 528.5,46.5C 528.5,53.8333 528.5,61.1667 528.5,68.5C 527.833,69.8333 527.167,71.1667 526.5,72.5C 526.334,63.4938 526.5,54.4938 527,45.5C 533.932,44.1735 540.765,44.1735 547.5,45.5 Z"/></g>
<g><path style="opacity:1" fill="#111111" d="M 545.5,46.5 C 545.5,55.1667 545.5,63.8333 545.5,72.5C 539.833,72.5 534.167,72.5 528.5,72.5C 528.5,71.1667 528.5,69.8333 528.5,68.5C 528.5,61.1667 528.5,53.8333 528.5,46.5C 534.167,46.5 539.833,46.5 545.5,46.5 Z"/></g>
<g><path style="opacity:1" fill="#aeaeae" d="M 569.5,44.5 C 571.344,45.2039 571.844,46.5372 571,48.5C 569.812,47.4366 569.312,46.1033 569.5,44.5 Z"/></g>
<g><path style="opacity:1" fill="#121212" d="M 345.5,50.5 C 341.395,51.748 339.562,54.4147 340,58.5C 340.956,59.8941 342.289,60.5607 344,60.5C 347.458,59.7135 350.958,59.3802 354.5,59.5C 354.5,60.8333 354.5,62.1667 354.5,63.5C 352.401,62.7691 350.401,62.7691 348.5,63.5C 346.73,66.1934 346.063,69.1934 346.5,72.5C 345.022,72.762 343.689,72.4287 342.5,71.5C 341.517,67.3684 339.684,63.7017 337,60.5C 337.053,58.0641 336.887,55.7308 336.5,53.5C 334.602,54.7345 332.935,54.4011 331.5,52.5C 335.426,50.969 339.426,49.6357 343.5,48.5C 344.713,48.7472 345.38,49.4138 345.5,50.5 Z"/></g>
<g><path style="opacity:1" fill="#f5f5f5" d="M 530.5,48.5 C 535.167,48.5 539.833,48.5 544.5,48.5C 544.5,55.8333 544.5,63.1667 544.5,70.5C 539.833,70.5 535.167,70.5 530.5,70.5C 530.5,63.1667 530.5,55.8333 530.5,48.5 Z"/></g>
<g><path style="opacity:1" fill="#c8c8c8" d="M 353.5,48.5 C 354.995,48.4148 355.995,49.0815 356.5,50.5C 354.101,52.5388 351.434,53.7054 348.5,54C 351.056,52.9455 352.723,51.1122 353.5,48.5 Z"/></g>
<g><path style="opacity:1" fill="#b5b5b5" d="M 345.5,50.5 C 345.5,50.8333 345.5,51.1667 345.5,51.5C 344.685,52.8366 343.518,53.8366 342,54.5C 341.454,59.7106 343.287,60.7106 347.5,57.5C 349.833,58.1667 352.167,58.8333 354.5,59.5C 350.958,59.3802 347.458,59.7135 344,60.5C 342.289,60.5607 340.956,59.8941 340,58.5C 339.562,54.4147 341.395,51.748 345.5,50.5 Z"/></g>
<g><path style="opacity:1" fill="#f2f2f2" d="M 512.5,56.5 C 513.586,56.62 514.253,57.2867 514.5,58.5C 514.167,59.1667 513.833,59.8333 513.5,60.5C 512.571,59.3112 512.238,57.9778 512.5,56.5 Z"/></g>
<g><path style="opacity:1" fill="#171717" d="M 420.5,58.5 C 424.219,58.0025 427.553,58.8358 430.5,61C 425.592,60.5965 421.592,62.2632 418.5,66C 416.272,66.8201 414.272,66.4868 412.5,65C 413.5,64.6667 414.5,64.3333 415.5,64C 416.692,61.6451 418.359,59.8118 420.5,58.5 Z"/></g>
<g><path style="opacity:1" fill="#080808" d="M 423.5,84.5 C 422.079,87.2938 421.079,90.2938 420.5,93.5C 414.276,92.6909 408.276,91.1909 402.5,89C 404.451,87.2658 405.451,85.0991 405.5,82.5C 406.117,82.3893 406.617,82.056 407,81.5C 407.054,84.8612 408.054,87.8612 410,90.5C 409.034,85.295 408.534,79.9616 408.5,74.5C 407.908,71.8728 407.575,69.2062 407.5,66.5C 410.344,67.0579 413.178,67.7245 416,68.5C 418.723,67.4585 421.223,65.9585 423.5,64C 430.365,62.0989 435.031,64.4322 437.5,71C 435.481,72.6878 433.814,74.6878 432.5,77C 427.92,77.4572 424.42,75.6239 422,71.5C 422.907,75.6989 423.407,80.0323 423.5,84.5 Z"/></g>
<g><path style="opacity:1" fill="#0d0d0d" d="M 369.5,67.5 C 364.681,72.7392 359.014,76.7392 352.5,79.5C 352.285,77.477 352.285,75.1437 352.5,72.5C 357.941,70.7411 362.941,68.0745 367.5,64.5C 368.919,65.0047 369.585,66.0047 369.5,67.5 Z"/></g>
<g><path style="opacity:1" fill="#050505" d="M 406.5,74.5 C 406.167,77.1667 405.833,79.8333 405.5,82.5C 404.217,84.8682 402.55,87.0349 400.5,89C 396.168,88.8369 391.834,88.3369 387.5,87.5C 386.698,81.8482 386.531,76.1815 387,70.5C 387.995,69.9341 388.828,69.2674 389.5,68.5C 391.812,67.6805 394.146,66.8471 396.5,66C 403.917,63.99 407.25,66.8233 406.5,74.5 Z"/></g>
<g><path style="opacity:1" fill="#171717" d="M 371.5,66.5 C 376.952,66.8021 382.619,66.4687 388.5,65.5C 392.262,65.6496 392.262,66.3162 388.5,67.5C 382.736,70.1107 377.069,69.7774 371.5,66.5 Z"/></g>
<g><path style="opacity:1" fill="#090909" d="M 422.5,97.5 C 423.653,99.8068 424.82,102.14 426,104.5C 426.079,110.953 426.912,117.287 428.5,123.5C 426.909,126.675 425.909,130.009 425.5,133.5C 423.396,133.799 421.396,133.466 419.5,132.5C 425.399,122.438 424.232,113.104 416,104.5C 412.571,109.019 408.904,113.352 405,117.5C 404.362,118.609 403.862,119.775 403.5,121C 405.168,124.487 404.168,126.987 400.5,128.5C 399.341,124.878 399.175,121.211 400,117.5C 403.724,112.537 407.557,107.703 411.5,103C 406.882,100.05 402.548,96.7162 398.5,93C 397.167,92.3333 395.833,92.3333 394.5,93C 386.206,98.1497 377.206,100.316 367.5,99.5C 366.536,107.681 366.869,115.848 368.5,124C 367.035,127.281 366.368,130.781 366.5,134.5C 364.5,134.5 362.5,134.5 360.5,134.5C 360.954,131.86 362.121,129.527 364,127.5C 364.231,118.676 363.065,110.01 360.5,101.5C 354.867,100.306 349.2,99.806 343.5,100C 342.941,100.725 342.608,101.558 342.5,102.5C 343.868,105.89 345.201,109.224 346.5,112.5C 350.648,112.834 352.315,115.167 351.5,119.5C 348.386,118.909 345.886,117.242 344,114.5C 340.497,109.512 338.164,104.178 337,98.5C 338.509,96.0807 340.675,95.0807 343.5,95.5C 351.728,95.5917 354.728,91.5917 352.5,83.5C 352.833,82.5 353.5,81.8333 354.5,81.5C 360.26,77.5318 365.76,73.1984 371,68.5C 374.617,69.5388 378.117,70.8722 381.5,72.5C 381.833,73.1667 382.167,73.8333 382.5,74.5C 381.724,78.1588 381.057,81.8255 380.5,85.5C 376.134,84.6587 371.801,83.6587 367.5,82.5C 366.289,83.2739 366.289,84.1072 367.5,85C 371.44,86.0153 375.44,86.5153 379.5,86.5C 378.694,90.9456 376.694,94.7789 373.5,98C 374.996,98.5074 376.163,98.0074 377,96.5C 378.741,93.6907 379.908,90.6907 380.5,87.5C 393.837,89.934 407.171,92.434 420.5,95C 421.066,95.9947 421.733,96.828 422.5,97.5 Z"/></g>
<g><path style="opacity:1" fill="#060606" d="M 545.5,74.5 C 545.666,80.5092 545.499,86.5092 545,92.5C 539.38,95.4652 534.047,95.1319 529,91.5C 528.501,85.8431 528.334,80.1764 528.5,74.5C 534.167,73.1667 539.833,73.1667 545.5,74.5 Z"/></g>
<g><path style="opacity:1" fill="#191919" d="M 573.5,76.5 C 580.241,76.0327 584.908,78.866 587.5,85C 586.863,86.7126 585.863,86.8793 584.5,85.5C 583.958,82.1273 582.124,79.7939 579,78.5C 577.14,80.2009 574.973,81.2009 572.5,81.5C 572.366,79.7085 572.699,78.0418 573.5,76.5 Z"/></g>
<g><path style="opacity:1" fill="#bababa" d="M 406.5,74.5 C 407.167,74.5 407.833,74.5 408.5,74.5C 408.534,79.9616 409.034,85.295 410,90.5C 408.054,87.8612 407.054,84.8612 407,81.5C 406.617,82.056 406.117,82.3893 405.5,82.5C 405.833,79.8333 406.167,77.1667 406.5,74.5 Z"/></g>
<g><path style="opacity:1" fill="#c2c2c2" d="M 526.5,74.5 C 527.167,74.5 527.833,74.5 528.5,74.5C 528.334,80.1764 528.501,85.8431 529,91.5C 534.047,95.1319 539.38,95.4652 545,92.5C 545.499,86.5092 545.666,80.5092 545.5,74.5C 546.167,75.8333 546.833,77.1667 547.5,78.5C 547.666,82.8461 547.499,87.1794 547,91.5C 546.626,92.4162 546.126,93.2496 545.5,94C 540.618,95.5547 535.618,95.888 530.5,95C 529.667,94.1667 528.833,93.3333 528,92.5C 526.696,86.5771 526.196,80.5771 526.5,74.5 Z"/></g>
<g><path style="opacity:1" fill="#d0d0d0" d="M 371.5,66.5 C 377.069,69.7774 382.736,70.1107 388.5,67.5C 388.5,68.1667 388.833,68.5 389.5,68.5C 388.828,69.2674 387.995,69.9341 387,70.5C 386.531,76.1815 386.698,81.8482 387.5,87.5C 391.834,88.3369 396.168,88.8369 400.5,89C 402.55,87.0349 404.217,84.8682 405.5,82.5C 405.451,85.0991 404.451,87.2658 402.5,89C 408.276,91.1909 414.276,92.6909 420.5,93.5C 421.079,90.2938 422.079,87.2938 423.5,84.5C 423.328,85.4916 423.662,86.1583 424.5,86.5C 423.847,87.8068 423.18,89.1401 422.5,90.5C 427.643,92.7856 432.976,94.4522 438.5,95.5C 438.5,96.1667 438.167,96.5 437.5,96.5C 432.5,95.6635 427.5,95.1635 422.5,95C 423.056,95.3826 423.389,95.8826 423.5,96.5C 422.833,96.5 422.5,96.8333 422.5,97.5C 421.733,96.828 421.066,95.9947 420.5,95C 407.171,92.434 393.837,89.934 380.5,87.5C 379.908,90.6907 378.741,93.6907 377,96.5C 376.163,98.0074 374.996,98.5074 373.5,98C 376.694,94.7789 378.694,90.9456 379.5,86.5C 375.44,86.5153 371.44,86.0153 367.5,85C 366.289,84.1072 366.289,83.2739 367.5,82.5C 371.801,83.6587 376.134,84.6587 380.5,85.5C 381.057,81.8255 381.724,78.1588 382.5,74.5C 382.167,73.8333 381.833,73.1667 381.5,72.5C 378.117,70.8722 374.617,69.5388 371,68.5C 365.76,73.1984 360.26,77.5318 354.5,81.5C 353.833,80.8333 353.167,80.1667 352.5,79.5C 359.014,76.7392 364.681,72.7392 369.5,67.5C 370.492,67.6716 371.158,67.3382 371.5,66.5 Z"/></g>
<g><path style="opacity:1" fill="#1d1d1d" d="M 383.5,75.5 C 384.117,75.6107 384.617,75.944 385,76.5C 385.498,79.8168 385.665,83.1501 385.5,86.5C 384.022,86.762 382.689,86.4287 381.5,85.5C 382.802,82.2921 383.469,78.9588 383.5,75.5 Z"/></g>
<g><path style="opacity:1" fill="#151515" d="M 580.5,86.5 C 600.469,89.4367 608.302,100.77 604,120.5C 597.196,133.331 586.696,137.831 572.5,134C 559.103,127.023 554.603,116.189 559,101.5C 563.444,92.3785 570.611,87.3785 580.5,86.5 Z"/></g>
<g><path style="opacity:1" fill="#070707" d="M 343.5,89.5 C 345.833,89.5 348.167,89.5 350.5,89.5C 350.719,90.675 350.386,91.675 349.5,92.5C 347.018,93.0671 344.684,93.7337 342.5,94.5C 339.916,92.5809 340.25,90.9142 343.5,89.5 Z"/></g>
<g><path style="opacity:1" fill="#f0f0f0" d="M 575.5,90.5 C 577.167,90.5 578.833,90.5 580.5,90.5C 580.829,96.2055 580.495,101.872 579.5,107.5C 575.981,103.148 571.981,99.3143 567.5,96C 570.059,93.897 572.726,92.0637 575.5,90.5 Z"/></g>
<g><path style="opacity:1" fill="#f2f2f2" d="M 582.5,90.5 C 587.545,90.69 591.878,92.5233 595.5,96C 591.019,99.3143 587.019,103.148 583.5,107.5C 582.505,101.872 582.171,96.2055 582.5,90.5 Z"/></g>
<g><path style="opacity:1" fill="#a1a1a1" d="M 352.5,83.5 C 354.728,91.5917 351.728,95.5917 343.5,95.5C 343.5,94.8333 343.167,94.5 342.5,94.5C 344.684,93.7337 347.018,93.0671 349.5,92.5C 350.386,91.675 350.719,90.675 350.5,89.5C 348.167,89.5 345.833,89.5 343.5,89.5C 345.948,88.5269 348.615,88.1936 351.5,88.5C 351.216,86.5853 351.549,84.9187 352.5,83.5 Z"/></g>
<g><path style="opacity:1" fill="#171717" d="M 502.5,103.5 C 502.427,105.027 503.094,106.027 504.5,106.5C 509.982,125.403 502.982,134.903 483.5,135C 472.908,130.647 468.408,122.814 470,111.5C 474.524,100.329 482.691,96.1622 494.5,99C 497.356,100.259 500.023,101.759 502.5,103.5 Z"/></g>
<g><path style="opacity:1" fill="#e8e8e8" d="M 565.5,97.5 C 569.631,101.13 573.631,104.963 577.5,109C 571.956,110.404 566.29,110.904 560.5,110.5C 560.796,105.608 562.463,101.275 565.5,97.5 Z"/></g>
<g><path style="opacity:1" fill="#f5f5f5" d="M 596.5,97.5 C 600.067,100.633 602.067,104.633 602.5,109.5C 596.824,109.666 591.157,109.499 585.5,109C 589.37,105.298 593.037,101.464 596.5,97.5 Z"/></g>
<g><path style="opacity:1" fill="#181818" d="M 423.5,96.5 C 423.389,95.8826 423.056,95.3826 422.5,95C 427.5,95.1635 432.5,95.6635 437.5,96.5C 441.92,98.2662 446.586,99.0995 451.5,99C 447.192,97.6733 442.859,96.5066 438.5,95.5C 432.976,94.4522 427.643,92.7856 422.5,90.5C 423.18,89.1401 423.847,87.8068 424.5,86.5C 424.336,83.8127 424.503,81.146 425,78.5C 426.755,82.4116 426.921,86.4116 425.5,90.5C 441.27,94.3598 456.937,98.6931 472.5,103.5C 471.829,104.946 470.662,105.612 469,105.5C 454.005,101.668 438.839,98.6677 423.5,96.5 Z"/></g>
<g><path style="opacity:1" fill="#9c9c9c" d="M 438.5,95.5 C 442.859,96.5066 447.192,97.6733 451.5,99C 446.586,99.0995 441.92,98.2662 437.5,96.5C 438.167,96.5 438.5,96.1667 438.5,95.5 Z"/></g>
<g><path style="opacity:1" fill="#111111" d="M 368.5,101.5 C 370.167,101.5 371.833,101.5 373.5,101.5C 375.886,110.782 376.386,120.115 375,129.5C 373.274,130.576 371.441,130.743 369.5,130C 371.79,127.25 372.79,124.084 372.5,120.5C 371.567,114.046 370.233,107.713 368.5,101.5 Z"/></g>
<g><path style="opacity:1" fill="#131313" d="M 404.5,100.5 C 406.196,100.685 407.529,101.519 408.5,103C 405.366,106.498 401.866,109.665 398,112.5C 397.027,114.392 396.36,116.392 396,118.5C 394.529,120.872 393.363,120.872 392.5,118.5C 393,116.5 393.5,114.5 394,112.5C 398.082,108.924 401.582,104.924 404.5,100.5 Z"/></g>
<g><path style="opacity:1" fill="#ececec" d="M 482.5,101.5 C 484.167,101.5 485.833,101.5 487.5,101.5C 487.824,105.555 487.491,109.555 486.5,113.5C 483.833,110.833 481.167,108.167 478.5,105.5C 479.549,103.784 480.882,102.451 482.5,101.5 Z"/></g>
<g><path style="opacity:1" fill="#f6f6f6" d="M 489.5,101.5 C 492.928,101.547 495.928,102.713 498.5,105C 495.667,107.833 492.833,110.667 490,113.5C 489.501,109.514 489.334,105.514 489.5,101.5 Z"/></g>
<g><path style="opacity:1" fill="#b5b5b5" d="M 530.5,100.5 C 531.043,100.56 531.376,100.893 531.5,101.5C 522.184,102.332 512.851,102.832 503.5,103C 512.691,104.143 522.024,104.976 531.5,105.5C 531.376,106.107 531.043,106.44 530.5,106.5C 521.833,105.167 513.167,105.167 504.5,106.5C 503.094,106.027 502.427,105.027 502.5,103.5C 511.622,101.843 520.955,100.843 530.5,100.5 Z"/></g>
<g><path style="opacity:1" fill="#cecece" d="M 532.5,100.5 C 535.572,100.183 538.572,100.516 541.5,101.5C 540,101.833 538.5,102.167 537,102.5C 535.014,102.431 533.514,101.765 532.5,100.5 Z"/></g>
<g><path style="opacity:1" fill="#ebebeb" d="M 532.5,104.5 C 535.572,104.183 538.572,104.516 541.5,105.5C 540,105.833 538.5,106.167 537,106.5C 535.014,106.431 533.514,105.765 532.5,104.5 Z"/></g>
<g><path style="opacity:1" fill="#f2f2f2" d="M 476.5,106.5 C 479.631,109.129 482.631,111.962 485.5,115C 481.167,115.667 476.833,115.667 472.5,115C 473.167,111.833 474.501,109 476.5,106.5 Z"/></g>
<g><path style="opacity:1" fill="#f7f7f7" d="M 498.5,106.5 C 501.931,108.348 503.597,111.348 503.5,115.5C 499.486,115.666 495.486,115.499 491.5,115C 494.447,112.564 496.78,109.731 498.5,106.5 Z"/></g>
<g><path style="opacity:1" fill="#131313" d="M 415.5,107.5 C 417.984,109.12 419.484,111.453 420,114.5C 420.699,119.703 420.199,124.703 418.5,129.5C 416.833,129.5 415.167,129.5 413.5,129.5C 415.489,125.993 416.489,122.159 416.5,118C 416.196,114.489 415.863,110.989 415.5,107.5 Z"/></g>
<g><path style="opacity:1" fill="#121212" d="M 339.5,110.5 C 341.382,112.239 342.715,114.406 343.5,117C 342.381,118.876 340.714,119.709 338.5,119.5C 338.508,116.455 338.841,113.455 339.5,110.5 Z"/></g>
<g><path style="opacity:1" fill="#f8f8f8" d="M 560.5,112.5 C 566.176,112.334 571.843,112.501 577.5,113C 573.623,116.708 569.957,120.542 566.5,124.5C 562.92,121.339 560.92,117.339 560.5,112.5 Z"/></g>
<g><path style="opacity:1" fill="#f8f8f8" d="M 585.5,113.5 C 590.975,112.511 596.642,112.178 602.5,112.5C 602.08,117.339 600.08,121.339 596.5,124.5C 593.173,120.506 589.506,116.839 585.5,113.5 Z"/></g>
<g><path style="opacity:1" fill="#f0f0f0" d="M 579.5,114.5 C 580.489,119.975 580.822,125.642 580.5,131.5C 575.584,131.71 571.251,130.21 567.5,127C 571.704,122.964 575.704,118.798 579.5,114.5 Z"/></g>
<g><path style="opacity:1" fill="#f2f2f2" d="M 582.5,114.5 C 586.812,118.146 590.812,122.146 594.5,126.5C 591.38,130.1 587.38,131.767 582.5,131.5C 582.5,125.833 582.5,120.167 582.5,114.5 Z"/></g>
<g><path style="opacity:1" fill="#f2f2f2" d="M 472.5,117.5 C 476.846,117.334 481.179,117.501 485.5,118C 482.651,121.016 479.651,123.85 476.5,126.5C 474.342,123.852 473.008,120.852 472.5,117.5 Z"/></g>
<g><path style="opacity:1" fill="#f5f5f5" d="M 491.5,118.5 C 495.298,117.517 499.298,117.183 503.5,117.5C 503.513,121.137 502.18,124.137 499.5,126.5C 496.827,123.8 494.16,121.133 491.5,118.5 Z"/></g>
<g><path style="opacity:1" fill="#f0f0f0" d="M 489.5,119.5 C 492.631,122.129 495.631,124.962 498.5,128C 496.164,130.833 493.164,132 489.5,131.5C 489.5,127.5 489.5,123.5 489.5,119.5 Z"/></g>
<g><path style="opacity:1" fill="#f0f0f0" d="M 486.5,119.5 C 487.811,123.683 487.811,128.016 486.5,132.5C 483.554,131.694 480.888,130.361 478.5,128.5C 481.189,125.48 483.856,122.48 486.5,119.5 Z"/></g>
<g><path style="opacity:1" fill="#020202" d="M 556.5,259.5 C 558.948,260.473 561.615,260.806 564.5,260.5C 564.5,262.167 564.5,263.833 564.5,265.5C 534.833,265.5 505.167,265.5 475.5,265.5C 475.5,263.833 475.5,262.167 475.5,260.5C 483.91,262.266 486.743,259.266 484,251.5C 480.869,247.367 477.369,243.534 473.5,240C 450.833,239.333 428.167,239.333 405.5,240C 400.684,244.124 398.517,249.291 399,255.5C 400.451,257.464 402.284,258.797 404.5,259.5C 405.919,260.451 407.585,260.784 409.5,260.5C 409.5,262.167 409.5,263.833 409.5,265.5C 394.833,265.5 380.167,265.5 365.5,265.5C 365.5,263.833 365.5,262.167 365.5,260.5C 372.639,259.969 378.972,257.469 384.5,253C 389,248.5 393.5,244 398,239.5C 417.474,214.725 437.307,190.225 457.5,166C 459.5,165.333 461.5,165.333 463.5,166C 491.167,195.667 518.833,225.333 546.5,255C 549.48,257.324 552.813,258.824 556.5,259.5 Z"/></g>
<g><path style="opacity:1" fill="#030303" d="M 268.5,166.5 C 293.395,164.893 317.395,168.726 340.5,178C 353.849,182.681 363.349,191.515 369,204.5C 374.414,227.839 366.248,244.673 344.5,255C 304.418,272.207 264.085,272.874 223.5,257C 207.367,251.203 197.201,240.037 193,223.5C 191.635,207.397 197.468,194.564 210.5,185C 228.487,174.281 247.821,168.114 268.5,166.5 Z"/></g>
<g><path style="opacity:1" fill="#040404" d="M 164.5,172.5 C 166.167,172.5 167.833,172.5 169.5,172.5C 169.5,182.5 169.5,192.5 169.5,202.5C 167.801,202.66 166.134,202.494 164.5,202C 159.055,191.888 151.055,184.555 140.5,180C 124.846,172.785 108.846,171.785 92.5,177C 77.7348,186.361 70.7348,199.861 71.5,217.5C 72.6149,249.114 88.9482,263.614 120.5,261C 139.918,258.306 154.585,248.64 164.5,232C 166.473,231.505 168.473,231.338 170.5,231.5C 170.5,242.5 170.5,253.5 170.5,264.5C 168.473,264.662 166.473,264.495 164.5,264C 162.163,260.748 158.997,259.248 155,259.5C 144.011,262.705 132.844,265.205 121.5,267C 101.27,268.636 81.2698,267.303 61.5,263C 49.5639,259.618 39.0639,253.785 30,245.5C 16.476,227.678 16.1427,209.678 29,191.5C 38.8924,182.3 50.3924,175.8 63.5,172C 85.669,165.7 108.002,165.033 130.5,170C 138.799,172.599 147.132,175.099 155.5,177.5C 159.285,177.11 162.285,175.444 164.5,172.5 Z"/></g>
<g><path style="opacity:1" fill="#030303" d="M 635.5,166.5 C 645.939,166.093 656.272,166.926 666.5,169C 677.115,171.445 687.615,174.279 698,177.5C 701.827,177.504 704.66,175.837 706.5,172.5C 708.396,171.534 710.396,171.201 712.5,171.5C 712.5,181.833 712.5,192.167 712.5,202.5C 710.396,202.799 708.396,202.466 706.5,201.5C 695.506,184.659 679.839,175.492 659.5,174C 629.571,172.756 614.238,187.256 613.5,217.5C 612.844,241.08 623.844,255.58 646.5,261C 665.728,262.612 682.728,257.279 697.5,245C 701.081,241.252 704.081,237.085 706.5,232.5C 708.396,231.534 710.396,231.201 712.5,231.5C 712.5,242.5 712.5,253.5 712.5,264.5C 708.719,265.211 705.719,264.045 703.5,261C 701.634,260.015 699.634,259.515 697.5,259.5C 687.211,262.155 676.878,264.655 666.5,267C 645.293,268.585 624.293,267.252 603.5,263C 589.67,259.49 578.17,252.323 569,241.5C 556.768,220.06 559.934,201.227 578.5,185C 595.92,173.733 614.92,167.567 635.5,166.5 Z"/></g>
<g><path style="opacity:1" fill="#010101" d="M 799.5,182.5 C 798.506,192.653 798.172,202.986 798.5,213.5C 818.674,213.83 838.674,213.497 858.5,212.5C 858.667,201.828 858.5,191.161 858,180.5C 854.731,175.053 849.898,173.053 843.5,174.5C 843.5,172.833 843.5,171.167 843.5,169.5C 868.833,169.5 894.167,169.5 919.5,169.5C 919.5,171.167 919.5,172.833 919.5,174.5C 913.614,173.343 908.781,175.01 905,179.5C 904.333,204.5 904.333,229.5 905,254.5C 908.366,259.686 913.199,261.686 919.5,260.5C 919.5,262.167 919.5,263.833 919.5,265.5C 894.167,265.5 868.833,265.5 843.5,265.5C 843.5,263.833 843.5,262.167 843.5,260.5C 849.734,261.627 854.568,259.627 858,254.5C 858.5,242.505 858.667,230.505 858.5,218.5C 838.5,218.5 818.5,218.5 798.5,218.5C 798.333,229.838 798.5,241.172 799,252.5C 799.365,256.596 801.532,258.929 805.5,259.5C 807.948,260.473 810.615,260.806 813.5,260.5C 813.5,262.167 813.5,263.833 813.5,265.5C 788.167,265.5 762.833,265.5 737.5,265.5C 737.5,263.833 737.5,262.167 737.5,260.5C 743.386,261.657 748.219,259.99 752,255.5C 753.129,242.553 753.629,229.553 753.5,216.5C 753.333,204.833 753.167,193.167 753,181.5C 752.315,178.943 750.815,177.109 748.5,176C 744.94,174.763 741.273,174.263 737.5,174.5C 737.5,172.833 737.5,171.167 737.5,169.5C 763.167,169.5 788.833,169.5 814.5,169.5C 814.5,171.167 814.5,172.833 814.5,174.5C 809.879,173.993 805.546,174.826 801.5,177C 800.139,178.584 799.472,180.418 799.5,182.5 Z"/></g>
<g><path style="opacity:1" fill="#404040" d="M 164.5,172.5 C 166.265,171.539 168.265,171.205 170.5,171.5C 170.828,182.014 170.494,192.347 169.5,202.5C 169.5,192.5 169.5,182.5 169.5,172.5C 167.833,172.5 166.167,172.5 164.5,172.5 Z"/></g>
<g><path style="opacity:1" fill="#fcfcfc" d="M 271.5,172.5 C 283.396,171.156 294.73,172.99 305.5,178C 315.288,185.736 320.788,195.902 322,208.5C 324.304,253.424 303.804,269.924 260.5,258C 252.601,253.717 247.434,247.217 245,238.5C 238.755,219.499 240.755,201.499 251,184.5C 256.773,178.535 263.607,174.535 271.5,172.5 Z"/></g>
<g><path style="opacity:1" fill="#fcfcfc" d="M 467.5,233.5 C 448.659,233.83 429.993,233.497 411.5,232.5C 419.786,221.708 428.286,211.041 437,200.5C 447.372,211.37 457.539,222.37 467.5,233.5 Z"/></g>
<g><path style="opacity:1" fill="#adadad" d="M 799.5,182.5 C 799.5,192.5 799.5,202.5 799.5,212.5C 819.167,212.5 838.833,212.5 858.5,212.5C 838.674,213.497 818.674,213.83 798.5,213.5C 798.172,202.986 798.506,192.653 799.5,182.5 Z"/></g>
<g><path style="opacity:1" fill="#7f7f7f" d="M 411.5,232.5 C 429.993,233.497 448.659,233.83 467.5,233.5C 448.662,234.828 429.662,234.828 410.5,233.5C 410.624,232.893 410.957,232.56 411.5,232.5 Z"/></g>
<g><path style="opacity:1" fill="#535353" d="M 404.5,259.5 C 406.5,259.5 408.5,259.5 410.5,259.5C 410.795,261.735 410.461,263.735 409.5,265.5C 409.5,263.833 409.5,262.167 409.5,260.5C 407.585,260.784 405.919,260.451 404.5,259.5 Z"/></g>
<g><path style="opacity:1" fill="#b4b4b4" d="M 556.5,259.5 C 559.5,259.5 562.5,259.5 565.5,259.5C 565.5,261.833 565.5,264.167 565.5,266.5C 535.329,266.831 505.329,266.498 475.5,265.5C 505.167,265.5 534.833,265.5 564.5,265.5C 564.5,263.833 564.5,262.167 564.5,260.5C 561.615,260.806 558.948,260.473 556.5,259.5 Z"/></g>
<g><path style="opacity:1" fill="#b3b3b3" d="M 805.5,259.5 C 808.5,259.5 811.5,259.5 814.5,259.5C 814.5,261.833 814.5,264.167 814.5,266.5C 788.661,266.831 762.995,266.498 737.5,265.5C 762.833,265.5 788.167,265.5 813.5,265.5C 813.5,263.833 813.5,262.167 813.5,260.5C 810.615,260.806 807.948,260.473 805.5,259.5 Z"/></g>
</svg>
