<?xml version="1.0" encoding="UTF-8"?>
<!DOCTYPE svg PUBLIC "-//W3C//DTD SVG 1.1//EN" "http://www.w3.org/Graphics/SVG/1.1/DTD/svg11.dtd">
<svg xmlns="http://www.w3.org/2000/svg" version="1.1" width="2400px" height="1400px" style="shape-rendering:geometricPrecision; text-rendering:geometricPrecision; image-rendering:optimizeQuality; fill-rule:evenodd; clip-rule:evenodd" xmlns:xlink="http://www.w3.org/1999/xlink">
<g><path style="opacity:0.993" fill="#221e1f" d="M 339.5,397.5 C 340.251,396.427 341.251,396.26 342.5,397C 390.391,426.537 434.558,461.037 475,500.5C 495.018,520.864 511.351,543.864 524,569.5C 535.478,593.793 537.478,618.793 530,644.5C 528.753,647.329 527.253,649.995 525.5,652.5C 522.2,640.9 517.033,630.234 510,620.5C 491.274,598.564 469.108,581.064 443.5,568C 423.297,557.313 402.464,548.147 381,540.5C 381.561,532.886 381.561,525.22 381,517.5C 373.072,475.342 359.239,435.342 339.5,397.5 Z"/></g>
<g><path style="opacity:0.99" fill="#221e1f" d="M 204.5,491.5 C 233.533,510.107 262.367,529.107 291,548.5C 302.66,576.186 310.66,604.519 315,633.5C 290.43,624.712 266.097,615.379 242,605.5C 242.824,588.768 240.49,572.435 235,556.5C 226.958,533.754 216.792,512.088 204.5,491.5 Z"/></g>
<g><path style="opacity:0.996" fill="#221e1f" d="M -0.5,1001.5 C -0.5,1001.17 -0.5,1000.83 -0.5,1000.5C 76.4819,913.129 98.9819,813.129 67,700.5C 62.8054,687.579 57.6387,675.079 51.5,663C 96.5477,685.443 141.381,708.609 186,732.5C 187.761,740.388 188.761,748.388 189,756.5C 189.667,776.5 189.667,796.5 189,816.5C 187.207,840.047 184.207,863.38 180,886.5C 221.951,787.818 221.951,689.152 180,590.5C 179.333,589.5 179.333,588.5 180,587.5C 227.667,619.5 275.333,651.5 323,683.5C 328.165,728.257 327.498,772.923 321,817.5C 318.319,831.569 315.652,845.569 313,859.5C 361.263,759.282 365.263,657.282 325,553.5C 318.761,538.522 311.594,524.022 303.5,510C 303.833,509.833 304.167,509.667 304.5,509.5C 390.848,570.046 473.182,635.88 551.5,707C 574.278,728.097 594.445,751.263 612,776.5C 622.003,792.166 626.837,809.333 626.5,828C 624.773,861.853 613.94,892.353 594,919.5C 588.865,904.028 579.031,892.528 564.5,885C 535.958,871.964 505.958,866.13 474.5,867.5C 421.999,869.139 370.332,876.639 319.5,890C 253.401,907.255 188.401,927.922 124.5,952C 82.6786,968.216 41.0119,984.716 -0.5,1001.5 Z"/></g>
<g><path style="opacity:0.987" fill="#221e1f" d="M 77.5,575.5 C 77.56,574.957 77.8933,574.624 78.5,574.5C 105.574,588.786 132.407,603.452 159,618.5C 168.496,641.819 175.662,665.819 180.5,690.5C 158.185,685.713 136.019,680.38 114,674.5C 114.911,657.634 112.245,641.3 106,625.5C 98.7771,607.37 89.2771,590.704 77.5,575.5 Z"/></g>
<g><path style="opacity:0.986" fill="#221e1f" d="M 809.5,633.5 C 851.011,632.128 890.011,641.295 926.5,661C 927.495,686.092 927.828,711.259 927.5,736.5C 923.233,736.797 919.066,736.464 915,735.5C 909.678,706.988 895.845,683.821 873.5,666C 848.073,651.252 821.739,649.585 794.5,661C 763.253,677.282 742.753,702.449 733,736.5C 720.247,785.082 729.581,828.749 761,867.5C 788.39,896.556 821.224,905.389 859.5,894C 876.452,886.382 889.619,874.548 899,858.5C 906.286,845.594 911.62,831.927 915,817.5C 919.066,816.536 923.233,816.203 927.5,816.5C 927.667,841.502 927.5,866.502 927,891.5C 870.477,922.617 811.977,927.117 751.5,905C 687.938,873.056 660.771,821.556 670,750.5C 681.674,696.157 713.841,659.99 766.5,642C 780.709,637.791 795.042,634.958 809.5,633.5 Z"/></g>
<g><path style="opacity:0.992" fill="#221e1f" d="M 1085.5,633.5 C 1149.12,632.873 1194.95,660.873 1223,717.5C 1241.4,763.747 1238.73,808.747 1215,852.5C 1183.63,900.45 1139.13,922.95 1081.5,920C 1028.05,913.862 989.548,886.696 966,838.5C 946.688,792.568 948.688,747.568 972,703.5C 998.065,661.212 1035.9,637.878 1085.5,633.5 Z M 1093.5,650.5 C 1120.92,653.132 1141.42,666.465 1155,690.5C 1180.13,740.159 1183.13,791.159 1164,843.5C 1156.69,862.798 1144.85,878.632 1128.5,891C 1101.44,906.646 1075.77,904.646 1051.5,885C 1035.68,869.544 1024.85,851.044 1019,829.5C 1007.23,787.016 1009.56,745.349 1026,704.5C 1035.46,680.703 1051.96,663.87 1075.5,654C 1081.56,652.374 1087.56,651.208 1093.5,650.5 Z"/></g>
<g><path style="opacity:0.989" fill="#221e1f" d="M 1596.5,633.5 C 1625.51,633.002 1653.18,638.835 1679.5,651C 1680.49,672.091 1680.83,693.258 1680.5,714.5C 1677.55,714.777 1674.72,714.444 1672,713.5C 1667.36,694.38 1658.19,677.88 1644.5,664C 1622.84,648.602 1600.51,647.269 1577.5,660C 1558.79,673.115 1553.63,690.282 1562,711.5C 1568.93,722.091 1578.1,730.258 1589.5,736C 1605.34,743.057 1621.34,749.724 1637.5,756C 1685.96,776.319 1702.79,811.819 1688,862.5C 1673.43,893.895 1648.93,912.395 1614.5,918C 1591.79,921.188 1569.46,919.521 1547.5,913C 1535.28,908.888 1523.28,904.221 1511.5,899C 1509.52,876.063 1508.85,852.897 1509.5,829.5C 1513.17,829.5 1516.83,829.5 1520.5,829.5C 1526.56,860.156 1543.56,882.323 1571.5,896C 1589.77,902.783 1607.44,901.45 1624.5,892C 1639.67,877.836 1644.5,860.67 1639,840.5C 1633.22,829.717 1625.05,821.217 1614.5,815C 1596.32,805.744 1577.99,796.744 1559.5,788C 1520.09,766.832 1505.59,734.332 1516,690.5C 1526.39,663.53 1545.55,646.03 1573.5,638C 1581.22,636.05 1588.89,634.55 1596.5,633.5 Z"/></g>
<g><path style="opacity:0.989" fill="#221e1f" d="M 1816.5,639.5 C 1827.85,639.168 1839.19,639.501 1850.5,640.5C 1883.76,723.127 1916.93,805.793 1950,888.5C 1951.44,891.603 1953.27,894.436 1955.5,897C 1962.17,900.667 1968.83,904.333 1975.5,908C 1976.41,909.699 1976.74,911.533 1976.5,913.5C 1938.83,913.5 1901.17,913.5 1863.5,913.5C 1863.26,911.533 1863.59,909.699 1864.5,908C 1869.34,905.079 1874.34,902.412 1879.5,900C 1885.65,896.855 1888.98,891.855 1889.5,885C 1882.54,865.25 1874.88,845.75 1866.5,826.5C 1835.17,825.167 1803.83,825.167 1772.5,826.5C 1763.94,846.285 1755.94,866.285 1748.5,886.5C 1749.41,891.481 1751.74,895.648 1755.5,899C 1761.01,902.255 1766.68,905.255 1772.5,908C 1773.41,909.699 1773.74,911.533 1773.5,913.5C 1745.83,913.5 1718.17,913.5 1690.5,913.5C 1690.26,911.533 1690.59,909.699 1691.5,908C 1697.99,904.922 1704.32,901.588 1710.5,898C 1713.53,895.441 1715.7,892.274 1717,888.5C 1750.27,805.516 1783.44,722.516 1816.5,639.5 Z M 1817.5,709.5 C 1830.59,740.869 1843.59,772.369 1856.5,804C 1830.83,804.667 1805.17,804.667 1779.5,804C 1792.59,772.663 1805.25,741.163 1817.5,709.5 Z"/></g>
<g><path style="opacity:0.992" fill="#221e20" d="M 1989.5,639.5 C 2025.17,639.5 2060.83,639.5 2096.5,639.5C 2096.8,641.604 2096.47,643.604 2095.5,645.5C 2089.37,648.465 2083.37,651.632 2077.5,655C 2074.57,657.264 2072.4,660.098 2071,663.5C 2070.33,738.833 2070.33,814.167 2071,889.5C 2072.07,892.242 2073.57,894.742 2075.5,897C 2081.91,901.068 2088.58,904.735 2095.5,908C 2096.41,909.699 2096.74,911.533 2096.5,913.5C 2060.83,913.5 2025.17,913.5 1989.5,913.5C 1989.1,910.956 1989.77,908.789 1991.5,907C 1999.08,903.963 2005.92,899.796 2012,894.5C 2013.56,892.043 2014.56,889.376 2015,886.5C 2015.67,813.167 2015.67,739.833 2015,666.5C 2014.35,662.363 2012.52,658.863 2009.5,656C 2003.17,652.5 1996.83,649 1990.5,645.5C 1989.53,643.604 1989.2,641.604 1989.5,639.5 Z"/></g>
<g><path style="opacity:0.988" fill="#221e1f" d="M 1236.5,640.5 C 1284.17,640.333 1331.83,640.5 1379.5,641C 1435.63,643.454 1461.79,672.62 1458,728.5C 1450.79,767.713 1427.29,788.547 1387.5,791C 1397.07,796.812 1407.4,800.645 1418.5,802.5C 1434.49,833.155 1451.99,862.822 1471,891.5C 1481.41,905.911 1493.24,919.078 1506.5,931C 1510.5,933.667 1514.5,936.333 1518.5,939C 1503.12,942.416 1487.78,941.749 1472.5,937C 1450.01,931.345 1430.84,920.178 1415,903.5C 1388.84,862.155 1363.67,820.155 1339.5,777.5C 1348.48,776.668 1357.48,776.168 1366.5,776C 1386.71,770.453 1398.54,757.286 1402,736.5C 1402.67,724.5 1402.67,712.5 1402,700.5C 1399.53,686.394 1393.03,674.561 1382.5,665C 1377.72,661.279 1372.39,658.612 1366.5,657C 1351.83,656.333 1337.17,656.333 1322.5,657C 1320.11,658.952 1318.61,661.452 1318,664.5C 1317.33,739.5 1317.33,814.5 1318,889.5C 1319.07,892.242 1320.57,894.742 1322.5,897C 1329.17,900.667 1335.83,904.333 1342.5,908C 1343.41,909.699 1343.74,911.533 1343.5,913.5C 1307.83,913.5 1272.17,913.5 1236.5,913.5C 1236.34,911.801 1236.51,910.134 1237,908.5C 1243.09,904.873 1249.25,901.373 1255.5,898C 1258.81,895.222 1260.97,891.722 1262,887.5C 1262.67,813.5 1262.67,739.5 1262,665.5C 1261.06,661.793 1259.23,658.626 1256.5,656C 1250.17,652.5 1243.83,649 1237.5,645.5C 1236.55,643.955 1236.21,642.288 1236.5,640.5 Z"/></g>
<g><path style="opacity:0.993" fill="#221e1f" d="M 2399.5,938.5 C 2399.5,938.833 2399.5,939.167 2399.5,939.5C 2362.1,943.756 2329.1,933.589 2300.5,909C 2272.2,866.249 2245.53,822.416 2220.5,777.5C 2229.48,776.668 2238.48,776.168 2247.5,776C 2267.68,770.479 2279.51,757.312 2283,736.5C 2283.67,724.5 2283.67,712.5 2283,700.5C 2280.53,686.394 2274.03,674.561 2263.5,665C 2258.72,661.279 2253.39,658.612 2247.5,657C 2232.83,656.333 2218.17,656.333 2203.5,657C 2201.11,658.952 2199.61,661.452 2199,664.5C 2198.33,739.5 2198.33,814.5 2199,889.5C 2200.07,892.242 2201.57,894.742 2203.5,897C 2210.17,900.667 2216.83,904.333 2223.5,908C 2224.41,909.699 2224.74,911.533 2224.5,913.5C 2188.83,913.5 2153.17,913.5 2117.5,913.5C 2117.34,911.801 2117.51,910.134 2118,908.5C 2124.09,904.873 2130.25,901.373 2136.5,898C 2139.81,895.222 2141.97,891.722 2143,887.5C 2143.67,813.833 2143.67,740.167 2143,666.5C 2142.56,663.624 2141.56,660.957 2140,658.5C 2133.25,653.538 2126.08,649.205 2118.5,645.5C 2117.55,643.955 2117.21,642.288 2117.5,640.5C 2168.52,640.047 2219.52,640.547 2270.5,642C 2320.3,648.711 2343.13,677.211 2339,727.5C 2332.07,767.762 2308.24,788.929 2267.5,791C 2277.88,796.569 2288.72,800.735 2300,803.5C 2318.5,840.62 2340.16,875.62 2365,908.5C 2374.55,920.891 2386.05,930.891 2399.5,938.5 Z"/></g>
</svg>
