<?xml version="1.0" encoding="UTF-8"?>
<!DOCTYPE svg PUBLIC "-//W3C//DTD SVG 1.1//EN" "http://www.w3.org/Graphics/SVG/1.1/DTD/svg11.dtd">
<svg xmlns="http://www.w3.org/2000/svg" version="1.1" width="3840px" height="2400px" style="shape-rendering:geometricPrecision; text-rendering:geometricPrecision; image-rendering:optimizeQuality; fill-rule:evenodd; clip-rule:evenodd" xmlns:xlink="http://www.w3.org/1999/xlink">
<g><path style="opacity:0.196" fill="#089fd2" d="M 23.5,802.5 C 23.5,934.833 23.5,1067.17 23.5,1199.5C 23.1671,1331.33 23.5004,1463 24.5,1594.5C 24.6309,1595.38 24.2975,1596.04 23.5,1596.5C 23.1667,1464.17 22.8333,1331.83 22.5,1199.5C 22.5,1067 22.8333,934.666 23.5,802.5 Z"/></g>
<g><path style="opacity:0.518" fill="#0ca4d7" d="M 451.5,803.5 C 451.5,803.167 451.5,802.833 451.5,802.5C 594.835,802.167 738.168,802.5 881.5,803.5C 881.376,804.107 881.043,804.44 880.5,804.5C 737.668,803.5 594.668,803.167 451.5,803.5 Z"/></g>
<g><path style="opacity:1" fill="#000001" d="M 23.5,802.5 C 166.167,802.5 308.833,802.5 451.5,802.5C 451.5,802.833 451.5,803.167 451.5,803.5C 309.16,935.84 166.493,1067.84 23.5,1199.5C 23.5,1067.17 23.5,934.833 23.5,802.5 Z"/></g>
<g><path style="opacity:1" fill="#00ccfe" d="M 451.5,803.5 C 594.668,803.167 737.668,803.5 880.5,804.5C 604.063,1059.77 327.729,1315.27 51.5,1571C 42.4371,1578.85 33.4371,1586.68 24.5,1594.5C 23.5004,1463 23.1671,1331.33 23.5,1199.5C 166.493,1067.84 309.16,935.84 451.5,803.5 Z"/></g>
<g><path style="opacity:1" fill="#009acf" d="M 880.5,973.5 C 978.285,973.529 1075.12,973.529 1171,973.5C 1203.58,974.403 1235.42,979.903 1266.5,990C 1327.19,1011.68 1365.02,1053.85 1380,1116.5C 1400.51,1230.74 1362.01,1318.57 1264.5,1380C 1224.17,1402.71 1181.01,1416.54 1135,1421.5C 1012.29,1421.63 889.125,1421.46 765.5,1421C 802.924,1271.81 841.257,1122.64 880.5,973.5 Z M 1041.5,1080.5 C 1066.82,1080.55 1091.65,1080.55 1116,1080.5C 1174.26,1085.41 1201.76,1116.91 1198.5,1175C 1190.47,1270.72 1138.47,1322.39 1042.5,1330C 1020.83,1330.67 999.167,1330.67 977.5,1330C 999.534,1247.03 1020.87,1163.87 1041.5,1080.5 Z"/></g>
<g><path style="opacity:1" fill="#009acf" d="M 1629.5,973.5 C 1699.17,973.167 1768.84,973.5 1838.5,974.5C 1867.04,1123.39 1895.04,1272.39 1922.5,1421.5C 1859.83,1421.67 1797.17,1421.5 1734.5,1421C 1733.42,1420.33 1732.75,1419.33 1732.5,1418C 1728.34,1394.52 1723.67,1371.18 1718.5,1348C 1686.17,1347.83 1653.83,1347.67 1621.5,1347.5C 1588.46,1347.84 1555.63,1347.84 1523,1347.5C 1508.71,1371.92 1494.54,1396.42 1480.5,1421C 1445.83,1421.5 1411.17,1421.67 1376.5,1421.5C 1377.09,1418.31 1378.26,1415.31 1380,1412.5C 1463.21,1266.08 1546.37,1119.74 1629.5,973.5 Z M 1669.5,1086.5 C 1679.57,1135.24 1688.9,1184.24 1697.5,1233.5C 1660.83,1233.83 1624.16,1233.5 1587.5,1232.5C 1615.36,1184.1 1642.7,1135.44 1669.5,1086.5 Z"/></g>
<g><path style="opacity:1" fill="#009acf" d="M 2104.5,973.5 C 2167.5,973.5 2230.5,973.5 2293.5,973.5C 2255.63,1122.63 2217.3,1271.63 2178.5,1420.5C 2115.5,1421.5 2052.5,1421.83 1989.5,1421.5C 2027.02,1271.94 2065.35,1122.61 2104.5,973.5 Z"/></g>
<g><path style="opacity:1" fill="#009acf" d="M 2402.5,973.5 C 2465.17,973.333 2527.83,973.5 2590.5,974C 2590.96,974.414 2591.29,974.914 2591.5,975.5C 2578.35,1024.09 2565.85,1072.76 2554,1121.5C 2610.46,1072.71 2666.63,1023.54 2722.5,974C 2784.97,973.004 2847.31,973.338 2909.5,975C 2828.83,1045.33 2748.17,1115.67 2667.5,1186C 2723.67,1263.5 2779.83,1341 2836,1418.5C 2836.48,1419.45 2836.65,1420.45 2836.5,1421.5C 2765.5,1421.67 2694.5,1421.5 2623.5,1421C 2586.95,1371.45 2550.78,1321.61 2515,1271.5C 2502.42,1321.55 2489.26,1371.38 2475.5,1421C 2412.36,1422 2349.36,1421.66 2286.5,1420C 2325.09,1271.13 2363.76,1122.3 2402.5,973.5 Z"/></g>
<g><path style="opacity:1" fill="#009acf" d="M 3028.5,973.5 C 3091.17,973.333 3153.83,973.5 3216.5,974C 3179.57,1122.9 3141.57,1271.73 3102.5,1420.5C 3039.5,1421.5 2976.5,1421.83 2913.5,1421.5C 2951.02,1271.94 2989.35,1122.61 3028.5,973.5 Z"/></g>
<g><path style="opacity:1" fill="#009acf" d="M 3483.5,973.5 C 3498.23,974.283 3512.23,974.283 3525.5,973.5C 3528.01,973.288 3530.18,973.955 3532,975.5C 3564.75,1060.77 3598.09,1145.77 3632,1230.5C 3653.69,1145.08 3675.69,1059.75 3698,974.5C 3718.76,973.836 3739.59,973.503 3760.5,973.5C 3781.65,973.338 3802.65,973.838 3823.5,975C 3784.93,1123.45 3746.43,1271.95 3708,1420.5C 3638.9,1421.66 3569.74,1421.83 3500.5,1421C 3467.26,1337.35 3434.43,1253.52 3402,1169.5C 3380.18,1253.13 3358.51,1336.8 3337,1420.5C 3295.57,1421.66 3254.07,1421.83 3212.5,1421C 3249.58,1272.53 3287.58,1124.03 3326.5,975.5C 3379,974.833 3431.33,974.167 3483.5,973.5 Z"/></g>
</svg>
