<?xml version="1.0" encoding="UTF-8"?>
<!DOCTYPE svg PUBLIC "-//W3C//DTD SVG 1.1//EN" "http://www.w3.org/Graphics/SVG/1.1/DTD/svg11.dtd">
<svg xmlns="http://www.w3.org/2000/svg" version="1.1" width="5000px" height="961px" style="shape-rendering:geometricPrecision; text-rendering:geometricPrecision; image-rendering:optimizeQuality; fill-rule:evenodd; clip-rule:evenodd" xmlns:xlink="http://www.w3.org/1999/xlink">
<g><path style="opacity:0.878" fill="#211c1d" d="M 774.5,64.5 C 829.5,64.5 884.5,64.5 939.5,64.5C 939.333,266.5 939.5,468.5 940,670.5C 940.647,688.053 943.98,705.053 950,721.5C 956.669,736.502 967.169,748.002 981.5,756C 1014.67,772.099 1049.67,778.432 1086.5,775C 1115.63,773.51 1142.3,764.844 1166.5,749C 1183.88,733.753 1194.04,714.586 1197,691.5C 1197.86,685.857 1198.53,680.19 1199,674.5C 1199.33,483.833 1199.67,293.167 1200,102.5C 1200.43,78.067 1212.93,65.567 1237.5,65C 1291.5,64.5 1345.5,64.3333 1399.5,64.5C 1399.67,259.5 1399.5,454.5 1399,649.5C 1391.6,750.564 1339.1,814.731 1241.5,842C 1163.43,860.227 1084.43,865.894 1004.5,859C 955.813,855.597 908.813,844.93 863.5,827C 779.443,790.793 738.277,726.626 740,634.5C 739.333,457.833 739.333,281.167 740,104.5C 739.251,80.2203 750.751,66.887 774.5,64.5 Z"/></g>
<g><path style="opacity:0.994" fill="#000000" d="M 190.5,66.5 C 338.167,66.5 485.833,66.5 633.5,66.5C 633.667,91.8355 633.5,117.169 633,142.5C 632.594,145.494 631.094,147.661 628.5,149C 538.21,150.323 447.877,150.99 357.5,151C 333.353,154.817 320.853,168.984 320,193.5C 319.5,260.499 319.333,327.499 319.5,394.5C 418.833,394.5 518.167,394.5 617.5,394.5C 617.667,421.169 617.5,447.835 617,474.5C 616.308,478.862 613.808,481.696 609.5,483C 512.834,483.5 416.167,483.667 319.5,483.5C 319.667,589.501 319.5,695.501 319,801.5C 315.163,822.705 302.329,833.539 280.5,834C 225.168,834.5 169.834,834.667 114.5,834.5C 114.333,602.5 114.5,370.5 115,138.5C 114.921,117.038 122.421,98.8709 137.5,84C 144.663,78.4184 152.663,74.4184 161.5,72C 171.194,69.5502 180.86,67.7169 190.5,66.5 Z"/></g>
<g><path style="opacity:0.992" fill="#000000" d="M 1789.5,66.5 C 1845.5,66.5 1901.5,66.5 1957.5,66.5C 1957.96,246.84 1957.46,427.173 1956,607.5C 1954.81,646.806 1946.47,684.473 1931,720.5C 1916.38,749.464 1896.21,773.964 1870.5,794C 1834.31,821.637 1793.65,839.637 1748.5,848C 1701.28,857.074 1653.61,861.241 1605.5,860.5C 1570.43,860.464 1535.43,858.964 1500.5,856C 1494.73,855.538 1489.06,854.538 1483.5,853C 1480.62,851.749 1478.79,849.583 1478,846.5C 1477.5,823.502 1477.33,800.502 1477.5,777.5C 1513.82,778.599 1550.16,778.766 1586.5,778C 1615.9,777.367 1644.9,773.7 1673.5,767C 1718.53,754.307 1746.03,725.141 1756,679.5C 1758.18,668.602 1759.51,657.602 1760,646.5C 1760.33,463.5 1760.67,280.5 1761,97.5C 1763.12,80.2215 1772.62,69.8882 1789.5,66.5 Z"/></g>
<g><path style="opacity:0.995" fill="#eb002b" d="M 2167.5,66.5 C 2222.5,66.5 2277.5,66.5 2332.5,66.5C 2332.67,150.501 2332.5,234.501 2332,318.5C 2330.38,324.896 2326.88,330.062 2321.5,334C 2259.36,381.976 2197.36,430.142 2135.5,478.5C 2134.33,352.168 2134.17,225.835 2135,99.5C 2137.34,79.9987 2148.17,68.9987 2167.5,66.5 Z"/></g>
<g><path style="opacity:0.991" fill="#000000" d="M 2610.5,66.5 C 2757.83,66.5 2905.17,66.5 3052.5,66.5C 3052.67,92.5021 3052.5,118.502 3052,144.5C 3050.52,147.663 3048.02,149.496 3044.5,150C 2955.5,150.333 2866.5,150.667 2777.5,151C 2755.67,154.167 2743.17,166.667 2740,188.5C 2739.5,257.166 2739.33,325.833 2739.5,394.5C 2838.5,394.5 2937.5,394.5 3036.5,394.5C 3036.67,422.169 3036.5,449.835 3036,477.5C 3034.75,480.381 3032.58,482.214 3029.5,483C 2932.83,483.5 2836.17,483.667 2739.5,483.5C 2739.67,587.834 2739.5,692.167 2739,796.5C 2736.91,820.59 2723.74,833.09 2699.5,834C 2644.17,834.5 2588.83,834.667 2533.5,834.5C 2533.5,717.5 2533.5,600.5 2533.5,483.5C 2487.83,483.667 2442.17,483.5 2396.5,483C 2441.58,447.046 2486.74,411.213 2532,375.5C 2533.33,299.915 2533.99,224.248 2534,148.5C 2533.24,128.669 2537.91,110.336 2548,93.5C 2557.46,81.8413 2569.63,74.3413 2584.5,71C 2593.25,69.1529 2601.92,67.6529 2610.5,66.5 Z"/></g>
<g><path style="opacity:0.994" fill="#000000" d="M 3201.5,66.5 C 3256.5,66.5 3311.5,66.5 3366.5,66.5C 3366.67,311.5 3366.5,556.5 3366,801.5C 3365.17,822.333 3354.33,833.167 3333.5,834C 3278.5,834.5 3223.5,834.667 3168.5,834.5C 3168.33,588.5 3168.5,342.5 3169,96.5C 3172.36,78.4036 3183.19,68.4036 3201.5,66.5 Z"/></g>
<g><path style="opacity:0.993" fill="#000000" d="M 3580.5,66.5 C 3636.5,66.5 3692.5,66.5 3748.5,66.5C 3748.33,277.834 3748.5,489.167 3749,700.5C 3752.7,728.53 3768.53,744.696 3796.5,749C 3868.81,750.474 3941.14,750.974 4013.5,750.5C 4013.67,775.169 4013.5,799.836 4013,824.5C 4011.9,829.26 4009.07,832.427 4004.5,834C 3883.82,834.977 3763.15,834.644 3642.5,833C 3586.89,828.06 3556.73,797.893 3552,742.5C 3551.33,527.167 3551.33,311.833 3552,96.5C 3553.93,79.0714 3563.43,69.0714 3580.5,66.5 Z"/></g>
<g><path style="opacity:0.992" fill="#000000" d="M 4141.5,66.5 C 4204.17,66.1667 4266.84,66.5 4329.5,67.5C 4372.86,260.935 4416.53,454.268 4460.5,647.5C 4503.47,470.631 4545.97,293.631 4588,116.5C 4595.22,87.2813 4613.72,70.7813 4643.5,67C 4723.83,66.5 4804.17,66.3333 4884.5,66.5C 4885,312.534 4884.5,558.534 4883,804.5C 4878.53,820.637 4868.03,830.137 4851.5,833C 4799.19,834.464 4746.86,834.964 4694.5,834.5C 4694.5,626.167 4694.5,417.833 4694.5,209.5C 4690.83,209.5 4687.17,209.5 4683.5,209.5C 4635.65,400.893 4587.49,592.226 4539,783.5C 4535.71,799.43 4528.21,812.93 4516.5,824C 4509.61,828.943 4501.94,831.943 4493.5,833C 4452.53,834.46 4411.53,834.96 4370.5,834.5C 4317.34,626.524 4264.17,418.524 4211,210.5C 4207.27,209.54 4203.44,209.207 4199.5,209.5C 4199.67,413.167 4199.5,616.834 4199,820.5C 4198.32,827.707 4194.48,832.207 4187.5,834C 4160.84,834.5 4134.17,834.667 4107.5,834.5C 4107.33,592.5 4107.5,350.5 4108,108.5C 4107.12,84.4966 4118.28,70.4966 4141.5,66.5 Z"/></g>
<g><path style="opacity:1" fill="#000000" d="M 1236.5,68.5 C 1289.5,68.5 1342.5,68.5 1395.5,68.5C 1395.5,261.833 1395.5,455.167 1395.5,648.5C 1392.65,729.77 1354.98,788.27 1282.5,824C 1247.22,838.653 1210.56,847.986 1172.5,852C 1096.27,861.855 1020.27,860.522 944.5,848C 904.458,840.655 866.792,826.988 831.5,807C 776.518,772.245 747.351,722.079 744,656.5C 743.333,468.5 743.333,280.5 744,92.5C 747.298,77.2067 756.798,69.0401 772.5,68C 827.166,67.5 881.832,67.3333 936.5,67.5C 936.333,268.5 936.5,469.5 937,670.5C 937.392,691.53 942.058,711.53 951,730.5C 960.493,745.993 973.66,757.16 990.5,764C 1030.78,779.456 1072.11,782.789 1114.5,774C 1135.64,770.259 1154.64,761.926 1171.5,749C 1185.38,736.071 1194.22,720.238 1198,701.5C 1200.07,691.937 1201.4,682.271 1202,672.5C 1202.33,481.167 1202.67,289.833 1203,98.5C 1204.92,78.2755 1216.09,68.2755 1236.5,68.5 Z"/></g>
<g><path style="opacity:1" fill="#0c0a0b" d="M 1236.5,68.5 C 1289.66,67.5011 1343,67.1677 1396.5,67.5C 1396.83,261.334 1396.5,455.001 1395.5,648.5C 1395.5,455.167 1395.5,261.833 1395.5,68.5C 1342.5,68.5 1289.5,68.5 1236.5,68.5 Z"/></g>
<g><path style="opacity:0.992" fill="#000000" d="M 2134.5,482.5 C 2200.5,482.5 2266.5,482.5 2332.5,482.5C 2332.67,589.834 2332.5,697.167 2332,804.5C 2329.77,823.727 2318.94,833.561 2299.5,834C 2244.5,834.5 2189.5,834.667 2134.5,834.5C 2134.5,717.167 2134.5,599.833 2134.5,482.5 Z"/></g>
</svg>
