<?xml version="1.0" encoding="UTF-8"?>
<!DOCTYPE svg PUBLIC "-//W3C//DTD SVG 1.1//EN" "http://www.w3.org/Graphics/SVG/1.1/DTD/svg11.dtd">
<svg xmlns="http://www.w3.org/2000/svg" version="1.1" width="5000px" height="1016px" style="shape-rendering:geometricPrecision; text-rendering:geometricPrecision; image-rendering:optimizeQuality; fill-rule:evenodd; clip-rule:evenodd" xmlns:xlink="http://www.w3.org/1999/xlink">
<g><path style="opacity:0.986" fill="#000000" d="M 1786.5,6.5 C 1822.85,6.25532 1851.35,20.922 1872,50.5C 1888.96,83.1636 1885.63,114.164 1862,143.5C 1846.33,162.165 1826.5,173.665 1802.5,178C 1773.36,179.679 1748.86,169.846 1729,148.5C 1711.72,129.925 1703.38,107.925 1704,82.5C 1708.59,53.574 1723.75,32.074 1749.5,18C 1761.3,12.0081 1773.63,8.17481 1786.5,6.5 Z"/></g>
<g><path style="opacity:0.993" fill="#000000" d="M 446.5,10.5 C 535.759,6.94244 623.093,18.1091 708.5,44C 718.416,52.6611 724.582,63.4944 727,76.5C 729.247,95.2692 732.247,113.936 736,132.5C 737.437,146.807 737.77,161.141 737,175.5C 732.667,184.833 728.333,194.167 724,203.5C 722.092,211.89 720.925,220.39 720.5,229C 730.739,345.518 717.572,459.351 681,570.5C 674.723,585.387 668.723,600.387 663,615.5C 646.764,652.383 618.431,670.716 578,670.5C 569.501,669.8 561.001,669.633 552.5,670C 599.693,768.581 646.693,867.248 693.5,966C 467.5,966.5 241.5,966.667 15.5,966.5C 50.231,792.678 84.8977,618.845 119.5,445C 118.994,440.485 117.494,436.319 115,432.5C 91.2909,415.791 71.2909,395.458 55,371.5C 40.0018,332.839 30.3351,292.839 26,251.5C 23.1747,232.469 23.1747,213.469 26,194.5C 26.7589,191.215 28.0922,188.215 30,185.5C 38.4337,176.054 48.267,168.554 59.5,163C 60.1078,161.769 60.4411,160.436 60.5,159C 51.0512,140.705 46.2179,121.205 46,100.5C 46.3387,92.8004 49.0054,86.1338 54,80.5C 105.456,57.5717 158.956,41.0717 214.5,31C 276.978,19.5856 339.978,13.919 403.5,14C 417.988,12.8238 432.321,11.6572 446.5,10.5 Z"/></g>
<g><path style="opacity:1" fill="#fef8f8" d="M 359.5,30.5 C 371.07,52.7361 383.07,74.7361 395.5,96.5C 394.486,97.6737 393.153,98.3404 391.5,98.5C 387.824,99.7541 384.324,101.421 381,103.5C 371.271,79.4838 361.437,55.4838 351.5,31.5C 353.718,29.1559 356.385,28.8226 359.5,30.5 Z"/></g>
<g><path style="opacity:1" fill="#ec1c2d" d="M 551.5,297.5 C 566.17,297.667 580.837,297.5 595.5,297C 594.255,296.209 592.922,295.709 591.5,295.5C 578.571,291.246 565.571,287.08 552.5,283C 546.273,282.527 541.106,284.694 537,289.5C 533.681,304.408 531.348,319.408 530,334.5C 564.079,359.123 598.245,383.623 632.5,408C 594.561,405.005 556.561,403.005 518.5,402C 488.879,413.209 459.545,425.209 430.5,438C 419.638,441.466 408.638,444.466 397.5,447C 344.564,454.085 291.398,458.585 238,460.5C 235.375,460.419 233.041,459.752 231,458.5C 213.943,389.177 196.777,319.844 179.5,250.5C 185.052,236.109 194.718,225.275 208.5,218C 240.995,208.127 273.995,200.293 307.5,194.5C 308.922,194.291 310.255,193.791 311.5,193C 307.514,192.501 303.514,192.334 299.5,192.5C 338.814,156.319 382.814,126.819 431.5,104C 447.211,101.9 462.878,102.234 478.5,105C 511.975,109.746 544.975,116.746 577.5,126C 582.572,126.751 587.572,126.418 592.5,125C 595.064,122.724 594.73,120.724 591.5,119C 577.585,111.58 562.918,105.914 547.5,102C 515.64,95.228 483.64,89.228 451.5,84C 442.525,82.6685 433.525,82.0018 424.5,82C 414.528,86.3194 404.861,91.1527 395.5,96.5C 383.07,74.7361 371.07,52.7361 359.5,30.5C 442.815,27.7611 525.815,31.5944 608.5,42C 637.437,45.7867 665.771,52.12 693.5,61C 698.551,63.0717 703.551,65.2384 708.5,67.5C 709,68.5 709.5,69.5 710,70.5C 710.167,74.3333 710.333,78.1667 710.5,82C 709.189,94.4666 708.023,106.967 707,119.5C 698.669,126.415 689.502,131.915 679.5,136C 675.705,139.793 672.705,144.126 670.5,149C 674.94,192.837 679.44,236.671 684,280.5C 686.678,297.233 689.345,313.9 692,330.5C 689.656,332.774 686.822,333.941 683.5,334C 642.5,334.667 601.5,334.667 560.5,334C 545.847,331.74 541.014,323.574 546,309.5C 547.609,305.29 549.442,301.29 551.5,297.5 Z"/></g>
<g><path style="opacity:1" fill="#eb1c2d" d="M 351.5,31.5 C 361.437,55.4838 371.271,79.4838 381,103.5C 384.324,101.421 387.824,99.7541 391.5,98.5C 348.031,125.287 307.698,156.287 270.5,191.5C 269.662,191.842 269.328,192.508 269.5,193.5C 243.465,192.566 217.798,195.066 192.5,201C 185.667,203.833 180.833,208.667 178,215.5C 176.637,223.429 176.137,231.429 176.5,239.5C 168.036,218.542 152.703,205.708 130.5,201C 119.833,200.333 109.167,200.333 98.5,201C 91.3503,201.58 84.3503,202.914 77.5,205C 71.443,207.619 67.6097,212.119 66,218.5C 65.3333,221.167 65.3333,223.833 66,226.5C 113.833,304.333 161.667,382.167 209.5,460C 170.102,442.93 133.435,421.264 99.5,395C 91.3635,387.865 83.5302,380.365 76,372.5C 66.8832,356.251 60.5499,338.917 57,320.5C 49.3679,284.213 46.3679,247.546 48,210.5C 49.0096,203.807 51.0096,197.473 54,191.5C 59.411,186.54 65.5777,182.706 72.5,180C 102.663,167.834 133.997,161.834 166.5,162C 185.875,164.212 199.875,174.046 208.5,191.5C 209.334,192.748 210.667,193.415 212.5,193.5C 214.045,193.489 215.378,193.156 216.5,192.5C 214.446,177.224 207.779,164.391 196.5,154C 192.952,152.059 189.286,150.393 185.5,149C 151.734,144.138 118.401,146.138 85.5,155C 82.1832,155.498 78.8499,155.665 75.5,155.5C 73.6897,138.111 71.3564,120.777 68.5,103.5C 69.1786,95.9914 72.8453,90.4914 79.5,87C 167.168,54.2538 257.834,35.7538 351.5,31.5 Z"/></g>
<g><path style="opacity:0.99" fill="#000000" d="M 3748.5,43.5 C 3753.83,43.5 3759.17,43.5 3764.5,43.5C 3764.5,98.1667 3764.5,152.833 3764.5,207.5C 3801.5,207.5 3838.5,207.5 3875.5,207.5C 3875.65,208.552 3875.48,209.552 3875,210.5C 3867.96,222.084 3860.79,233.584 3853.5,245C 3823.84,245.5 3794.17,245.667 3764.5,245.5C 3764.33,360.5 3764.5,475.5 3765,590.5C 3765.61,616.534 3770.94,641.534 3781,665.5C 3802.14,705.658 3833.64,716.824 3875.5,699C 3883.36,694.571 3890.69,689.405 3897.5,683.5C 3900.79,687.912 3903.46,692.745 3905.5,698C 3847.15,745.923 3780.48,762.923 3705.5,749C 3638.79,736.627 3601.29,696.794 3593,629.5C 3592.5,501.5 3592.33,373.5 3592.5,245.5C 3560.5,245.667 3528.5,245.5 3496.5,245C 3584.77,201.758 3661.93,143.592 3728,70.5C 3735.33,61.8293 3742.16,52.8293 3748.5,43.5 Z"/></g>
<g><path style="opacity:1" fill="#040000" d="M 299.5,192.5 C 289.652,192.827 279.986,192.494 270.5,191.5C 307.698,156.287 348.031,125.287 391.5,98.5C 393.153,98.3404 394.486,97.6737 395.5,96.5C 404.861,91.1527 414.528,86.3194 424.5,82C 433.525,82.0018 442.525,82.6685 451.5,84C 483.64,89.228 515.64,95.228 547.5,102C 562.918,105.914 577.585,111.58 591.5,119C 594.73,120.724 595.064,122.724 592.5,125C 587.572,126.418 582.572,126.751 577.5,126C 544.975,116.746 511.975,109.746 478.5,105C 462.878,102.234 447.211,101.9 431.5,104C 382.814,126.819 338.814,156.319 299.5,192.5 Z"/></g>
<g><path style="opacity:1" fill="#e51b2c" d="M 706.5,140.5 C 709.607,140.351 712.607,140.851 715.5,142C 718.667,144.5 721.833,147 725,149.5C 725.483,155.068 724.483,160.401 722,165.5C 720.431,166.122 718.764,166.456 717,166.5C 706.55,164.894 696.05,163.728 685.5,163C 690.983,154.019 697.983,146.519 706.5,140.5 Z"/></g>
<g><path style="opacity:1" fill="#020000" d="M 479.5,143.5 C 495.717,141.89 511.383,144.057 526.5,150C 533.037,154.542 538.204,160.375 542,167.5C 546.351,175.222 549.518,183.389 551.5,192C 548.787,194.03 545.787,195.696 542.5,197C 518.97,206.04 494.636,210.04 469.5,209C 443.178,204.82 416.844,200.82 390.5,197C 379.05,195.475 368.383,191.808 358.5,186C 396.562,165.147 436.895,150.981 479.5,143.5 Z"/></g>
<g><path style="opacity:1" fill="#fff7f7" d="M 619.5,154.5 C 621.766,154.141 623.599,154.808 625,156.5C 634.019,202.947 641.852,249.613 648.5,296.5C 647.461,306.189 642.461,308.856 633.5,304.5C 628.896,255.795 623.896,207.128 618.5,158.5C 618.623,157.075 618.957,155.742 619.5,154.5 Z"/></g>
<g><path style="opacity:0.909" fill="#010101" d="M 4911.5,165.5 C 4931.08,164.372 4945.92,172.039 4956,188.5C 4962.92,205.212 4961.59,221.212 4952,236.5C 4940.02,249.606 4925.18,254.773 4907.5,252C 4881.18,244.888 4869.68,227.721 4873,200.5C 4877.79,179.876 4890.62,168.209 4911.5,165.5 Z M 4911.5,176.5 C 4929.62,175.793 4941.12,184.126 4946,201.5C 4948.12,214.472 4944.62,225.639 4935.5,235C 4923.36,243.272 4911.03,243.606 4898.5,236C 4885.42,222.701 4882.92,207.535 4891,190.5C 4896.12,183.199 4902.95,178.533 4911.5,176.5 Z M 4909.5,194.5 C 4913.51,194.334 4917.51,194.501 4921.5,195C 4925.42,197.818 4925.42,200.818 4921.5,204C 4917.51,204.499 4913.51,204.666 4909.5,204.5C 4909.5,201.167 4909.5,197.833 4909.5,194.5 Z"/></g>
<g><path style="opacity:0.907" fill="#010101" d="M 4898.5,185.5 C 4907.17,185.334 4915.84,185.5 4924.5,186C 4934.61,188.716 4938.11,195.216 4935,205.5C 4933.04,209.459 4929.87,211.959 4925.5,213C 4929.54,218.919 4933.21,225.086 4936.5,231.5C 4932.17,232.833 4927.83,232.833 4923.5,231.5C 4920.41,226.325 4917.58,220.992 4915,215.5C 4913.56,213.845 4911.72,213.178 4909.5,213.5C 4909.5,219.833 4909.5,226.167 4909.5,232.5C 4905.83,232.5 4902.17,232.5 4898.5,232.5C 4898.5,216.833 4898.5,201.167 4898.5,185.5 Z M 4909.5,194.5 C 4909.5,197.833 4909.5,201.167 4909.5,204.5C 4913.51,204.666 4917.51,204.499 4921.5,204C 4925.42,200.818 4925.42,197.818 4921.5,195C 4917.51,194.501 4913.51,194.334 4909.5,194.5 Z"/></g>
<g><path style="opacity:1" fill="#800f18" d="M 208.5,191.5 C 211.054,192.388 213.721,192.721 216.5,192.5C 215.378,193.156 214.045,193.489 212.5,193.5C 210.667,193.415 209.334,192.748 208.5,191.5 Z"/></g>
<g><path style="opacity:1" fill="#bd7379" d="M 270.5,191.5 C 279.986,192.494 289.652,192.827 299.5,192.5C 303.514,192.334 307.514,192.501 311.5,193C 310.255,193.791 308.922,194.291 307.5,194.5C 295.011,193.505 282.344,193.171 269.5,193.5C 269.328,192.508 269.662,191.842 270.5,191.5 Z"/></g>
<g><path style="opacity:1" fill="#fefbfb" d="M 269.5,193.5 C 282.344,193.171 295.011,193.505 307.5,194.5C 273.995,200.293 240.995,208.127 208.5,218C 194.718,225.275 185.052,236.109 179.5,250.5C 178.368,246.981 177.368,243.314 176.5,239.5C 176.137,231.429 176.637,223.429 178,215.5C 180.833,208.667 185.667,203.833 192.5,201C 217.798,195.066 243.465,192.566 269.5,193.5 Z"/></g>
<g><path style="opacity:0.99" fill="#000000" d="M 2320.5,200.5 C 2344.86,200.119 2369.19,200.619 2393.5,202C 2466.49,209.661 2507.99,249.828 2518,322.5C 2519.22,331.141 2520.22,339.808 2521,348.5C 2522.29,444.822 2522.96,541.155 2523,637.5C 2523.04,661.432 2526.7,684.766 2534,707.5C 2542.91,729.058 2559.07,740.558 2582.5,742C 2587.15,742.499 2591.82,742.666 2596.5,742.5C 2596.5,745.5 2596.5,748.5 2596.5,751.5C 2494.83,751.5 2393.17,751.5 2291.5,751.5C 2291.5,748.5 2291.5,745.5 2291.5,742.5C 2322.36,743.468 2340.53,728.801 2346,698.5C 2348.36,685.27 2349.69,671.937 2350,658.5C 2350.67,545.167 2350.67,431.833 2350,318.5C 2349.32,300.099 2346.32,282.099 2341,264.5C 2330.41,236.281 2310.24,225.447 2280.5,232C 2258.31,234.669 2241.48,245.503 2230,264.5C 2223.08,279.591 2216.75,294.924 2211,310.5C 2210.33,428.5 2210.33,546.5 2211,664.5C 2211.29,680.062 2213.29,695.395 2217,710.5C 2224,732.653 2239.17,743.32 2262.5,742.5C 2262.5,745.5 2262.5,748.5 2262.5,751.5C 2165.5,751.5 2068.5,751.5 1971.5,751.5C 1971.5,748.5 1971.5,745.5 1971.5,742.5C 1998.56,743.898 2017.39,732.231 2028,707.5C 2035.27,682.711 2038.6,657.378 2038,631.5C 2038.67,527.5 2038.67,423.5 2038,319.5C 2038.01,299.562 2034.68,280.228 2028,261.5C 2018.5,240.498 2002.33,228.331 1979.5,225C 1971.87,223.931 1964.2,223.431 1956.5,223.5C 1956.5,218.167 1956.5,212.833 1956.5,207.5C 2041.17,207.5 2125.83,207.5 2210.5,207.5C 2210.33,229.169 2210.5,250.836 2211,272.5C 2227.31,247.191 2248.47,227.024 2274.5,212C 2289.33,205.626 2304.66,201.792 2320.5,200.5 Z"/></g>
<g><path style="opacity:0.99" fill="#000000" d="M 2765.5,200.5 C 2811.29,195.811 2849.46,210.478 2880,244.5C 2884.83,250.826 2889.16,257.492 2893,264.5C 2893.5,247.837 2893.67,231.17 2893.5,214.5C 2978.17,214.5 3062.83,214.5 3147.5,214.5C 3147.5,217.5 3147.5,220.5 3147.5,223.5C 3100.37,220.137 3071.53,241.47 3061,287.5C 3059.09,297.74 3058.09,308.073 3058,318.5C 3057.67,463.833 3057.33,609.167 3057,754.5C 3052.82,827.234 3020.32,883.068 2959.5,922C 2926.68,942.075 2892.01,958.409 2855.5,971C 2836.32,977.673 2816.98,983.84 2797.5,989.5C 2796.34,984.198 2796.17,978.864 2797,973.5C 2861.58,928.343 2892.75,866.01 2890.5,786.5C 2889.58,747.728 2885.41,709.395 2878,671.5C 2842.16,747.712 2783.33,774.212 2701.5,751C 2662.67,737.172 2632.5,712.672 2611,677.5C 2588.33,637.813 2574.66,595.147 2570,549.5C 2558.29,472.793 2568.96,399.46 2602,329.5C 2620.83,292.328 2646.66,260.828 2679.5,235C 2705.33,216.335 2734,204.835 2765.5,200.5 Z M 2801.5,215.5 C 2827.02,215.177 2846.86,225.51 2861,246.5C 2874.53,270.422 2882.86,296.089 2886,323.5C 2890.21,353.918 2892.71,384.418 2893.5,415C 2893.92,457.393 2893.42,499.893 2892,542.5C 2889.42,587.131 2879.76,630.131 2863,671.5C 2856.14,686.673 2847.31,700.507 2836.5,713C 2816.93,730.818 2796.27,732.151 2774.5,717C 2761.67,703.51 2752.83,687.677 2748,669.5C 2738.07,629.799 2732.74,589.466 2732,548.5C 2729.64,484.447 2730.64,420.447 2735,356.5C 2737.01,329.448 2741.34,302.781 2748,276.5C 2752.34,260.495 2759.34,245.828 2769,232.5C 2777.78,222.696 2788.61,217.029 2801.5,215.5 Z"/></g>
<g><path style="opacity:0.985" fill="#000000" d="M 3281.5,200.5 C 3325.62,197.642 3368.62,203.142 3410.5,217C 3468.32,238.985 3499.65,280.819 3504.5,342.5C 3481.83,342.5 3459.17,342.5 3436.5,342.5C 3440.96,304.053 3430.46,270.386 3405,241.5C 3384.65,221.581 3360.15,210.748 3331.5,209C 3306.94,206.151 3283.6,210.151 3261.5,221C 3243.87,232.388 3233.37,248.555 3230,269.5C 3224.05,305.265 3236.21,333.431 3266.5,354C 3278.39,361.444 3290.72,368.111 3303.5,374C 3338.6,387.59 3373.94,400.59 3409.5,413C 3442.22,424.688 3472.22,441.021 3499.5,462C 3537.09,495.747 3553.26,537.914 3548,588.5C 3541.96,633.426 3522.12,670.926 3488.5,701C 3436.29,744.844 3375.95,763.844 3307.5,758C 3245.59,755.269 3191.59,733.603 3145.5,693C 3119.23,667.703 3100.73,637.537 3090,602.5C 3088.23,594.918 3087.06,587.251 3086.5,579.5C 3114.17,579.5 3141.83,579.5 3169.5,579.5C 3167.3,613.273 3172.14,645.94 3184,677.5C 3202.39,717.794 3233.56,741.294 3277.5,748C 3330.28,757.502 3372.11,740.669 3403,697.5C 3421.3,661.805 3415.8,630.305 3386.5,603C 3373.51,592.83 3359.51,584.163 3344.5,577C 3307.91,561.805 3271.25,546.805 3234.5,532C 3209.03,520.497 3185.7,505.83 3164.5,488C 3128.65,452.416 3112.82,409.249 3117,358.5C 3126.27,279.559 3169.11,229.059 3245.5,207C 3257.54,204.273 3269.54,202.106 3281.5,200.5 Z"/></g>
<g><path style="opacity:0.989" fill="#000000" d="M 4094.5,200.5 C 4145.74,197.642 4193.07,209.809 4236.5,237C 4319.08,291.455 4365.08,368.121 4374.5,467C 4372.81,580.035 4323.81,666.369 4227.5,726C 4154.49,766.116 4079.83,769.116 4003.5,735C 3921.64,695.794 3868.81,632.294 3845,544.5C 3831.93,489.473 3836.93,436.14 3860,384.5C 3893.94,310.56 3947.44,255.727 4020.5,220C 4044.35,209.875 4069.01,203.375 4094.5,200.5 Z M 4102.5,208.5 C 4139.1,204.044 4165.6,218.044 4182,250.5C 4189.92,269.748 4194.92,289.748 4197,310.5C 4200.36,343.411 4202.03,376.411 4202,409.5C 4202.85,474.508 4202.52,539.508 4201,604.5C 4200.56,636.589 4195.56,667.923 4186,698.5C 4173.73,732.388 4149.56,749.722 4113.5,750.5C 4074.56,749.403 4049.73,730.07 4039,692.5C 4033.18,673.584 4029.51,654.251 4028,634.5C 4026.44,614.962 4025.28,595.462 4024.5,576C 4024.34,510.314 4024.51,444.481 4025,378.5C 4025.14,348.268 4027.81,318.268 4033,288.5C 4036.66,267.864 4044.66,249.197 4057,232.5C 4069.38,219.064 4084.54,211.064 4102.5,208.5 Z"/></g>
<g><path style="opacity:0.988" fill="#000000" d="M 4700.5,200.5 C 4724.19,200.11 4747.86,200.61 4771.5,202C 4836.07,209.012 4876.57,243.845 4893,306.5C 4897.3,324.256 4899.97,342.256 4901,360.5C 4902.28,455.49 4902.95,550.49 4903,645.5C 4903.51,667.072 4907.18,688.072 4914,708.5C 4923.16,728.975 4938.99,740.142 4961.5,742C 4966.49,742.499 4971.49,742.666 4976.5,742.5C 4976.5,745.5 4976.5,748.5 4976.5,751.5C 4874.5,751.5 4772.5,751.5 4670.5,751.5C 4670.5,748.5 4670.5,745.5 4670.5,742.5C 4694.12,743.781 4709.28,733.114 4716,710.5C 4719.78,695.745 4721.78,680.745 4722,665.5C 4722.22,557.59 4722.72,450.09 4723.5,343C 4722.78,326.86 4721.61,310.694 4720,294.5C 4718.27,278.572 4713.6,263.572 4706,249.5C 4697.49,236.675 4685.49,230.341 4670,230.5C 4642.15,230.252 4621.15,241.919 4607,265.5C 4600.73,277.711 4594.73,290.044 4589,302.5C 4587.25,305.672 4585.25,308.672 4583,311.5C 4582.33,422.167 4582.33,532.833 4583,643.5C 4583.06,666.349 4586.39,688.683 4593,710.5C 4601.62,732.562 4617.79,743.229 4641.5,742.5C 4641.5,745.5 4641.5,748.5 4641.5,751.5C 4544.5,751.5 4447.5,751.5 4350.5,751.5C 4350.5,748.5 4350.5,745.5 4350.5,742.5C 4381.74,743.744 4401.57,729.411 4410,699.5C 4414.2,683.445 4416.53,667.112 4417,650.5C 4417.67,536.167 4417.67,421.833 4417,307.5C 4416.27,290.164 4412.6,273.498 4406,257.5C 4395.63,238.882 4379.79,228.049 4358.5,225C 4351.21,223.884 4343.87,223.384 4336.5,223.5C 4336.5,218.167 4336.5,212.833 4336.5,207.5C 4418.5,207.5 4500.5,207.5 4582.5,207.5C 4582.33,229.169 4582.5,250.836 4583,272.5C 4598.25,252.586 4616.08,235.42 4636.5,221C 4656.24,208.809 4677.57,201.975 4700.5,200.5 Z"/></g>
<g><path style="opacity:0.99" fill="#000000" d="M 907.5,207.5 C 1026.83,207.5 1146.17,207.5 1265.5,207.5C 1265.5,210.167 1265.5,212.833 1265.5,215.5C 1241.01,214.691 1218.35,220.525 1197.5,233C 1183.09,244.975 1173.59,260.141 1169,278.5C 1164.49,299.251 1162.16,320.251 1162,341.5C 1161.5,413.166 1161.33,484.833 1161.5,556.5C 1169.2,556.831 1176.86,556.497 1184.5,555.5C 1231.24,509.591 1276.74,462.591 1321,414.5C 1348.79,384.27 1369.46,349.603 1383,310.5C 1389.89,290.688 1388.89,271.354 1380,252.5C 1369.15,237.147 1354.32,227.98 1335.5,225C 1329.21,223.893 1322.88,223.393 1316.5,223.5C 1316.5,218.167 1316.5,212.833 1316.5,207.5C 1418.5,207.5 1520.5,207.5 1622.5,207.5C 1622.5,212.833 1622.5,218.167 1622.5,223.5C 1610.41,223.938 1598.75,226.438 1587.5,231C 1553.78,245.683 1522.12,263.683 1492.5,285C 1466.22,303.613 1440.22,322.613 1414.5,342C 1340.88,413.948 1266.88,485.614 1192.5,557C 1240.09,558.614 1286.75,565.948 1332.5,579C 1420.93,604.093 1476.09,661.26 1498,750.5C 1505,780.5 1512,810.5 1519,840.5C 1525.78,862.169 1534.11,883.169 1544,903.5C 1561.3,933.602 1587.13,951.936 1621.5,958.5C 1622.48,961.086 1622.81,963.753 1622.5,966.5C 1533.17,966.667 1443.83,966.5 1354.5,966C 1347.18,924.238 1340.01,882.405 1333,840.5C 1325.29,795.971 1315.29,751.971 1303,708.5C 1294.22,678.135 1281.22,649.802 1264,623.5C 1239.17,588.172 1205.33,573.839 1162.5,580.5C 1161.33,667.831 1161.17,755.165 1162,842.5C 1161.6,867.399 1165.94,891.399 1175,914.5C 1187.52,937.198 1206.69,950.698 1232.5,955C 1246.06,957.4 1259.73,958.566 1273.5,958.5C 1273.5,961.167 1273.5,963.833 1273.5,966.5C 1149.17,966.5 1024.83,966.5 900.5,966.5C 900.5,963.833 900.5,961.167 900.5,958.5C 946.384,959.501 975.884,938.168 989,894.5C 993.438,877.102 996.104,859.435 997,841.5C 997.49,680.498 997.824,519.498 998,358.5C 997.192,328.313 991.858,298.98 982,270.5C 969.482,235.482 944.649,217.149 907.5,215.5C 907.5,212.833 907.5,210.167 907.5,207.5 Z"/></g>
<g><path style="opacity:0.992" fill="#000000" d="M 1636.5,207.5 C 1716.17,207.5 1795.83,207.5 1875.5,207.5C 1875.33,348.167 1875.5,488.834 1876,629.5C 1875.71,656.436 1880.38,682.436 1890,707.5C 1901.04,728.617 1918.54,740.117 1942.5,742C 1947.49,742.499 1952.49,742.666 1957.5,742.5C 1957.5,745.5 1957.5,748.5 1957.5,751.5C 1853.17,751.5 1748.83,751.5 1644.5,751.5C 1644.5,748.5 1644.5,745.5 1644.5,742.5C 1673.63,742.204 1692.8,728.204 1702,700.5C 1708.4,676.719 1711.57,652.552 1711.5,628C 1711.65,528.926 1711.48,429.759 1711,330.5C 1711.62,307.652 1708.62,285.318 1702,263.5C 1694.27,241.884 1679.1,229.051 1656.5,225C 1649.88,223.863 1643.21,223.363 1636.5,223.5C 1636.5,218.167 1636.5,212.833 1636.5,207.5 Z"/></g>
<g><path style="opacity:1" fill="#5a0a11" d="M 591.5,295.5 C 592.922,295.709 594.255,296.209 595.5,297C 580.837,297.5 566.17,297.667 551.5,297.5C 564.833,296.833 578.167,296.167 591.5,295.5 Z"/></g>
<g><path style="opacity:1" fill="#e91b2d" d="M 662.5,479.5 C 662.5,480.5 662.5,481.5 662.5,482.5C 660.265,482.205 658.265,482.539 656.5,483.5C 605.467,485.511 555.134,480.678 505.5,469C 487.254,464.54 470.588,456.874 455.5,446C 517.54,438.165 579.207,440.498 640.5,453C 651.004,459.325 658.337,468.158 662.5,479.5 Z"/></g>
<g><path style="opacity:1" fill="#eb1b2d" d="M 305.5,941.5 C 262.672,942.833 219.505,943.5 176,943.5C 132.495,943.5 89.3281,942.833 46.5,941.5C 77.822,776.752 109.655,612.085 142,447.5C 142.414,447.043 142.914,446.709 143.5,446.5C 162.5,460.667 181.5,474.833 200.5,489C 201.893,490.171 202.727,491.671 203,493.5C 237.484,642.77 271.651,792.103 305.5,941.5 Z"/></g>
<g><path style="opacity:1" fill="#87101a" d="M 662.5,479.5 C 663.434,480.568 663.768,481.901 663.5,483.5C 661.167,483.5 658.833,483.5 656.5,483.5C 658.265,482.539 660.265,482.205 662.5,482.5C 662.5,481.5 662.5,480.5 662.5,479.5 Z"/></g>
<g><path style="opacity:1" fill="#eb1b2d" d="M 594.5,504.5 C 615.203,504.085 635.869,504.585 656.5,506C 658.429,509.256 658.929,512.756 658,516.5C 645.244,540.923 626.744,559.756 602.5,573C 558.384,596.457 511.717,603.957 462.5,595.5C 467.693,576.608 477.359,560.441 491.5,547C 512.105,528.362 536.105,516.029 563.5,510C 573.936,507.929 584.27,506.095 594.5,504.5 Z"/></g>
<g><path style="opacity:1" fill="#eb1b2d" d="M 437.5,777.5 C 438.508,779.544 439.508,781.544 440.5,783.5C 445.708,839.455 450.375,895.455 454.5,951.5C 422.167,951.5 389.833,951.5 357.5,951.5C 336.062,857.914 314.062,764.414 291.5,671C 291.85,669.743 292.517,669.409 293.5,670C 336.614,698.448 378.614,728.448 419.5,760C 426.004,765.337 432.004,771.171 437.5,777.5 Z"/></g>
<g><path style="opacity:1" fill="#8a101b" d="M 437.5,777.5 C 439.975,778.687 440.975,780.687 440.5,783.5C 439.508,781.544 438.508,779.544 437.5,777.5 Z"/></g>
<g><path style="opacity:0.951" fill="#000000" d="M 2363.5,787.5 C 2385.29,785.795 2405.63,790.295 2424.5,801C 2438.72,813.27 2446.72,828.77 2448.5,847.5C 2440.5,847.5 2432.5,847.5 2424.5,847.5C 2424.88,841.026 2423.38,835.026 2420,829.5C 2414.99,822.154 2408.49,816.654 2400.5,813C 2379.05,807.194 2359.05,810.194 2340.5,822C 2329.92,830.254 2324.09,841.088 2323,854.5C 2321.08,870.505 2321.08,886.505 2323,902.5C 2323.87,907.768 2325.53,912.768 2328,917.5C 2333.38,924.425 2338.88,931.258 2344.5,938C 2348.78,940.65 2353.45,942.316 2358.5,943C 2369.5,943.667 2380.5,943.667 2391.5,943C 2401.62,941.523 2410.12,937.023 2417,929.5C 2418.6,923.363 2420.6,917.363 2423,911.5C 2424.16,907.582 2424.66,903.582 2424.5,899.5C 2432.5,899.5 2440.5,899.5 2448.5,899.5C 2449.1,914.622 2444.44,927.789 2434.5,939C 2432.1,941.062 2429.43,942.729 2426.5,944C 2420.95,952.62 2413.28,958.62 2403.5,962C 2374.36,970.689 2346.7,967.356 2320.5,952C 2294.84,922.196 2286.34,888.029 2295,849.5C 2297.25,841.66 2300.59,834.327 2305,827.5C 2312.81,816.357 2321.98,806.524 2332.5,798C 2342.32,792.561 2352.65,789.061 2363.5,787.5 Z"/></g>
<g><path style="opacity:0.951" fill="#000000" d="M 3487.5,787.5 C 3523.41,786.039 3551.91,799.706 3573,828.5C 3586.13,852.926 3589.13,878.593 3582,905.5C 3575.45,923.056 3565.28,938.223 3551.5,951C 3534.97,962.839 3516.47,968.006 3496,966.5C 3476.31,967.525 3457.81,963.358 3440.5,954C 3430.57,948.329 3424.4,939.829 3422,928.5C 3413.02,898.807 3411.69,868.807 3418,838.5C 3423.78,821.384 3434.62,808.551 3450.5,800C 3462.19,793.493 3474.52,789.327 3487.5,787.5 Z M 3491.5,810.5 C 3535.75,809.754 3557.09,831.42 3555.5,875.5C 3558.49,911.731 3543.15,936.231 3509.5,949C 3478.82,956.35 3457.65,945.517 3446,916.5C 3437,897.273 3435,877.273 3440,856.5C 3442.95,846.159 3446.78,836.159 3451.5,826.5C 3464.04,818.885 3477.38,813.552 3491.5,810.5 Z"/></g>
<g><path style="opacity:0.947" fill="#000000" d="M 4157.5,787.5 C 4193.01,786.337 4221.17,800.004 4242,828.5C 4260.2,861.687 4259.86,894.687 4241,927.5C 4234.21,935.963 4227.04,944.13 4219.5,952C 4203.73,962.82 4186.23,967.653 4167,966.5C 4121.31,967.02 4093.97,945.02 4085,900.5C 4083.02,886.497 4083.02,872.497 4085,858.5C 4088.53,844.577 4092.86,830.91 4098,817.5C 4114.33,800.419 4134.16,790.419 4157.5,787.5 Z M 4160.5,810.5 C 4198.7,809.56 4222.2,827.56 4231,864.5C 4232.66,887.187 4228,908.52 4217,928.5C 4207.83,934.333 4198.67,940.167 4189.5,946C 4178.32,952.16 4166.66,953.16 4154.5,949C 4135.01,943.829 4121.51,931.996 4114,913.5C 4102.65,886.451 4104.65,860.451 4120,835.5C 4130.17,821.671 4143.67,813.338 4160.5,810.5 Z"/></g>
<g><path style="opacity:0.949" fill="#000000" d="M 4520.5,787.5 C 4553.57,785.455 4579.74,797.788 4599,824.5C 4602.81,831.694 4604.64,839.36 4604.5,847.5C 4596.83,847.5 4589.17,847.5 4581.5,847.5C 4580.22,832.768 4573.22,821.601 4560.5,814C 4540.12,807.913 4520.45,809.58 4501.5,819C 4489.64,826.213 4482.47,836.713 4480,850.5C 4478.03,870.495 4478.03,890.495 4480,910.5C 4481.2,916.768 4483.2,922.768 4486,928.5C 4504.55,949.426 4527.05,955.593 4553.5,947C 4561.08,942.96 4568.58,938.793 4576,934.5C 4585.11,922.013 4589.27,908.013 4588.5,892.5C 4568.83,892.5 4549.17,892.5 4529.5,892.5C 4529.5,884.833 4529.5,877.167 4529.5,869.5C 4557.17,869.5 4584.83,869.5 4612.5,869.5C 4612.5,901.833 4612.5,934.167 4612.5,966.5C 4607.16,966.666 4601.82,966.499 4596.5,966C 4594.01,959.183 4591.51,952.35 4589,945.5C 4574,960.816 4555.67,967.816 4534,966.5C 4513.76,967.2 4494.93,962.367 4477.5,952C 4451.21,926.038 4442.05,894.871 4450,858.5C 4457.42,829.412 4474.25,807.579 4500.5,793C 4507.13,790.513 4513.8,788.679 4520.5,787.5 Z"/></g>
<g><path style="opacity:0.947" fill="#000000" d="M 1666.5,794.5 C 1713.83,794.5 1761.17,794.5 1808.5,794.5C 1808.5,802.5 1808.5,810.5 1808.5,818.5C 1788.83,818.5 1769.17,818.5 1749.5,818.5C 1749.5,867.833 1749.5,917.167 1749.5,966.5C 1739.17,966.5 1728.83,966.5 1718.5,966.5C 1718.5,917.167 1718.5,867.833 1718.5,818.5C 1701.17,818.5 1683.83,818.5 1666.5,818.5C 1666.5,810.5 1666.5,802.5 1666.5,794.5 Z"/></g>
<g><path style="opacity:0.951" fill="#000000" d="M 1986.5,794.5 C 2028.83,794.5 2071.17,794.5 2113.5,794.5C 2113.5,802.5 2113.5,810.5 2113.5,818.5C 2078.83,818.5 2044.17,818.5 2009.5,818.5C 2009.5,835.5 2009.5,852.5 2009.5,869.5C 2041.83,869.5 2074.17,869.5 2106.5,869.5C 2106.5,874.833 2106.5,880.167 2106.5,885.5C 2074.17,885.5 2041.83,885.5 2009.5,885.5C 2009.5,904.833 2009.5,924.167 2009.5,943.5C 2044.17,943.5 2078.83,943.5 2113.5,943.5C 2113.5,951.167 2113.5,958.833 2113.5,966.5C 2071.17,966.5 2028.83,966.5 1986.5,966.5C 1986.5,909.167 1986.5,851.833 1986.5,794.5 Z"/></g>
<g><path style="opacity:0.959" fill="#000000" d="M 2633.5,794.5 C 2641.17,794.5 2648.83,794.5 2656.5,794.5C 2656.5,816.833 2656.5,839.167 2656.5,861.5C 2688.5,861.5 2720.5,861.5 2752.5,861.5C 2752.5,839.167 2752.5,816.833 2752.5,794.5C 2760.17,794.5 2767.83,794.5 2775.5,794.5C 2775.5,851.833 2775.5,909.167 2775.5,966.5C 2767.83,966.5 2760.17,966.5 2752.5,966.5C 2752.5,939.5 2752.5,912.5 2752.5,885.5C 2720.5,885.5 2688.5,885.5 2656.5,885.5C 2656.5,912.5 2656.5,939.5 2656.5,966.5C 2648.83,966.5 2641.17,966.5 2633.5,966.5C 2633.5,909.167 2633.5,851.833 2633.5,794.5 Z"/></g>
<g><path style="opacity:0.944" fill="#000000" d="M 3071.5,794.5 C 3079.53,794.169 3087.53,794.502 3095.5,795.5C 3124.67,839.167 3153.83,882.833 3183,926.5C 3183.5,882.501 3183.67,838.501 3183.5,794.5C 3191.17,794.5 3198.83,794.5 3206.5,794.5C 3206.5,851.833 3206.5,909.167 3206.5,966.5C 3198.47,966.831 3190.47,966.498 3182.5,965.5C 3153.67,919.833 3124.83,874.167 3096,828.5C 3095.5,874.499 3095.33,920.499 3095.5,966.5C 3087.5,966.5 3079.5,966.5 3071.5,966.5C 3071.5,909.167 3071.5,851.833 3071.5,794.5 Z"/></g>
<g><path style="opacity:0.938" fill="#000000" d="M 3785.5,794.5 C 3793.42,794.185 3801.25,794.518 3809,795.5C 3809.5,844.832 3809.67,894.166 3809.5,943.5C 3839.17,943.5 3868.83,943.5 3898.5,943.5C 3898.5,951.167 3898.5,958.833 3898.5,966.5C 3860.83,966.5 3823.17,966.5 3785.5,966.5C 3785.5,909.167 3785.5,851.833 3785.5,794.5 Z"/></g>
<g><path style="opacity:0.945" fill="#000000" d="M 4804.5,794.5 C 4814.85,794.168 4825.19,794.501 4835.5,795.5C 4850.25,822.007 4864.75,848.673 4879,875.5C 4896.42,849.003 4913.58,822.337 4930.5,795.5C 4940.83,794.167 4951.17,794.167 4961.5,795.5C 4939.58,830.336 4917.42,865.003 4895,899.5C 4894.5,921.831 4894.33,944.164 4894.5,966.5C 4886.83,966.5 4879.17,966.5 4871.5,966.5C 4871.67,944.164 4871.5,921.831 4871,899.5C 4848.58,864.599 4826.42,829.599 4804.5,794.5 Z"/></g>
<g><path style="opacity:1" fill="#ea1b2d" d="M 513.5,825.5 C 548.639,858.47 578.806,895.47 604,936.5C 606.735,941.299 608.902,946.299 610.5,951.5C 568.5,951.5 526.5,951.5 484.5,951.5C 494.421,909.562 504.088,867.562 513.5,825.5 Z"/></g>
<g><path style="opacity:1" fill="#92101c" d="M 46.5,941.5 C 89.3281,942.833 132.495,943.5 176,943.5C 219.505,943.5 262.672,942.833 305.5,941.5C 306.404,942.209 306.737,943.209 306.5,944.5C 219.5,944.5 132.5,944.5 45.5,944.5C 45.2627,943.209 45.596,942.209 46.5,941.5 Z"/></g>
</svg>
