<?xml version="1.0" encoding="UTF-8"?>
<!DOCTYPE svg PUBLIC "-//W3C//DTD SVG 1.1//EN" "http://www.w3.org/Graphics/SVG/1.1/DTD/svg11.dtd">
<svg xmlns="http://www.w3.org/2000/svg" version="1.1" width="450px" height="350px" style="shape-rendering:geometricPrecision; text-rendering:geometricPrecision; image-rendering:optimizeQuality; fill-rule:evenodd; clip-rule:evenodd" xmlns:xlink="http://www.w3.org/1999/xlink">
<g><path style="opacity:1" fill="#fefefe" d="M -0.5,-0.5 C 149.5,-0.5 299.5,-0.5 449.5,-0.5C 449.5,116.167 449.5,232.833 449.5,349.5C 299.5,349.5 149.5,349.5 -0.5,349.5C -0.5,232.833 -0.5,116.167 -0.5,-0.5 Z"/></g>
<g><path style="opacity:1" fill="#e3e1e2" d="M 351.5,95.5 C 243.167,95.5 134.833,95.5 26.5,95.5C 26.6268,100.151 27.6268,104.485 29.5,108.5C 29.5,109.5 29.5,110.5 29.5,111.5C 29.8751,113.698 30.5418,115.698 31.5,117.5C 31.5,118.167 31.5,118.833 31.5,119.5C 30.5,119.5 29.5,119.5 28.5,119.5C 29.1098,114.296 27.9432,109.629 25,105.5C 24.2114,101.909 24.3781,98.4085 25.5,95C 134.334,94.1674 243.001,94.3341 351.5,95.5 Z"/></g>
<g><path style="opacity:1" fill="#c93248" d="M 351.5,95.5 C 349.376,101.766 349.043,108.1 350.5,114.5C 350.833,115.833 351.167,117.167 351.5,118.5C 350.21,117.942 349.377,116.942 349,115.5C 349.131,108.754 348.298,102.421 346.5,96.5C 241.5,96.5 136.5,96.5 31.5,96.5C 29.5772,100.029 28.9106,104.029 29.5,108.5C 27.6268,104.485 26.6268,100.151 26.5,95.5C 134.833,95.5 243.167,95.5 351.5,95.5 Z"/></g>
<g><path style="opacity:1" fill="#bd2037" d="M 426.5,98.5 C 422.835,112.495 419.169,126.495 415.5,140.5C 416.127,134.855 416.627,129.189 417,123.5C 417.813,128.774 418.313,128.774 418.5,123.5C 417.249,118.494 417.249,113.494 418.5,108.5C 417.451,104.735 415.618,101.402 413,98.5C 411.458,100.304 409.791,101.971 408,103.5C 407.586,103.043 407.086,102.709 406.5,102.5C 405.609,110.818 405.609,119.151 406.5,127.5C 405.5,127.5 404.5,127.5 403.5,127.5C 403.66,125.801 403.494,124.134 403,122.5C 399.088,127.083 394.588,130.917 389.5,134C 387.527,134.495 385.527,134.662 383.5,134.5C 401.486,127.861 407.82,115.195 402.5,96.5C 410.472,95.5023 418.472,95.169 426.5,95.5C 426.5,96.5 426.5,97.5 426.5,98.5 Z"/></g>
<g><path style="opacity:1" fill="#be1531" d="M 357.5,95.5 C 360.167,95.5 362.833,95.5 365.5,95.5C 365.5,101.833 365.5,108.167 365.5,114.5C 365.167,114.5 364.833,114.5 364.5,114.5C 364.827,109.456 364.494,104.456 363.5,99.5C 362.672,104.132 362.172,108.798 362,113.5C 360.969,114.7 360.135,116.034 359.5,117.5C 360.046,119.135 360.38,120.801 360.5,122.5C 361.5,122.5 362.5,122.5 363.5,122.5C 363.205,120.265 363.539,118.265 364.5,116.5C 364.5,119.167 364.5,121.833 364.5,124.5C 363.5,124.5 362.5,124.5 361.5,124.5C 358.758,121.308 356.758,117.642 355.5,113.5C 354.936,107.43 355.603,101.43 357.5,95.5 Z"/></g>
<g><path style="opacity:1" fill="#bc1e34" d="M 371.5,95.5 C 375.911,95.021 380.078,95.6876 384,97.5C 385.212,100.834 384.379,103.334 381.5,105C 378.183,105.498 374.85,105.665 371.5,105.5C 371.5,102.167 371.5,98.8333 371.5,95.5 Z"/></g>
<g><path style="opacity:1" fill="#a74151" d="M 357.5,95.5 C 355.603,101.43 354.936,107.43 355.5,113.5C 354.518,110.038 354.185,106.371 354.5,102.5C 354.935,99.8427 355.935,97.5093 357.5,95.5 Z"/></g>
<g><path style="opacity:1" fill="#cc112c" d="M 391.5,95.5 C 393.167,95.5 394.833,95.5 396.5,95.5C 397.57,102.85 397.57,110.183 396.5,117.5C 394.824,116.817 394.157,115.483 394.5,113.5C 391.171,113.736 388.171,112.903 385.5,111C 386.025,110.308 386.692,109.808 387.5,109.5C 388.85,110.95 390.516,111.617 392.5,111.5C 392.617,109.516 391.95,107.85 390.5,106.5C 391.426,102.906 391.759,99.2396 391.5,95.5 Z"/></g>
<g><path style="opacity:1" fill="#b9303c" d="M 396.5,95.5 C 398.023,97.8958 399.023,100.562 399.5,103.5C 399.956,108.596 398.956,113.262 396.5,117.5C 397.57,110.183 397.57,102.85 396.5,95.5 Z"/></g>
<g><path style="opacity:1" fill="#a93d5f" d="M 29.5,111.5 C 31.3079,112.918 31.9746,114.918 31.5,117.5C 30.5418,115.698 29.8751,113.698 29.5,111.5 Z"/></g>
<g><path style="opacity:1" fill="#dba2ac" d="M 365.5,95.5 C 366.329,103.657 366.829,111.99 367,120.5C 367.71,121.973 368.876,122.64 370.5,122.5C 370.182,117.968 370.515,113.634 371.5,109.5C 371.5,114.167 371.5,118.833 371.5,123.5C 369.5,123.5 367.5,123.5 365.5,123.5C 365.5,120.5 365.5,117.5 365.5,114.5C 365.5,108.167 365.5,101.833 365.5,95.5 Z"/></g>
<g><path style="opacity:1" fill="#c3122f" d="M 31.5,96.5 C 31.5,97.5 31.5,98.5 31.5,99.5C 132.833,99.5 234.167,99.5 335.5,99.5C 335.5,101.5 335.5,103.5 335.5,105.5C 234.167,105.5 132.833,105.5 31.5,105.5C 31.5,106.833 31.5,108.167 31.5,109.5C 132.833,109.5 234.167,109.5 335.5,109.5C 335.991,106.99 336.991,104.656 338.5,102.5C 338.833,103 339.167,103.5 339.5,104C 338.536,108.224 337.37,112.391 336,116.5C 335.394,124.161 336.394,124.161 339,116.5C 339.494,114.866 339.66,113.199 339.5,111.5C 340.833,111.5 342.167,111.5 343.5,111.5C 343.5,115.167 343.5,118.833 343.5,122.5C 344.5,122.5 345.5,122.5 346.5,122.5C 346.316,115.264 344.649,108.43 341.5,102C 341.665,100.883 341.998,99.7164 342.5,98.5C 342.833,98.1667 343.167,97.8333 343.5,97.5C 344.251,98.376 344.751,99.376 345,100.5C 345.41,99.0993 345.91,97.766 346.5,96.5C 348.298,102.421 349.131,108.754 349,115.5C 349.377,116.942 350.21,117.942 351.5,118.5C 358.264,131.533 368.931,136.866 383.5,134.5C 385.527,134.662 387.527,134.495 389.5,134C 394.588,130.917 399.088,127.083 403,122.5C 403.494,124.134 403.66,125.801 403.5,127.5C 404.5,127.5 405.5,127.5 406.5,127.5C 405.609,119.151 405.609,110.818 406.5,102.5C 407.086,102.709 407.586,103.043 408,103.5C 409.791,101.971 411.458,100.304 413,98.5C 415.618,101.402 417.451,104.735 418.5,108.5C 417.249,113.494 417.249,118.494 418.5,123.5C 418.313,128.774 417.813,128.774 417,123.5C 416.627,129.189 416.127,134.855 415.5,140.5C 415.5,141.5 415.5,142.5 415.5,143.5C 414.167,143.5 412.833,143.5 411.5,143.5C 412.329,146.469 412.495,149.469 412,152.5C 410.129,154.065 408.296,154.731 406.5,154.5C 407.325,155.386 408.325,155.719 409.5,155.5C 409.5,159.5 409.5,163.5 409.5,167.5C 405.574,184.133 401.907,200.8 398.5,217.5C 395.366,230.038 392.199,242.705 389,255.5C 388.764,257.119 387.931,258.119 386.5,258.5C 384.646,257.759 382.979,256.759 381.5,255.5C 381.5,254.5 381.5,253.5 381.5,252.5C 379.284,252.725 377.617,251.892 376.5,250C 373.522,249.304 370.522,248.804 367.5,248.5C 362.863,245.169 357.529,243.169 351.5,242.5C 351.38,241.414 350.713,240.747 349.5,240.5C 346.885,239.731 344.219,239.397 341.5,239.5C 339.5,239.5 337.5,239.5 335.5,239.5C 330.244,238.062 324.911,237.062 319.5,236.5C 306.976,235.229 294.31,235.396 281.5,237C 280.619,237.708 279.953,238.542 279.5,239.5C 273.126,240.513 266.793,241.846 260.5,243.5C 253.269,244.11 246.603,246.444 240.5,250.5C 239.571,249.311 239.238,247.978 239.5,246.5C 240.5,246.5 241.5,246.5 242.5,246.5C 242.5,245.5 242.5,244.5 242.5,243.5C 237.994,244.94 233.327,245.774 228.5,246C 224.701,249.497 224.701,252.83 228.5,256C 225.613,256.723 222.947,256.223 220.5,254.5C 221.325,253.614 222.325,253.281 223.5,253.5C 223.5,252.5 223.5,251.5 223.5,250.5C 221.253,250.915 219.086,251.582 217,252.5C 214.084,250.796 210.917,249.796 207.5,249.5C 196.962,245.554 186.296,242.221 175.5,239.5C 175.119,238.069 174.119,237.236 172.5,237C 168.179,236.501 163.846,236.334 159.5,236.5C 154.544,235.172 149.211,234.505 143.5,234.5C 137.789,234.505 132.456,235.172 127.5,236.5C 116.866,238.456 106.199,240.789 95.5,243.5C 92.8333,243.5 90.1667,243.5 87.5,243.5C 87.5,244.5 87.5,245.5 87.5,246.5C 85.8333,246.5 84.1667,246.5 82.5,246.5C 82.5,245.5 82.5,244.5 82.5,243.5C 81.5,243.5 80.5,243.5 79.5,243.5C 79.5,245.167 79.5,246.833 79.5,248.5C 77.8333,248.5 76.1667,248.5 74.5,248.5C 74.67,249.822 74.3366,250.989 73.5,252C 70.2744,253.199 66.941,253.699 63.5,253.5C 62.4885,250.748 61.4885,248.081 60.5,245.5C 59.7509,237.846 58.0842,230.513 55.5,223.5C 54.5047,218.176 53.5047,212.843 52.5,207.5C 52.517,201.601 51.1836,196.268 48.5,191.5C 44.3441,175.738 40.6774,159.738 37.5,143.5C 36.5542,136.492 35.3875,129.492 34,122.5C 33.5831,121.244 32.7498,120.577 31.5,120.5C 31.5,120.167 31.5,119.833 31.5,119.5C 31.5,118.833 31.5,118.167 31.5,117.5C 31.9746,114.918 31.3079,112.918 29.5,111.5C 29.5,110.5 29.5,109.5 29.5,108.5C 28.9106,104.029 29.5772,100.029 31.5,96.5 Z"/></g>
<g><path style="opacity:1" fill="#d6062f" d="M 364.5,114.5 C 364.5,115.167 364.5,115.833 364.5,116.5C 363.539,118.265 363.205,120.265 363.5,122.5C 362.5,122.5 361.5,122.5 360.5,122.5C 360.38,120.801 360.046,119.135 359.5,117.5C 360.135,116.034 360.969,114.7 362,113.5C 362.172,108.798 362.672,104.132 363.5,99.5C 364.494,104.456 364.827,109.456 364.5,114.5 Z"/></g>
<g><path style="opacity:1" fill="#be122e" d="M 31.5,96.5 C 136.5,96.5 241.5,96.5 346.5,96.5C 345.91,97.766 345.41,99.0993 345,100.5C 344.751,99.376 344.251,98.376 343.5,97.5C 343.167,97.8333 342.833,98.1667 342.5,98.5C 341.998,99.7164 341.665,100.883 341.5,102C 344.649,108.43 346.316,115.264 346.5,122.5C 345.5,122.5 344.5,122.5 343.5,122.5C 343.5,118.833 343.5,115.167 343.5,111.5C 342.167,111.5 340.833,111.5 339.5,111.5C 339.66,113.199 339.494,114.866 339,116.5C 336.394,124.161 335.394,124.161 336,116.5C 337.37,112.391 338.536,108.224 339.5,104C 339.167,103.5 338.833,103 338.5,102.5C 336.991,104.656 335.991,106.99 335.5,109.5C 234.167,109.5 132.833,109.5 31.5,109.5C 31.5,108.167 31.5,106.833 31.5,105.5C 132.833,105.5 234.167,105.5 335.5,105.5C 335.5,103.5 335.5,101.5 335.5,99.5C 234.167,99.5 132.833,99.5 31.5,99.5C 31.5,98.5 31.5,97.5 31.5,96.5 Z"/></g>
<g><path style="opacity:1" fill="#b5253b" d="M 391.5,95.5 C 391.759,99.2396 391.426,102.906 390.5,106.5C 391.95,107.85 392.617,109.516 392.5,111.5C 390.516,111.617 388.85,110.95 387.5,109.5C 386.692,109.808 386.025,110.308 385.5,111C 388.171,112.903 391.171,113.736 394.5,113.5C 394.157,115.483 394.824,116.817 396.5,117.5C 395.306,121.363 392.973,124.363 389.5,126.5C 386.715,124.905 383.715,123.905 380.5,123.5C 380.936,120.636 380.103,118.303 378,116.5C 377.751,117.624 377.251,118.624 376.5,119.5C 375.833,116.833 375.167,114.167 374.5,111.5C 373.245,116.655 372.245,121.822 371.5,127C 373.833,127.667 376.167,127.667 378.5,127C 378.043,126.586 377.709,126.086 377.5,125.5C 378.689,124.571 380.022,124.238 381.5,124.5C 381.64,126.124 380.973,127.29 379.5,128C 382.157,128.175 384.824,128.008 387.5,127.5C 386.4,128.558 385.066,129.392 383.5,130C 376.457,131.281 369.79,130.281 363.5,127C 362.619,126.292 361.953,125.458 361.5,124.5C 362.5,124.5 363.5,124.5 364.5,124.5C 364.5,121.833 364.5,119.167 364.5,116.5C 364.5,115.833 364.5,115.167 364.5,114.5C 364.833,114.5 365.167,114.5 365.5,114.5C 365.5,117.5 365.5,120.5 365.5,123.5C 367.5,123.5 369.5,123.5 371.5,123.5C 371.5,118.833 371.5,114.167 371.5,109.5C 373.199,109.34 374.866,109.506 376.5,110C 379.364,114.033 382.031,118.199 384.5,122.5C 386.045,123.452 387.712,123.785 389.5,123.5C 387.466,119.104 385.133,114.771 382.5,110.5C 383.738,108.363 385.571,107.029 388,106.5C 388.594,102.414 389.761,98.7478 391.5,95.5 Z"/></g>
<g><path style="opacity:1" fill="#f2e9e9" d="M 426.5,98.5 C 426.5,97.5 426.5,96.5 426.5,95.5C 418.472,95.169 410.472,95.5023 402.5,96.5C 407.82,115.195 401.486,127.861 383.5,134.5C 368.931,136.866 358.264,131.533 351.5,118.5C 351.167,117.167 350.833,115.833 350.5,114.5C 351.496,114.586 352.329,114.252 353,113.5C 353.177,109.644 353.677,105.977 354.5,102.5C 354.185,106.371 354.518,110.038 355.5,113.5C 356.758,117.642 358.758,121.308 361.5,124.5C 361.953,125.458 362.619,126.292 363.5,127C 369.79,130.281 376.457,131.281 383.5,130C 385.066,129.392 386.4,128.558 387.5,127.5C 388.492,127.672 389.158,127.338 389.5,126.5C 392.973,124.363 395.306,121.363 396.5,117.5C 398.956,113.262 399.956,108.596 399.5,103.5C 402.082,101.417 402.082,99.0833 399.5,96.5C 400.025,95.8076 400.692,95.3076 401.5,95C 410.5,94.3333 419.5,94.3333 428.5,95C 427.915,96.3024 427.249,97.469 426.5,98.5 Z"/></g>
<g><path style="opacity:1" fill="#ca1030" d="M 389.5,126.5 C 389.158,127.338 388.492,127.672 387.5,127.5C 384.824,128.008 382.157,128.175 379.5,128C 380.973,127.29 381.64,126.124 381.5,124.5C 380.022,124.238 378.689,124.571 377.5,125.5C 377.709,126.086 378.043,126.586 378.5,127C 376.167,127.667 373.833,127.667 371.5,127C 372.245,121.822 373.245,116.655 374.5,111.5C 375.167,114.167 375.833,116.833 376.5,119.5C 377.251,118.624 377.751,117.624 378,116.5C 380.103,118.303 380.936,120.636 380.5,123.5C 383.715,123.905 386.715,124.905 389.5,126.5 Z"/></g>
<g><path style="opacity:1" fill="#aa3842" d="M 31.5,120.5 C 32.7498,120.577 33.5831,121.244 34,122.5C 35.3875,129.492 36.5542,136.492 37.5,143.5C 35.0602,136.08 33.0602,128.413 31.5,120.5 Z"/></g>
<g><path style="opacity:1" fill="#c7707e" d="M 177.5,139.5 C 169.445,139.23 161.445,139.563 153.5,140.5C 157.107,139.176 161.107,138.509 165.5,138.5C 169.681,138.501 173.681,138.834 177.5,139.5 Z"/></g>
<g><path style="opacity:1" fill="#b55e6e" d="M 337.5,139.5 C 343.987,138.346 350.654,138.179 357.5,139C 358.056,139.383 358.389,139.883 358.5,140.5C 351.557,139.573 344.557,139.24 337.5,139.5 Z"/></g>
<g><path style="opacity:1" fill="#bd586c" d="M 223.5,140.5 C 214.105,139.862 205.105,140.529 196.5,142.5C 195.596,141.791 195.263,140.791 195.5,139.5C 205.015,139.173 214.348,139.506 223.5,140.5 Z"/></g>
<g><path style="opacity:1" fill="#fdcfd5" d="M 314.5,135.5 C 315.833,139.5 315.833,143.5 314.5,147.5C 314.5,143.833 314.5,140.167 314.5,136.5C 310.833,136.5 307.167,136.5 303.5,136.5C 303.5,139.5 303.5,142.5 303.5,145.5C 305.415,145.216 307.081,145.549 308.5,146.5C 306.5,146.5 304.5,146.5 302.5,146.5C 302.5,142.833 302.5,139.167 302.5,135.5C 306.5,135.5 310.5,135.5 314.5,135.5 Z"/></g>
<g><path style="opacity:1" fill="#ec7381" d="M 79.5,139.5 C 87.3516,139.175 95.0182,139.508 102.5,140.5C 94.8333,140.5 87.1667,140.5 79.5,140.5C 79.5,158.5 79.5,176.5 79.5,194.5C 79.5,194.833 79.5,195.167 79.5,195.5C 78.1667,176.833 78.1667,158.167 79.5,139.5 Z"/></g>
<g><path style="opacity:1" fill="#fcfcfc" d="M 102.5,140.5 C 102.333,153.504 102.5,166.504 103,179.5C 112.417,180.485 121.917,180.818 131.5,180.5C 131.5,185.167 131.5,189.833 131.5,194.5C 114.167,194.5 96.8333,194.5 79.5,194.5C 79.5,176.5 79.5,158.5 79.5,140.5C 87.1667,140.5 94.8333,140.5 102.5,140.5 Z"/></g>
<g><path style="opacity:1" fill="#faf6f8" d="M 177.5,139.5 C 180.254,140.641 182.921,141.975 185.5,143.5C 184.889,146.961 186.056,149.628 189,151.5C 189.346,153.218 189.846,154.885 190.5,156.5C 190.192,157.308 189.692,157.975 189,158.5C 186.139,154.277 184.639,154.61 184.5,159.5C 185.978,159.238 187.311,159.571 188.5,160.5C 189.641,161.425 189.641,162.259 188.5,163C 186.742,162.656 184.909,162.156 183,161.5C 180.968,161.858 179.134,162.692 177.5,164C 182.431,164.852 187.097,166.519 191.5,169C 186.133,169.049 180.8,168.549 175.5,167.5C 175.5,166.167 175.5,164.833 175.5,163.5C 169.491,163.666 163.491,163.499 157.5,163C 156.944,162.617 156.611,162.117 156.5,161.5C 163.833,161.5 171.167,161.5 178.5,161.5C 178.795,159.265 178.461,157.265 177.5,155.5C 173.538,150.923 168.538,149.59 162.5,151.5C 164.075,149.059 166.408,147.893 169.5,148C 168.621,144.288 166.621,143.954 163.5,147C 162.207,147.49 160.873,147.657 159.5,147.5C 159.762,146.022 159.429,144.689 158.5,143.5C 155.742,154.25 154.408,153.916 154.5,142.5C 151.356,142.956 148.356,143.956 145.5,145.5C 147.045,146.452 148.712,146.785 150.5,146.5C 151.341,150.585 150.008,153.585 146.5,155.5C 146.051,152.956 146.051,150.29 146.5,147.5C 145.041,147.567 143.708,147.234 142.5,146.5C 145.343,143.24 149.01,141.24 153.5,140.5C 161.445,139.563 169.445,139.23 177.5,139.5 Z"/></g>
<g><path style="opacity:1" fill="#f3f2f2" d="M 314.5,147.5 C 313.488,148.872 312.488,150.205 311.5,151.5C 310.626,153.69 308.959,154.69 306.5,154.5C 306.693,151.692 307.36,149.025 308.5,146.5C 307.081,145.549 305.415,145.216 303.5,145.5C 303.5,142.5 303.5,139.5 303.5,136.5C 307.167,136.5 310.833,136.5 314.5,136.5C 314.5,140.167 314.5,143.833 314.5,147.5 Z"/></g>
<g><path style="opacity:1" fill="#b5283b" d="M 415.5,143.5 C 413.706,151.635 411.706,159.635 409.5,167.5C 409.5,163.5 409.5,159.5 409.5,155.5C 408.325,155.719 407.325,155.386 406.5,154.5C 408.296,154.731 410.129,154.065 412,152.5C 412.495,149.469 412.329,146.469 411.5,143.5C 412.833,143.5 414.167,143.5 415.5,143.5 Z"/></g>
<g><path style="opacity:1" fill="#c80f2e" d="M 367.5,161.5 C 362.557,160.535 357.557,159.868 352.5,159.5C 350.958,158.837 349.291,158.17 347.5,157.5C 348.246,156.264 348.579,154.93 348.5,153.5C 347.5,153.5 346.5,153.5 345.5,153.5C 345.5,154.5 345.5,155.5 345.5,156.5C 344.127,156.657 342.793,156.49 341.5,156C 340.167,155 340.167,154 341.5,153C 345.871,152.371 350.204,152.537 354.5,153.5C 354.33,154.822 354.663,155.989 355.5,157C 362.153,158.667 368.82,159.334 375.5,159C 374.027,159.71 373.36,160.876 373.5,162.5C 374.833,162.5 376.167,162.5 377.5,162.5C 377.762,163.978 377.429,165.311 376.5,166.5C 374.035,165.868 372.369,164.368 371.5,162C 370.207,161.51 368.873,161.343 367.5,161.5 Z"/></g>
<g><path style="opacity:1" fill="#f9fcfa" d="M 275.5,140.5 C 282.833,140.5 290.167,140.5 297.5,140.5C 297.5,158.5 297.5,176.5 297.5,194.5C 290.167,194.5 282.833,194.5 275.5,194.5C 275.5,176.5 275.5,158.5 275.5,140.5 Z"/></g>
<g><path style="opacity:1" fill="#eeaab5" d="M 275.5,140.5 C 275.5,140.167 275.5,139.833 275.5,139.5C 283.352,139.175 291.018,139.508 298.5,140.5C 298.5,158.833 298.5,177.167 298.5,195.5C 290.833,195.5 283.167,195.5 275.5,195.5C 275.5,195.167 275.5,194.833 275.5,194.5C 282.833,194.5 290.167,194.5 297.5,194.5C 297.5,176.5 297.5,158.5 297.5,140.5C 290.167,140.5 282.833,140.5 275.5,140.5 Z"/></g>
<g><path style="opacity:1" fill="#b0233c" d="M 314.5,135.5 C 310.5,135.5 306.5,135.5 302.5,135.5C 302.5,139.167 302.5,142.833 302.5,146.5C 304.5,146.5 306.5,146.5 308.5,146.5C 307.36,149.025 306.693,151.692 306.5,154.5C 308.959,154.69 310.626,153.69 311.5,151.5C 311.241,155.068 309.241,156.401 305.5,155.5C 305.799,153.396 305.466,151.396 304.5,149.5C 303.5,150.833 302.5,150.833 301.5,149.5C 300.667,163.488 300.167,177.488 300,191.5C 299.79,193.058 299.29,194.391 298.5,195.5C 298.5,177.167 298.5,158.833 298.5,140.5C 300.12,139.159 301.12,137.326 301.5,135C 306.02,134.186 310.354,134.353 314.5,135.5 Z"/></g>
<g><path style="opacity:1" fill="#9d374a" d="M 316.5,152.5 C 314.796,157.874 315.463,162.874 318.5,167.5C 316.224,167.244 315.057,165.91 315,163.5C 314.333,160.167 314.333,156.833 315,153.5C 315.383,152.944 315.883,152.611 316.5,152.5 Z"/></g>
<g><path style="opacity:1" fill="#b1545f" d="M 351.5,159.5 C 351.833,159.5 352.167,159.5 352.5,159.5C 357.557,159.868 362.557,160.535 367.5,161.5C 368.263,162.268 369.263,162.768 370.5,163C 371.252,163.671 371.586,164.504 371.5,165.5C 364.929,163.075 358.262,161.075 351.5,159.5 Z"/></g>
<g><path style="opacity:1" fill="#f4fdfa" d="M 162.5,151.5 C 160.5,151.5 159.5,152.5 159.5,154.5C 156.908,156.036 155.908,158.369 156.5,161.5C 156.611,162.117 156.944,162.617 157.5,163C 163.491,163.499 169.491,163.666 175.5,163.5C 175.5,164.833 175.5,166.167 175.5,167.5C 180.8,168.549 186.133,169.049 191.5,169C 187.097,166.519 182.431,164.852 177.5,164C 179.134,162.692 180.968,161.858 183,161.5C 184.909,162.156 186.742,162.656 188.5,163C 189.641,162.259 189.641,161.425 188.5,160.5C 187.311,159.571 185.978,159.238 184.5,159.5C 184.639,154.61 186.139,154.277 189,158.5C 189.692,157.975 190.192,157.308 190.5,156.5C 189.846,154.885 189.346,153.218 189,151.5C 186.056,149.628 184.889,146.961 185.5,143.5C 186.833,143.5 188.167,143.5 189.5,143.5C 189.5,144.167 189.5,144.833 189.5,145.5C 189.384,148.91 191.05,150.244 194.5,149.5C 195.16,153.139 196.494,156.472 198.5,159.5C 196.194,159.993 193.861,160.326 191.5,160.5C 191.5,161.833 191.5,163.167 191.5,164.5C 192.5,164.5 193.5,164.5 194.5,164.5C 194.5,166.167 194.5,167.833 194.5,169.5C 196.288,169.785 197.955,169.452 199.5,168.5C 198.289,167.126 197.289,165.626 196.5,164C 198.127,160.701 199.627,160.868 201,164.5C 201.497,166.81 201.663,169.143 201.5,171.5C 186.833,171.5 172.167,171.5 157.5,171.5C 157.756,169.208 157.423,167.041 156.5,165C 154.359,163.692 152.359,162.192 150.5,160.5C 148.802,161.681 147.135,161.681 145.5,160.5C 142.286,158.092 141.619,155.592 143.5,153C 142.622,151.2 141.955,149.367 141.5,147.5C 141.5,146.833 141.833,146.5 142.5,146.5C 143.708,147.234 145.041,147.567 146.5,147.5C 146.051,150.29 146.051,152.956 146.5,155.5C 150.008,153.585 151.341,150.585 150.5,146.5C 148.712,146.785 147.045,146.452 145.5,145.5C 148.356,143.956 151.356,142.956 154.5,142.5C 154.408,153.916 155.742,154.25 158.5,143.5C 159.429,144.689 159.762,146.022 159.5,147.5C 160.873,147.657 162.207,147.49 163.5,147C 166.621,143.954 168.621,144.288 169.5,148C 166.408,147.893 164.075,149.059 162.5,151.5 Z"/></g>
<g><path style="opacity:1" fill="#b91e36" d="M 370.5,191.5 C 372.636,188.597 374.802,185.597 377,182.5C 377.867,178.044 377.534,173.711 376,169.5C 374.333,168.267 372.833,166.933 371.5,165.5C 371.586,164.504 371.252,163.671 370.5,163C 369.263,162.768 368.263,162.268 367.5,161.5C 368.873,161.343 370.207,161.51 371.5,162C 372.369,164.368 374.035,165.868 376.5,166.5C 377.429,165.311 377.762,163.978 377.5,162.5C 376.167,162.5 374.833,162.5 373.5,162.5C 373.36,160.876 374.027,159.71 375.5,159C 368.82,159.334 362.153,158.667 355.5,157C 354.663,155.989 354.33,154.822 354.5,153.5C 350.204,152.537 345.871,152.371 341.5,153C 340.167,154 340.167,155 341.5,156C 342.793,156.49 344.127,156.657 345.5,156.5C 345.5,155.5 345.5,154.5 345.5,153.5C 346.5,153.5 347.5,153.5 348.5,153.5C 348.579,154.93 348.246,156.264 347.5,157.5C 349.291,158.17 350.958,158.837 352.5,159.5C 352.167,159.5 351.833,159.5 351.5,159.5C 346.872,159.884 342.539,159.05 338.5,157C 336.86,154.224 337.527,152.224 340.5,151C 344.167,150.333 347.833,150.333 351.5,151C 354.209,151.541 356.209,153.041 357.5,155.5C 363.463,156.496 369.463,156.829 375.5,156.5C 374.841,151.172 372.174,147.172 367.5,144.5C 369.262,144.357 370.929,144.691 372.5,145.5C 373.415,144.672 374.081,143.672 374.5,142.5C 377.428,141.516 380.428,141.183 383.5,141.5C 383.5,140.5 383.5,139.5 383.5,138.5C 384.978,138.238 386.311,138.571 387.5,139.5C 384.727,143.009 381.06,144.342 376.5,143.5C 376.799,145.973 377.799,148.14 379.5,150C 377.62,153.735 377.787,157.568 380,161.5C 381.517,156.871 382.684,156.704 383.5,161C 383.167,162.167 382.833,163.333 382.5,164.5C 380.994,165.23 379.66,165.563 378.5,165.5C 379.614,170.446 379.781,175.446 379,180.5C 377.56,184.041 376.726,187.708 376.5,191.5C 374.5,191.5 372.5,191.5 370.5,191.5 Z"/></g>
<g><path style="opacity:1" fill="#bc263f" d="M 189.5,143.5 C 192.049,143.441 194.049,144.441 195.5,146.5C 196.386,145.675 196.719,144.675 196.5,143.5C 197.429,144.936 198.595,146.269 200,147.5C 204.465,155.433 208.632,163.433 212.5,171.5C 211.265,171.279 210.265,170.612 209.5,169.5C 208.692,171.423 208.192,173.423 208,175.5C 207.814,173.1 207.314,170.766 206.5,168.5C 205.719,169.729 205.219,171.062 205,172.5C 204.329,173.252 203.496,173.586 202.5,173.5C 202.5,173.167 202.5,172.833 202.5,172.5C 203.321,163.413 200.821,155.413 195,148.5C 193.22,147.361 191.386,146.361 189.5,145.5C 189.5,144.833 189.5,144.167 189.5,143.5 Z"/></g>
<g><path style="opacity:1" fill="#f9f8f8" d="M 223.5,140.5 C 228.952,151.405 234.452,162.405 240,173.5C 241.385,172.449 242.385,171.116 243,169.5C 247.159,159.847 251.326,150.18 255.5,140.5C 261.176,140.334 266.843,140.501 272.5,141C 271.748,141.671 271.414,142.504 271.5,143.5C 268.326,148.516 265.659,153.849 263.5,159.5C 260.326,164.516 257.659,169.849 255.5,175.5C 255.5,175.833 255.5,176.167 255.5,176.5C 253.597,179.299 251.931,182.299 250.5,185.5C 248.424,188.08 247.091,191.08 246.5,194.5C 238.585,196.076 230.919,195.743 223.5,193.5C 223.065,190.843 222.065,188.509 220.5,186.5C 220.245,184.033 219.245,182.033 217.5,180.5C 216.071,177.304 214.405,174.304 212.5,171.5C 208.632,163.433 204.465,155.433 200,147.5C 198.595,146.269 197.429,144.936 196.5,143.5C 196.5,143.167 196.5,142.833 196.5,142.5C 205.105,140.529 214.105,139.862 223.5,140.5 Z"/></g>
<g><path style="opacity:1" fill="#933b4a" d="M 202.5,172.5 C 202.5,172.833 202.5,173.167 202.5,173.5C 187.129,172.85 172.129,173.516 157.5,175.5C 156.596,174.791 156.263,173.791 156.5,172.5C 171.833,172.5 187.167,172.5 202.5,172.5 Z"/></g>
<g><path style="opacity:1" fill="#f7f6f7" d="M 337.5,139.5 C 344.557,139.24 351.557,139.573 358.5,140.5C 361.547,141.921 364.547,143.254 367.5,144.5C 372.174,147.172 374.841,151.172 375.5,156.5C 369.463,156.829 363.463,156.496 357.5,155.5C 356.209,153.041 354.209,151.541 351.5,151C 347.833,150.333 344.167,150.333 340.5,151C 337.527,152.224 336.86,154.224 338.5,157C 342.539,159.05 346.872,159.884 351.5,159.5C 358.262,161.075 364.929,163.075 371.5,165.5C 372.833,166.933 374.333,168.267 376,169.5C 377.534,173.711 377.867,178.044 377,182.5C 374.802,185.597 372.636,188.597 370.5,191.5C 369.209,191.263 368.209,191.596 367.5,192.5C 363.851,193.267 360.518,194.6 357.5,196.5C 355.5,196.5 353.5,196.5 351.5,196.5C 343.399,196.827 335.399,196.161 327.5,194.5C 325.496,192.299 323.163,190.299 320.5,188.5C 319.675,186.64 318.675,184.974 317.5,183.5C 317.5,182.167 317.5,180.833 317.5,179.5C 323.167,179.5 328.833,179.5 334.5,179.5C 335.114,182.188 336.78,184.021 339.5,185C 343.689,185.812 347.689,185.645 351.5,184.5C 353.926,183.647 354.76,181.981 354,179.5C 353.329,178.748 352.496,178.414 351.5,178.5C 342.137,176.939 332.803,174.772 323.5,172C 321.76,170.483 320.094,168.983 318.5,167.5C 315.463,162.874 314.796,157.874 316.5,152.5C 321.043,144.386 328.043,140.053 337.5,139.5 Z"/></g>
<g><path style="opacity:1" fill="#bd3647" d="M 263.5,159.5 C 262.654,163.363 261.654,167.196 260.5,171C 260.559,172.436 260.892,173.769 261.5,175C 259.527,175.495 257.527,175.662 255.5,175.5C 257.659,169.849 260.326,164.516 263.5,159.5 Z"/></g>
<g><path style="opacity:1" fill="#b12036" d="M 202.5,173.5 C 194.765,174.181 186.932,174.848 179,175.5C 178.833,175.833 178.667,176.167 178.5,176.5C 182.333,176.833 186.167,177.167 190,177.5C 194.477,177.404 198.81,176.738 203,175.5C 203.5,175.833 204,176.167 204.5,176.5C 202.61,180.344 200.444,184.011 198,187.5C 196.549,189.464 194.716,190.797 192.5,191.5C 195.215,188.786 197.549,185.786 199.5,182.5C 200.434,181.432 200.768,180.099 200.5,178.5C 194.491,178.334 188.491,178.501 182.5,179C 177.948,183.941 172.281,185.775 165.5,184.5C 163.118,183.649 161.118,182.316 159.5,180.5C 162.718,181.188 165.884,182.188 169,183.5C 172.163,182.75 175.33,182.084 178.5,181.5C 178.5,180.5 178.5,179.5 178.5,178.5C 175.275,178.411 172.275,179.077 169.5,180.5C 167.159,179.818 164.826,179.151 162.5,178.5C 162.5,177.5 162.5,176.5 162.5,175.5C 166.911,176.754 171.244,176.587 175.5,175C 170.177,174.501 164.844,174.334 159.5,174.5C 159.5,176.167 159.5,177.833 159.5,179.5C 158.326,178.486 157.66,177.153 157.5,175.5C 172.129,173.516 187.129,172.85 202.5,173.5 Z"/></g>
<g><path style="opacity:1" fill="#b44257" d="M 255.5,140.5 C 261.979,139.509 268.646,139.176 275.5,139.5C 275.5,139.833 275.5,140.167 275.5,140.5C 275.5,158.5 275.5,176.5 275.5,194.5C 275.5,194.833 275.5,195.167 275.5,195.5C 274.503,178.341 274.17,161.008 274.5,143.5C 273.5,143.5 272.5,143.5 271.5,143.5C 271.414,142.504 271.748,141.671 272.5,141C 266.843,140.501 261.176,140.334 255.5,140.5 Z"/></g>
<g><path style="opacity:1" fill="#cc0f31" d="M 159.5,180.5 C 159.5,180.167 159.5,179.833 159.5,179.5C 159.5,177.833 159.5,176.167 159.5,174.5C 164.844,174.334 170.177,174.501 175.5,175C 171.244,176.587 166.911,176.754 162.5,175.5C 162.5,176.5 162.5,177.5 162.5,178.5C 164.826,179.151 167.159,179.818 169.5,180.5C 172.275,179.077 175.275,178.411 178.5,178.5C 178.5,179.5 178.5,180.5 178.5,181.5C 175.33,182.084 172.163,182.75 169,183.5C 165.884,182.188 162.718,181.188 159.5,180.5 Z"/></g>
<g><path style="opacity:1" fill="#cb6e7c" d="M 334.5,179.5 C 328.833,179.5 323.167,179.5 317.5,179.5C 317.5,180.833 317.5,182.167 317.5,183.5C 316.549,182.081 316.216,180.415 316.5,178.5C 322.69,178.177 328.69,178.51 334.5,179.5 Z"/></g>
<g><path style="opacity:1" fill="#b33b4b" d="M 79.5,139.5 C 87.5683,138.172 95.735,138.172 104,139.5C 104.5,152.496 104.667,165.496 104.5,178.5C 112.174,178.666 119.841,178.5 127.5,178C 128.938,177.781 130.271,177.281 131.5,176.5C 129.807,166.572 130.64,156.905 134,147.5C 135.356,148.38 136.856,148.714 138.5,148.5C 130.338,161.254 130.505,173.92 139,186.5C 149.441,195.584 161.608,198.918 175.5,196.5C 160.375,200.531 147.042,197.198 135.5,186.5C 134.583,187.127 133.583,187.461 132.5,187.5C 132.802,184.941 132.468,182.607 131.5,180.5C 121.917,180.818 112.417,180.485 103,179.5C 102.5,166.504 102.333,153.504 102.5,140.5C 95.0182,139.508 87.3516,139.175 79.5,139.5 Z"/></g>
<g><path style="opacity:1" fill="#b74355" d="M 255.5,176.5 C 255.657,177.873 255.49,179.207 255,180.5C 254.106,182.767 252.606,184.434 250.5,185.5C 251.931,182.299 253.597,179.299 255.5,176.5 Z"/></g>
<g><path style="opacity:1" fill="#a23254" d="M 351.5,178.5 C 352.496,178.414 353.329,178.748 354,179.5C 354.76,181.981 353.926,183.647 351.5,184.5C 351.5,182.5 351.5,180.5 351.5,178.5 Z"/></g>
<g><path style="opacity:1" fill="#ebbcc2" d="M 199.5,182.5 C 199.5,181.5 199.5,180.5 199.5,179.5C 194.156,179.334 188.823,179.501 183.5,180C 179.809,184.598 174.975,186.765 169,186.5C 167.301,186.613 166.134,185.947 165.5,184.5C 172.281,185.775 177.948,183.941 182.5,179C 188.491,178.501 194.491,178.334 200.5,178.5C 200.768,180.099 200.434,181.432 199.5,182.5 Z"/></g>
<g><path style="opacity:1" fill="#d07585" d="M 217.5,180.5 C 219.245,182.033 220.245,184.033 220.5,186.5C 218.755,184.967 217.755,182.967 217.5,180.5 Z"/></g>
<g><path style="opacity:1" fill="#f8f7f7" d="M 189.5,145.5 C 191.386,146.361 193.22,147.361 195,148.5C 200.821,155.413 203.321,163.413 202.5,172.5C 187.167,172.5 171.833,172.5 156.5,172.5C 156.263,173.791 156.596,174.791 157.5,175.5C 157.66,177.153 158.326,178.486 159.5,179.5C 159.5,179.833 159.5,180.167 159.5,180.5C 161.118,182.316 163.118,183.649 165.5,184.5C 166.134,185.947 167.301,186.613 169,186.5C 174.975,186.765 179.809,184.598 183.5,180C 188.823,179.501 194.156,179.334 199.5,179.5C 199.5,180.5 199.5,181.5 199.5,182.5C 197.549,185.786 195.215,188.786 192.5,191.5C 187.098,194.032 181.431,195.699 175.5,196.5C 161.608,198.918 149.441,195.584 139,186.5C 130.505,173.92 130.338,161.254 138.5,148.5C 139.391,147.89 140.391,147.557 141.5,147.5C 141.955,149.367 142.622,151.2 143.5,153C 141.619,155.592 142.286,158.092 145.5,160.5C 147.135,161.681 148.802,161.681 150.5,160.5C 152.359,162.192 154.359,163.692 156.5,165C 157.423,167.041 157.756,169.208 157.5,171.5C 172.167,171.5 186.833,171.5 201.5,171.5C 201.663,169.143 201.497,166.81 201,164.5C 199.627,160.868 198.127,160.701 196.5,164C 197.289,165.626 198.289,167.126 199.5,168.5C 197.955,169.452 196.288,169.785 194.5,169.5C 194.5,167.833 194.5,166.167 194.5,164.5C 193.5,164.5 192.5,164.5 191.5,164.5C 191.5,163.167 191.5,161.833 191.5,160.5C 193.861,160.326 196.194,159.993 198.5,159.5C 196.494,156.472 195.16,153.139 194.5,149.5C 191.05,150.244 189.384,148.91 189.5,145.5 Z"/></g>
<g><path style="opacity:1" fill="#b8566c" d="M 159.5,154.5 C 158.37,156.315 157.704,158.315 157.5,160.5C 163.509,160.666 169.509,160.499 175.5,160C 177.107,158.951 177.773,157.451 177.5,155.5C 178.461,157.265 178.795,159.265 178.5,161.5C 171.167,161.5 163.833,161.5 156.5,161.5C 155.908,158.369 156.908,156.036 159.5,154.5 Z"/></g>
<g><path style="opacity:1" fill="#c01834" d="M 177.5,155.5 C 177.773,157.451 177.107,158.951 175.5,160C 169.509,160.499 163.509,160.666 157.5,160.5C 157.704,158.315 158.37,156.315 159.5,154.5C 159.5,152.5 160.5,151.5 162.5,151.5C 168.538,149.59 173.538,150.923 177.5,155.5 Z"/></g>
<g><path style="opacity:1" fill="#ebadb5" d="M 131.5,180.5 C 132.468,182.607 132.802,184.941 132.5,187.5C 132.5,190.167 132.5,192.833 132.5,195.5C 114.833,195.5 97.1667,195.5 79.5,195.5C 79.5,195.167 79.5,194.833 79.5,194.5C 96.8333,194.5 114.167,194.5 131.5,194.5C 131.5,189.833 131.5,185.167 131.5,180.5 Z"/></g>
<g><path style="opacity:1" fill="#bb536b" d="M 367.5,192.5 C 364.757,194.858 361.423,196.191 357.5,196.5C 360.518,194.6 363.851,193.267 367.5,192.5 Z"/></g>
<g><path style="opacity:1" fill="#b13b50" d="M 48.5,191.5 C 51.1836,196.268 52.517,201.601 52.5,207.5C 50.6586,202.423 49.3253,197.09 48.5,191.5 Z"/></g>
<g><path style="opacity:1" fill="#aa414e" d="M 327.5,194.5 C 335.399,196.161 343.399,196.827 351.5,196.5C 344.679,197.655 337.679,197.821 330.5,197C 329.429,196.148 328.429,195.315 327.5,194.5 Z"/></g>
<g><path style="opacity:1" fill="#b3253a" d="M 250.5,185.5 C 250.155,189.422 249.488,193.255 248.5,197C 245.648,197.269 242.982,198.103 240.5,199.5C 235.048,197.678 229.382,196.678 223.5,196.5C 223.5,195.5 223.5,194.5 223.5,193.5C 230.919,195.743 238.585,196.076 246.5,194.5C 247.091,191.08 248.424,188.08 250.5,185.5 Z"/></g>
<g><path style="opacity:1" fill="#a82438" d="M 159.5,236.5 C 148.833,236.5 138.167,236.5 127.5,236.5C 132.456,235.172 137.789,234.505 143.5,234.5C 149.211,234.505 154.544,235.172 159.5,236.5 Z"/></g>
<g><path style="opacity:1" fill="#ac2b49" d="M 159.5,236.5 C 163.846,236.334 168.179,236.501 172.5,237C 174.119,237.236 175.119,238.069 175.5,239.5C 170.071,238.494 164.738,237.494 159.5,236.5 Z"/></g>
<g><path style="opacity:1" fill="#a93445" d="M 319.5,236.5 C 311.493,236.334 303.493,236.5 295.5,237C 290.542,237.029 285.876,237.862 281.5,239.5C 280.833,239.5 280.167,239.5 279.5,239.5C 279.953,238.542 280.619,237.708 281.5,237C 294.31,235.396 306.976,235.229 319.5,236.5 Z"/></g>
<g><path style="opacity:1" fill="#fbe2e6" d="M 319.5,236.5 C 324.911,237.062 330.244,238.062 335.5,239.5C 317.491,238.213 299.491,238.213 281.5,239.5C 285.876,237.862 290.542,237.029 295.5,237C 303.493,236.5 311.493,236.334 319.5,236.5 Z"/></g>
<g><path style="opacity:1" fill="#b04057" d="M 341.5,239.5 C 344.219,239.397 346.885,239.731 349.5,240.5C 350.713,240.747 351.38,241.414 351.5,242.5C 347.838,242.277 344.505,241.277 341.5,239.5 Z"/></g>
<g><path style="opacity:1" fill="#f9e3ea" d="M 55.5,223.5 C 58.0842,230.513 59.7509,237.846 60.5,245.5C 59.5041,245.414 58.6708,245.748 58,246.5C 57.7978,248.256 57.2978,249.922 56.5,251.5C 56.1667,250.333 55.8333,249.167 55.5,248C 56.6132,244.599 57.2799,241.099 57.5,237.5C 56.0234,233.033 55.3568,228.366 55.5,223.5 Z"/></g>
<g><path style="opacity:1" fill="#be5466" d="M 351.5,242.5 C 357.529,243.169 362.863,245.169 367.5,248.5C 361.891,247.02 356.557,245.02 351.5,242.5 Z"/></g>
<g><path style="opacity:1" fill="#b72036" d="M 260.5,243.5 C 257.682,245.072 254.682,246.406 251.5,247.5C 242.624,249.938 234.624,253.938 227.5,259.5C 220.527,256.68 213.86,253.347 207.5,249.5C 210.917,249.796 214.084,250.796 217,252.5C 219.086,251.582 221.253,250.915 223.5,250.5C 223.5,251.5 223.5,252.5 223.5,253.5C 222.325,253.281 221.325,253.614 220.5,254.5C 222.947,256.223 225.613,256.723 228.5,256C 224.701,252.83 224.701,249.497 228.5,246C 233.327,245.774 237.994,244.94 242.5,243.5C 242.5,244.5 242.5,245.5 242.5,246.5C 241.5,246.5 240.5,246.5 239.5,246.5C 239.238,247.978 239.571,249.311 240.5,250.5C 246.603,246.444 253.269,244.11 260.5,243.5 Z"/></g>
<g><path style="opacity:1" fill="#b91f39" d="M 95.5,243.5 C 84.8542,248.797 74.1875,254.13 63.5,259.5C 63.5,257.5 63.5,255.5 63.5,253.5C 66.941,253.699 70.2744,253.199 73.5,252C 74.3366,250.989 74.67,249.822 74.5,248.5C 76.1667,248.5 77.8333,248.5 79.5,248.5C 79.5,246.833 79.5,245.167 79.5,243.5C 80.5,243.5 81.5,243.5 82.5,243.5C 82.5,244.5 82.5,245.5 82.5,246.5C 84.1667,246.5 85.8333,246.5 87.5,246.5C 87.5,245.5 87.5,244.5 87.5,243.5C 90.1667,243.5 92.8333,243.5 95.5,243.5 Z"/></g>
<g><path style="opacity:1" fill="#b43045" d="M 367.5,248.5 C 370.522,248.804 373.522,249.304 376.5,250C 377.617,251.892 379.284,252.725 381.5,252.5C 381.5,253.5 381.5,254.5 381.5,255.5C 376.484,253.659 371.818,251.326 367.5,248.5 Z"/></g>
<g><path style="opacity:1" fill="#f6e0e2" d="M 251.5,247.5 C 249.315,249.291 246.982,251.125 244.5,253C 244.833,253.333 245.167,253.667 245.5,254C 243.559,254.743 241.726,254.576 240,253.5C 237.842,254.826 236.008,256.493 234.5,258.5C 232.257,259.474 229.924,259.808 227.5,259.5C 234.624,253.938 242.624,249.938 251.5,247.5 Z"/></g>
<g><path style="opacity:1" fill="#fae9ed" d="M 398.5,217.5 C 398.666,221.514 398.499,225.514 398,229.5C 394.946,238.565 392.446,247.898 390.5,257.5C 390.824,259.569 391.658,259.902 393,258.5C 393.497,256.19 393.663,253.857 393.5,251.5C 394.5,251.5 395.5,251.5 396.5,251.5C 396.677,254.837 397.677,257.837 399.5,260.5C 397.712,260.215 396.045,260.548 394.5,261.5C 392.616,265.017 390.283,265.351 387.5,262.5C 386.571,261.311 386.238,259.978 386.5,258.5C 387.931,258.119 388.764,257.119 389,255.5C 392.199,242.705 395.366,230.038 398.5,217.5 Z"/></g>
</svg>
