<?xml version="1.0" standalone="no"?>
<!DOCTYPE svg PUBLIC "-//W3C//DTD SVG 20010904//EN"
 "http://www.w3.org/TR/2001/REC-SVG-20010904/DTD/svg10.dtd">
<svg version="1.0" xmlns="http://www.w3.org/2000/svg"
 width="1200.000000pt" height="432.000000pt" viewBox="0 0 1200.000000 432.000000"
 preserveAspectRatio="xMidYMid meet">

<g transform="translate(0.000000,432.000000) scale(0.100000,-0.100000)"
fill="#000000" stroke="none">
<path d="M1602 4028 c-564 -629 -865 -1026 -1096 -1444 -170 -308 -298 -655
-351 -949 -25 -136 -31 -418 -11 -537 42 -257 149 -464 333 -645 448 -441
1211 -487 2263 -136 312 104 205 59 3275 1373 704 301 2155 922 3225 1380
2498 1069 2617 1119 2607 1120 -8 0 -228 -58 -1832 -485 -297 -79 -1186 -315
-1975 -525 -789 -210 -1644 -437 -1900 -505 -3041 -809 -2933 -781 -3205 -821
-169 -25 -542 -25 -674 -1 -252 48 -427 134 -581 287 -131 129 -218 282 -266
465 -36 136 -44 376 -20 545 46 314 177 674 376 1028 22 39 39 72 36 72 -2 0
-94 -100 -204 -222z"/>
</g>
</svg>
