<?xml version="1.0" encoding="UTF-8"?>
<!DOCTYPE svg PUBLIC "-//W3C//DTD SVG 1.1//EN" "http://www.w3.org/Graphics/SVG/1.1/DTD/svg11.dtd">
<svg xmlns="http://www.w3.org/2000/svg" version="1.1" width="3277px" height="860px" style="shape-rendering:geometricPrecision; text-rendering:geometricPrecision; image-rendering:optimizeQuality; fill-rule:evenodd; clip-rule:evenodd" xmlns:xlink="http://www.w3.org/1999/xlink">
<g><path style="opacity:0.995" fill="#006a32" d="M 400.5,52.5 C 477.964,48.6883 552.63,61.1883 624.5,90C 684.431,114.616 732.264,153.783 768,207.5C 808.937,278.21 815.937,352.21 789,429.5C 779.019,455.111 765.352,478.445 748,499.5C 710.404,543.08 664.571,574.914 610.5,595C 527.115,625.183 441.448,634.183 353.5,622C 285.587,613.59 223.253,590.59 166.5,553C 77.1417,488.408 40.3083,401.241 56,291.5C 71.0539,222.817 107.221,168.317 164.5,128C 220.12,90.2116 281.454,66.8782 348.5,58C 365.939,55.7168 383.273,53.8835 400.5,52.5 Z M 418.5,146.5 C 475.219,145.011 529.552,155.511 581.5,178C 674.003,224.518 707.17,298.018 681,398.5C 667.848,430.984 647.348,457.817 619.5,479C 575.693,508.272 527.359,525.272 474.5,530C 409.475,537.615 346.475,529.615 285.5,506C 246.196,490.019 214.696,464.519 191,429.5C 157.001,369.502 157.001,309.502 191,249.5C 217.7,211.716 252.867,184.882 296.5,169C 336.132,155.13 376.799,147.63 418.5,146.5 Z"/></g>
<g><path style="opacity:0.995" fill="#006a32" d="M 1205.5,52.5 C 1282.85,48.5582 1357.51,60.7249 1429.5,89C 1488.01,113.193 1535.51,151.026 1572,202.5C 1613.04,269.143 1622.7,340.143 1601,415.5C 1579.21,478.29 1540.04,527.124 1483.5,562C 1417.3,601.285 1345.63,622.618 1268.5,626C 1194.61,630.777 1122.94,620.444 1053.5,595C 1025.1,583.553 998.267,569.386 973,552.5C 972.5,637.166 972.333,721.833 972.5,806.5C 934.5,806.5 896.5,806.5 858.5,806.5C 858.5,563.833 858.5,321.167 858.5,78.5C 896.5,78.5 934.5,78.5 972.5,78.5C 972.333,93.5037 972.5,108.504 973,123.5C 973.308,124.308 973.808,124.975 974.5,125.5C 1024.3,92.9466 1078.64,71.4466 1137.5,61C 1160.18,57.0196 1182.84,54.1862 1205.5,52.5 Z M 1221.5,146.5 C 1265,145.611 1307.67,151.111 1349.5,163C 1387.46,174.301 1420.79,193.301 1449.5,220C 1499.41,275.61 1510.91,338.443 1484,408.5C 1464.11,450.057 1433.28,480.557 1391.5,500C 1356.82,515.892 1320.49,525.892 1282.5,530C 1216.3,537.892 1152.3,529.559 1090.5,505C 996.864,462.896 960.03,391.396 980,290.5C 992.457,251.375 1015.62,220.209 1049.5,197C 1090.32,170.834 1134.99,155.167 1183.5,150C 1196.3,148.609 1208.97,147.442 1221.5,146.5 Z"/></g>
<g><path style="opacity:0.996" fill="#006a32" d="M 2013.5,52.5 C 2091.33,48.4033 2166.33,60.9033 2238.5,90C 2287.69,110.546 2329.53,141.046 2364,181.5C 2416.91,250.86 2431.91,327.86 2409,412.5C 2392.5,464.344 2363,507.178 2320.5,541C 2274.61,576.103 2223.27,600.103 2166.5,613C 2100.37,627.421 2033.71,630.421 1966.5,622C 1914.62,614.706 1865.29,599.372 1818.5,576C 1805.83,569.002 1793.5,561.502 1781.5,553.5C 1780.5,637.831 1780.17,722.164 1780.5,806.5C 1742.17,806.5 1703.83,806.5 1665.5,806.5C 1665.5,563.833 1665.5,321.167 1665.5,78.5C 1703.83,78.5 1742.17,78.5 1780.5,78.5C 1780.33,94.5035 1780.5,110.503 1781,126.5C 1830.73,93.1374 1885.23,71.3041 1944.5,61C 1967.52,57.0921 1990.52,54.2588 2013.5,52.5 Z M 2031.5,146.5 C 2087.77,144.933 2141.77,155.1 2193.5,177C 2285.08,221.665 2319.58,293.832 2297,393.5C 2283.12,432.766 2258.62,463.6 2223.5,486C 2181.93,510.855 2136.93,525.522 2088.5,530C 2021.85,537.795 1957.52,529.128 1895.5,504C 1804.86,462.641 1768.36,392.807 1786,294.5C 1797.88,253.551 1821.38,221.051 1856.5,197C 1891.62,174.287 1929.96,159.62 1971.5,153C 1991.55,149.833 2011.55,147.667 2031.5,146.5 Z"/></g>
<g><path style="opacity:0.995" fill="#006a32" d="M 2818.5,52.5 C 2898.19,48.5029 2974.85,61.6696 3048.5,92C 3100.07,114.365 3142.91,147.865 3177,192.5C 3223.13,259.605 3235.46,332.605 3214,411.5C 3195.77,468.799 3162.27,514.965 3113.5,550C 3061.76,585.482 3004.76,608.482 2942.5,619C 2857.62,633.504 2773.95,628.504 2691.5,604C 2632.68,586.361 2581.85,555.861 2539,512.5C 2476.3,441.371 2456.97,359.704 2481,267.5C 2499.69,209.611 2533.86,163.111 2583.5,128C 2639.11,90.2157 2700.45,66.8824 2767.5,58C 2784.61,55.7653 2801.61,53.932 2818.5,52.5 Z M 2844.5,146.5 C 2890.81,146.234 2935.81,153.734 2979.5,169C 3014.16,181.679 3044,201.513 3069,228.5C 3107.79,276.11 3119.12,329.777 3103,389.5C 3091.82,424.013 3071.99,452.513 3043.5,475C 3006.98,501.518 2966.31,518.518 2921.5,526C 2868.72,534.843 2816.05,534.177 2763.5,524C 2720.52,515.834 2681.85,498.5 2647.5,472C 2590.28,420.664 2572.45,357.831 2594,283.5C 2611.51,238.658 2641.67,205.158 2684.5,183C 2722.28,163.963 2762.28,152.63 2804.5,149C 2817.99,148.153 2831.32,147.319 2844.5,146.5 Z"/></g>
</svg>
