<?xml version="1.0" encoding="UTF-8"?>
<!DOCTYPE svg PUBLIC "-//W3C//DTD SVG 1.1//EN" "http://www.w3.org/Graphics/SVG/1.1/DTD/svg11.dtd">
<svg xmlns="http://www.w3.org/2000/svg" version="1.1" width="1024px" height="298px" style="shape-rendering:geometricPrecision; text-rendering:geometricPrecision; image-rendering:optimizeQuality; fill-rule:evenodd; clip-rule:evenodd" xmlns:xlink="http://www.w3.org/1999/xlink">
<g><path style="opacity:0.637" fill="#d1d1d1" d="M 1020.5,-0.5 C 1021.5,-0.5 1022.5,-0.5 1023.5,-0.5C 1023.5,98.8333 1023.5,198.167 1023.5,297.5C 1022.5,297.5 1021.5,297.5 1020.5,297.5C 1020.5,198.167 1020.5,98.8333 1020.5,-0.5 Z"/></g>
<g><path style="opacity:0.084" fill="#bdbdbd" d="M 501.5,24.5 C 503.465,24.9483 503.798,25.9483 502.5,27.5C 501.614,26.675 501.281,25.675 501.5,24.5 Z"/></g>
<g><path style="opacity:0.031" fill="#c2c2c2" d="M 486.5,55.5 C 487.525,55.8966 487.692,56.5632 487,57.5C 486.536,56.9056 486.369,56.2389 486.5,55.5 Z"/></g>
<g><path style="opacity:0.094" fill="#b3b3b3" d="M 460.5,63.5 C 462.337,63.6395 462.67,64.3061 461.5,65.5C 460.702,65.0431 460.369,64.3764 460.5,63.5 Z"/></g>
<g><path style="opacity:0.171" fill="#b2b2b2" d="M 474.5,66.5 C 476.465,66.9483 476.798,67.9483 475.5,69.5C 474.614,68.675 474.281,67.675 474.5,66.5 Z"/></g>
<g><path style="opacity:0.196" fill="#818181" d="M 486.5,55.5 C 484.784,57.0248 482.784,58.0248 480.5,58.5C 479.386,59.8853 478.386,61.3853 477.5,63C 472.332,65.7593 467.665,69.2593 463.5,73.5C 464.391,74.5896 465.391,74.5896 466.5,73.5C 467.833,74.5 467.833,75.5 466.5,76.5C 465.914,76.2907 465.414,75.9574 465,75.5C 464.405,76.8989 464.572,78.2322 465.5,79.5C 469.061,80.7607 472.728,81.594 476.5,82C 479.658,83.9928 482.992,85.6595 486.5,87C 489.457,90.1164 491.79,93.6164 493.5,97.5C 491.114,105.117 489.78,112.95 489.5,121C 491.554,124.38 493.388,127.88 495,131.5C 495.979,133.32 497.479,134.487 499.5,135C 498.833,135.333 498.167,135.667 497.5,136C 498.275,138.608 499.275,141.108 500.5,143.5C 500.32,144.554 499.987,145.554 499.5,146.5C 501.655,147.001 503.322,148.001 504.5,149.5C 502.833,149.5 501.167,149.5 499.5,149.5C 499.762,150.978 499.429,152.311 498.5,153.5C 497.243,150.156 497.243,146.823 498.5,143.5C 496.975,140.722 495.975,137.722 495.5,134.5C 495.167,134.167 494.833,133.833 494.5,133.5C 493.833,134.5 493.167,135.5 492.5,136.5C 492.167,136 491.833,135.5 491.5,135C 492.233,133.234 492.567,131.401 492.5,129.5C 490.097,129.393 488.264,130.393 487,132.5C 486.833,132.167 486.667,131.833 486.5,131.5C 487.796,129.421 489.462,127.754 491.5,126.5C 490.747,124.247 489.414,122.413 487.5,121C 488.469,116.263 488.803,111.43 488.5,106.5C 487.325,106.719 486.325,106.386 485.5,105.5C 487.193,103.973 489.027,102.64 491,101.5C 491.497,99.1902 491.663,96.8568 491.5,94.5C 488.791,93.5168 486.124,93.3502 483.5,94C 484.685,92.647 486.019,91.4803 487.5,90.5C 484.805,89.1892 482.305,87.5225 480,85.5C 474.715,84.3431 469.548,83.3431 464.5,82.5C 464.737,81.209 464.404,80.209 463.5,79.5C 463.326,77.139 462.993,74.8056 462.5,72.5C 461.5,72.5 460.5,72.5 459.5,72.5C 459.116,70.7074 457.95,69.7074 456,69.5C 448.122,71.2121 444.622,76.2121 445.5,84.5C 442.745,85.5099 440.745,87.3432 439.5,90C 440.769,92.1385 440.769,94.3052 439.5,96.5C 438.702,94.9223 438.202,93.2556 438,91.5C 437.308,92.0253 436.808,92.6919 436.5,93.5C 436.774,98.4476 439.108,102.114 443.5,104.5C 441.851,106.65 440.018,108.65 438,110.5C 437.689,112.556 437.189,114.556 436.5,116.5C 440.13,118.455 442.13,121.455 442.5,125.5C 443.552,125.649 444.552,125.483 445.5,125C 447.792,122.884 449.792,120.718 451.5,118.5C 452.167,118.5 452.833,118.5 453.5,118.5C 451.09,121.888 448.757,125.221 446.5,128.5C 444.833,128.5 443.167,128.5 441.5,128.5C 440.047,126.174 438.714,123.674 437.5,121C 435.833,120.333 434.167,120.333 432.5,121C 431.648,123.362 430.148,125.195 428,126.5C 427.105,129.466 427.605,132.133 429.5,134.5C 430.386,133.675 430.719,132.675 430.5,131.5C 431.5,131.5 432.5,131.5 433.5,131.5C 433.281,132.675 433.614,133.675 434.5,134.5C 435.814,133.687 436.981,132.687 438,131.5C 438.333,133.047 437.833,134.38 436.5,135.5C 437.76,136.382 438.926,137.382 440,138.5C 441.711,146.753 444.045,154.753 447,162.5C 451.236,163.757 452.07,165.924 449.5,169C 449.444,173.402 451.444,176.235 455.5,177.5C 454.833,178.167 454.167,178.833 453.5,179.5C 452.206,178.71 451.039,177.71 450,176.5C 448.581,184.32 450.081,191.487 454.5,198C 453.551,198.617 452.718,198.451 452,197.5C 451,203.167 450,208.833 449,214.5C 446.352,218.58 444.852,223.08 444.5,228C 446.02,236.258 447.52,244.425 449,252.5C 450.688,254.188 452.355,255.855 454,257.5C 456.854,259.244 459.021,258.744 460.5,256C 456.573,253.652 454.573,250.152 454.5,245.5C 455.792,247.255 456.792,249.255 457.5,251.5C 459.614,252.034 461.448,253.034 463,254.5C 463.333,254.167 463.667,253.833 464,253.5C 468.8,257.857 468.467,261.857 463,265.5C 461.395,264.899 460.062,263.899 459,262.5C 458.107,263.711 457.274,263.711 456.5,262.5C 457.025,261.808 457.692,261.308 458.5,261C 453.636,260.146 449.803,257.646 447,253.5C 446.395,244.814 444.895,236.314 442.5,228C 445.91,217.182 448.91,206.515 451.5,196C 450.816,194.307 449.816,192.807 448.5,191.5C 449.653,190.313 449.653,189.313 448.5,188.5C 446.904,183.327 447.237,178.327 449.5,173.5C 448,168.833 446.5,164.167 445,159.5C 444.08,159.07 443.247,158.736 442.5,158.5C 442.709,157.914 443.043,157.414 443.5,157C 441.194,150.69 439.527,144.524 438.5,138.5C 436.833,138.5 435.167,138.5 433.5,138.5C 433.586,137.504 433.252,136.671 432.5,136C 426.046,135.868 423.879,132.702 426,126.5C 427.713,125.122 429.047,123.455 430,121.5C 431.319,119.513 433.152,118.346 435.5,118C 434.418,116.67 433.751,115.17 433.5,113.5C 434.496,113.414 435.329,113.748 436,114.5C 436.112,110.377 437.945,107.21 441.5,105C 440.552,104.517 439.552,104.351 438.5,104.5C 438.378,101.708 437.044,99.7079 434.5,98.5C 434.953,97.5416 435.619,96.7083 436.5,96C 434.842,95.2747 434.342,94.108 435,92.5C 436,90.1667 437.667,88.5 440,87.5C 439.645,86.0406 439.811,84.7072 440.5,83.5C 441.802,82.1931 443.135,82.1931 444.5,83.5C 443.726,74.6762 447.56,69.3428 456,67.5C 457.711,67.4393 459.044,68.1059 460,69.5C 463.366,66.5077 466.032,63.5077 468,60.5C 468.333,60.8333 468.667,61.1667 469,61.5C 484.171,50.604 497.004,38.7707 507.5,26C 502.847,21.1259 503.847,18.2925 510.5,17.5C 510.924,20.6674 512.59,23.0008 515.5,24.5C 515.291,25.086 514.957,25.586 514.5,26C 517.276,28.9939 518.442,32.4939 518,36.5C 517.311,37.3567 516.478,38.0233 515.5,38.5C 513.367,36.9095 511.701,34.9095 510.5,32.5C 504.115,37.6865 498.949,43.3531 495,49.5C 494.282,48.5494 493.449,48.3828 492.5,49C 490.294,51.0367 488.294,53.2034 486.5,55.5 Z M 445.5,95.5 C 444.711,95.2172 444.044,94.7172 443.5,94C 443.833,92.3333 444.167,90.6667 444.5,89C 453.679,88.1886 457.179,92.3553 455,101.5C 454.667,99.5 454.333,97.5 454,95.5C 452.644,94.6198 451.144,94.2865 449.5,94.5C 449.079,99.2765 447.746,99.6099 445.5,95.5 Z M 443.5,133.5 C 444.75,133.577 445.583,134.244 446,135.5C 446.661,141.174 447.828,146.674 449.5,152C 449,152.5 448.5,153 448,153.5C 446.605,147.355 444.772,141.355 442.5,135.5C 442.863,134.817 443.196,134.15 443.5,133.5 Z"/></g>
<g><path style="opacity:1" fill="#181818" d="M 480.5,58.5 C 474.805,62.0074 469.472,66.1741 464.5,71C 463.668,71.6877 463.002,71.521 462.5,70.5C 463.427,67.5305 465.427,65.6972 468.5,65C 480.697,54.7964 492.531,44.2964 504,33.5C 505.762,31.2576 507.262,28.9243 508.5,26.5C 508.563,24.5191 507.896,22.8524 506.5,21.5C 507.242,20.7132 508.075,20.0465 509,19.5C 512.104,24.2751 514.938,29.2751 517.5,34.5C 516.311,35.4287 514.978,35.762 513.5,35.5C 513.592,31.9286 511.926,30.7619 508.5,32C 500.366,41.1428 491.366,49.1428 481.5,56C 480.748,56.6708 480.414,57.5041 480.5,58.5 Z"/></g>
<g><path style="opacity:0.533" fill="#626262" d="M 459.5,72.5 C 460.5,72.5 461.5,72.5 462.5,72.5C 462.993,74.8056 463.326,77.139 463.5,79.5C 462.596,78.791 462.263,77.791 462.5,76.5C 460.473,76.6621 458.473,76.4955 456.5,76C 457.623,74.9563 458.956,74.2896 460.5,74C 459.944,73.6174 459.611,73.1174 459.5,72.5 Z"/></g>
<g><path style="opacity:0.057" fill="#b7b7b7" d="M 440.5,83.5 C 438.663,83.3605 438.33,82.6939 439.5,81.5C 440.298,81.9569 440.631,82.6236 440.5,83.5 Z"/></g>
<g><path style="opacity:0.071" fill="#b9b9b9" d="M 434.5,98.5 C 433.762,100.76 432.762,100.927 431.5,99C 432.352,97.2716 433.352,97.105 434.5,98.5 Z"/></g>
<g><path style="opacity:0.071" fill="#979797" d="M 609.5,111.5 C 612.5,110.833 615.5,110.167 618.5,109.5C 618.5,108.167 618.5,106.833 618.5,105.5C 605.167,105.5 591.833,105.5 578.5,105.5C 578.5,106.833 578.5,108.167 578.5,109.5C 581.287,110.477 584.287,110.81 587.5,110.5C 587.832,146.671 587.498,182.671 586.5,218.5C 586.5,182.833 586.5,147.167 586.5,111.5C 583.482,111.665 580.482,111.498 577.5,111C 576.167,108.667 576.167,106.333 577.5,104C 591.5,103.333 605.5,103.333 619.5,104C 620.833,106.333 620.833,108.667 619.5,111C 616.183,111.498 612.85,111.665 609.5,111.5 Z"/></g>
<g><path style="opacity:0.804" fill="#555555" d="M 38.5,105.5 C 58.9933,104.503 79.6599,104.169 100.5,104.5C 100.5,105.167 100.5,105.833 100.5,106.5C 79.909,105.512 59.2423,105.179 38.5,105.5 Z"/></g>
<g><path style="opacity:1" fill="#060606" d="M 38.5,105.5 C 59.2423,105.179 79.909,105.512 100.5,106.5C 113.776,108.446 122.442,115.779 126.5,128.5C 128.123,144.011 121.79,154.844 107.5,161C 102.128,162.005 96.7943,163.171 91.5,164.5C 101.297,179.239 111.63,193.573 122.5,207.5C 124.477,211.839 126.811,215.839 129.5,219.5C 132.518,219.665 135.518,219.498 138.5,219C 139.701,218.097 140.535,216.931 141,215.5C 146.506,199.465 152.006,183.465 157.5,167.5C 158.82,162.887 159.82,158.221 160.5,153.5C 162.666,150.502 164.333,147.168 165.5,143.5C 166.404,142.791 166.737,141.791 166.5,140.5C 168.5,140.5 170.5,140.5 172.5,140.5C 174.457,143.551 176.124,146.885 177.5,150.5C 184.406,173.804 192.072,196.804 200.5,219.5C 202.045,220.452 203.712,220.785 205.5,220.5C 205.5,221.5 205.5,222.5 205.5,223.5C 196.808,223.831 188.141,223.498 179.5,222.5C 181.969,221.832 184.302,221.165 186.5,220.5C 183.833,211.516 181,202.516 178,193.5C 173.748,192.848 169.415,192.514 165,192.5C 160.411,192.536 156.077,193.202 152,194.5C 149.314,202.922 146.481,211.256 143.5,219.5C 146.086,220.48 148.753,220.813 151.5,220.5C 151.5,221.833 151.5,223.167 151.5,224.5C 137.833,224.5 124.167,224.5 110.5,224.5C 110.649,223.448 110.483,222.448 110,221.5C 96.528,203.141 83.3613,184.474 70.5,165.5C 70.44,164.957 70.1067,164.624 69.5,164.5C 68.1725,182.996 68.1725,201.329 69.5,219.5C 72.8333,219.5 76.1667,219.5 79.5,219.5C 79.5,220.833 79.5,222.167 79.5,223.5C 66.5,223.5 53.5,223.5 40.5,223.5C 40.5,222.167 40.5,220.833 40.5,219.5C 43.8333,219.5 47.1667,219.5 50.5,219.5C 50.5,182.833 50.5,146.167 50.5,109.5C 46.8333,109.5 43.1667,109.5 39.5,109.5C 38.5655,108.432 38.2322,107.099 38.5,105.5 Z M 70.5,111.5 C 79.347,110.874 88.0137,111.707 96.5,114C 105.654,122.782 107.988,133.115 103.5,145C 104.345,146.558 103.679,147.558 101.5,148C 101.833,148.333 102.167,148.667 102.5,149C 99.5285,153.156 95.5285,155.823 90.5,157C 83.9675,157.952 77.4675,158.785 71,159.5C 70.5001,143.503 70.3334,127.503 70.5,111.5 Z M 159.5,177.5 C 160.434,176.432 160.768,175.099 160.5,173.5C 164.257,173.714 164.924,172.714 162.5,170.5C 163.501,167.828 164.501,165.161 165.5,162.5C 167.271,163.035 167.604,163.869 166.5,165C 167.869,168.827 169.536,172.493 171.5,176C 171.043,176.414 170.709,176.914 170.5,177.5C 172.704,180.447 173.704,183.78 173.5,187.5C 167.794,187.829 162.128,187.495 156.5,186.5C 158.494,183.85 159.494,180.85 159.5,177.5 Z"/></g>
<g><path style="opacity:1" fill="#030303" d="M 618.5,109.5 C 615.167,109.5 611.833,109.5 608.5,109.5C 608.5,146.167 608.5,182.833 608.5,219.5C 618.172,219.666 627.839,219.5 637.5,219C 638.416,218.722 639.082,218.222 639.5,217.5C 642.512,215.201 644.845,212.201 646.5,208.5C 649.853,199.395 652.186,190.062 653.5,180.5C 654.434,179.432 654.768,178.099 654.5,176.5C 656.167,176.5 657.833,176.5 659.5,176.5C 659.5,192.167 659.5,207.833 659.5,223.5C 632.5,223.5 605.5,223.5 578.5,223.5C 578.5,222.167 578.5,220.833 578.5,219.5C 581.833,219.5 585.167,219.5 588.5,219.5C 588.5,182.833 588.5,146.167 588.5,109.5C 585.167,109.5 581.833,109.5 578.5,109.5C 578.5,108.167 578.5,106.833 578.5,105.5C 591.833,105.5 605.167,105.5 618.5,105.5C 618.5,106.833 618.5,108.167 618.5,109.5 Z"/></g>
<g><path style="opacity:0.016" fill="#b1b2b1" d="M 428.5,111.5 C 429.833,112.167 429.833,112.167 428.5,111.5 Z"/></g>
<g><path style="opacity:0.027" fill="#b5b5b5" d="M 433.5,113.5 C 430.863,111.846 431.197,111.346 434.5,112C 433.944,112.383 433.611,112.883 433.5,113.5 Z"/></g>
<g><path style="opacity:0.655" fill="#6b6b6b" d="M 578.5,109.5 C 581.833,109.5 585.167,109.5 588.5,109.5C 588.5,146.167 588.5,182.833 588.5,219.5C 585.167,219.5 581.833,219.5 578.5,219.5C 577.549,220.919 577.216,222.585 577.5,224.5C 576.207,222.636 576.207,220.636 577.5,218.5C 580.531,217.175 583.531,217.175 586.5,218.5C 587.498,182.671 587.832,146.671 587.5,110.5C 584.287,110.81 581.287,110.477 578.5,109.5 Z"/></g>
<g><path style="opacity:0.567" fill="#7c7c7c" d="M 618.5,109.5 C 615.5,110.167 612.5,110.833 609.5,111.5C 610.493,146.76 610.826,182.094 610.5,217.5C 609.167,217.833 609.167,218.167 610.5,218.5C 620.206,218.755 629.873,218.421 639.5,217.5C 639.082,218.222 638.416,218.722 637.5,219C 627.839,219.5 618.172,219.666 608.5,219.5C 608.5,182.833 608.5,146.167 608.5,109.5C 611.833,109.5 615.167,109.5 618.5,109.5 Z"/></g>
<g><path style="opacity:0.929" fill="#3d3d3d" d="M 91.5,110.5 C 84.1667,110.5 76.8333,110.5 69.5,110.5C 69.5,127.167 69.5,143.833 69.5,160.5C 68.5034,143.675 68.1701,126.675 68.5,109.5C 76.3516,109.175 84.0182,109.508 91.5,110.5 Z"/></g>
<g><path style="opacity:0.008" fill="#e5e6e5" d="M 120.5,113.5 C 120.897,112.475 121.563,112.308 122.5,113C 121.906,113.464 121.239,113.631 120.5,113.5 Z"/></g>
<g><path style="opacity:0.047" fill="#9b9b9b" d="M 100.5,104.5 C 79.6599,104.169 58.9933,104.503 38.5,105.5C 38.2322,107.099 38.5655,108.432 39.5,109.5C 42.6248,110.479 45.9581,110.813 49.5,110.5C 49.8318,146.671 49.4984,182.671 48.5,218.5C 48.5,182.833 48.5,147.167 48.5,111.5C 45.1501,111.665 41.8168,111.498 38.5,111C 37.565,108.619 37.2317,106.119 37.5,103.5C 58.6733,103.169 79.6733,103.503 100.5,104.5 Z"/></g>
<g><path style="opacity:0.749" fill="#5d5d5d" d="M 39.5,109.5 C 43.1667,109.5 46.8333,109.5 50.5,109.5C 50.5,146.167 50.5,182.833 50.5,219.5C 47.1667,219.5 43.8333,219.5 40.5,219.5C 42.6074,218.532 44.9407,218.198 47.5,218.5C 47.8333,218.5 48.1667,218.5 48.5,218.5C 49.4984,182.671 49.8318,146.671 49.5,110.5C 45.9581,110.813 42.6248,110.479 39.5,109.5 Z"/></g>
<g><path style="opacity:0.094" fill="#8b8b8b" d="M 100.5,104.5 C 105.337,105.586 110.17,106.919 115,108.5C 115.333,108.167 115.667,107.833 116,107.5C 118.26,112.579 121.427,116.913 125.5,120.5C 128.511,127.682 129.177,135.015 127.5,142.5C 127.819,137.637 127.486,132.97 126.5,128.5C 122.442,115.779 113.776,108.446 100.5,106.5C 100.5,105.833 100.5,105.167 100.5,104.5 Z"/></g>
<g><path style="opacity:0.008" fill="#b3b4b3" d="M 126.5,114.5 C 127.833,115.167 127.833,115.167 126.5,114.5 Z"/></g>
<g><path style="opacity:0.008" fill="#a7a8a7" d="M 427.5,117.5 C 428.833,118.167 428.833,118.167 427.5,117.5 Z"/></g>
<g><path style="opacity:1" fill="#0a0a0a" d="M 459.5,72.5 C 459.611,73.1174 459.944,73.6174 460.5,74C 458.956,74.2896 457.623,74.9563 456.5,76C 458.473,76.4955 460.473,76.6621 462.5,76.5C 462.263,77.791 462.596,78.791 463.5,79.5C 464.404,80.209 464.737,81.209 464.5,82.5C 469.548,83.3431 474.715,84.3431 480,85.5C 482.305,87.5225 484.805,89.1892 487.5,90.5C 486.019,91.4803 484.685,92.647 483.5,94C 486.124,93.3502 488.791,93.5168 491.5,94.5C 491.663,96.8568 491.497,99.1902 491,101.5C 489.027,102.64 487.193,103.973 485.5,105.5C 486.325,106.386 487.325,106.719 488.5,106.5C 488.803,111.43 488.469,116.263 487.5,121C 489.414,122.413 490.747,124.247 491.5,126.5C 489.462,127.754 487.796,129.421 486.5,131.5C 486.667,131.833 486.833,132.167 487,132.5C 488.264,130.393 490.097,129.393 492.5,129.5C 492.567,131.401 492.233,133.234 491.5,135C 491.833,135.5 492.167,136 492.5,136.5C 493.167,135.5 493.833,134.5 494.5,133.5C 494.833,133.833 495.167,134.167 495.5,134.5C 495.975,137.722 496.975,140.722 498.5,143.5C 497.243,146.823 497.243,150.156 498.5,153.5C 499.429,152.311 499.762,150.978 499.5,149.5C 501.167,149.5 502.833,149.5 504.5,149.5C 504.351,150.552 504.517,151.552 505,152.5C 511.078,149.571 516.245,150.904 520.5,156.5C 522.773,153.859 525.439,152.859 528.5,153.5C 535.75,150.364 540.083,152.697 541.5,160.5C 537.273,159.386 533.273,157.72 529.5,155.5C 527.866,155.968 526.7,156.968 526,158.5C 525.107,157.289 524.274,157.289 523.5,158.5C 526.253,161.585 528.92,164.751 531.5,168C 533.23,174.376 533.896,180.876 533.5,187.5C 529.15,195.877 526.484,204.877 525.5,214.5C 524.674,218.982 524.174,223.649 524,228.5C 521.051,231.95 519.884,235.95 520.5,240.5C 519.62,245.658 518.953,250.992 518.5,256.5C 518.351,258.32 517.684,259.82 516.5,261C 518.957,262.154 518.957,263.488 516.5,265C 512.889,266.254 511.389,265.088 512,261.5C 513.067,260.809 514.234,260.309 515.5,260C 513.941,258.004 513.274,255.671 513.5,253C 516.437,238.679 517.604,224.179 517,209.5C 516.474,206.728 515.641,204.062 514.5,201.5C 514.057,205.884 512.39,209.717 509.5,213C 506.51,213.847 505.176,212.68 505.5,209.5C 506.978,209.762 508.311,209.429 509.5,208.5C 508.332,206.783 506.665,206.116 504.5,206.5C 504.664,203.813 504.497,201.146 504,198.5C 502.333,201.5 500,203.833 497,205.5C 496.434,207.723 495.6,209.723 494.5,211.5C 493.778,211.918 493.278,212.584 493,213.5C 491.817,212.269 490.651,212.269 489.5,213.5C 491.783,215.733 493.783,215.733 495.5,213.5C 496.565,219.996 498.232,226.329 500.5,232.5C 500.407,236.55 499.24,240.217 497,243.5C 495.51,244.728 494.01,244.728 492.5,243.5C 491.234,241.306 491.234,238.972 492.5,236.5C 491.95,234.343 491.283,232.343 490.5,230.5C 490.817,227.428 490.484,224.428 489.5,221.5C 488.571,222.689 488.238,224.022 488.5,225.5C 487.839,227.134 487.506,228.967 487.5,231C 487.36,234.15 488.027,236.983 489.5,239.5C 490.301,241.042 490.634,242.708 490.5,244.5C 491.765,245.479 493.099,246.479 494.5,247.5C 496.173,245.914 498.173,245.247 500.5,245.5C 501.329,250.501 499.329,252.668 494.5,252C 495.711,251.107 495.711,250.274 494.5,249.5C 493.808,250.025 493.308,250.692 493,251.5C 491.2,249.683 489.034,248.516 486.5,248C 482.751,242.543 480.751,236.377 480.5,229.5C 481.605,222.872 482.272,216.206 482.5,209.5C 475.916,209.587 470.583,207.087 466.5,202C 464.385,202.23 462.385,202.23 460.5,202C 462.631,203.749 464.631,205.582 466.5,207.5C 463.061,213.367 458.894,218.7 454,223.5C 450.017,230.846 450.184,238.179 454.5,245.5C 454.573,250.152 456.573,253.652 460.5,256C 459.021,258.744 456.854,259.244 454,257.5C 452.355,255.855 450.688,254.188 449,252.5C 447.52,244.425 446.02,236.258 444.5,228C 444.852,223.08 446.352,218.58 449,214.5C 450,208.833 451,203.167 452,197.5C 452.718,198.451 453.551,198.617 454.5,198C 450.081,191.487 448.581,184.32 450,176.5C 451.039,177.71 452.206,178.71 453.5,179.5C 455.309,181.099 456.642,183.099 457.5,185.5C 458.386,184.675 458.719,183.675 458.5,182.5C 463.259,179.247 467.592,175.413 471.5,171C 468.394,172.065 465.727,174.065 463.5,177C 461.58,178.122 459.58,178.956 457.5,179.5C 457.719,178.325 457.386,177.325 456.5,176.5C 455.893,176.624 455.56,176.957 455.5,177.5C 451.444,176.235 449.444,173.402 449.5,169C 452.07,165.924 451.236,163.757 447,162.5C 444.045,154.753 441.711,146.753 440,138.5C 438.926,137.382 437.76,136.382 436.5,135.5C 437.833,134.38 438.333,133.047 438,131.5C 436.981,132.687 435.814,133.687 434.5,134.5C 433.614,133.675 433.281,132.675 433.5,131.5C 432.5,131.5 431.5,131.5 430.5,131.5C 430.719,132.675 430.386,133.675 429.5,134.5C 427.605,132.133 427.105,129.466 428,126.5C 430.148,125.195 431.648,123.362 432.5,121C 434.167,120.333 435.833,120.333 437.5,121C 438.714,123.674 440.047,126.174 441.5,128.5C 443.167,128.5 444.833,128.5 446.5,128.5C 448.757,125.221 451.09,121.888 453.5,118.5C 454.35,116.506 454.85,114.506 455,112.5C 452.812,113.889 451.646,115.889 451.5,118.5C 449.792,120.718 447.792,122.884 445.5,125C 444.552,125.483 443.552,125.649 442.5,125.5C 442.13,121.455 440.13,118.455 436.5,116.5C 437.189,114.556 437.689,112.556 438,110.5C 440.018,108.65 441.851,106.65 443.5,104.5C 439.108,102.114 436.774,98.4476 436.5,93.5C 436.808,92.6919 437.308,92.0253 438,91.5C 438.202,93.2556 438.702,94.9223 439.5,96.5C 440.769,94.3052 440.769,92.1385 439.5,90C 440.745,87.3432 442.745,85.5099 445.5,84.5C 444.622,76.2121 448.122,71.2121 456,69.5C 457.95,69.7074 459.116,70.7074 459.5,72.5 Z M 445.5,95.5 C 447.746,99.6099 449.079,99.2765 449.5,94.5C 451.144,94.2865 452.644,94.6198 454,95.5C 454.333,97.5 454.667,99.5 455,101.5C 457.179,92.3553 453.679,88.1886 444.5,89C 444.167,90.6667 443.833,92.3333 443.5,94C 444.044,94.7172 444.711,95.2172 445.5,95.5 Z M 443.5,133.5 C 443.196,134.15 442.863,134.817 442.5,135.5C 444.772,141.355 446.605,147.355 448,153.5C 448.5,153 449,152.5 449.5,152C 447.828,146.674 446.661,141.174 446,135.5C 445.583,134.244 444.75,133.577 443.5,133.5 Z"/></g>
<g><path style="opacity:1" fill="#828282" d="M 453.5,118.5 C 452.833,118.5 452.167,118.5 451.5,118.5C 451.646,115.889 452.812,113.889 455,112.5C 454.85,114.506 454.35,116.506 453.5,118.5 Z"/></g>
<g><path style="opacity:1" fill="#7a7a7a" d="M 483.5,113.5 C 485.549,113.706 485.883,114.539 484.5,116C 482.098,116.814 479.765,116.647 477.5,115.5C 479.631,114.831 481.631,114.165 483.5,113.5 Z"/></g>
<g><path style="opacity:1" fill="#818181" d="M 446.5,113.5 C 447.675,113.281 448.675,113.614 449.5,114.5C 447.948,115.798 446.948,115.465 446.5,113.5 Z"/></g>
<g><path style="opacity:1" fill="#787878" d="M 465.5,114.5 C 464.791,113.596 463.791,113.263 462.5,113.5C 462.298,115.95 462.631,118.283 463.5,120.5C 462.325,120.719 461.325,120.386 460.5,119.5C 461.788,116.966 461.788,114.466 460.5,112C 462.577,111.852 464.577,112.352 466.5,113.5C 466.376,114.107 466.043,114.44 465.5,114.5 Z"/></g>
<g><path style="opacity:1" fill="#797979" d="M 481.5,106.5 C 483.656,106.872 483.656,107.872 481.5,109.5C 480.109,110.645 478.776,110.645 477.5,109.5C 478.901,108.479 480.235,107.479 481.5,106.5 Z"/></g>
<g><path style="opacity:1" fill="#555555" d="M 447.5,104.5 C 450.097,104.533 451.097,105.533 450.5,107.5C 448.787,107.121 447.787,106.121 447.5,104.5 Z"/></g>
<g><path style="opacity:1" fill="#373737" d="M 472.5,102.5 C 472.409,104.698 473.075,105.031 474.5,103.5C 474.838,106.011 474.838,108.345 474.5,110.5C 473.265,108.305 472.265,106.139 471.5,104C 471.57,103.235 471.903,102.735 472.5,102.5 Z"/></g>
<g><path style="opacity:1" fill="#6b6b6b" d="M 466.5,104.5 C 468.465,104.948 468.798,105.948 467.5,107.5C 466.614,106.675 466.281,105.675 466.5,104.5 Z"/></g>
<g><path style="opacity:1" fill="#888888" d="M 474.5,103.5 C 473.075,105.031 472.409,104.698 472.5,102.5C 476.039,100.477 479.205,97.8106 482,94.5C 482.315,95.9078 481.982,97.2411 481,98.5C 478.713,100.054 476.546,101.721 474.5,103.5 Z"/></g>
<g><path style="opacity:0.031" fill="#767676" d="M 443.5,87.5 C 448.39,86.7841 452.556,88.1174 456,91.5C 457.88,90.0705 459.38,90.4038 460.5,92.5C 459.675,93.3857 458.675,93.719 457.5,93.5C 457.16,96.1441 457.827,98.4775 459.5,100.5C 457.204,102.723 454.538,103.556 451.5,103C 452.769,100.861 452.769,98.6948 451.5,96.5C 450.561,98.0534 449.394,99.3867 448,100.5C 442.976,97.4123 441.476,93.0789 443.5,87.5 Z M 445.5,95.5 C 447.746,99.6099 449.079,99.2765 449.5,94.5C 451.144,94.2865 452.644,94.6198 454,95.5C 454.333,97.5 454.667,99.5 455,101.5C 457.179,92.3553 453.679,88.1886 444.5,89C 444.167,90.6667 443.833,92.3333 443.5,94C 444.044,94.7172 444.711,95.2172 445.5,95.5 Z"/></g>
<g><path style="opacity:1" fill="#818181" d="M 469.5,94.5 C 468.286,96.1486 466.953,97.8152 465.5,99.5C 464.748,96.5505 466.082,94.8839 469.5,94.5 Z"/></g>
<g><path style="opacity:1" fill="#808080" d="M 469.5,94.5 C 469.639,92.663 470.306,92.3296 471.5,93.5C 471.043,94.2975 470.376,94.6309 469.5,94.5 Z"/></g>
<g><path style="opacity:1" fill="#a7a7a7" d="M 448.5,80.5 C 450.973,80.9473 451.14,81.9473 449,83.5C 448.517,82.552 448.351,81.552 448.5,80.5 Z"/></g>
<g><path style="opacity:1" fill="#adadad" d="M 452.5,79.5 C 454.337,79.6395 454.67,80.3061 453.5,81.5C 452.702,81.0431 452.369,80.3764 452.5,79.5 Z"/></g>
<g><path style="opacity:0.052" fill="#b9b9b9" d="M 125.5,120.5 C 125.639,118.663 126.306,118.33 127.5,119.5C 127.043,120.298 126.376,120.631 125.5,120.5 Z"/></g>
<g><path style="opacity:0.008" fill="#bfbfbf" d="M 494.5,122.5 C 495.675,122.281 496.675,122.614 497.5,123.5C 495.948,124.798 494.948,124.465 494.5,122.5 Z"/></g>
<g><path style="opacity:1" fill="#b0b0b0" d="M 465.5,114.5 C 464.832,118.046 466.499,120.213 470.5,121C 467.906,123.072 467.906,125.239 470.5,127.5C 469.756,130.443 469.256,133.443 469,136.5C 467.35,131.045 465.517,125.711 463.5,120.5C 462.631,118.283 462.298,115.95 462.5,113.5C 463.791,113.263 464.791,113.596 465.5,114.5 Z"/></g>
<g><path style="opacity:1" fill="#5e5e5e" d="M 455.5,123.5 C 456.376,123.369 457.043,123.702 457.5,124.5C 456.379,127.047 454.712,128.047 452.5,127.5C 453.826,126.358 454.826,125.024 455.5,123.5 Z"/></g>
<g><path style="opacity:0.024" fill="#c2c2c2" d="M 495.5,130.5 C 495.897,129.475 496.563,129.308 497.5,130C 496.906,130.464 496.239,130.631 495.5,130.5 Z"/></g>
<g><path style="opacity:0.212" fill="#848484" d="M 91.5,110.5 C 97.6413,112.465 102.141,116.465 105,122.5C 108.152,134.123 106.652,144.956 100.5,155C 90.7508,159.921 80.4175,161.754 69.5,160.5C 69.5,143.833 69.5,127.167 69.5,110.5C 76.8333,110.5 84.1667,110.5 91.5,110.5 Z M 70.5,111.5 C 70.3334,127.503 70.5001,143.503 71,159.5C 77.4675,158.785 83.9675,157.952 90.5,157C 95.5285,155.823 99.5285,153.156 102.5,149C 102.167,148.667 101.833,148.333 101.5,148C 103.679,147.558 104.345,146.558 103.5,145C 107.988,133.115 105.654,122.782 96.5,114C 88.0137,111.707 79.347,110.874 70.5,111.5 Z"/></g>
<g><path style="opacity:0.016" fill="#cfcfcf" d="M 703.5,135.5 C 703.897,134.475 704.563,134.308 705.5,135C 704.906,135.464 704.239,135.631 703.5,135.5 Z"/></g>
<g><path style="opacity:0.016" fill="#babbba" d="M 263.5,139.5 C 262.833,138.167 262.833,138.167 263.5,139.5 Z"/></g>
<g><path style="opacity:0.031" fill="#c1c2c1" d="M 433.5,138.5 C 432.833,139.167 432.833,139.167 433.5,138.5 Z"/></g>
<g><path style="opacity:0.069" fill="#b8b8b8" d="M 434.5,139.5 C 436.337,139.639 436.67,140.306 435.5,141.5C 434.702,141.043 434.369,140.376 434.5,139.5 Z"/></g>
<g><path style="opacity:1" fill="#606060" d="M 469.5,138.5 C 471.185,139.184 472.185,140.517 472.5,142.5C 472.167,142.833 471.833,143.167 471.5,143.5C 470.05,142.15 469.383,140.484 469.5,138.5 Z"/></g>
<g><path style="opacity:0.814" fill="#4f4f4f" d="M 962.5,140.5 C 968.358,140.178 974.025,140.511 979.5,141.5C 974.167,141.5 968.833,141.5 963.5,141.5C 963.5,142.5 963.5,143.5 963.5,144.5C 962.566,143.432 962.232,142.099 962.5,140.5 Z"/></g>
<g><path style="opacity:1" fill="#090909" d="M 392.5,144.5 C 389.833,144.5 387.167,144.5 384.5,144.5C 384.5,169.833 384.5,195.167 384.5,220.5C 386.698,221.165 389.031,221.832 391.5,222.5C 382.525,223.498 373.525,223.832 364.5,223.5C 364.5,222.5 364.5,221.5 364.5,220.5C 366.833,220.5 369.167,220.5 371.5,220.5C 372.495,207.677 372.829,194.677 372.5,181.5C 361.321,181.172 350.321,181.505 339.5,182.5C 339.5,195.167 339.5,207.833 339.5,220.5C 341.698,221.165 344.031,221.832 346.5,222.5C 337.525,223.498 328.525,223.832 319.5,223.5C 319.5,222.5 319.5,221.5 319.5,220.5C 321.833,220.5 324.167,220.5 326.5,220.5C 326.5,195.167 326.5,169.833 326.5,144.5C 324.167,144.5 321.833,144.5 319.5,144.5C 319.5,143.5 319.5,142.5 319.5,141.5C 328.833,141.5 338.167,141.5 347.5,141.5C 347.5,142.5 347.5,143.5 347.5,144.5C 344.833,144.5 342.167,144.5 339.5,144.5C 339.5,155.833 339.5,167.167 339.5,178.5C 349.833,178.5 360.167,178.5 370.5,178.5C 370.5,167.167 370.5,155.833 370.5,144.5C 368.5,144.5 366.5,144.5 364.5,144.5C 364.5,143.5 364.5,142.5 364.5,141.5C 373.833,141.5 383.167,141.5 392.5,141.5C 392.5,142.5 392.5,143.5 392.5,144.5 Z"/></g>
<g><path style="opacity:1" fill="#090909" d="M 831.5,141.5 C 834.023,142.384 836.69,143.218 839.5,144C 850.563,150.703 853.396,160.203 848,172.5C 842.346,179.107 835.179,182.107 826.5,181.5C 826.343,182.873 826.51,184.207 827,185.5C 835.463,197.101 843.63,208.768 851.5,220.5C 853.5,220.5 855.5,220.5 857.5,220.5C 857.5,195.167 857.5,169.833 857.5,144.5C 855.5,144.5 853.5,144.5 851.5,144.5C 850.596,143.791 850.263,142.791 850.5,141.5C 870.167,141.5 889.833,141.5 909.5,141.5C 909.5,150.5 909.5,159.5 909.5,168.5C 908.5,168.5 907.5,168.5 906.5,168.5C 904.173,161.185 901.84,153.851 899.5,146.5C 890.262,144.873 880.928,144.206 871.5,144.5C 871.5,156.167 871.5,167.833 871.5,179.5C 875.514,179.666 879.514,179.499 883.5,179C 886.946,175.169 888.946,170.669 889.5,165.5C 890.689,164.571 892.022,164.238 893.5,164.5C 893.5,176.167 893.5,187.833 893.5,199.5C 892.167,199.5 890.833,199.5 889.5,199.5C 888.982,194.258 887.315,189.424 884.5,185C 880.179,184.501 875.846,184.334 871.5,184.5C 871.5,196.5 871.5,208.5 871.5,220.5C 875.486,221.166 879.653,221.499 884,221.5C 888.557,221.491 892.724,220.825 896.5,219.5C 897.496,219.586 898.329,219.252 899,218.5C 902.456,210.65 905.289,202.65 907.5,194.5C 908.5,194.5 909.5,194.5 910.5,194.5C 910.5,204.167 910.5,213.833 910.5,223.5C 886.833,223.5 863.167,223.5 839.5,223.5C 830.469,210.739 821.469,198.072 812.5,185.5C 812.44,184.957 812.107,184.624 811.5,184.5C 810.175,196.66 810.175,208.66 811.5,220.5C 813.833,220.5 816.167,220.5 818.5,220.5C 818.5,221.5 818.5,222.5 818.5,223.5C 809.808,223.831 801.141,223.498 792.5,222.5C 793.949,221.828 795.282,221.161 796.5,220.5C 796.5,195.167 796.5,169.833 796.5,144.5C 794.833,144.5 793.167,144.5 791.5,144.5C 791.5,143.5 791.5,142.5 791.5,141.5C 804.833,141.5 818.167,141.5 831.5,141.5 Z M 828.5,147.5 C 835.347,153.409 837.18,161.076 834,170.5C 831.027,174.398 827.194,176.898 822.5,178C 819.348,178.003 816.015,178.17 812.5,178.5C 812.334,168.161 812.5,157.828 813,147.5C 813.667,146.833 814.333,146.167 815,145.5C 817.333,146.833 819.667,146.833 822,145.5C 823.789,147.229 825.956,147.896 828.5,147.5 Z"/></g>
<g><path style="opacity:1" fill="#060606" d="M 936.5,143.5 C 947.241,161.981 958.241,180.314 969.5,198.5C 969.783,199.289 970.283,199.956 971,200.5C 971.829,181.662 971.662,162.995 970.5,144.5C 968.167,144.5 965.833,144.5 963.5,144.5C 963.5,143.5 963.5,142.5 963.5,141.5C 968.833,141.5 974.167,141.5 979.5,141.5C 980.404,142.209 980.737,143.209 980.5,144.5C 978.5,144.5 976.5,144.5 974.5,144.5C 973.502,170.661 973.169,196.995 973.5,223.5C 972.167,223.5 970.833,223.5 969.5,223.5C 966.254,218.404 962.754,213.404 959,208.5C 957.803,205.911 956.803,203.244 956,200.5C 945.352,183.947 935.185,167.28 925.5,150.5C 925.44,149.957 925.107,149.624 924.5,149.5C 923.171,173.33 923.171,196.997 924.5,220.5C 926.199,220.34 927.866,220.506 929.5,221C 930.252,221.671 930.586,222.504 930.5,223.5C 925.167,223.5 919.833,223.5 914.5,223.5C 914.5,222.5 914.5,221.5 914.5,220.5C 915.833,220.5 917.167,220.5 918.5,220.5C 919.498,195.339 919.831,170.005 919.5,144.5C 917.167,144.5 914.833,144.5 912.5,144.5C 912.5,143.5 912.5,142.5 912.5,141.5C 920.772,140.915 928.772,141.582 936.5,143.5 Z"/></g>
<g><path style="opacity:0.016" fill="#7f7f7f" d="M 937.5,143.5 C 937.167,143.5 936.833,143.5 936.5,143.5C 928.772,141.582 920.772,140.915 912.5,141.5C 912.5,142.5 912.5,143.5 912.5,144.5C 912.5,144.833 912.5,145.167 912.5,145.5C 911.833,153.5 911.167,161.5 910.5,169.5C 910.827,159.985 910.494,150.652 909.5,141.5C 889.833,141.5 870.167,141.5 850.5,141.5C 850.263,142.791 850.596,143.791 851.5,144.5C 852.209,145.404 853.209,145.737 854.5,145.5C 853.116,146.801 851.616,146.801 850,145.5C 849.56,142.745 849.727,140.412 850.5,138.5C 870.123,139.654 889.79,139.821 909.5,139C 910.025,138.308 910.692,137.808 911.5,137.5C 919.639,139.263 927.973,140.097 936.5,140C 937.337,141.011 937.67,142.178 937.5,143.5 Z"/></g>
<g><path style="opacity:0.008" fill="#c9cac9" d="M 845.5,142.5 C 846.833,143.167 846.833,143.167 845.5,142.5 Z"/></g>
<g><path style="opacity:0.773" fill="#595959" d="M 909.5,141.5 C 910.494,150.652 910.827,159.985 910.5,169.5C 908.901,169.768 907.568,169.434 906.5,168.5C 907.5,168.5 908.5,168.5 909.5,168.5C 909.5,159.5 909.5,150.5 909.5,141.5 Z"/></g>
<g><path style="opacity:0.016" fill="#c1c2c1" d="M 843.5,143.5 C 844.833,144.167 844.833,144.167 843.5,143.5 Z"/></g>
<g><path style="opacity:0.54" fill="#7e7e7e" d="M 392.5,144.5 C 392.5,144.833 392.5,145.167 392.5,145.5C 390.777,146.807 388.943,146.807 387,145.5C 386.5,146 386,146.5 385.5,147C 386.829,170.804 386.829,194.637 385.5,218.5C 387.396,219.466 389.396,219.799 391.5,219.5C 391.5,219.833 391.5,220.167 391.5,220.5C 389.167,220.5 386.833,220.5 384.5,220.5C 384.5,195.167 384.5,169.833 384.5,144.5C 387.167,144.5 389.833,144.5 392.5,144.5 Z"/></g>
<g><path style="opacity:0.945" fill="#373737" d="M 974.5,144.5 C 974.5,171.167 974.5,197.833 974.5,224.5C 972.585,224.784 970.919,224.451 969.5,223.5C 970.833,223.5 972.167,223.5 973.5,223.5C 973.169,196.995 973.502,170.661 974.5,144.5 Z"/></g>
<g><path style="opacity:1" fill="#cacaca" d="M 477.5,151.5 C 480.167,152.167 480.167,152.833 477.5,153.5C 477.5,152.833 477.5,152.167 477.5,151.5 Z"/></g>
<g><path style="opacity:0.4" fill="#7e7e7e" d="M 780.5,216.5 C 779.209,217.542 779.209,218.708 780.5,220C 776.599,221.797 772.599,224.13 768.5,227C 767.101,227.595 765.768,227.428 764.5,226.5C 759.727,229.068 754.894,229.068 750,226.5C 749.586,226.957 749.086,227.291 748.5,227.5C 744.272,225.558 740.606,222.891 737.5,219.5C 733.706,215.725 731.706,211.058 731.5,205.5C 731.5,185.5 731.5,165.5 731.5,145.5C 729.833,145.5 728.167,145.5 726.5,145.5C 724.255,144.172 723.922,142.339 725.5,140C 735.078,139.182 744.578,139.349 754,140.5C 755.333,146.167 753.333,147.833 748,145.5C 747.333,167.167 747.333,188.833 748,210.5C 749.663,212.158 750.496,214.158 750.5,216.5C 753.938,218.636 757.771,219.969 762,220.5C 768.045,219.126 772.711,215.792 776,210.5C 777.443,189.212 777.943,167.879 777.5,146.5C 772.328,147.435 770.161,145.435 771,140.5C 776.779,139.193 782.612,139.193 788.5,140.5C 789.248,142.416 789.248,144.416 788.5,146.5C 786.856,146.714 785.356,146.38 784,145.5C 783.833,146.333 783.667,147.167 783.5,148C 783.218,167.313 783.552,186.646 784.5,206C 783.847,209.791 782.513,213.291 780.5,216.5 Z"/></g>
<g><path style="opacity:0.992" fill="#1c1c1c" d="M 732.5,144.5 C 733.232,166.679 733.898,189.013 734.5,211.5C 733.698,210.048 733.198,208.382 733,206.5C 732.5,185.836 732.333,165.169 732.5,144.5 Z"/></g>
<g><path style="opacity:1" fill="#0c0c0c" d="M 734.5,211.5 C 733.898,189.013 733.232,166.679 732.5,144.5C 730.5,144.5 728.5,144.5 726.5,144.5C 726.5,143.5 726.5,142.5 726.5,141.5C 735.167,141.5 743.833,141.5 752.5,141.5C 752.5,142.5 752.5,143.5 752.5,144.5C 750.5,144.5 748.5,144.5 746.5,144.5C 746.333,166.836 746.5,189.169 747,211.5C 747.606,214.548 749.106,217.048 751.5,219C 762.067,223.985 770.567,221.485 777,211.5C 778.446,189.211 778.946,166.878 778.5,144.5C 776.5,144.5 774.5,144.5 772.5,144.5C 772.5,143.5 772.5,142.5 772.5,141.5C 777.5,141.5 782.5,141.5 787.5,141.5C 787.5,142.5 787.5,143.5 787.5,144.5C 785.833,144.5 784.167,144.5 782.5,144.5C 782.958,167.553 782.458,190.553 781,213.5C 772.839,225.413 761.672,229.247 747.5,225C 741.528,221.866 737.195,217.366 734.5,211.5 Z"/></g>
<g><path style="opacity:0.749" fill="#585858" d="M 912.5,145.5 C 912.5,145.167 912.5,144.833 912.5,144.5C 914.833,144.5 917.167,144.5 919.5,144.5C 919.831,170.005 919.498,195.339 918.5,220.5C 918.5,195.5 918.5,170.5 918.5,145.5C 916.5,145.5 914.5,145.5 912.5,145.5 Z"/></g>
<g><path style="opacity:0.416" fill="#7b7b7b" d="M 442.5,131.5 C 443.833,131.5 445.167,131.5 446.5,131.5C 448.778,137.198 449.944,143.198 450,149.5C 452.077,151.076 453.577,153.076 454.5,155.5C 453.998,156.521 453.332,156.688 452.5,156C 451.809,154.933 451.309,153.766 451,152.5C 449.983,154.376 449.149,156.376 448.5,158.5C 445.224,150.972 442.891,143.139 441.5,135C 441.648,133.744 441.982,132.577 442.5,131.5 Z M 443.5,133.5 C 443.196,134.15 442.863,134.817 442.5,135.5C 444.772,141.355 446.605,147.355 448,153.5C 448.5,153 449,152.5 449.5,152C 447.828,146.674 446.661,141.174 446,135.5C 445.583,134.244 444.75,133.577 443.5,133.5 Z"/></g>
<g><path style="opacity:1" fill="#5a5a5a" d="M 477.5,153.5 C 480.167,152.833 480.167,152.167 477.5,151.5C 476.475,151.103 476.308,150.437 477,149.5C 478.011,150.337 479.178,150.67 480.5,150.5C 480.421,151.93 480.754,153.264 481.5,154.5C 479.969,155.421 478.635,155.088 477.5,153.5 Z"/></g>
<g><path style="opacity:0.008" fill="#9f9f9f" d="M 726.5,145.5 C 728.167,145.5 729.833,145.5 731.5,145.5C 731.5,165.5 731.5,185.5 731.5,205.5C 730.503,186.007 730.17,166.34 730.5,146.5C 728.901,146.768 727.568,146.434 726.5,145.5 Z"/></g>
<g><path style="opacity:0.969" fill="#262626" d="M 970.5,144.5 C 971.662,162.995 971.829,181.662 971,200.5C 970.283,199.956 969.783,199.289 969.5,198.5C 970.497,180.674 970.83,162.674 970.5,144.5 Z"/></g>
<g><path style="opacity:1" fill="#555555" d="M 471.5,153.5 C 472.5,153.5 473.5,153.5 474.5,153.5C 474.5,154.5 474.5,155.5 474.5,156.5C 473.5,156.5 472.5,156.5 471.5,156.5C 471.5,155.5 471.5,154.5 471.5,153.5 Z"/></g>
<g><path style="opacity:0.016" fill="#b5b5b5" d="M 438.5,157.5 C 438.897,156.475 439.563,156.308 440.5,157C 439.906,157.464 439.239,157.631 438.5,157.5 Z"/></g>
<g><path style="opacity:0.037" fill="#848484" d="M 534.5,187.5 C 534.167,187.5 533.833,187.5 533.5,187.5C 533.896,180.876 533.23,174.376 531.5,168C 528.92,164.751 526.253,161.585 523.5,158.5C 524.274,157.289 525.107,157.289 526,158.5C 526.7,156.968 527.866,155.968 529.5,155.5C 533.273,157.72 537.273,159.386 541.5,160.5C 540.083,152.697 535.75,150.364 528.5,153.5C 525.439,152.859 522.773,153.859 520.5,156.5C 516.245,150.904 511.078,149.571 505,152.5C 504.517,151.552 504.351,150.552 504.5,149.5C 510.839,147.834 516.506,149.168 521.5,153.5C 525.413,152.235 529.246,150.902 533,149.5C 536.902,151.068 540.568,153.068 544,155.5C 544.494,158.842 543.161,161.176 540,162.5C 536.882,161.353 533.882,160.02 531,158.5C 529.72,158.613 528.887,159.28 528.5,160.5C 535.226,168.516 537.226,177.516 534.5,187.5 Z"/></g>
<g><path style="opacity:1" fill="#8e8e8e" d="M 475.5,157.5 C 477.225,157.843 477.725,158.843 477,160.5C 475.961,159.756 475.461,158.756 475.5,157.5 Z"/></g>
<g><path style="opacity:1" fill="#838383" d="M 506.5,157.5 C 507.649,157.791 508.316,158.624 508.5,160C 508.167,160.833 507.833,161.667 507.5,162.5C 506.548,160.955 506.215,159.288 506.5,157.5 Z"/></g>
<g><path style="opacity:1" fill="#565656" d="M 474.5,161.5 C 476.807,162.405 476.807,163.738 474.5,165.5C 473.708,164.3 473.708,162.967 474.5,161.5 Z"/></g>
<g><path style="opacity:0.859" fill="#4a4a4a" d="M 925.5,150.5 C 924.566,151.568 924.232,152.901 924.5,154.5C 924.5,176.5 924.5,198.5 924.5,220.5C 923.171,196.997 923.171,173.33 924.5,149.5C 925.107,149.624 925.44,149.957 925.5,150.5 Z"/></g>
<g><path style="opacity:1" fill="#b9b9b9" d="M 500.5,164.5 C 501.922,164.709 503.255,165.209 504.5,166C 502.537,166.844 501.204,166.344 500.5,164.5 Z"/></g>
<g><path style="opacity:1" fill="#868686" d="M 483.5,166.5 C 484.586,166.62 485.253,167.287 485.5,168.5C 485.167,169.167 484.833,169.833 484.5,170.5C 483.571,169.311 483.238,167.978 483.5,166.5 Z"/></g>
<g><path style="opacity:1" fill="#6a6a6a" d="M 472.5,166.5 C 473.737,167.743 473.404,168.743 471.5,169.5C 471.167,169.167 470.833,168.833 470.5,168.5C 471.243,167.818 471.909,167.151 472.5,166.5 Z"/></g>
<g><path style="opacity:1" fill="#484848" d="M 451.5,167.5 C 454.119,168.403 454.786,170.069 453.5,172.5C 452.438,170.978 451.771,169.312 451.5,167.5 Z"/></g>
<g><path style="opacity:0.063" fill="#858585" d="M 831.5,141.5 C 833.167,141.5 834.833,141.5 836.5,141.5C 838.915,142.305 841.249,143.305 843.5,144.5C 855.051,155.315 855.385,166.648 844.5,178.5C 839.676,181.742 834.342,183.576 828.5,184C 833.79,191.413 838.957,198.913 844,206.5C 847.425,211.001 851.091,215.334 855,219.5C 855.5,219.333 856,219.167 856.5,219C 855.167,194.667 855.167,170.333 856.5,146C 855.906,145.536 855.239,145.369 854.5,145.5C 853.209,145.737 852.209,145.404 851.5,144.5C 853.5,144.5 855.5,144.5 857.5,144.5C 857.5,169.833 857.5,195.167 857.5,220.5C 855.5,220.5 853.5,220.5 851.5,220.5C 843.63,208.768 835.463,197.101 827,185.5C 826.51,184.207 826.343,182.873 826.5,181.5C 835.179,182.107 842.346,179.107 848,172.5C 853.396,160.203 850.563,150.703 839.5,144C 836.69,143.218 834.023,142.384 831.5,141.5 Z"/></g>
<g><path style="opacity:0.82" fill="#454545" d="M 159.5,173.5 C 159.5,174.833 159.5,176.167 159.5,177.5C 158.833,178.5 158.167,179.5 157.5,180.5C 157.41,177.848 158.076,175.515 159.5,173.5 Z"/></g>
<g><path style="opacity:1" fill="#7a7a7a" d="M 458.5,182.5 C 458.443,181.391 458.11,180.391 457.5,179.5C 459.58,178.956 461.58,178.122 463.5,177C 465.727,174.065 468.394,172.065 471.5,171C 467.592,175.413 463.259,179.247 458.5,182.5 Z"/></g>
<g><path style="opacity:0.337" fill="#808080" d="M 157.5,180.5 C 158.167,179.5 158.833,178.5 159.5,177.5C 159.5,176.167 159.5,174.833 159.5,173.5C 161.065,167.605 163.398,162.438 166.5,158C 170.057,168.051 173.391,178.218 176.5,188.5C 169.5,188.5 162.5,188.5 155.5,188.5C 155.565,185.572 156.232,182.905 157.5,180.5 Z M 159.5,177.5 C 159.494,180.85 158.494,183.85 156.5,186.5C 162.128,187.495 167.794,187.829 173.5,187.5C 173.704,183.78 172.704,180.447 170.5,177.5C 170.709,176.914 171.043,176.414 171.5,176C 169.536,172.493 167.869,168.827 166.5,165C 167.604,163.869 167.271,163.035 165.5,162.5C 164.501,165.161 163.501,167.828 162.5,170.5C 164.924,172.714 164.257,173.714 160.5,173.5C 160.768,175.099 160.434,176.432 159.5,177.5 Z"/></g>
<g><path style="opacity:0.031" fill="#b5b5b5" d="M 321.5,177.5 C 322.376,177.369 323.043,177.702 323.5,178.5C 322.561,180.053 321.394,181.387 320,182.5C 319.5,182.167 319,181.833 318.5,181.5C 319.826,180.358 320.826,179.024 321.5,177.5 Z"/></g>
<g><path style="opacity:1" fill="#5d5d5d" d="M 455.5,177.5 C 455.56,176.957 455.893,176.624 456.5,176.5C 457.386,177.325 457.719,178.325 457.5,179.5C 456.833,178.833 456.167,178.167 455.5,177.5 Z"/></g>
<g><path style="opacity:0.008" fill="#bcbcbc" d="M 934.5,180.5 C 937.001,180.511 937.168,181.178 935,182.5C 934.536,181.906 934.369,181.239 934.5,180.5 Z"/></g>
<g><path style="opacity:0.267" fill="#7f7f7f" d="M 962.5,140.5 C 968.653,139.347 974.986,139.18 981.5,140C 982.983,145.026 980.983,147.193 975.5,146.5C 975.5,172.833 975.5,199.167 975.5,225.5C 968.991,226.424 965.324,223.924 964.5,218C 962.212,215.257 960.045,212.423 958,209.5C 947.14,191.103 936.307,172.77 925.5,154.5C 925.167,154.5 924.833,154.5 924.5,154.5C 924.232,152.901 924.566,151.568 925.5,150.5C 935.185,167.28 945.352,183.947 956,200.5C 956.803,203.244 957.803,205.911 959,208.5C 962.754,213.404 966.254,218.404 969.5,223.5C 970.919,224.451 972.585,224.784 974.5,224.5C 974.5,197.833 974.5,171.167 974.5,144.5C 976.5,144.5 978.5,144.5 980.5,144.5C 980.737,143.209 980.404,142.209 979.5,141.5C 974.025,140.511 968.358,140.178 962.5,140.5 Z"/></g>
<g><path style="opacity:1" fill="#7b7b7b" d="M 501.5,173.5 C 502.497,173.47 503.164,173.97 503.5,175C 502.606,176.396 501.939,177.896 501.5,179.5C 502.446,181.258 502.446,182.925 501.5,184.5C 500.119,182.309 498.119,180.976 495.5,180.5C 498.987,179.353 500.987,177.019 501.5,173.5 Z"/></g>
<g><path style="opacity:1" fill="#727272" d="M 515.5,179.5 C 517.465,179.948 517.798,180.948 516.5,182.5C 515.614,181.675 515.281,180.675 515.5,179.5 Z"/></g>
<g><path style="opacity:0.93" fill="#383838" d="M 70.5,165.5 C 69.5032,183.326 69.1699,201.326 69.5,219.5C 68.1725,201.329 68.1725,182.996 69.5,164.5C 70.1067,164.624 70.44,164.957 70.5,165.5 Z"/></g>
<g><path style="opacity:0.867" fill="#525252" d="M 339.5,182.5 C 350.321,181.505 361.321,181.172 372.5,181.5C 372.829,194.677 372.495,207.677 371.5,220.5C 371.5,207.833 371.5,195.167 371.5,182.5C 360.833,182.5 350.167,182.5 339.5,182.5 Z"/></g>
<g><path style="opacity:1" fill="#aaaaaa" d="M 455.5,177.5 C 456.167,178.167 456.833,178.833 457.5,179.5C 458.11,180.391 458.443,181.391 458.5,182.5C 458.719,183.675 458.386,184.675 457.5,185.5C 456.642,183.099 455.309,181.099 453.5,179.5C 454.167,178.833 454.833,178.167 455.5,177.5 Z"/></g>
<g><path style="opacity:1" fill="#8c8c8c" d="M 486.5,175.5 C 489.425,177.318 491.925,179.651 494,182.5C 494.808,184.579 494.641,186.579 493.5,188.5C 492.729,186.138 491.895,183.804 491,181.5C 488.873,179.886 487.373,177.886 486.5,175.5 Z"/></g>
<g><path style="opacity:1" fill="#9f9f9f" d="M 516.5,189.5 C 515.833,189.5 515.167,189.5 514.5,189.5C 515.167,186.833 515.833,186.833 516.5,189.5 Z"/></g>
<g><path style="opacity:0.039" fill="#b6b6b6" d="M 942.5,186.5 C 943.773,187.077 943.773,187.743 942.5,188.5C 941.537,188.03 941.537,187.363 942.5,186.5 Z"/></g>
<g><path style="opacity:0.008" fill="#e5e6e5" d="M 448.5,188.5 C 447.833,189.167 447.833,189.167 448.5,188.5 Z"/></g>
<g><path style="opacity:0.376" fill="#7f7f7f" d="M 962.5,140.5 C 962.232,142.099 962.566,143.432 963.5,144.5C 965.833,144.5 968.167,144.5 970.5,144.5C 970.83,162.674 970.497,180.674 969.5,198.5C 958.241,180.314 947.241,161.981 936.5,143.5C 936.833,143.5 937.167,143.5 937.5,143.5C 941.29,148.328 944.29,153.161 946.5,158C 953.758,169.777 961.258,181.943 969,194.5C 969.491,178.265 969.491,161.932 969,145.5C 966.868,146.78 964.702,146.78 962.5,145.5C 961.212,143.701 961.212,142.035 962.5,140.5 Z"/></g>
<g><path style="opacity:0.063" fill="#b7b7b7" d="M 964.5,185.5 C 965.251,184.427 966.251,184.26 967.5,185C 966.648,186.728 965.648,186.895 964.5,185.5 Z"/></g>
<g><path style="opacity:0.055" fill="#bcbcbc" d="M 961.5,177.5 C 962.289,177.783 962.956,178.283 963.5,179C 962.184,179.528 961.517,179.028 961.5,177.5 Z"/></g>
<g><path style="opacity:0.01" fill="#c1c1c1" d="M 948.5,153.5 C 950.337,153.639 950.67,154.306 949.5,155.5C 948.702,155.043 948.369,154.376 948.5,153.5 Z"/></g>
<g><path style="opacity:1" fill="#737373" d="M 457.5,188.5 C 459.465,188.948 459.798,189.948 458.5,191.5C 457.614,190.675 457.281,189.675 457.5,188.5 Z"/></g>
<g><path style="opacity:1" fill="#969696" d="M 513.5,194.5 C 512.911,196.398 512.744,198.398 513,200.5C 512.283,199.956 511.783,199.289 511.5,198.5C 510.933,196.97 510.267,195.47 509.5,194C 511.066,193.235 512.399,193.402 513.5,194.5 Z"/></g>
<g><path style="opacity:1" fill="#7b7b7b" d="M 459.5,192.5 C 462.291,194.413 463.791,197.079 464,200.5C 461.696,198.22 460.196,195.554 459.5,192.5 Z"/></g>
<g><path style="opacity:1" fill="#5f5f5f" d="M 501.5,194.5 C 503.337,194.639 503.67,195.306 502.5,196.5C 501.702,196.043 501.369,195.376 501.5,194.5 Z"/></g>
<g><path style="opacity:1" fill="#303030" d="M 514.5,189.5 C 515.167,189.5 515.833,189.5 516.5,189.5C 515.737,191.368 514.737,193.035 513.5,194.5C 512.399,193.402 511.066,193.235 509.5,194C 510.267,195.47 510.933,196.97 511.5,198.5C 510.533,199.806 509.199,200.473 507.5,200.5C 507.48,198.857 508.147,197.524 509.5,196.5C 508.319,192.772 506.985,189.105 505.5,185.5C 506.167,184.167 506.833,184.167 507.5,185.5C 508.843,187.839 510.176,190.172 511.5,192.5C 512.548,191.452 513.548,190.452 514.5,189.5 Z"/></g>
<g><path style="opacity:1" fill="#797979" d="M 479.5,197.5 C 481.657,198.053 481.49,199.053 479,200.5C 478.53,199.423 478.697,198.423 479.5,197.5 Z"/></g>
<g><path style="opacity:1" fill="#7f7f7f" d="M 496.5,198.5 C 497.586,198.62 498.253,199.287 498.5,200.5C 498.167,201.167 497.833,201.833 497.5,202.5C 496.571,201.311 496.238,199.978 496.5,198.5 Z"/></g>
<g><path style="opacity:0.471" fill="#808080" d="M 126.5,128.5 C 127.486,132.97 127.819,137.637 127.5,142.5C 125.357,149.399 121.523,154.399 116,157.5C 114.833,158.667 113.667,159.833 112.5,161C 107.305,162.933 101.972,164.267 96.5,165C 95.8333,165.333 95.1667,165.667 94.5,166C 102.751,178.322 111.751,190.655 121.5,203C 121.167,203.333 120.833,203.667 120.5,204C 123.167,206.667 125.833,209.333 128.5,212C 128.167,212.333 127.833,212.667 127.5,213C 129.378,214.543 130.878,216.376 132,218.5C 135.477,218.126 138.31,216.626 140.5,214C 140.043,213.586 139.709,213.086 139.5,212.5C 141.978,210.436 141.978,208.436 139.5,206.5C 140.498,203.972 141.331,203.972 142,206.5C 142.78,203.488 143.947,200.655 145.5,198C 142.949,196.484 143.282,195.651 146.5,195.5C 148.972,186.403 151.972,177.07 155.5,167.5C 154.975,166.808 154.308,166.308 153.5,166C 154.416,165.626 155.25,165.126 156,164.5C 157.659,160.823 159.159,157.156 160.5,153.5C 159.82,158.221 158.82,162.887 157.5,167.5C 152.006,183.465 146.506,199.465 141,215.5C 140.535,216.931 139.701,218.097 138.5,219C 135.518,219.498 132.518,219.665 129.5,219.5C 126.811,215.839 124.477,211.839 122.5,207.5C 111.63,193.573 101.297,179.239 91.5,164.5C 96.7943,163.171 102.128,162.005 107.5,161C 121.79,154.844 128.123,144.011 126.5,128.5 Z"/></g>
<g><path style="opacity:0.024" fill="#c6c6c6" d="M 114.5,184.5 C 115.525,184.897 115.692,185.563 115,186.5C 114.536,185.906 114.369,185.239 114.5,184.5 Z"/></g>
<g><path style="opacity:0.008" fill="#cfcfcf" d="M 106.5,176.5 C 107.525,176.897 107.692,177.563 107,178.5C 106.536,177.906 106.369,177.239 106.5,176.5 Z"/></g>
<g><path style="opacity:0.042" fill="#bfbfbf" d="M 106.5,176.5 C 105.637,177.463 104.97,177.463 104.5,176.5C 105.257,175.227 105.923,175.227 106.5,176.5 Z"/></g>
<g><path style="opacity:0.071" fill="#bcbcbc" d="M 115.5,159.5 C 117.337,159.639 117.67,160.306 116.5,161.5C 115.702,161.043 115.369,160.376 115.5,159.5 Z"/></g>
<g><path style="opacity:0.241" fill="#888888" d="M 533.5,187.5 C 533.833,187.5 534.167,187.5 534.5,187.5C 534.539,188.583 534.873,189.583 535.5,190.5C 534.5,191.333 533.5,192.167 532.5,193C 532.833,193.333 533.167,193.667 533.5,194C 531.54,196.866 529.874,199.866 528.5,203C 528.957,203.414 529.291,203.914 529.5,204.5C 527.322,212.465 525.988,220.465 525.5,228.5C 525.5,223.833 525.5,219.167 525.5,214.5C 526.484,204.877 529.15,195.877 533.5,187.5 Z"/></g>
<g><path style="opacity:0.008" fill="#c1c1c1" d="M 752.5,213.5 C 754.337,213.639 754.67,214.306 753.5,215.5C 752.702,215.043 752.369,214.376 752.5,213.5 Z"/></g>
<g><path style="opacity:0.067" fill="#b5b5b5" d="M 780.5,216.5 C 782.337,216.639 782.67,217.306 781.5,218.5C 780.702,218.043 780.369,217.376 780.5,216.5 Z"/></g>
<g><path style="opacity:0.227" fill="#858585" d="M 70.5,165.5 C 83.3613,184.474 96.528,203.141 110,221.5C 110.483,222.448 110.649,223.448 110.5,224.5C 124.167,224.5 137.833,224.5 151.5,224.5C 151.5,223.167 151.5,221.833 151.5,220.5C 148.753,220.813 146.086,220.48 143.5,219.5C 146.481,211.256 149.314,202.922 152,194.5C 156.077,193.202 160.411,192.536 165,192.5C 169.415,192.514 173.748,192.848 178,193.5C 181,202.516 183.833,211.516 186.5,220.5C 183.833,220.5 181.167,220.5 178.5,220.5C 178.5,221.833 178.5,223.167 178.5,224.5C 177.549,223.081 177.216,221.415 177.5,219.5C 179.857,219.663 182.19,219.497 184.5,219C 181.168,210.831 178.668,202.664 177,194.5C 169.558,193.187 162.058,193.187 154.5,194.5C 151.727,202.766 148.727,210.932 145.5,219C 147.557,219.305 149.557,219.305 151.5,219C 153.62,220.523 153.953,222.356 152.5,224.5C 138.182,225.499 123.849,225.833 109.5,225.5C 103.619,216.097 97.4521,206.764 91,197.5C 89.1217,195.957 87.6217,194.124 86.5,192C 85.062,191.781 83.7287,191.281 82.5,190.5C 83.8114,189.742 84.3114,188.742 84,187.5C 80.5887,183.601 77.4221,179.601 74.5,175.5C 73.9862,173.132 72.8195,171.132 71,169.5C 70.5001,185.497 70.3334,201.497 70.5,217.5C 73.5184,217.335 76.5184,217.502 79.5,218C 80.3567,218.689 81.0233,219.522 81.5,220.5C 81.1667,221.833 80.8333,223.167 80.5,224.5C 66.5159,225.499 52.5159,225.833 38.5,225.5C 37.3623,217.776 40.3623,215.442 47.5,218.5C 44.9407,218.198 42.6074,218.532 40.5,219.5C 39.5489,220.919 39.2155,222.585 39.5,224.5C 53.0105,224.829 66.3438,224.496 79.5,223.5C 79.5,222.167 79.5,220.833 79.5,219.5C 76.1667,219.5 72.8333,219.5 69.5,219.5C 69.1699,201.326 69.5032,183.326 70.5,165.5 Z"/></g>
<g><path style="opacity:0.02" fill="#bebebe" d="M 89.5,202.5 C 89.8966,201.475 90.5632,201.308 91.5,202C 90.9056,202.464 90.2389,202.631 89.5,202.5 Z"/></g>
<g><path style="opacity:0.016" fill="#dddedd" d="M 87.5,197.5 C 88.8333,198.167 88.8333,198.167 87.5,197.5 Z"/></g>
<g><path style="opacity:0.008" fill="#b7b8b7" d="M 74.5,175.5 C 74.631,176.239 74.4643,176.906 74,177.5C 73.3083,176.563 73.475,175.897 74.5,175.5 Z"/></g>
<g><path style="opacity:1" fill="#9c9c9c" d="M 520.5,218.5 C 522.337,218.639 522.67,219.306 521.5,220.5C 520.702,220.043 520.369,219.376 520.5,218.5 Z"/></g>
<g><path style="opacity:0.312" fill="#848484" d="M 737.5,219.5 C 737.5,221.5 737.5,223.5 737.5,225.5C 728.167,225.5 718.833,225.5 709.5,225.5C 709.5,223.5 709.5,221.5 709.5,219.5C 711.288,219.785 712.955,219.452 714.5,218.5C 711.617,210.642 708.951,202.308 706.5,193.5C 699.159,193.334 691.826,193.5 684.5,194C 681.625,202.242 678.625,210.409 675.5,218.5C 677.423,219.308 679.423,219.808 681.5,220C 682.554,221.388 682.72,222.888 682,224.5C 675.401,225.826 668.901,225.826 662.5,224.5C 634.069,225.828 605.736,225.828 577.5,224.5C 605.167,224.5 632.833,224.5 660.5,224.5C 660.5,208.167 660.5,191.833 660.5,175.5C 658.167,175.5 655.833,175.5 653.5,175.5C 653.5,177.167 653.5,178.833 653.5,180.5C 652.186,190.062 649.853,199.395 646.5,208.5C 644.845,212.201 642.512,215.201 639.5,217.5C 629.873,218.421 620.206,218.755 610.5,218.5C 610.5,218.167 610.5,217.833 610.5,217.5C 618.609,218.114 626.442,217.447 634,215.5C 637.093,216.894 639.759,216.227 642,213.5C 646.091,205.747 648.591,197.747 649.5,189.5C 651.251,184.662 652.251,179.662 652.5,174.5C 655.5,174.5 658.5,174.5 661.5,174.5C 661.5,189.5 661.5,204.5 661.5,219.5C 663.833,219.5 666.167,219.5 668.5,219.5C 676.604,192.726 685.104,166.393 694,140.5C 697.183,138.477 700.683,137.977 704.5,139C 708.628,150.049 712.461,161.549 716,173.5C 718.336,174.292 718.836,175.625 717.5,177.5C 721.11,188.165 724.944,199.165 729,210.5C 731.825,211.584 731.992,212.751 729.5,214C 730.87,215.441 731.87,217.108 732.5,219C 734.134,219.494 735.801,219.66 737.5,219.5 Z M 695.5,161.5 C 699.071,170.038 702.071,178.538 704.5,187C 698.472,187.83 692.472,187.664 686.5,186.5C 689.709,178.203 692.709,169.87 695.5,161.5 Z"/></g>
<g><path style="opacity:1" fill="#0d0d0d" d="M 731.5,220.5 C 732.718,221.161 734.051,221.828 735.5,222.5C 727.5,223.833 719.5,223.833 711.5,222.5C 712.949,221.828 714.282,221.161 715.5,220.5C 713.063,211.079 710.396,201.746 707.5,192.5C 699.16,192.334 690.827,192.5 682.5,193C 679.677,202.139 677.01,211.306 674.5,220.5C 676.5,220.5 678.5,220.5 680.5,220.5C 680.5,221.5 680.5,222.5 680.5,223.5C 674.833,223.5 669.167,223.5 663.5,223.5C 663.5,222.5 663.5,221.5 663.5,220.5C 666.079,220.917 668.246,220.25 670,218.5C 678.67,192.481 687.337,166.481 696,140.5C 698.381,139.565 700.881,139.232 703.5,139.5C 711.699,167.105 721.033,194.105 731.5,220.5 Z M 695.5,161.5 C 692.709,169.87 689.709,178.203 686.5,186.5C 692.472,187.664 698.472,187.83 704.5,187C 702.071,178.538 699.071,170.038 695.5,161.5 Z"/></g>
<g><path style="opacity:0.016" fill="#c4c4c4" d="M 706.5,206.5 C 707.289,206.783 707.956,207.283 708.5,208C 707.184,208.528 706.517,208.028 706.5,206.5 Z"/></g>
<g><path style="opacity:0.301" fill="#787878" d="M 694.5,156.5 C 695.497,156.47 696.164,156.97 696.5,158C 699.601,168.314 703.268,178.314 707.5,188C 699.841,188.5 692.174,188.666 684.5,188.5C 687.83,177.85 691.164,167.183 694.5,156.5 Z M 695.5,161.5 C 692.709,169.87 689.709,178.203 686.5,186.5C 692.472,187.664 698.472,187.83 704.5,187C 702.071,178.538 699.071,170.038 695.5,161.5 Z"/></g>
<g><path style="opacity:0.102" fill="#bababa" d="M 99.5,222.5 C 100.251,221.427 101.251,221.26 102.5,222C 101.648,223.728 100.648,223.895 99.5,222.5 Z"/></g>
<g><path style="opacity:0.525" fill="#7f7f7f" d="M 520.5,240.5 C 520.5,244.5 520.5,248.5 520.5,252.5C 520.286,255.846 520.286,259.179 520.5,262.5C 519.922,265.58 518.088,266.914 515,266.5C 512.966,266.646 511.299,265.98 510,264.5C 511.416,261.473 512.249,258.14 512.5,254.5C 512.46,252.571 512.127,250.738 511.5,249C 512.863,247.055 513.697,244.888 514,242.5C 514.333,235.5 514.667,228.5 515,221.5C 515.5,221 516,220.5 516.5,220C 515.884,216.137 515.05,212.304 514,208.5C 510.49,217.037 506.657,217.704 502.5,210.5C 503.5,209.667 504.5,208.833 505.5,208C 503.954,206.56 503.121,204.727 503,202.5C 502.5,203 502,203.5 501.5,204C 502.517,205.049 502.684,206.216 502,207.5C 500.018,208.094 498.184,209.26 496.5,211C 498.481,211.605 498.815,212.605 497.5,214C 498.395,219.583 500.062,224.917 502.5,230C 501.914,234.274 500.914,238.441 499.5,242.5C 504.411,249.339 502.744,253.339 494.5,254.5C 495.374,259.5 494.041,263.667 490.5,267C 491.576,268.726 491.743,270.559 491,272.5C 488.838,276.368 485.672,277.868 481.5,277C 478.698,273.67 479.032,270.67 482.5,268C 482.796,262.356 484.129,257.023 486.5,252C 484.431,251.676 484.098,250.842 485.5,249.5C 484.34,247.289 483.007,245.289 481.5,243.5C 479.069,242.259 479.069,241.092 481.5,240C 480.12,238.676 479.786,237.343 480.5,236C 479.267,234.302 478.6,232.302 478.5,230C 479.04,223.977 480.04,217.81 481.5,211.5C 478.138,211.93 475.305,210.93 473,208.5C 471.413,209.727 470.079,209.394 469,207.5C 464.638,213.188 460.305,218.855 456,224.5C 455.304,227.609 454.138,230.442 452.5,233C 453.106,236.954 453.772,241.121 454.5,245.5C 450.184,238.179 450.017,230.846 454,223.5C 458.894,218.7 463.061,213.367 466.5,207.5C 464.631,205.582 462.631,203.749 460.5,202C 462.385,202.23 464.385,202.23 466.5,202C 470.583,207.087 475.916,209.587 482.5,209.5C 482.272,216.206 481.605,222.872 480.5,229.5C 480.751,236.377 482.751,242.543 486.5,248C 489.034,248.516 491.2,249.683 493,251.5C 493.308,250.692 493.808,250.025 494.5,249.5C 495.711,250.274 495.711,251.107 494.5,252C 499.329,252.668 501.329,250.501 500.5,245.5C 498.173,245.247 496.173,245.914 494.5,247.5C 493.099,246.479 491.765,245.479 490.5,244.5C 491.492,244.672 492.158,244.338 492.5,243.5C 494.01,244.728 495.51,244.728 497,243.5C 499.24,240.217 500.407,236.55 500.5,232.5C 498.232,226.329 496.565,219.996 495.5,213.5C 495.167,212.833 494.833,212.167 494.5,211.5C 495.6,209.723 496.434,207.723 497,205.5C 500,203.833 502.333,201.5 504,198.5C 504.497,201.146 504.664,203.813 504.5,206.5C 506.665,206.116 508.332,206.783 509.5,208.5C 508.311,209.429 506.978,209.762 505.5,209.5C 505.176,212.68 506.51,213.847 509.5,213C 512.39,209.717 514.057,205.884 514.5,201.5C 515.641,204.062 516.474,206.728 517,209.5C 517.604,224.179 516.437,238.679 513.5,253C 513.274,255.671 513.941,258.004 515.5,260C 514.234,260.309 513.067,260.809 512,261.5C 511.389,265.088 512.889,266.254 516.5,265C 518.957,263.488 518.957,262.154 516.5,261C 517.684,259.82 518.351,258.32 518.5,256.5C 518.953,250.992 519.62,245.658 520.5,240.5 Z"/></g>
<g><path style="opacity:0.031" fill="#bebebe" d="M 465.5,220.5 C 467.337,220.639 467.67,221.306 466.5,222.5C 465.702,222.043 465.369,221.376 465.5,220.5 Z"/></g>
<g><path style="opacity:1" fill="#494949" d="M 494.5,211.5 C 494.833,212.167 495.167,212.833 495.5,213.5C 493.783,215.733 491.783,215.733 489.5,213.5C 490.651,212.269 491.817,212.269 493,213.5C 493.278,212.584 493.778,211.918 494.5,211.5 Z"/></g>
<g><path style="opacity:0.024" fill="#bcbcbc" d="M 471.5,212.5 C 472.077,211.227 472.743,211.227 473.5,212.5C 473.03,213.463 472.363,213.463 471.5,212.5 Z"/></g>
<g><path style="opacity:1" fill="#8a8a8a" d="M 492.5,202.5 C 493.586,202.62 494.253,203.287 494.5,204.5C 494.167,205.167 493.833,205.833 493.5,206.5C 492.571,205.311 492.238,203.978 492.5,202.5 Z"/></g>
<g><path style="opacity:1" fill="#949494" d="M 472.5,202.5 C 473.802,203.807 475.135,203.807 476.5,202.5C 477.849,206.32 476.849,207.154 473.5,205C 472.748,204.329 472.414,203.496 472.5,202.5 Z"/></g>
<g><path style="opacity:0.961" fill="#343434" d="M 40.5,219.5 C 40.5,220.833 40.5,222.167 40.5,223.5C 53.5,223.5 66.5,223.5 79.5,223.5C 66.3438,224.496 53.0105,224.829 39.5,224.5C 39.2155,222.585 39.5489,220.919 40.5,219.5 Z"/></g>
<g><path style="opacity:0.955" fill="#353535" d="M 186.5,220.5 C 184.302,221.165 181.969,221.832 179.5,222.5C 188.141,223.498 196.808,223.831 205.5,223.5C 196.682,224.493 187.682,224.827 178.5,224.5C 178.5,223.167 178.5,221.833 178.5,220.5C 181.167,220.5 183.833,220.5 186.5,220.5 Z"/></g>
<g><path style="opacity:0.96" fill="#393939" d="M 577.5,224.5 C 577.216,222.585 577.549,220.919 578.5,219.5C 578.5,220.833 578.5,222.167 578.5,223.5C 605.5,223.5 632.5,223.5 659.5,223.5C 659.5,207.833 659.5,192.167 659.5,176.5C 657.833,176.5 656.167,176.5 654.5,176.5C 654.768,178.099 654.434,179.432 653.5,180.5C 653.5,178.833 653.5,177.167 653.5,175.5C 655.833,175.5 658.167,175.5 660.5,175.5C 660.5,191.833 660.5,208.167 660.5,224.5C 632.833,224.5 605.167,224.5 577.5,224.5 Z"/></g>
<g><path style="opacity:0.961" fill="#353535" d="M 663.5,220.5 C 663.5,221.5 663.5,222.5 663.5,223.5C 669.167,223.5 674.833,223.5 680.5,223.5C 674.69,224.49 668.69,224.823 662.5,224.5C 662.232,222.901 662.566,221.568 663.5,220.5 Z"/></g>
<g><path style="opacity:0.959" fill="#353535" d="M 715.5,220.5 C 714.282,221.161 712.949,221.828 711.5,222.5C 719.5,223.833 727.5,223.833 735.5,222.5C 734.051,221.828 732.718,221.161 731.5,220.5C 733.167,220.5 734.833,220.5 736.5,220.5C 736.5,221.833 736.5,223.167 736.5,224.5C 727.833,224.5 719.167,224.5 710.5,224.5C 710.5,223.167 710.5,221.833 710.5,220.5C 712.167,220.5 713.833,220.5 715.5,220.5 Z"/></g>
<g><path style="opacity:0.261" fill="#858585" d="M 211.5,219.5 C 211.5,219.833 211.5,220.167 211.5,220.5C 210.167,220.5 208.833,220.5 207.5,220.5C 207.5,221.5 207.5,222.5 207.5,223.5C 225.659,224.497 243.992,224.83 262.5,224.5C 262.828,213.321 262.495,202.321 261.5,191.5C 260.167,191.5 258.833,191.5 257.5,191.5C 256.186,201.429 253.186,210.763 248.5,219.5C 241.224,220.465 233.891,220.799 226.5,220.5C 226.5,195.167 226.5,169.833 226.5,144.5C 228.5,144.5 230.5,144.5 232.5,144.5C 232.5,143.5 232.5,142.5 232.5,141.5C 224.167,141.5 215.833,141.5 207.5,141.5C 207.5,142.5 207.5,143.5 207.5,144.5C 208.833,145.167 210.167,145.833 211.5,146.5C 205.842,147.321 204.175,145.154 206.5,140C 215.5,139.333 224.5,139.333 233.5,140C 235.333,145.5 233.5,147.333 228,145.5C 227.5,170.164 227.333,194.831 227.5,219.5C 234.053,220.068 240.387,219.401 246.5,217.5C 247.086,217.709 247.586,218.043 248,218.5C 251.916,210.21 254.582,201.21 256,191.5C 258.025,189.275 260.358,188.941 263,190.5C 263.5,200.161 263.666,209.828 263.5,219.5C 265.167,219.5 266.833,219.5 268.5,219.5C 268.5,195.167 268.5,170.833 268.5,146.5C 262.753,147.129 261.086,144.795 263.5,139.5C 276.171,139.333 288.838,139.5 301.5,140C 307.886,141.579 313.886,143.746 319.5,146.5C 319.389,147.117 319.056,147.617 318.5,148C 325.409,156.263 326.242,164.763 321,173.5C 318.167,176.333 315.333,179.167 312.5,182C 309.794,183.908 306.794,184.741 303.5,184.5C 303.671,187.797 303.005,188.131 301.5,185.5C 296.201,185.931 290.535,185.931 284.5,185.5C 284.5,196.833 284.5,208.167 284.5,219.5C 286.467,219.739 288.301,219.406 290,218.5C 292.483,220.26 292.983,222.427 291.5,225C 253.664,225.831 215.998,225.664 178.5,224.5C 187.682,224.827 196.682,224.493 205.5,223.5C 205.5,222.5 205.5,221.5 205.5,220.5C 203.712,220.785 202.045,220.452 200.5,219.5C 192.072,196.804 184.406,173.804 177.5,150.5C 176.124,146.885 174.457,143.551 172.5,140.5C 170.5,140.5 168.5,140.5 166.5,140.5C 166.737,141.791 166.404,142.791 165.5,143.5C 164.333,147.168 162.666,150.502 160.5,153.5C 162.865,148.539 164.198,143.539 164.5,138.5C 167.85,138.335 171.183,138.502 174.5,139C 184.18,165.548 193.18,192.381 201.5,219.5C 204.833,219.5 208.167,219.5 211.5,219.5 Z M 292.5,145.5 C 293.167,145.833 293.833,146.167 294.5,146.5C 294.5,147.833 295.167,148.5 296.5,148.5C 297.26,150.985 298.26,150.985 299.5,148.5C 301.017,148.511 302.184,149.177 303,150.5C 307.22,158.691 307.554,167.025 304,175.5C 298.198,178.558 291.698,179.892 284.5,179.5C 284.5,168.5 284.5,157.5 284.5,146.5C 287.385,146.806 290.052,146.473 292.5,145.5 Z"/></g>
<g><path style="opacity:0.955" fill="#343434" d="M 264.5,221.5 C 272.769,223.47 281.435,224.136 290.5,223.5C 281.682,224.493 272.682,224.827 263.5,224.5C 263.263,223.209 263.596,222.209 264.5,221.5 Z"/></g>
<g><path style="opacity:0.959" fill="#323232" d="M 261.5,191.5 C 262.495,202.321 262.828,213.321 262.5,224.5C 243.992,224.83 225.659,224.497 207.5,223.5C 225.5,223.5 243.5,223.5 261.5,223.5C 261.5,212.833 261.5,202.167 261.5,191.5 Z"/></g>
<g><path style="opacity:0.818" fill="#515151" d="M 283.5,184.5 C 283.5,196.5 283.5,208.5 283.5,220.5C 286.059,220.198 288.393,220.532 290.5,221.5C 287.833,221.5 285.167,221.5 282.5,221.5C 282.171,208.989 282.505,196.655 283.5,184.5 Z"/></g>
<g><path style="opacity:0.577" fill="#7c7c7c" d="M 207.5,144.5 C 209.167,144.5 210.833,144.5 212.5,144.5C 212.831,170.005 212.498,195.339 211.5,220.5C 211.5,220.167 211.5,219.833 211.5,219.5C 210.167,195.167 210.167,170.833 211.5,146.5C 210.167,145.833 208.833,145.167 207.5,144.5 Z"/></g>
<g><path style="opacity:0.626" fill="#666666" d="M 264.5,144.5 C 266.5,144.5 268.5,144.5 270.5,144.5C 270.831,170.005 270.498,195.339 269.5,220.5C 269.5,195.5 269.5,170.5 269.5,145.5C 267.585,145.784 265.919,145.451 264.5,144.5 Z"/></g>
<g><path style="opacity:1" fill="#060606" d="M 283.5,184.5 C 282.505,196.655 282.171,208.989 282.5,221.5C 285.167,221.5 287.833,221.5 290.5,221.5C 290.5,222.167 290.5,222.833 290.5,223.5C 281.435,224.136 272.769,223.47 264.5,221.5C 265.919,220.549 267.585,220.216 269.5,220.5C 270.498,195.339 270.831,170.005 270.5,144.5C 268.5,144.5 266.5,144.5 264.5,144.5C 263.596,143.791 263.263,142.791 263.5,141.5C 277.551,141.091 291.551,141.591 305.5,143C 320.53,147.651 325.363,157.484 320,172.5C 310.299,183.392 298.132,187.392 283.5,184.5 Z M 292.5,145.5 C 293.167,145.833 293.833,146.167 294.5,146.5C 294.5,147.833 295.167,148.5 296.5,148.5C 297.26,150.985 298.26,150.985 299.5,148.5C 301.017,148.511 302.184,149.177 303,150.5C 307.22,158.691 307.554,167.025 304,175.5C 298.198,178.558 291.698,179.892 284.5,179.5C 284.5,168.5 284.5,157.5 284.5,146.5C 287.385,146.806 290.052,146.473 292.5,145.5 Z"/></g>
<g><path style="opacity:0.071" fill="#8a8a8a" d="M 292.5,145.5 C 290.052,146.473 287.385,146.806 284.5,146.5C 284.5,157.5 284.5,168.5 284.5,179.5C 291.698,179.892 298.198,178.558 304,175.5C 307.554,167.025 307.22,158.691 303,150.5C 302.184,149.177 301.017,148.511 299.5,148.5C 298.5,147.167 297.5,147.167 296.5,148.5C 295.167,148.5 294.5,147.833 294.5,146.5C 296.167,146.5 297.833,146.5 299.5,146.5C 303.299,148.316 305.799,151.316 307,155.5C 307.829,162.234 307.496,168.901 306,175.5C 303.157,178.567 299.657,180.233 295.5,180.5C 291.5,180.5 287.5,180.5 283.5,180.5C 283.5,168.833 283.5,157.167 283.5,145.5C 286.5,145.5 289.5,145.5 292.5,145.5 Z"/></g>
<g><path style="opacity:0.818" fill="#565656" d="M 299.5,146.5 C 297.833,146.5 296.167,146.5 294.5,146.5C 293.833,146.167 293.167,145.833 292.5,145.5C 289.5,145.5 286.5,145.5 283.5,145.5C 283.5,157.167 283.5,168.833 283.5,180.5C 287.5,180.5 291.5,180.5 295.5,180.5C 291.366,181.485 287.032,181.818 282.5,181.5C 282.5,169.167 282.5,156.833 282.5,144.5C 288.43,144.128 294.097,144.795 299.5,146.5 Z"/></g>
<g><path style="opacity:0.073" fill="#b5b5b5" d="M 296.5,148.5 C 297.5,148.5 298.5,148.5 299.5,148.5C 298.26,150.985 297.26,150.985 296.5,148.5 Z"/></g>
<g><path style="opacity:1" fill="#080808" d="M 261.5,191.5 C 261.5,202.167 261.5,212.833 261.5,223.5C 243.5,223.5 225.5,223.5 207.5,223.5C 207.5,222.5 207.5,221.5 207.5,220.5C 208.833,220.5 210.167,220.5 211.5,220.5C 212.498,195.339 212.831,170.005 212.5,144.5C 210.833,144.5 209.167,144.5 207.5,144.5C 207.5,143.5 207.5,142.5 207.5,141.5C 215.833,141.5 224.167,141.5 232.5,141.5C 232.5,142.5 232.5,143.5 232.5,144.5C 230.5,144.5 228.5,144.5 226.5,144.5C 226.5,169.833 226.5,195.167 226.5,220.5C 233.891,220.799 241.224,220.465 248.5,219.5C 253.186,210.763 256.186,201.429 257.5,191.5C 258.833,191.5 260.167,191.5 261.5,191.5 Z"/></g>
<g><path style="opacity:0.047" fill="#bdbdbd" d="M 242.5,216.5 C 243.077,215.227 243.743,215.227 244.5,216.5C 244.03,217.463 243.363,217.463 242.5,216.5 Z"/></g>
<g><path style="opacity:0.847" fill="#3f3f3f" d="M 172.5,140.5 C 170.5,140.5 168.5,140.5 166.5,140.5C 166.737,141.791 166.404,142.791 165.5,143.5C 165.5,142.167 165.5,140.833 165.5,139.5C 168.059,139.198 170.393,139.532 172.5,140.5 Z"/></g>
<g><path style="opacity:0.251" fill="#858585" d="M 392.5,145.5 C 392.5,145.167 392.5,144.833 392.5,144.5C 392.5,143.5 392.5,142.5 392.5,141.5C 383.167,141.5 373.833,141.5 364.5,141.5C 364.5,142.5 364.5,143.5 364.5,144.5C 366.5,144.5 368.5,144.5 370.5,144.5C 370.5,155.833 370.5,167.167 370.5,178.5C 360.167,178.5 349.833,178.5 339.5,178.5C 339.5,167.167 339.5,155.833 339.5,144.5C 342.167,144.5 344.833,144.5 347.5,144.5C 347.5,143.5 347.5,142.5 347.5,141.5C 338.167,141.5 328.833,141.5 319.5,141.5C 319.5,142.5 319.5,143.5 319.5,144.5C 321.833,144.5 324.167,144.5 326.5,144.5C 326.5,169.833 326.5,195.167 326.5,220.5C 324.167,220.5 321.833,220.5 319.5,220.5C 319.5,221.5 319.5,222.5 319.5,223.5C 328.652,224.494 337.985,224.827 347.5,224.5C 347.5,223.167 347.5,221.833 347.5,220.5C 344.833,220.5 342.167,220.5 339.5,220.5C 339.5,207.833 339.5,195.167 339.5,182.5C 350.167,182.5 360.833,182.5 371.5,182.5C 371.5,195.167 371.5,207.833 371.5,220.5C 369.167,220.5 366.833,220.5 364.5,220.5C 364.5,221.5 364.5,222.5 364.5,223.5C 373.652,224.494 382.985,224.827 392.5,224.5C 392.768,222.901 392.434,221.568 391.5,220.5C 391.5,220.167 391.5,219.833 391.5,219.5C 391.81,218.262 392.31,218.262 393,219.5C 393.495,221.473 393.662,223.473 393.5,225.5C 383.494,225.666 373.494,225.5 363.5,225C 362.167,223.333 362.167,221.667 363.5,220C 365.81,219.503 368.143,219.337 370.5,219.5C 370.5,207.5 370.5,195.5 370.5,183.5C 360.494,183.334 350.494,183.5 340.5,184C 341.833,195.667 341.833,207.333 340.5,219C 342.898,219.374 345.231,219.374 347.5,219C 348.423,221.041 348.756,223.208 348.5,225.5C 338.494,225.666 328.494,225.5 318.5,225C 317.167,223.333 317.167,221.667 318.5,220C 320.81,219.503 323.143,219.337 325.5,219.5C 325.667,194.831 325.5,170.164 325,145.5C 323.301,146.406 321.467,146.739 319.5,146.5C 317.424,144.631 317.091,142.464 318.5,140C 328.547,139.192 338.547,139.359 348.5,140.5C 349.274,146.306 346.774,147.973 341,145.5C 341.723,155.515 341.556,165.515 340.5,175.5C 350.144,176.498 359.81,176.832 369.5,176.5C 369.666,166.161 369.5,155.828 369,145.5C 364.1,147.338 362.1,145.671 363,140.5C 373.084,139.514 383.251,139.181 393.5,139.5C 393.795,141.735 393.461,143.735 392.5,145.5 Z"/></g>
<g><path style="opacity:0.953" fill="#333333" d="M 384.5,220.5 C 386.833,220.5 389.167,220.5 391.5,220.5C 392.434,221.568 392.768,222.901 392.5,224.5C 382.985,224.827 373.652,224.494 364.5,223.5C 373.525,223.832 382.525,223.498 391.5,222.5C 389.031,221.832 386.698,221.165 384.5,220.5 Z"/></g>
<g><path style="opacity:0.953" fill="#343434" d="M 339.5,220.5 C 342.167,220.5 344.833,220.5 347.5,220.5C 347.5,221.833 347.5,223.167 347.5,224.5C 337.985,224.827 328.652,224.494 319.5,223.5C 328.525,223.832 337.525,223.498 346.5,222.5C 344.031,221.832 341.698,221.165 339.5,220.5 Z"/></g>
<g><path style="opacity:0.263" fill="#898989" d="M 836.5,141.5 C 834.833,141.5 833.167,141.5 831.5,141.5C 818.167,141.5 804.833,141.5 791.5,141.5C 791.5,142.5 791.5,143.5 791.5,144.5C 793.167,144.5 794.833,144.5 796.5,144.5C 796.5,169.833 796.5,195.167 796.5,220.5C 794.833,220.5 793.167,220.5 791.5,220.5C 791.5,221.833 791.5,223.167 791.5,224.5C 800.682,224.827 809.682,224.493 818.5,223.5C 818.5,222.5 818.5,221.5 818.5,220.5C 816.167,220.5 813.833,220.5 811.5,220.5C 811.172,208.655 811.505,196.988 812.5,185.5C 821.469,198.072 830.469,210.739 839.5,223.5C 863.328,224.498 887.328,224.831 911.5,224.5C 911.5,214.167 911.5,203.833 911.5,193.5C 909.901,193.232 908.568,193.566 907.5,194.5C 905.289,202.65 902.456,210.65 899,218.5C 898.329,219.252 897.496,219.586 896.5,219.5C 888.252,220.469 879.918,220.802 871.5,220.5C 871.5,208.5 871.5,196.5 871.5,184.5C 875.846,184.334 880.179,184.501 884.5,185C 887.315,189.424 888.982,194.258 889.5,199.5C 890.833,199.5 892.167,199.5 893.5,199.5C 893.5,187.833 893.5,176.167 893.5,164.5C 892.022,164.238 890.689,164.571 889.5,165.5C 888.946,170.669 886.946,175.169 883.5,179C 879.514,179.499 875.514,179.666 871.5,179.5C 871.5,167.833 871.5,156.167 871.5,144.5C 880.928,144.206 890.262,144.873 899.5,146.5C 901.84,153.851 904.173,161.185 906.5,168.5C 907.568,169.434 908.901,169.768 910.5,169.5C 908.777,170.807 906.943,170.807 905,169.5C 903.029,161.756 900.529,154.589 897.5,148C 889.304,146.992 881.137,146.159 873,145.5C 872.5,156.495 872.333,167.495 872.5,178.5C 875.576,177.933 878.576,177.599 881.5,177.5C 882.007,176.141 883.007,175.141 884.5,174.5C 885.668,171.161 886.834,167.828 888,164.5C 889.789,162.771 891.956,162.104 894.5,162.5C 894.667,175.171 894.5,187.838 894,200.5C 892.301,201.406 890.467,201.739 888.5,201.5C 887.262,197.608 886.095,193.608 885,189.5C 883.029,191.1 881.196,191.266 879.5,190C 880.872,189.598 882.205,189.098 883.5,188.5C 884.521,187.998 884.688,187.332 884,186.5C 880.222,185.618 876.555,185.285 873,185.5C 872.5,196.828 872.333,208.162 872.5,219.5C 878.96,220.097 885.126,219.43 891,217.5C 891.333,218.167 891.667,218.833 892,219.5C 892.388,218.572 893.055,217.905 894,217.5C 895.235,218.615 896.402,218.615 897.5,217.5C 901.498,210.338 903.998,202.671 905,194.5C 907.135,192.722 909.635,192.055 912.5,192.5C 912.5,201.5 912.5,210.5 912.5,219.5C 914.167,219.5 915.833,219.5 917.5,219.5C 917.5,195.167 917.5,170.833 917.5,146.5C 915.585,146.784 913.919,146.451 912.5,145.5C 914.5,145.5 916.5,145.5 918.5,145.5C 918.5,170.5 918.5,195.5 918.5,220.5C 917.167,220.5 915.833,220.5 914.5,220.5C 913.566,221.568 913.232,222.901 913.5,224.5C 919.358,224.822 925.025,224.489 930.5,223.5C 930.586,222.504 930.252,221.671 929.5,221C 927.866,220.506 926.199,220.34 924.5,220.5C 924.5,198.5 924.5,176.5 924.5,154.5C 924.833,154.5 925.167,154.5 925.5,154.5C 925.5,176.167 925.5,197.833 925.5,219.5C 927.604,219.201 929.604,219.534 931.5,220.5C 932.833,221.833 932.833,223.167 931.5,224.5C 900.505,225.667 869.505,225.833 838.5,225C 829.637,212.901 821.137,201.068 813,189.5C 812.5,199.494 812.334,209.494 812.5,219.5C 814.833,219.5 817.167,219.5 819.5,219.5C 819.5,221.5 819.5,223.5 819.5,225.5C 809.833,225.5 800.167,225.5 790.5,225.5C 790.5,223.5 790.5,221.5 790.5,219.5C 792.167,219.5 793.833,219.5 795.5,219.5C 795.667,194.831 795.5,170.164 795,145.5C 793.667,146.833 792.333,146.833 791,145.5C 790.505,143.527 790.338,141.527 790.5,139.5C 804.171,139.333 817.837,139.5 831.5,140C 833.382,140.198 835.048,140.698 836.5,141.5 Z M 910.5,169.5 C 911.167,161.5 911.833,153.5 912.5,145.5C 913.919,146.451 915.585,146.784 917.5,146.5C 917.5,170.833 917.5,195.167 917.5,219.5C 915.833,219.5 914.167,219.5 912.5,219.5C 912.5,210.5 912.5,201.5 912.5,192.5C 909.635,192.055 907.135,192.722 905,194.5C 903.998,202.671 901.498,210.338 897.5,217.5C 896.402,218.615 895.235,218.615 894,217.5C 893.055,217.905 892.388,218.572 892,219.5C 891.667,218.833 891.333,218.167 891,217.5C 885.126,219.43 878.96,220.097 872.5,219.5C 872.333,208.162 872.5,196.828 873,185.5C 876.555,185.285 880.222,185.618 884,186.5C 884.688,187.332 884.521,187.998 883.5,188.5C 882.205,189.098 880.872,189.598 879.5,190C 881.196,191.266 883.029,191.1 885,189.5C 886.095,193.608 887.262,197.608 888.5,201.5C 890.467,201.739 892.301,201.406 894,200.5C 894.5,187.838 894.667,175.171 894.5,162.5C 891.956,162.104 889.789,162.771 888,164.5C 886.834,167.828 885.668,171.161 884.5,174.5C 883.007,175.141 882.007,176.141 881.5,177.5C 878.576,177.599 875.576,177.933 872.5,178.5C 872.333,167.495 872.5,156.495 873,145.5C 881.137,146.159 889.304,146.992 897.5,148C 900.529,154.589 903.029,161.756 905,169.5C 906.943,170.807 908.777,170.807 910.5,169.5 Z M 828.5,147.5 C 825.956,147.896 823.789,147.229 822,145.5C 819.667,146.833 817.333,146.833 815,145.5C 814.333,146.167 813.667,146.833 813,147.5C 812.5,157.828 812.334,168.161 812.5,178.5C 816.015,178.17 819.348,178.003 822.5,178C 827.194,176.898 831.027,174.398 834,170.5C 837.18,161.076 835.347,153.409 828.5,147.5 Z"/></g>
<g><path style="opacity:0.953" fill="#383838" d="M 914.5,220.5 C 914.5,221.5 914.5,222.5 914.5,223.5C 919.833,223.5 925.167,223.5 930.5,223.5C 925.025,224.489 919.358,224.822 913.5,224.5C 913.232,222.901 913.566,221.568 914.5,220.5 Z"/></g>
<g><path style="opacity:0.96" fill="#353535" d="M 907.5,194.5 C 908.568,193.566 909.901,193.232 911.5,193.5C 911.5,203.833 911.5,214.167 911.5,224.5C 887.328,224.831 863.328,224.498 839.5,223.5C 863.167,223.5 886.833,223.5 910.5,223.5C 910.5,213.833 910.5,204.167 910.5,194.5C 909.5,194.5 908.5,194.5 907.5,194.5 Z"/></g>
<g><path style="opacity:0.958" fill="#353535" d="M 796.5,220.5 C 795.282,221.161 793.949,221.828 792.5,222.5C 801.141,223.498 809.808,223.831 818.5,223.5C 809.682,224.493 800.682,224.827 791.5,224.5C 791.5,223.167 791.5,221.833 791.5,220.5C 793.167,220.5 794.833,220.5 796.5,220.5 Z"/></g>
<g><path style="opacity:0.969" fill="#2c2c2c" d="M 896.5,219.5 C 892.724,220.825 888.557,221.491 884,221.5C 879.653,221.499 875.486,221.166 871.5,220.5C 879.918,220.802 888.252,220.469 896.5,219.5 Z"/></g>
<g><path style="opacity:0.039" fill="#c1c1c1" d="M 830.5,220.5 C 832.337,220.639 832.67,221.306 831.5,222.5C 830.702,222.043 830.369,221.376 830.5,220.5 Z"/></g>
<g><path style="opacity:0.008" fill="#c2c2c2" d="M 830.5,220.5 C 829.761,220.631 829.094,220.464 828.5,220C 829.437,219.308 830.103,219.475 830.5,220.5 Z"/></g>
<g><path style="opacity:0.638" fill="#646464" d="M 812.5,185.5 C 811.505,196.988 811.172,208.655 811.5,220.5C 810.175,208.66 810.175,196.66 811.5,184.5C 812.107,184.624 812.44,184.957 812.5,185.5 Z"/></g>
<g><path style="opacity:0.01" fill="#c4c4c4" d="M 846.5,180.5 C 848.337,180.639 848.67,181.306 847.5,182.5C 846.702,182.043 846.369,181.376 846.5,180.5 Z"/></g>
<g><path style="opacity:0.431" fill="#787878" d="M 828.5,147.5 C 829.822,147.33 830.989,147.663 832,148.5C 836.266,154.465 837.6,161.132 836,168.5C 834.282,172.557 831.449,175.724 827.5,178C 821.912,179.289 816.245,179.789 810.5,179.5C 810.5,168.167 810.5,156.833 810.5,145.5C 816.894,143.7 822.894,144.367 828.5,147.5 Z M 828.5,147.5 C 825.956,147.896 823.789,147.229 822,145.5C 819.667,146.833 817.333,146.833 815,145.5C 814.333,146.167 813.667,146.833 813,147.5C 812.5,157.828 812.334,168.161 812.5,178.5C 816.015,178.17 819.348,178.003 822.5,178C 827.194,176.898 831.027,174.398 834,170.5C 837.18,161.076 835.347,153.409 828.5,147.5 Z"/></g>
<g><path style="opacity:0.043" fill="#b8b8b8" d="M 891.5,148.5 C 893.337,148.639 893.67,149.306 892.5,150.5C 891.702,150.043 891.369,149.376 891.5,148.5 Z"/></g>
<g><path style="opacity:1" fill="#959595" d="M 490.5,230.5 C 489.833,228.833 489.167,227.167 488.5,225.5C 488.238,224.022 488.571,222.689 489.5,221.5C 490.484,224.428 490.817,227.428 490.5,230.5 Z"/></g>
<g><path style="opacity:1" fill="#cecece" d="M 488.5,225.5 C 489.167,227.167 489.833,228.833 490.5,230.5C 491.283,232.343 491.95,234.343 492.5,236.5C 491.234,238.972 491.234,241.306 492.5,243.5C 492.158,244.338 491.492,244.672 490.5,244.5C 490.634,242.708 490.301,241.042 489.5,239.5C 488.771,234.87 488.437,230.203 488.5,225.5 Z"/></g>
<g><path style="opacity:1" fill="#8c8c8c" d="M 488.5,225.5 C 488.437,230.203 488.771,234.87 489.5,239.5C 488.027,236.983 487.36,234.15 487.5,231C 487.506,228.967 487.839,227.134 488.5,225.5 Z"/></g>
<g><path style="opacity:0.09" fill="#6a6a6a" d="M 525.5,214.5 C 525.5,219.167 525.5,223.833 525.5,228.5C 524.117,230.978 523.117,233.645 522.5,236.5C 521.833,237.833 521.167,239.167 520.5,240.5C 519.884,235.95 521.051,231.95 524,228.5C 524.174,223.649 524.674,218.982 525.5,214.5 Z"/></g>
<g><path style="opacity:0.008" fill="#bbbcbb" d="M 481.5,243.5 C 480.833,244.167 480.833,244.167 481.5,243.5 Z"/></g>
<g><path style="opacity:0.031" fill="#979797" d="M 522.5,236.5 C 522.125,242.009 521.458,247.342 520.5,252.5C 520.5,248.5 520.5,244.5 520.5,240.5C 521.167,239.167 521.833,237.833 522.5,236.5 Z"/></g>
<g><path style="opacity:1" fill="#141414" d="M 487.5,251.5 C 489.144,251.286 490.644,251.62 492,252.5C 493.054,257.705 492.221,262.538 489.5,267C 491.043,270.502 490.043,273.169 486.5,275C 484.866,275.494 483.199,275.66 481.5,275.5C 481.5,273.833 481.5,272.167 481.5,270.5C 483.288,270.785 484.955,270.452 486.5,269.5C 485.833,268.833 485.167,268.167 484.5,267.5C 485.108,262.07 486.108,256.737 487.5,251.5 Z"/></g>
<g><path style="opacity:1" fill="#141414" d="M 463.5,255.5 C 466.318,258.438 465.985,261.104 462.5,263.5C 461.354,262.855 460.354,262.022 459.5,261C 460.665,259.008 461.998,257.175 463.5,255.5 Z"/></g>
<g><path style="opacity:0.008" fill="#e5e6e5" d="M 480.5,260.5 C 481.833,261.167 481.833,261.167 480.5,260.5 Z"/></g>
</svg>
