<?xml version="1.0" encoding="UTF-8"?>
<!DOCTYPE svg PUBLIC "-//W3C//DTD SVG 1.1//EN" "http://www.w3.org/Graphics/SVG/1.1/DTD/svg11.dtd">
<svg xmlns="http://www.w3.org/2000/svg" version="1.1" width="5584px" height="1880px" style="shape-rendering:geometricPrecision; text-rendering:geometricPrecision; image-rendering:optimizeQuality; fill-rule:evenodd; clip-rule:evenodd" xmlns:xlink="http://www.w3.org/1999/xlink">
<g><path style="opacity:0.998" fill="#034da1" d="M 4711.5,1197.5 C 4752.2,1178.65 4792.86,1159.49 4833.5,1140C 4842.21,1126.74 4847.71,1112.24 4850,1096.5C 4850.5,1032.17 4850.67,967.834 4850.5,903.5C 4789.83,903.5 4729.17,903.5 4668.5,903.5C 4668.5,930.833 4668.5,958.167 4668.5,985.5C 4681.17,985.5 4693.83,985.5 4706.5,985.5C 4706.67,1015.84 4706.5,1046.17 4706,1076.5C 4704.57,1104.8 4689.74,1117.63 4661.5,1115C 4640.61,1113.44 4628.78,1102.28 4626,1081.5C 4624.92,983.895 4624.59,885.895 4625,787.5C 4628.48,749.721 4648.65,735.887 4685.5,746C 4698.16,751.681 4705,761.514 4706,775.5C 4706.58,792.508 4706.41,809.508 4705.5,826.5C 4753.84,826.833 4802.17,826.5 4850.5,825.5C 4854.2,790.416 4849.7,756.416 4837,723.5C 4819.75,685.58 4791.58,659.413 4752.5,645C 4714.76,632.357 4676.1,628.357 4636.5,633C 4555.98,639.872 4504.82,682.039 4483,759.5C 4474.25,794.955 4469.59,830.955 4469,867.5C 4468.51,913.54 4468.34,959.373 4468.5,1005C 4469.33,1040.78 4473.16,1076.28 4480,1111.5C 4492.7,1170.2 4528.54,1205.37 4587.5,1217C 4607.95,1221.44 4628.62,1223.78 4649.5,1224C 4654.08,1221.86 4658.75,1220.03 4663.5,1218.5C 4544.05,1270.71 4422.71,1318.55 4299.5,1362C 4011.18,1463 3718.18,1548 3420.5,1617C 2961.83,1724.33 2497.83,1798.33 2028.5,1839C 1789.59,1859.5 1550.26,1868.16 1310.5,1865C 1148.6,1862.74 987.272,1852.07 826.5,1833C 701.337,1818.23 578.003,1794.23 456.5,1761C 378.966,1739.27 304.3,1710.27 232.5,1674C 180.999,1647.51 134.832,1613.67 94,1572.5C 18.0813,1488.66 2.08131,1394.33 46,1289.5C 62.8817,1252.71 83.5484,1218.38 108,1186.5C 148.061,1136.77 192.561,1091.27 241.5,1050C 330.001,977.526 424.001,912.859 523.5,856C 607.183,807.988 692.85,763.321 780.5,722C 784.401,720.033 788.401,718.7 792.5,718C 783.486,733.708 777.653,750.542 775,768.5C 769.001,803.367 769.334,838.367 776,873.5C 784.864,910.07 804.364,939.57 834.5,962C 847.387,971.197 861.054,979.197 875.5,986C 897.269,995.885 919.269,1005.22 941.5,1014C 959.231,1020.94 975.064,1030.77 989,1043.5C 1001.12,1057.98 1005.46,1074.65 1002,1093.5C 1001.31,1106.39 995.81,1116.55 985.5,1124C 969.304,1129.04 953.304,1128.37 937.5,1122C 930.705,1118.26 925.872,1112.76 923,1105.5C 920.182,1097.74 918.515,1089.74 918,1081.5C 917.5,1068.84 917.333,1056.17 917.5,1043.5C 864.833,1043.5 812.167,1043.5 759.5,1043.5C 756.168,1071.74 757.335,1100.08 763,1128.5C 774.168,1174.33 801.668,1205.83 845.5,1223C 868.5,1231 892.166,1235.67 916.5,1237C 956.188,1239.36 995.521,1236.69 1034.5,1229C 1064.34,1222.74 1091.01,1210.07 1114.5,1191C 1141.89,1164.04 1156.72,1131.21 1159,1092.5C 1162.64,1051.36 1155.97,1012.03 1139,974.5C 1122.94,944.435 1100.1,920.935 1070.5,904C 1041.02,887.951 1010.36,874.618 978.5,864C 959.948,857.415 943.448,847.581 929,834.5C 921.093,824.378 917.26,812.878 917.5,800C 917.575,790.825 919.408,781.991 923,773.5C 929.241,765.741 937.408,761.574 947.5,761C 982.512,755.249 1000.35,770.083 1001,805.5C 1001.5,816.828 1001.67,828.162 1001.5,839.5C 1049.5,839.5 1097.5,839.5 1145.5,839.5C 1148.76,811.561 1148.09,783.727 1143.5,756C 1135.14,712.308 1109.81,683.641 1067.5,670C 1035.05,660.357 1001.88,656.19 968,657.5C 953.479,657.476 938.979,657.976 924.5,659C 905.25,667.461 885.917,675.628 866.5,683.5C 1001.13,623.115 1138.13,568.282 1277.5,519C 1527.5,431.083 1781.17,355.416 2038.5,292C 2523.26,172.484 3014.26,89.8171 3511.5,44C 3801.28,17.0434 4091.62,8.04338 4382.5,17C 4547.78,22.3562 4712.11,37.6895 4875.5,63C 4974.05,78.7093 5071.05,101.043 5166.5,130C 5235.5,151.336 5301.84,179.003 5365.5,213C 5411.21,238.022 5452.37,269.188 5489,306.5C 5566.76,393.067 5581.76,489.734 5534,596.5C 5509.01,647.518 5477.34,693.851 5439,735.5C 5394.18,783.338 5346.01,827.171 5294.5,867C 5194.58,941.991 5089.25,1008.99 4978.5,1068C 4900.04,1109.73 4820.37,1149.07 4739.5,1186C 4730.25,1190.13 4720.92,1193.96 4711.5,1197.5 Z M 2844.5,648.5 C 2880.13,647.019 2915.47,649.519 2950.5,656C 3006.3,667.468 3038.47,701.301 3047,757.5C 3050.18,782.083 3050.01,806.417 3046.5,830.5C 2998.83,830.5 2951.17,830.5 2903.5,830.5C 2904.46,811.611 2902.96,792.945 2899,774.5C 2892.02,758.083 2879.52,750.416 2861.5,751.5C 2828.17,751.011 2814.34,767.344 2820,800.5C 2821.11,811.377 2825.44,820.71 2833,828.5C 2843.41,837.294 2854.91,844.461 2867.5,850C 2900.49,862.107 2932.82,875.774 2964.5,891C 3025.93,924.301 3058.1,976.134 3061,1046.5C 3064.34,1083.47 3057.67,1118.47 3041,1151.5C 3023.41,1179.73 2998.91,1199.57 2967.5,1211C 2946.43,1218.55 2924.76,1223.55 2902.5,1226C 2860.66,1231.41 2819,1230.41 2777.5,1223C 2708.52,1209.03 2669.69,1167.2 2661,1097.5C 2658.9,1076.8 2659.06,1056.13 2661.5,1035.5C 2713.83,1035.5 2766.17,1035.5 2818.5,1035.5C 2818.76,1051.04 2819.6,1067.04 2821,1083.5C 2822.75,1098.23 2830.25,1108.73 2843.5,1115C 2888.28,1127.24 2908.44,1110.07 2904,1063.5C 2901.7,1049.07 2894.87,1037.24 2883.5,1028C 2877.1,1023.27 2870.44,1018.94 2863.5,1015C 2835.98,1002.74 2808.31,990.742 2780.5,979C 2749.42,965.555 2723.26,945.722 2702,919.5C 2685.75,895.756 2676.42,869.423 2674,840.5C 2671.59,813.066 2672.59,785.732 2677,758.5C 2684.36,707.918 2712.53,675.418 2761.5,661C 2788.86,653.878 2816.53,649.711 2844.5,648.5 Z M 3225.5,660.5 C 3277.83,660.5 3330.17,660.5 3382.5,660.5C 3382.33,800.834 3382.5,941.167 3383,1081.5C 3383.2,1109.37 3397.2,1122.37 3425,1120.5C 3437.77,1121.35 3449.61,1118.51 3460.5,1112C 3468.26,1103.41 3472.09,1093.24 3472,1081.5C 3472.5,941.167 3472.67,800.834 3472.5,660.5C 3523.17,660.5 3573.83,660.5 3624.5,660.5C 3624.67,799.834 3624.5,939.167 3624,1078.5C 3614.12,1160.05 3568.96,1209.55 3488.5,1227C 3444.44,1235.77 3400.44,1235.44 3356.5,1226C 3274.29,1206.78 3230.79,1154.94 3226,1070.5C 3225.5,933.834 3225.33,797.167 3225.5,660.5 Z M 3819.5,660.5 C 3879.74,660.169 3939.9,660.502 4000,661.5C 4047.33,772.167 4094.67,882.833 4142,993.5C 4142.76,882.497 4142.59,771.497 4141.5,660.5C 4188.83,660.5 4236.17,660.5 4283.5,660.5C 4283.5,844.167 4283.5,1027.83 4283.5,1211.5C 4226.26,1211.83 4169.1,1211.5 4112,1210.5C 4061.67,1100.5 4011.33,990.5 3961,880.5C 3960.5,990.833 3960.33,1101.17 3960.5,1211.5C 3913.5,1211.5 3866.5,1211.5 3819.5,1211.5C 3819.5,1027.83 3819.5,844.167 3819.5,660.5 Z M 1899.5,667.5 C 1980.83,667.5 2062.17,667.5 2143.5,667.5C 2158.56,767.222 2174.06,866.889 2190,966.5C 2209.54,867.115 2228.7,767.615 2247.5,668C 2328.5,667.5 2409.5,667.333 2490.5,667.5C 2494.15,850.72 2497.82,1033.39 2501.5,1215.5C 2453.5,1215.5 2405.5,1215.5 2357.5,1215.5C 2357.33,1103.72 2356.66,991.549 2355.5,879C 2355.99,876.578 2356.32,874.411 2356.5,872.5C 2355.68,850.876 2355.18,829.21 2355,807.5C 2326.21,943.136 2297.54,1078.8 2269,1214.5C 2220.24,1215.5 2171.41,1215.83 2122.5,1215.5C 2094.15,1079.93 2064.99,944.595 2035,809.5C 2032.61,944.687 2030.11,1080.02 2027.5,1215.5C 1981.5,1215.5 1935.5,1215.5 1889.5,1215.5C 1892.62,1032.77 1895.95,850.102 1899.5,667.5 Z M 1396.5,670.5 C 1476.83,670.5 1557.17,670.5 1637.5,670.5C 1668.58,852.876 1699.91,1035.21 1731.5,1217.5C 1681.17,1217.5 1630.83,1217.5 1580.5,1217.5C 1558.99,1074.79 1537.16,932.124 1515,789.5C 1493.8,932.055 1473.3,1074.72 1453.5,1217.5C 1403.17,1217.5 1352.83,1217.5 1302.5,1217.5C 1333.46,1035.1 1364.8,852.763 1396.5,670.5 Z"/></g>
<g><path style="opacity:0.047" fill="#034baf" d="M 866.5,683.5 C 865.22,684.931 863.553,685.598 861.5,685.5C 862.78,684.069 864.447,683.402 866.5,683.5 Z"/></g>
<g><path style="opacity:0.016" fill="#003fbf" d="M 861.5,685.5 C 860.833,686.167 860.833,686.167 861.5,685.5 Z"/></g>
<g><path style="opacity:0.031" fill="#0040a9" d="M 857.5,687.5 C 857.897,686.475 858.563,686.308 859.5,687C 858.906,687.464 858.239,687.631 857.5,687.5 Z"/></g>
<g><path style="opacity:0.031" fill="#003f9f" d="M 855.5,688.5 C 855.842,687.662 856.508,687.328 857.5,687.5C 857.158,688.338 856.492,688.672 855.5,688.5 Z"/></g>
<g><path style="opacity:0.031" fill="#0143a9" d="M 855.5,688.5 C 852.912,690.625 849.912,691.958 846.5,692.5C 849.088,690.375 852.088,689.042 855.5,688.5 Z"/></g>
<g><path style="opacity:0.031" fill="#0348ab" d="M 846.5,692.5 C 843.249,694.957 839.582,696.624 835.5,697.5C 838.751,695.043 842.418,693.376 846.5,692.5 Z"/></g>
<g><path style="opacity:0.047" fill="#024ca7" d="M 835.5,697.5 C 832.912,699.625 829.912,700.958 826.5,701.5C 829.088,699.375 832.088,698.042 835.5,697.5 Z"/></g>
<g><path style="opacity:0.078" fill="#004ba3" d="M 824.5,702.5 C 824.842,701.662 825.508,701.328 826.5,701.5C 826.158,702.338 825.492,702.672 824.5,702.5 Z"/></g>
<g><path style="opacity:0.078" fill="#014ca5" d="M 824.5,702.5 C 820.584,705.29 816.251,707.29 811.5,708.5C 815.416,705.71 819.749,703.71 824.5,702.5 Z"/></g>
<g><path style="opacity:0.063" fill="#004f9f" d="M 809.5,709.5 C 809.842,708.662 810.508,708.328 811.5,708.5C 811.158,709.338 810.492,709.672 809.5,709.5 Z"/></g>
<g><path style="opacity:0.047" fill="#0053a6" d="M 807.5,710.5 C 807.842,709.662 808.508,709.328 809.5,709.5C 809.158,710.338 808.492,710.672 807.5,710.5 Z"/></g>
<g><path style="opacity:0.031" fill="#0245aa" d="M 807.5,710.5 C 805.481,711.933 803.314,713.267 801,714.5C 802.029,711.875 804.195,710.541 807.5,710.5 Z"/></g>
<g><path style="opacity:0.047" fill="#0054aa" d="M 798.5,713.5 C 799.833,714.167 799.833,714.167 798.5,713.5 Z"/></g>
<g><path style="opacity:0.031" fill="#003f9f" d="M 796.5,714.5 C 797.833,715.167 797.833,715.167 796.5,714.5 Z"/></g>
<g><path style="opacity:0.016" fill="#003fbf" d="M 794.5,716.5 C 794.842,715.662 795.508,715.328 796.5,715.5C 796.158,716.338 795.492,716.672 794.5,716.5 Z"/></g>
<g><path style="opacity:0.016" fill="#003fbf" d="M 794.5,716.5 C 793.833,717.167 793.833,717.167 794.5,716.5 Z"/></g>
<g><path style="opacity:0.047" fill="#014da6" d="M 4709.5,1198.5 C 4709.84,1197.66 4710.51,1197.33 4711.5,1197.5C 4711.16,1198.34 4710.49,1198.67 4709.5,1198.5 Z"/></g>
<g><path style="opacity:0.031" fill="#0040ae" d="M 4706.5,1199.5 C 4707.21,1198.6 4708.21,1198.26 4709.5,1198.5C 4708.79,1199.4 4707.79,1199.74 4706.5,1199.5 Z"/></g>
<g><path style="opacity:0.047" fill="#014da6" d="M 4704.5,1200.5 C 4704.84,1199.66 4705.51,1199.33 4706.5,1199.5C 4706.16,1200.34 4705.49,1200.67 4704.5,1200.5 Z"/></g>
<g><path style="opacity:0.063" fill="#0051a2" d="M 4702.5,1201.5 C 4702.84,1200.66 4703.51,1200.33 4704.5,1200.5C 4704.16,1201.34 4703.49,1201.67 4702.5,1201.5 Z"/></g>
<g><path style="opacity:0.094" fill="#004ba2" d="M 4702.5,1201.5 C 4699.91,1203.62 4696.91,1204.96 4693.5,1205.5C 4696.09,1203.38 4699.09,1202.04 4702.5,1201.5 Z"/></g>
<g><path style="opacity:0.031" fill="#0246a6" d="M 4693.5,1205.5 C 4691.57,1207.29 4689.24,1208.29 4686.5,1208.5C 4688.43,1206.71 4690.76,1205.71 4693.5,1205.5 Z"/></g>
<g><path style="opacity:0.016" fill="#0344ba" d="M 4686.5,1208.5 C 4685.83,1209.27 4684.99,1209.93 4684,1210.5C 4683.81,1208.94 4684.65,1208.27 4686.5,1208.5 Z"/></g>
<g><path style="opacity:0.016" fill="#003fbf" d="M 4681.5,1210.5 C 4682.83,1211.17 4682.83,1211.17 4681.5,1210.5 Z"/></g>
<g><path style="opacity:0.016" fill="#003fbf" d="M 4677.5,1212.5 C 4677.9,1211.47 4678.56,1211.31 4679.5,1212C 4678.91,1212.46 4678.24,1212.63 4677.5,1212.5 Z"/></g>
<g><path style="opacity:0.031" fill="#0143a6" d="M 4677.5,1212.5 C 4675.57,1214.29 4673.24,1215.29 4670.5,1215.5C 4672.43,1213.71 4674.76,1212.71 4677.5,1212.5 Z"/></g>
<g><path style="opacity:0.11" fill="#014ea4" d="M 4670.5,1215.5 C 4668.57,1217.29 4666.24,1218.29 4663.5,1218.5C 4665.43,1216.71 4667.76,1215.71 4670.5,1215.5 Z"/></g>
</svg>
