<?xml version="1.0" encoding="UTF-8"?>
<!DOCTYPE svg PUBLIC "-//W3C//DTD SVG 1.1//EN" "http://www.w3.org/Graphics/SVG/1.1/DTD/svg11.dtd">
<svg xmlns="http://www.w3.org/2000/svg" version="1.1" width="1600px" height="1067px" style="shape-rendering:geometricPrecision; text-rendering:geometricPrecision; image-rendering:optimizeQuality; fill-rule:evenodd; clip-rule:evenodd" xmlns:xlink="http://www.w3.org/1999/xlink">
<g><path style="opacity:0.97" fill="#002655" d="M 261.5,495.5 C 279.051,493.065 293.218,498.732 304,512.5C 313.272,531.461 310.439,548.295 295.5,563C 277.924,573.279 260.591,572.945 243.5,562C 241.707,559.205 239.54,556.705 237,554.5C 229.713,541.493 229.046,528.16 235,514.5C 237.833,511 240.667,507.5 243.5,504C 249.224,500.407 255.224,497.573 261.5,495.5 Z M 263.5,506.5 C 272.804,505.329 281.304,507.329 289,512.5C 296.914,520.252 299.581,529.586 297,540.5C 290.981,555.642 279.814,561.809 263.5,559C 250.283,555.442 243.283,546.775 242.5,533C 243.479,519.207 250.479,510.374 263.5,506.5 Z"/></g>
<g><path style="opacity:0.962" fill="#002655" d="M 1258.5,495.5 C 1264.18,495.334 1269.84,495.501 1275.5,496C 1280.91,497.469 1286.24,499.135 1291.5,501C 1292.63,505.079 1292.8,509.245 1292,513.5C 1278.2,505.431 1264.04,504.597 1249.5,511C 1234.89,525.726 1234.89,540.392 1249.5,555C 1260.15,559.999 1271.15,560.833 1282.5,557.5C 1282.5,552.833 1282.5,548.167 1282.5,543.5C 1277.83,543.5 1273.17,543.5 1268.5,543.5C 1268.5,539.833 1268.5,536.167 1268.5,532.5C 1276.83,532.5 1285.17,532.5 1293.5,532.5C 1293.5,543.5 1293.5,554.5 1293.5,565.5C 1287.9,567.087 1282.23,568.587 1276.5,570C 1258.18,573.343 1243.35,567.843 1232,553.5C 1222.96,533.655 1226.46,516.488 1242.5,502C 1247.82,499.497 1253.15,497.331 1258.5,495.5 Z"/></g>
<g><path style="opacity:0.979" fill="#002656" d="M 132.5,496.5 C 153.167,496.5 173.833,496.5 194.5,496.5C 194.789,500.106 194.456,503.606 193.5,507C 185.254,507.815 177.088,507.648 169,506.5C 168.5,527.497 168.333,548.497 168.5,569.5C 164.833,569.5 161.167,569.5 157.5,569.5C 157.667,548.497 157.5,527.497 157,506.5C 148.919,507.482 140.752,507.816 132.5,507.5C 132.5,503.833 132.5,500.167 132.5,496.5 Z"/></g>
<g><path style="opacity:0.969" fill="#002655" d="M 356.5,496.5 C 360.514,496.334 364.514,496.501 368.5,497C 376,506.5 383.5,516 391,525.5C 398.456,515.709 406.289,506.209 414.5,497C 418.152,496.501 421.818,496.335 425.5,496.5C 425.5,520.833 425.5,545.167 425.5,569.5C 421.5,569.5 417.5,569.5 413.5,569.5C 413.667,551.497 413.5,533.497 413,515.5C 406.369,524.629 399.203,533.295 391.5,541.5C 388.849,539.35 386.349,537.017 384,534.5C 379,527.833 374,521.167 369,514.5C 368.5,532.83 368.333,551.164 368.5,569.5C 364.5,569.5 360.5,569.5 356.5,569.5C 356.5,545.167 356.5,520.833 356.5,496.5 Z"/></g>
<g><path style="opacity:0.957" fill="#002655" d="M 483.5,496.5 C 487.226,496.177 490.893,496.511 494.5,497.5C 502.19,506.689 509.69,516.022 517,525.5C 525.211,516.291 533.044,506.791 540.5,497C 544.152,496.501 547.818,496.335 551.5,496.5C 551.5,520.833 551.5,545.167 551.5,569.5C 547.5,569.5 543.5,569.5 539.5,569.5C 539.667,551.497 539.5,533.497 539,515.5C 532.34,524.653 525.173,533.32 517.5,541.5C 516.558,541.392 515.725,541.059 515,540.5C 508.333,531.833 501.667,523.167 495,514.5C 494.5,532.83 494.333,551.164 494.5,569.5C 490.833,569.5 487.167,569.5 483.5,569.5C 483.5,545.167 483.5,520.833 483.5,496.5 Z"/></g>
<g><path style="opacity:0.964" fill="#002655" d="M 595.5,496.5 C 600.179,496.334 604.845,496.501 609.5,497C 615.285,505.121 621.452,512.954 628,520.5C 634.548,512.954 640.715,505.121 646.5,497C 651.167,496.333 655.833,496.333 660.5,497C 652.047,508.454 643.214,519.621 634,530.5C 633.5,543.496 633.333,556.496 633.5,569.5C 629.833,569.5 626.167,569.5 622.5,569.5C 622.667,556.496 622.5,543.496 622,530.5C 612.577,519.583 603.743,508.249 595.5,496.5 Z"/></g>
<g><path style="opacity:0.976" fill="#012655" d="M 821.5,514.5 C 802.833,514.5 784.167,514.5 765.5,514.5C 746.5,514.5 727.5,514.5 708.5,514.5C 708.5,508.5 708.5,502.5 708.5,496.5C 746.167,496.5 783.833,496.5 821.5,496.5C 821.5,502.5 821.5,508.5 821.5,514.5 Z"/></g>
<g><path style="opacity:0.996" fill="#002656" d="M 878.5,496.5 C 882.5,496.5 886.5,496.5 890.5,496.5C 890.333,507.172 890.5,517.839 891,528.5C 903.667,527.167 916.333,527.167 929,528.5C 929.5,517.839 929.667,507.172 929.5,496.5C 933.5,496.5 937.5,496.5 941.5,496.5C 941.5,520.833 941.5,545.167 941.5,569.5C 937.5,569.5 933.5,569.5 929.5,569.5C 929.5,558.833 929.5,548.167 929.5,537.5C 916.5,537.5 903.5,537.5 890.5,537.5C 890.5,548.167 890.5,558.833 890.5,569.5C 886.5,569.5 882.5,569.5 878.5,569.5C 878.5,545.167 878.5,520.833 878.5,496.5 Z"/></g>
<g><path style="opacity:0.996" fill="#002656" d="M 983.5,496.5 C 987.167,496.5 990.833,496.5 994.5,496.5C 994.5,520.833 994.5,545.167 994.5,569.5C 990.833,569.5 987.167,569.5 983.5,569.5C 983.5,545.167 983.5,520.833 983.5,496.5 Z"/></g>
<g><path style="opacity:0.922" fill="#002655" d="M 1035.5,496.5 C 1039.5,496.5 1043.5,496.5 1047.5,496.5C 1047.33,517.503 1047.5,538.503 1048,559.5C 1058.42,558.513 1068.92,558.18 1079.5,558.5C 1079.5,562.167 1079.5,565.833 1079.5,569.5C 1064.83,569.5 1050.17,569.5 1035.5,569.5C 1035.5,545.167 1035.5,520.833 1035.5,496.5 Z"/></g>
<g><path style="opacity:0.927" fill="#002655" d="M 1108.5,496.5 C 1121.83,496.5 1135.17,496.5 1148.5,496.5C 1148.5,500.167 1148.5,503.833 1148.5,507.5C 1139.17,507.5 1129.83,507.5 1120.5,507.5C 1120.5,513.5 1120.5,519.5 1120.5,525.5C 1129.83,525.5 1139.17,525.5 1148.5,525.5C 1148.5,529.167 1148.5,532.833 1148.5,536.5C 1139.17,536.5 1129.83,536.5 1120.5,536.5C 1120.5,547.5 1120.5,558.5 1120.5,569.5C 1116.5,569.5 1112.5,569.5 1108.5,569.5C 1108.5,545.167 1108.5,520.833 1108.5,496.5 Z"/></g>
<g><path style="opacity:0.932" fill="#002655" d="M 1183.5,496.5 C 1187.5,496.5 1191.5,496.5 1195.5,496.5C 1195.5,520.833 1195.5,545.167 1195.5,569.5C 1191.5,569.5 1187.5,569.5 1183.5,569.5C 1183.5,545.167 1183.5,520.833 1183.5,496.5 Z"/></g>
<g><path style="opacity:0.964" fill="#002655" d="M 1331.5,496.5 C 1345.83,496.5 1360.17,496.5 1374.5,496.5C 1374.5,500.167 1374.5,503.833 1374.5,507.5C 1364.17,507.5 1353.83,507.5 1343.5,507.5C 1343.5,514.167 1343.5,520.833 1343.5,527.5C 1353.5,527.5 1363.5,527.5 1373.5,527.5C 1373.5,530.833 1373.5,534.167 1373.5,537.5C 1363.5,537.5 1353.5,537.5 1343.5,537.5C 1343.5,544.5 1343.5,551.5 1343.5,558.5C 1354.17,558.5 1364.83,558.5 1375.5,558.5C 1375.5,562.167 1375.5,565.833 1375.5,569.5C 1360.83,569.5 1346.17,569.5 1331.5,569.5C 1331.5,545.167 1331.5,520.833 1331.5,496.5 Z"/></g>
<g><path style="opacity:0.973" fill="#002655" d="M 1409.5,496.5 C 1418.17,496.334 1426.84,496.5 1435.5,497C 1450.04,501.235 1455.21,510.735 1451,525.5C 1449.17,530 1446,533.167 1441.5,535C 1443.39,537.19 1445.56,539.023 1448,540.5C 1453.91,549.971 1460.07,559.305 1466.5,568.5C 1461.87,569.662 1457.2,569.828 1452.5,569C 1448.36,562.187 1444.2,555.354 1440,548.5C 1437.17,545.667 1434.33,542.833 1431.5,540C 1428.31,538.684 1424.98,538.184 1421.5,538.5C 1421.5,548.833 1421.5,559.167 1421.5,569.5C 1417.5,569.5 1413.5,569.5 1409.5,569.5C 1409.5,545.167 1409.5,520.833 1409.5,496.5 Z M 1421.5,506.5 C 1426.25,506.275 1430.91,506.775 1435.5,508C 1443.15,513.485 1443.48,519.485 1436.5,526C 1431.69,527.893 1426.69,528.727 1421.5,528.5C 1421.5,521.167 1421.5,513.833 1421.5,506.5 Z"/></g>
<g><path style="opacity:0.981" fill="#fdfdfd" d="M 708.5,515.5 C 727.167,515.5 745.833,515.5 764.5,515.5C 764.5,527.167 764.5,538.833 764.5,550.5C 745.833,550.5 727.167,550.5 708.5,550.5C 708.5,538.833 708.5,527.167 708.5,515.5 Z"/></g>
<g><path style="opacity:0.941" fill="#c9b8c0" d="M 708.5,515.5 C 708.5,515.167 708.5,514.833 708.5,514.5C 727.5,514.5 746.5,514.5 765.5,514.5C 765.5,526.833 765.5,539.167 765.5,551.5C 746.5,551.5 727.5,551.5 708.5,551.5C 708.5,551.167 708.5,550.833 708.5,550.5C 727.167,550.5 745.833,550.5 764.5,550.5C 764.5,538.833 764.5,527.167 764.5,515.5C 745.833,515.5 727.167,515.5 708.5,515.5 Z"/></g>
<g><path style="opacity:0.984" fill="#ce0225" d="M 765.5,514.5 C 784.167,514.5 802.833,514.5 821.5,514.5C 821.5,526.833 821.5,539.167 821.5,551.5C 802.833,551.5 784.167,551.5 765.5,551.5C 765.5,539.167 765.5,526.833 765.5,514.5 Z"/></g>
<g><path style="opacity:0.97" fill="#002655" d="M 708.5,551.5 C 727.5,551.5 746.5,551.5 765.5,551.5C 784.167,551.5 802.833,551.5 821.5,551.5C 821.5,557.5 821.5,563.5 821.5,569.5C 783.833,569.5 746.167,569.5 708.5,569.5C 708.5,563.5 708.5,557.5 708.5,551.5 Z"/></g>
</svg>
