<?xml version="1.0" encoding="UTF-8"?>
<!DOCTYPE svg PUBLIC "-//W3C//DTD SVG 1.1//EN" "http://www.w3.org/Graphics/SVG/1.1/DTD/svg11.dtd">
<svg xmlns="http://www.w3.org/2000/svg" version="1.1" width="3840px" height="2160px" style="shape-rendering:geometricPrecision; text-rendering:geometricPrecision; image-rendering:optimizeQuality; fill-rule:evenodd; clip-rule:evenodd" xmlns:xlink="http://www.w3.org/1999/xlink">
<g><path style="opacity:0.985" fill="#0068b4" d="M 1354.5,558.5 C 1360.18,558.334 1365.84,558.501 1371.5,559C 1376.19,561.116 1380.53,563.782 1384.5,567C 1411.11,592.588 1437.27,618.755 1463,645.5C 1466.93,651.03 1470.59,656.696 1474,662.5C 1475.51,667.746 1475.84,673.079 1475,678.5C 1472.84,683.492 1470.17,688.159 1467,692.5C 1439.81,720.693 1412.31,748.526 1384.5,776C 1377.99,781.087 1370.66,784.254 1362.5,785.5C 1359.47,785.194 1356.47,784.694 1353.5,784C 1347.36,781.093 1341.69,777.426 1336.5,773C 1318.83,754.998 1300.83,737.332 1282.5,720C 1271.93,710.103 1262.1,699.603 1253,688.5C 1246.77,676.995 1247.11,665.662 1254,654.5C 1256.67,651.167 1259.33,647.833 1262,644.5C 1287.22,619.946 1312.05,595.113 1336.5,570C 1342.09,565.381 1348.09,561.548 1354.5,558.5 Z"/></g>
<g><path style="opacity:0.99" fill="#0068b4" d="M 3343.5,818.5 C 3365.88,818.777 3388.21,819.444 3410.5,820.5C 3529.81,826.081 3625.65,876.748 3698,972.5C 3759.73,1063.44 3781.4,1163.44 3763,1272.5C 3739.87,1392.24 3675.2,1481.57 3569,1540.5C 3568.67,1540.17 3568.33,1539.83 3568,1539.5C 3517.92,1565.16 3465.08,1579 3409.5,1581C 3293.16,1581.18 3176.83,1581.68 3060.5,1582.5C 3015,1583.15 2970.67,1579.65 2927.5,1572C 2869.26,1559.38 2817.59,1533.71 2772.5,1495C 2692.26,1422.86 2647.93,1333.19 2639.5,1226C 2634.33,1146.31 2651.83,1071.15 2692,1000.5C 2738.82,924.688 2803.98,871.188 2887.5,840C 2924.9,827.713 2962.73,820.88 3001,819.5C 3090.54,819.956 3180.04,820.289 3269.5,820.5C 3294.29,819.842 3318.96,819.176 3343.5,818.5 Z M 3037.5,965.5 C 3101.83,965.333 3166.17,965.5 3230.5,966C 3273.82,967.472 3317.82,967.305 3362.5,965.5C 3372.17,965.667 3381.83,965.833 3391.5,966C 3394.76,966.212 3397.92,966.712 3401,967.5C 3487.21,969.066 3551.88,1008.73 3595,1086.5C 3628.86,1159.79 3630.19,1233.46 3599,1307.5C 3566.1,1374.16 3513.77,1414.83 3442,1429.5C 3430.6,1431.65 3419.1,1433.31 3407.5,1434.5C 3269.85,1435.18 3132.01,1435.18 2994,1434.5C 2909.69,1425.31 2848.36,1382.64 2810,1306.5C 2777.49,1231.54 2778.83,1157.2 2814,1083.5C 2846.5,1026.61 2894.17,989.945 2957,973.5C 2972.45,969.544 2988.11,967.211 3004,966.5C 3010.83,966.689 3017.16,967.022 3023,967.5C 3027.93,966.856 3032.77,966.19 3037.5,965.5 Z"/></g>
<g><path style="opacity:0.99" fill="#0068b4" d="M 145.5,831.5 C 165.924,829.686 184.258,834.853 200.5,847C 206,852.5 211.5,858 217,863.5C 286.743,965.315 355.743,1067.65 424,1170.5C 475.42,1245.67 527.086,1320.67 579,1395.5C 588.422,1406.93 599.589,1416.1 612.5,1423C 636.354,1431.95 658.021,1428.28 677.5,1412C 685.072,1405.1 691.905,1397.6 698,1389.5C 817.495,1214.51 936.495,1039.18 1055,863.5C 1084.41,829.595 1118.91,822.762 1158.5,843C 1195.2,869.787 1204.7,904.287 1187,946.5C 1180.73,957.763 1174.06,968.763 1167,979.5C 1145.28,1009.56 1123.94,1039.89 1103,1070.5C 1034.74,1172.69 965.742,1274.35 896,1375.5C 873.175,1411.99 849.175,1447.65 824,1482.5C 800.539,1513.64 772.372,1539.47 739.5,1560C 717.812,1571.29 694.979,1579.13 671,1583.5C 597.4,1592.52 533.9,1570.69 480.5,1518C 470.235,1506.68 460.069,1495.18 450,1483.5C 441,1471.17 432,1458.83 423,1446.5C 315.204,1285.03 206.204,1124.37 96,964.5C 88.0899,952.349 82.0899,939.349 78,925.5C 73.4725,878.411 93.4725,847.411 138,832.5C 138.333,832.833 138.667,833.167 139,833.5C 141.277,832.883 143.444,832.216 145.5,831.5 Z"/></g>
<g><path style="opacity:0.99" fill="#0068b4" d="M 1357.5,831.5 C 1401.41,832.245 1428.57,853.912 1439,896.5C 1440.04,906.649 1440.87,916.815 1441.5,927C 1440.31,1071.99 1440.31,1216.99 1441.5,1362C 1441.33,1389.17 1441.17,1416.33 1441,1443.5C 1440.86,1467.42 1440.03,1491.25 1438.5,1515C 1435.62,1547.93 1418.28,1569.93 1386.5,1581C 1348.91,1590.81 1318.74,1580.64 1296,1550.5C 1285.27,1530.63 1280.77,1509.3 1282.5,1486.5C 1283.82,1306.33 1283.82,1126.17 1282.5,946C 1282.14,930.19 1283.14,914.523 1285.5,899C 1288.22,871.933 1301.89,852.267 1326.5,840C 1337.09,836.282 1347.43,833.449 1357.5,831.5 Z"/></g>
<g><path style="opacity:0.99" fill="#0068b4" d="M 1597.5,831.5 C 1626.15,829.668 1649.31,840.001 1667,862.5C 1725.51,946.012 1782.84,1030.35 1839,1115.5C 1899.16,1203.15 1958.83,1291.15 2018,1379.5C 2027.1,1392.84 2037.94,1404.67 2050.5,1415C 2077.1,1433.15 2103.1,1432.15 2128.5,1412C 2135.03,1405.8 2141.2,1399.3 2147,1392.5C 2267.33,1215.5 2387.67,1038.5 2508,861.5C 2535.42,831.56 2567.58,824.393 2604.5,840C 2635.37,857.906 2649.2,884.739 2646,920.5C 2645.18,928.151 2643.18,935.484 2640,942.5C 2634.09,953.999 2627.42,964.999 2620,975.5C 2508.92,1137.31 2398.59,1299.65 2289,1462.5C 2272.38,1486.13 2253.88,1508.29 2233.5,1529C 2183.22,1573.92 2125.05,1592.09 2059,1583.5C 1999.13,1572.68 1949.8,1543.68 1911,1496.5C 1893.26,1473.36 1876.26,1449.7 1860,1425.5C 1755.75,1270.01 1650.75,1115.01 1545,960.5C 1538.04,949.244 1532.71,937.244 1529,924.5C 1524.46,883.734 1540.63,854.567 1577.5,837C 1584.28,835.087 1590.95,833.254 1597.5,831.5 Z"/></g>
</svg>
