<?xml version="1.0" encoding="utf-8"?>
<!-- Generator: Adobe Illustrator 27.5.0, SVG Export Plug-In . SVG Version: 6.00 Build 0)  -->
<svg version="1.1" id="Capa_1" xmlns="http://www.w3.org/2000/svg" xmlns:xlink="http://www.w3.org/1999/xlink" x="0px" y="0px"
	 viewBox="0 0 425.2 425.2" style="enable-background:new 0 0 425.2 425.2;" xml:space="preserve">
<radialGradient id="SVGID_1_" cx="-3494.0303" cy="-457.4151" r="484.6982" gradientTransform="matrix(0.6624 0 0 0.6624 2527.0457 515.5916)" gradientUnits="userSpaceOnUse">
	<stop  offset="0.6492" style="stop-color:#FFFFFF"/>
	<stop  offset="0.7203" style="stop-color:#EDEDEE"/>
	<stop  offset="0.8384" style="stop-color:#D9DADB"/>
	<stop  offset="0.911" style="stop-color:#D1D3D4"/>
</radialGradient>
<rect x="0.001" y="0.001" style="fill:url(#SVGID_1_);" width="425.197" height="425.197"/>
<g>
	<path style="fill:#FBB040;" d="M242.082,91.033v129.652c0,0,36.62,58.898,62.259,97.952
		c34.545-21.866,57.479-60.418,57.479-104.323C361.819,147.395,308.533,92.961,242.082,91.033z"/>
	<path style="fill:#D83633;" d="M145.975,220.313c0,3.393-2.751,6.142-6.143,6.142h-17.586c-3.392,0-6.142-2.749-6.142-6.142l0,0
		c0-3.394,2.75-6.144,6.142-6.144h17.586C143.224,214.169,145.975,216.919,145.975,220.313L145.975,220.313z"/>
	<path style="fill:#D83633;" d="M175.2,137.508c-2.398,2.396-6.287,2.396-8.686,0l-12.432-12.435c-2.398-2.399-2.398-6.286,0-8.688
		l0,0c2.395-2.396,6.286-2.396,8.686,0l12.433,12.434C177.6,131.218,177.6,135.108,175.2,137.508L175.2,137.508z"/>
	<path style="fill:#D83633;" d="M186.85,294.666c2.4,2.4,2.4,6.29,0,8.689l-12.432,12.433c-2.398,2.399-6.285,2.399-8.685,0l0,0
		c-2.399-2.398-2.399-6.287,0-8.689l12.43-12.433C180.563,292.268,184.452,292.268,186.85,294.666L186.85,294.666z"/>
	<g>
		<g>
			<path style="fill:#D83633;" d="M169.53,248.261c-3.063,0-5.651-2.494-5.651-5.445v-20.284c0-9.402,7.65-17.052,17.053-17.052
				h29.776c3.229,0,5.957-2.73,5.957-5.96v-13.726c0-3.285-2.719-5.957-6.061-5.957h-29.771c-3.341,0-6.059,2.672-6.059,5.957v5.25
				c0,3.166-2.393,5.646-5.448,5.646c-3.109,0-5.544-2.48-5.544-5.646v-5.25c0-9.402,7.649-17.051,17.051-17.051h29.771
				c9.402,0,17.051,7.649,17.051,17.051v13.726c0,9.347-7.603,16.951-16.947,16.951h-29.776c-3.285,0-5.957,2.719-5.957,6.061
				v14.739h49.153c3.003,0,5.446,2.487,5.446,5.545c0,3.003-2.443,5.445-5.446,5.445H169.53z"/>
			<path style="fill:#FFFFFF;" d="M210.604,169.243c9.084,0,16.551,7.368,16.551,16.551v13.726c0,9.084-7.365,16.451-16.447,16.451
				h-29.776c-3.532,0-6.457,2.927-6.457,6.561v15.239h49.653c2.726,0,4.946,2.22,4.946,5.045c0,2.726-2.221,4.945-4.946,4.945
				H169.53c-2.727,0-5.151-2.22-5.151-4.945v-20.284c0-9.184,7.371-16.552,16.553-16.552h29.776c3.532,0,6.457-3.029,6.457-6.46
				v-13.726c0-3.631-3.026-6.457-6.561-6.457h-29.771c-3.631,0-6.559,2.927-6.559,6.457v5.25c0,2.927-2.223,5.146-4.948,5.146
				c-2.824,0-5.044-2.219-5.044-5.146v-5.25c0-9.183,7.369-16.551,16.551-16.551H210.604 M210.604,168.243h-29.771
				c-9.678,0-17.551,7.873-17.551,17.551v5.25c0,3.446,2.655,6.146,6.044,6.146c3.335,0,5.948-2.699,5.948-6.146v-5.25
				c0-3.009,2.494-5.457,5.559-5.457h29.771c3.066,0,5.561,2.448,5.561,5.457v13.726c0,2.909-2.55,5.46-5.457,5.46h-29.776
				c-9.679,0-17.553,7.873-17.553,17.552v20.284c0,3.223,2.817,5.945,6.151,5.945h54.598c3.279,0,5.946-2.667,5.946-5.945
				c0-3.333-2.667-6.045-5.946-6.045h-48.653v-14.239c0-3.066,2.448-5.561,5.457-5.561h29.776c9.621,0,17.447-7.829,17.447-17.451
				v-13.726C228.155,176.116,220.282,168.243,210.604,168.243L210.604,168.243z"/>
		</g>
		<g>
			<path style="fill:#D83633;" d="M298.105,248.261c-3.005,0-5.544-2.538-5.544-5.544v-25.508c-1.99,0.734-4.326,1.179-6.265,1.179
				h-30.78c-9.623,0-17.453-7.83-17.453-17.454v-26.543c0-3.006,2.585-5.545,5.646-5.545c3.007,0,5.548,2.539,5.548,5.545v26.543
				c0,3.509,2.808,6.364,6.26,6.364h30.78c3.454,0,6.265-2.855,6.265-6.364v-26.543c0-2.902,2.643-5.545,5.544-5.545
				c3.008,0,5.549,2.539,5.549,5.545v68.326C303.654,245.826,301.217,248.261,298.105,248.261z"/>
			<path style="fill:#FFFFFF;" d="M298.105,169.346c2.83,0,5.049,2.42,5.049,5.045v68.326c0,2.824-2.219,5.044-5.049,5.044
				c-2.623,0-5.044-2.22-5.044-5.044v-26.242c-1.919,0.81-4.542,1.413-6.765,1.413h-30.78c-9.387,0-16.953-7.568-16.953-16.954
				v-26.543c0-2.625,2.221-5.045,5.146-5.045c2.827,0,5.048,2.42,5.048,5.045v26.543c0,3.836,3.026,6.864,6.76,6.864h30.78
				c3.737,0,6.765-3.132,6.765-6.864v-26.543C293.061,171.766,295.482,169.346,298.105,169.346 M298.105,168.346
				c-3.163,0-6.044,2.881-6.044,6.045v26.543c0,3.233-2.586,5.864-5.765,5.864h-30.78c-3.23,0-5.76-2.576-5.76-5.864v-26.543
				c0-3.277-2.77-6.045-6.048-6.045c-3.331,0-6.146,2.768-6.146,6.045v26.543c0,9.9,8.054,17.954,17.953,17.954h30.78
				c1.778,0,3.88-0.363,5.765-0.976v24.805c0,3.276,2.768,6.044,6.044,6.044c3.392,0,6.049-2.655,6.049-6.044v-68.326
				C304.154,171.114,301.384,168.346,298.105,168.346L298.105,168.346z"/>
		</g>
	</g>
	<g>
		<g>
			<path style="fill:#D83633;" d="M320.314,259.434c-0.925,0-1.65-0.715-1.65-1.629c0-0.912,0.74-1.653,1.65-1.653h5.906v-9.789
				h-5.906c-0.925,0-1.65-0.716-1.65-1.63c0-0.915,0.725-1.632,1.65-1.632h15.425c0.927,0,1.653,0.717,1.653,1.632
				c0,0.914-0.726,1.63-1.653,1.63h-6.237v9.789h6.237c0.912,0,1.653,0.742,1.653,1.653c0,0.914-0.726,1.629-1.653,1.629H320.314z"
				/>
			<path style="fill:#FFFFFF;" d="M335.739,243.601c0.643,0,1.153,0.488,1.153,1.132c0,0.64-0.511,1.13-1.153,1.13h-6.737v10.789
				h6.737c0.643,0,1.153,0.532,1.153,1.153c0,0.644-0.511,1.129-1.153,1.129h-15.425c-0.64,0-1.15-0.485-1.15-1.129
				c0-0.621,0.511-1.153,1.15-1.153h6.406v-10.789h-6.406c-0.64,0-1.15-0.49-1.15-1.13c0-0.644,0.511-1.132,1.15-1.132H335.739
				 M335.739,242.601h-15.425c-1.206,0-2.15,0.936-2.15,2.132c0,1.194,0.944,2.13,2.15,2.13h5.406v8.789h-5.406
				c-1.186,0-2.15,0.966-2.15,2.153c0,1.194,0.944,2.129,2.15,2.129h15.425c1.207,0,2.153-0.935,2.153-2.129
				c0-1.188-0.966-2.153-2.153-2.153h-5.737v-8.789h5.737c1.207,0,2.153-0.936,2.153-2.13
				C337.893,243.537,336.947,242.601,335.739,242.601L335.739,242.601z"/>
		</g>
		<g>
			<path style="fill:#D83633;" d="M322.997,241.013c-2.376,0-4.31-1.934-4.31-4.311v-9.97c0-2.378,1.933-4.313,4.31-4.313h10.106
				c2.378,0,4.312,1.935,4.312,4.313v9.97c0,2.377-1.934,4.311-4.312,4.311H322.997z M322.997,225.704
				c-0.545,0-1.005,0.471-1.005,1.028v9.97c0,0.546,0.46,1.008,1.005,1.008h10.106c0.547,0,1.027-0.471,1.027-1.008v-9.97
				c0-0.558-0.471-1.028-1.027-1.028H322.997z"/>
			<path style="fill:#FFFFFF;" d="M333.103,222.92c2.103,0,3.812,1.705,3.812,3.813v9.97c0,2.105-1.709,3.811-3.812,3.811h-10.106
				c-2.103,0-3.81-1.705-3.81-3.811v-9.97c0-2.107,1.707-3.813,3.81-3.813H333.103 M322.997,238.21h10.106
				c0.818,0,1.527-0.687,1.527-1.508v-9.97c0-0.843-0.709-1.528-1.527-1.528h-10.106c-0.818,0-1.505,0.686-1.505,1.528v9.97
				C321.492,237.523,322.179,238.21,322.997,238.21 M333.103,221.92h-10.106c-2.652,0-4.81,2.159-4.81,4.813v9.97
				c0,2.652,2.158,4.811,4.81,4.811h10.106c2.653,0,4.812-2.158,4.812-4.811v-9.97C337.915,224.079,335.757,221.92,333.103,221.92
				L333.103,221.92z M322.997,237.21c-0.269,0-0.505-0.237-0.505-0.508v-9.97c0-0.286,0.231-0.528,0.505-0.528h10.106
				c0.276,0,0.527,0.252,0.527,0.528v9.97c0,0.261-0.256,0.508-0.527,0.508H322.997L322.997,237.21z"/>
		</g>
		<g>
			<path style="fill:#D83633;" d="M320.338,220.576c-0.925,0-1.65-0.715-1.65-1.628c0-0.916,0.725-1.634,1.65-1.634h12.766
				c0.566,0,1.027-0.471,1.027-1.049v-9.241c0-0.557-0.471-1.027-1.027-1.027h-12.766c-0.895,0-1.65-0.748-1.65-1.633
				c0-0.91,0.74-1.65,1.65-1.65h12.766c2.378,0,4.312,1.934,4.312,4.311v9.241c0,2.377-1.934,4.311-4.312,4.311H320.338z"/>
			<path style="fill:#FFFFFF;" d="M333.103,203.214c2.103,0,3.812,1.707,3.812,3.811v9.241c0,2.105-1.709,3.811-3.812,3.811h-12.766
				c-0.641,0-1.15-0.488-1.15-1.128c0-0.645,0.51-1.134,1.15-1.134h12.766c0.84,0,1.527-0.686,1.527-1.549v-9.241
				c0-0.819-0.688-1.527-1.527-1.527h-12.766c-0.641,0-1.15-0.532-1.15-1.133c0-0.641,0.51-1.15,1.15-1.15H333.103 M333.103,202.214
				h-12.766c-1.186,0-2.15,0.965-2.15,2.15c0,1.176,0.965,2.133,2.15,2.133h12.766c0.276,0,0.527,0.251,0.527,0.527v9.241
				c0,0.303-0.236,0.549-0.527,0.549h-12.766c-1.206,0-2.15,0.938-2.15,2.134c0,1.193,0.944,2.128,2.15,2.128h12.766
				c2.653,0,4.812-2.158,4.812-4.811v-9.241C337.915,204.372,335.757,202.214,333.103,202.214L333.103,202.214z"/>
		</g>
		<g>
			<path style="fill:#D83633;" d="M322.978,200.581c-2.379,0-4.314-1.943-4.314-4.332v-8.753c0-2.378,1.935-4.313,4.314-4.313h3.61
				c2.155,0,3.904,1.525,4.247,3.582c1.3-0.513,3.082-1.242,4.292-1.748c0.155-0.08,0.358-0.127,0.588-0.127
				c0.653,0,1.289,0.426,1.546,1.035c0.085,0.171,0.129,0.375,0.129,0.616c0,0.671-0.413,1.286-1.027,1.528l-5.468,2.16v7.047h4.842
				c0.896,0,1.653,0.757,1.653,1.652c0,0.911-0.742,1.651-1.653,1.651H322.978z M322.978,186.443c-0.548,0-1.011,0.482-1.011,1.053
				v8.753c0,0.558,0.463,1.028,1.011,1.028h4.639v-9.781c0-0.571-0.471-1.053-1.028-1.053H322.978z"/>
			<path style="fill:#FFFFFF;" d="M326.589,183.684c2.103,0,3.79,1.683,3.809,3.79c1.266-0.488,3.439-1.374,4.924-1.995
				c0.131-0.066,0.263-0.088,0.396-0.088c0.465,0,0.909,0.311,1.086,0.73c0.065,0.134,0.09,0.268,0.09,0.422
				c0,0.443-0.267,0.888-0.711,1.063l-5.784,2.284v7.888h5.342c0.643,0,1.153,0.554,1.153,1.152c0,0.642-0.511,1.151-1.153,1.151
				h-12.761c-2.107,0-3.814-1.706-3.814-3.832v-8.753c0-2.105,1.707-3.813,3.814-3.813H326.589 M322.978,197.777h5.139v-10.281
				c0-0.842-0.686-1.553-1.528-1.553h-3.61c-0.823,0-1.511,0.711-1.511,1.553v8.753C321.468,197.09,322.155,197.777,322.978,197.777
				 M326.589,182.684h-3.61c-2.655,0-4.814,2.159-4.814,4.813v8.753c0,2.665,2.16,4.832,4.814,4.832h12.761
				c1.188,0,2.153-0.965,2.153-2.151c0-1.167-0.986-2.152-2.153-2.152h-4.342v-6.208l5.151-2.034
				c0.804-0.318,1.344-1.119,1.344-1.994c0-0.306-0.059-0.579-0.179-0.836c-0.344-0.788-1.143-1.316-1.997-1.316
				c-0.29,0-0.562,0.06-0.808,0.177c-1.048,0.438-2.514,1.039-3.724,1.522C330.577,184.121,328.741,182.684,326.589,182.684
				L326.589,182.684z M322.978,196.777c-0.277,0-0.511-0.242-0.511-0.528v-8.753c0-0.289,0.244-0.553,0.511-0.553h3.61
				c0.281,0,0.528,0.258,0.528,0.553v9.281H322.978L322.978,196.777z"/>
		</g>
		<g>
			<path style="fill:#D83633;" d="M335.761,181.319c-0.914,0-1.63-0.717-1.63-1.632v-10.612c0-0.545-0.471-1.006-1.027-1.006h-2.373
				c-0.558,0-1.029,0.46-1.029,1.006v7.934c0,2.377-1.933,4.311-4.309,4.311h-2.395c-2.376,0-4.31-1.934-4.31-4.311v-10.571
				c0-0.911,0.74-1.652,1.65-1.652c0.897,0,1.654,0.757,1.654,1.652v10.571c0,0.588,0.441,1.049,1.005,1.049h2.395
				c0.554,0,1.005-0.471,1.005-1.049v-7.934c0-2.366,1.944-4.29,4.333-4.29h2.373c2.378,0,4.312,1.924,4.312,4.29v10.612
				C337.415,180.602,336.688,181.319,335.761,181.319z"/>
			<path style="fill:#FFFFFF;" d="M333.103,165.285c2.103,0,3.812,1.707,3.812,3.79v10.612c0,0.645-0.51,1.132-1.154,1.132
				c-0.621,0-1.13-0.486-1.13-1.132v-10.612c0-0.821-0.688-1.506-1.527-1.506h-2.373c-0.842,0-1.529,0.685-1.529,1.506v7.934
				c0,2.104-1.705,3.811-3.809,3.811h-2.395c-2.103,0-3.81-1.707-3.81-3.811v-10.571c0-0.64,0.51-1.152,1.15-1.152
				c0.6,0,1.154,0.513,1.154,1.152v10.571c0,0.864,0.663,1.549,1.505,1.549h2.395c0.819,0,1.505-0.685,1.505-1.549v-7.934
				c0-2.083,1.707-3.79,3.833-3.79H333.103 M333.103,164.285h-2.373c-2.665,0-4.833,2.149-4.833,4.79v7.934
				c0,0.303-0.227,0.549-0.505,0.549h-2.395c-0.288,0-0.505-0.236-0.505-0.549v-10.571c0-1.167-0.986-2.152-2.154-2.152
				c-1.186,0-2.15,0.965-2.15,2.152v10.571c0,2.652,2.158,4.811,4.81,4.811h2.395c2.651,0,4.809-2.158,4.809-4.811v-7.934
				c0-0.274,0.242-0.506,0.529-0.506h2.373c0.286,0,0.527,0.231,0.527,0.506v10.612c0,1.195,0.936,2.132,2.13,2.132
				c1.208,0,2.154-0.937,2.154-2.132v-10.612C337.915,166.434,335.757,164.285,333.103,164.285L333.103,164.285z"/>
		</g>
	</g>
	<path style="fill:#D83633;" d="M235.146,53.58c-87.271,0-158.021,70.747-158.021,158.02s70.749,158.02,158.021,158.02
		c87.272,0,158.021-70.748,158.021-158.02S322.419,53.58,235.146,53.58z M234.68,350.154c-76.425,0-138.38-61.955-138.38-138.38
		S158.255,73.396,234.68,73.396s138.38,61.954,138.38,138.379S311.104,350.154,234.68,350.154z"/>
	<g>
		<polygon style="fill:#A1573D;" points="91.667,334.419 33.875,311.041 32.032,235.746 89.821,259.129 		"/>
		<polygon style="fill:#CDA87A;" points="65.493,269.692 58.904,262.226 52.558,264.619 52.043,243.559 64.979,248.633 		"/>
		<polygon style="fill:#B26144;" points="91.667,334.419 153.079,310.983 151.232,235.691 89.821,259.129 		"/>
		<polygon style="fill:#E4BA87;" points="97.15,324.752 110.876,319.512 110.462,302.688 96.741,307.924 		"/>
		<polygon style="fill:#E4BA87;" points="114.82,318.276 128.543,313.042 128.133,296.216 114.408,301.454 		"/>
		<polygon style="fill:#BE6249;" points="32.032,235.746 93.445,212.31 151.232,235.691 89.821,259.129 		"/>
		<polygon style="fill:#E4BA87;" points="52.038,243.5 113.456,220.061 126.393,225.197 64.979,248.633 		"/>
	</g>
	<g>
		<polygon style="fill:#A1573D;" points="149.218,371.62 110.23,355.849 108.987,305.053 147.973,320.828 		"/>
		<polygon style="fill:#CDA87A;" points="131.561,327.954 127.115,322.917 122.834,324.531 122.486,310.323 131.215,313.747 		"/>
		<polygon style="fill:#B26144;" points="149.218,371.62 190.648,355.81 189.402,305.017 147.973,320.828 		"/>
		<polygon style="fill:#E4BA87;" points="152.918,365.099 162.178,361.564 161.897,350.213 152.642,353.746 		"/>
		<polygon style="fill:#E4BA87;" points="164.839,360.73 174.096,357.199 173.819,345.848 164.561,349.382 		"/>
		<polygon style="fill:#BE6249;" points="108.987,305.053 150.418,289.242 189.402,305.017 147.973,320.828 		"/>
		<polygon style="fill:#E4BA87;" points="122.483,310.284 163.918,294.472 172.645,297.936 131.215,313.747 		"/>
	</g>
</g>
</svg>
