<?xml version="1.0" encoding="utf-8"?>
<!-- Generator: Adobe Illustrator 27.5.0, SVG Export Plug-In . SVG Version: 6.00 Build 0)  -->
<svg version="1.1" xmlns="http://www.w3.org/2000/svg" xmlns:xlink="http://www.w3.org/1999/xlink" x="0px" y="0px"
	 viewBox="0 0 3710 3710" style="enable-background:new 0 0 3710 3710;" xml:space="preserve">
<g id="Background">
	<g>
		<g>
			<rect style="fill:#FFFFFF;" width="3710" height="3710"/>
		</g>
	</g>
</g>
<g id="Illustration">
	<g>
		<path style="fill:#F4F7FA;" d="M2361.424,514.718c-211.6-47.207-431.599-69.833-646.704-55.41
			c-190.651,12.783-406.759,47.673-560.179,172.648c-73.114,59.558-160.306,166.577-184.221,260.989
			c-0.003,0.011-125.886,496.951-377.648,603.44c-251.766,106.489-426.603,1923.907,1482.619,1746.425
			c0,0,1121.373-46.507,1188.893-1386.112c16.311-323.606,7.198-679.362-188.2-949.951
			c-149.734-207.354-359.526-299.551-600.6-364.062C2437.723,532.607,2399.711,523.26,2361.424,514.718z"/>
		<g>
			<g>
				
					<linearGradient id="SVGID_1_" gradientUnits="userSpaceOnUse" x1="-186.9663" y1="4229.5522" x2="380.5819" y2="7857.8164" gradientTransform="matrix(0.8406 -0.5417 0.5417 0.8406 -1517.3571 -2446.8806)">
					<stop  offset="0" style="stop-color:#FFC444"/>
					<stop  offset="0.9964" style="stop-color:#F36F56"/>
				</linearGradient>
				<path style="fill:url(#SVGID_1_);" d="M1657.5,2755.108c20.728-1.362,64.623-22.597,73.783-32.851
					c60.958-68.235,183.388-188.575,183.785-285.301c0.068-16.519-72.522-36.434-81.878-52.19
					c-43.199-23.93-59.67-29.553-89.562-72.478c-88.251-126.727,144.646-339.559-104.691-435.246
					c-182.636-70.089-344.046-15.823-305.773-303.795c38.272-287.972-157.863-829.485-475.994-646.978
					c-182.577,104.742-20.147,361.917-121.769,537.654c-96.568,166.995-32.431,313.53,144.192,428.536
					c176.623,115.005,73.775,188.376,10.222,348.853c-76.341,192.767,224.194,246.719,365.068,259.791
					C1368.324,2511.629,1650.085,2614.969,1657.5,2755.108z"/>
				<g>
					<defs>
						<path id="SVGID_00000134240533154469218210000009766718938689327802_" d="M1963.205,2414.99
							c-52.563,132.768-100.581,270.035-152.792,404.023c-81.467,1.461-177.332,1.196-188.986-99.588
							c-16.202-140.12-253.367-208.679-366.771-218.594c-140.359-12.271-441.28-66.99-364.853-259.558
							c63.625-160.311,166.394-233.861-10.222-348.828c-176.616-114.968-240.715-261.516-144.179-428.534
							c101.589-175.761-60.801-432.81,121.769-537.647c318.119-182.673,514.325,359.316,475.956,646.865
							c-38.368,287.55,123.504,235.045,305.714,303.588c248.756,93.576,18.025,314.126,104.212,432.896
							C1810.619,2402.721,1869.29,2390.193,1963.205,2414.99z"/>
					</defs>
					<clipPath id="SVGID_00000038385274417086881570000005138115031512012449_">
						<use xlink:href="#SVGID_00000134240533154469218210000009766718938689327802_"  style="overflow:visible;"/>
					</clipPath>
					<g style="clip-path:url(#SVGID_00000038385274417086881570000005138115031512012449_);">
						<path style="fill:#FCFDFE;" d="M1342.112,2181.308c132.392,164.298,293.688,301.973,477.895,406.565l2.326-4.096
							c-297.274-168.794-534.815-424.098-686.954-738.303C990.617,1546.499,924.57,1200.051,944.374,843.584l-4.704-0.264
							c-19.849,357.265,46.358,704.513,191.467,1004.207C1189.427,1967.912,1260.249,2079.718,1342.112,2181.308z"/>
						<path style="fill:#FCFDFE;" d="M848.932,2317.935c180.098-46.77,475.331-29.746,658.124,37.951l1.636-4.415
							c-183.559-67.984-480.058-85.075-660.949-38.098L848.932,2317.935z"/>
						<path style="fill:#FCFDFE;" d="M1685.36,2498.92c6.055,7.514,12.456,14.725,19.223,21.652l3.368-3.293
							c-70.775-72.485-102.188-177.935-93.379-313.474c6.46-99.399,34.006-212.357,81.868-335.734l-4.395-1.706
							c-48.035,123.83-75.684,237.254-82.176,337.134C1601.811,2327.519,1627.193,2426.735,1685.36,2498.92z"/>
						<path style="fill:#FCFDFE;" d="M652.072,1598.203c140.668,15.379,334.682,63.604,460.146,206.023l3.538-3.112
							c-126.465-143.557-321.679-192.127-463.172-207.591L652.072,1598.203z"/>
						<path style="fill:#FCFDFE;" d="M976.85,1387.743l4.708-0.047c-0.868-92.46,25.792-278.474,214.098-485.426l-3.484-3.173
							C1002.781,1107.237,975.972,1294.588,976.85,1387.743z"/>
					</g>
				</g>
			</g>
		</g>
		<g>
			<g>
				<path style="fill:#D8DEE8;" d="M2025.186,2585.783c-19.357-0.944-60.636-20.062-69.342-29.482
					c-57.936-62.69-174.033-173.017-175.926-263.236c-0.323-15.408,67.075-35.127,75.554-49.972
					c39.92-23.002,55.195-28.506,82.403-69.017c80.326-119.6-140.271-314.464,90.805-407.646
					c169.26-68.254,320.677-20.176,280.443-288.194c-40.234-268.018,134.198-776.23,433.823-610.995
					c171.957,94.83,24.49,337.28,122.05,499.608c92.708,154.254,35.188,291.951-127.756,402.009
					c-162.943,110.058-65.852,176.879-4.043,325.572c74.245,178.611-205.245,233.669-336.446,248.08
					C2291.098,2354.113,2029.897,2454.945,2025.186,2585.783z"/>
				<g>
					<defs>
						<path id="SVGID_00000129887782012429701380000018315639262833034658_" d="M1734.67,2273.333
							c51.121,123.019,98.073,250.306,148.884,374.468c76.016,0.081,165.434-1.676,174.719-95.87
							c12.907-130.959,233.056-198.645,338.684-209.679c130.734-13.656,410.572-69.435,336.25-247.86
							c-61.873-148.537-158.894-215.526,4.044-325.548c162.938-110.022,220.422-247.732,127.745-402.007
							c-97.529-162.351,49.902-404.683-122.05-499.601c-299.617-165.39-474.107,343.267-433.79,610.89s-111.505,221.194-280.391,288
							c-230.567,91.204-11.869,293.301-90.395,405.446C1876.809,2259.486,1821.883,2248.723,1734.67,2273.333z"/>
					</defs>
					<clipPath id="SVGID_00000103251590132336499190000017644713324816323514_">
						<use xlink:href="#SVGID_00000129887782012429701380000018315639262833034658_"  style="overflow:visible;"/>
					</clipPath>
					<g style="clip-path:url(#SVGID_00000103251590132336499190000017644713324816323514_);">
						<path style="fill:#FCFDFE;" d="M2310.348,2045.577c-120.909,155.342-269.199,286.305-439.381,386.768l-2.234-3.784
							c274.641-162.131,492.201-404.019,629.17-699.505c130.327-281.165,186.483-605.371,162.397-937.572l4.384-0.32
							c24.139,332.945-32.152,657.901-162.793,939.741C2449.413,1844.117,2385.111,1949.524,2310.348,2045.577z"/>
						<path style="fill:#FCFDFE;" d="M2772.538,2165.259c-168.732-40.792-443.858-20.265-613.302,45.761l-1.596-4.093
							c170.154-66.305,446.46-86.916,615.935-45.943L2772.538,2165.259z"/>
						<path style="fill:#FCFDFE;" d="M1995.165,2347.249c-5.53,7.104-11.387,13.931-17.59,20.5l-3.194-3.019
							c64.878-68.728,92.52-167.587,82.169-293.879c-7.59-92.618-35.064-197.551-81.652-311.884l4.073-1.661
							c46.757,114.752,74.333,220.12,81.961,313.185C2070.402,2186.05,2048.287,2278.999,1995.165,2347.249z"/>
						<path style="fill:#FCFDFE;" d="M2944.84,1490.793c-130.973,16.56-311.191,64.598-425.982,199.422l-3.35-2.847
							c115.707-135.901,297.038-184.28,428.78-200.933L2944.84,1490.793z"/>
						<path style="fill:#FCFDFE;" d="M2638.573,1299.588l-4.392,0.03c-0.646-86.26-28.442-259.354-207.353-449.435l3.2-3.015
							C2609.969,1038.34,2637.925,1212.678,2638.573,1299.588z"/>
					</g>
				</g>
			</g>
		</g>
		<g>
			<g>
				<defs>
					<path id="SVGID_00000135678498012854524440000017815048064340686985_" d="M1848.069,2802.442
						c112.916-18,225.658-38.435,338.134-61.294c1.876,1.516,33.423-229.761-86.483-348.152
						c-236.992-229.254-86.28-442.726-44.856-568.2c66.872-177.114,25.24-389.772-180.437-345.405
						c-200.488,38.705-240.432-348.567-212.93-648.151c26.129-146.081-124.778-319.446-272.079-356.67
						c-150.459-41.511-297.309,53.118-335.963,344.011c-61.019,337.155,205.635,534.028,306.64,700.269
						c99.373,163.191-119.237,301.578,62.879,444.172c153.353,126.882,344.921,216.366,279.633,381.225
						C1635.377,2507.297,1655.613,2639.002,1848.069,2802.442z"/>
				</defs>
				<clipPath id="SVGID_00000126287280587885615630000005996837428093728937_">
					<use xlink:href="#SVGID_00000135678498012854524440000017815048064340686985_"  style="overflow:visible;"/>
				</clipPath>
				
					<linearGradient id="SVGID_00000100351702768612008540000003933950545170456252_" gradientUnits="userSpaceOnUse" x1="4455.5981" y1="4359.2515" x2="3690.3647" y2="6534.127" gradientTransform="matrix(0.8559 -0.5171 0.5171 0.8559 -4666.8926 -908.6732)">
					<stop  offset="0" style="stop-color:#FF9085"/>
					<stop  offset="1" style="stop-color:#FB6FBB"/>
				</linearGradient>
				
					<path style="clip-path:url(#SVGID_00000126287280587885615630000005996837428093728937_);fill:url(#SVGID_00000100351702768612008540000003933950545170456252_);" d="
					M1848.069,2802.442c112.916-18,225.658-38.435,338.134-61.294c1.876,1.516,33.423-229.761-86.483-348.152
					c-236.992-229.254-86.28-442.726-44.856-568.2c66.16-176.969,24.518-366.197-166.367-364.953
					c-211.809-2.499-258.129-329.545-227-628.603c26.129-146.081-124.778-319.446-272.079-356.67
					c-150.459-41.511-297.309,53.118-335.963,344.011c-61.019,337.155,205.635,534.028,306.64,700.269
					c99.373,163.191-119.237,301.578,62.879,444.172c153.353,126.882,344.921,216.366,279.633,381.225
					C1635.377,2507.297,1655.613,2639.002,1848.069,2802.442z"/>
				<g style="clip-path:url(#SVGID_00000126287280587885615630000005996837428093728937_);">
					<path style="fill:#FCFDFE;" d="M1999.687,2812.937l5.044-0.192c-0.016-2.048-120-484.596-318.178-952.684
						c-27.631-75.86-57.507-152.334-86.4-226.293c-77.367-198.028-157.368-402.798-197.962-607.506
						c-45.374-228.8-36.203-435.933,28.034-633.235l-4.833-1.381c-64.477,198.049-73.692,405.913-28.167,635.478
						c40.669,205.095,120.746,410.055,198.183,608.266c28.887,73.935,58.751,150.385,86.405,226.303
						C1880.416,2330.785,1999.33,2810.08,1999.687,2812.937z"/>
					<path style="fill:#FCFDFE;" d="M1454.968,1251.15l3.678-3.238c-129.489-128.662-286.41-312.086-370.717-410.628
						c-67.868-79.332-68.283-79.254-71.096-78.78l0.446,2.326l-1.017,2.111c0.004,0.003,0.013,0.008,0.016,0.01
						c3.51,2.245,31.847,35.367,67.712,77.289C1168.338,938.833,1325.339,1122.351,1454.968,1251.15z"/>
					<path style="fill:#BEB8F2;" d="M1407.597,1071.025l5.421,0.707c41.944-281.911,230.546-398.897,246.759-401.492
						c-0.007,0.001-0.658,0.099-1.399-0.342l2.942-4.323c-1.465-0.873-3.235-0.395-5.981,0.797
						C1612.997,684.682,1446.875,807.028,1407.597,1071.025z"/>
					<path style="fill:#BEB8F2;" d="M1799.9,2166.644l5.422-0.719c-21.198-139.59,10.003-290.896,92.743-449.714
						c43.153-82.841,98.781-164.279,165.326-242.058c4.842-5.657,6.545-7.662,7.095-8.596l-4.799-2.475
						c-0.407,0.665-3.263,4.003-6.57,7.867c-66.801,78.074-122.642,159.837-165.976,243.015
						C1809.916,1873.718,1778.546,2026.023,1799.9,2166.644z"/>
					<path style="fill:#FCFDFE;" d="M1319.464,1812.26l0.745-2.23l0.262,2.308c2.702-0.15,286.551,8.825,425.047,207.998
						l4.234-2.575c-140.883-202.62-427.853-210.69-430.246-210.04l-1.825,2.254L1319.464,1812.26z"/>
					<path style="fill:#BEB8F2;" d="M1978.644,2734.239l5.466-0.304c-3.866-60.849,16.892-165.173,137.741-316.614
						c6.68-8.37,6.68-8.37,6.431-9.747l-5.4,0.851l2.7-0.425l-2.517-0.953c-0.359,0.639-2.791,3.682-5.602,7.205
						C1995.625,2566.934,1974.722,2672.535,1978.644,2734.239z"/>
					<path style="fill:#BEB8F2;" d="M1947.114,2620.092l5.222-1.54c-15.506-46.138-74.283-135.93-293.754-218.893
						c-3.02-1.141-4.961-1.868-5.655-2.186l-2.391,4.615c0.732,0.331,2.793,1.116,5.995,2.326
						C1873.889,2486.575,1931.895,2574.814,1947.114,2620.092z"/>
				</g>
			</g>
		</g>
		<g>
			
				<linearGradient id="SVGID_00000075125274233033830230000017827777261367256713_" gradientUnits="userSpaceOnUse" x1="2514.438" y1="2520.0054" x2="1605.5305" y2="1744.6653">
				<stop  offset="0" style="stop-color:#444B8C"/>
				<stop  offset="0.9964" style="stop-color:#26264F"/>
			</linearGradient>
			<path style="fill:url(#SVGID_00000075125274233033830230000017827777261367256713_);" d="M2293.22,892.871v1910.667
				c0,28.573-23.779,35.226-50.757,36.704l-933.958,69.386l-14.289,0.786c-29.334,1.613-53.388-21.52-53.388-51.409V860.279
				c0-29.89,24.054-53.545,53.388-52.57l19.391,0.645l937.245,74.086C2277.826,883.324,2293.22,864.298,2293.22,892.871z"/>
			
				<linearGradient id="SVGID_00000144298263241972868150000000296429665668324782_" gradientUnits="userSpaceOnUse" x1="1745.4104" y1="-59.6812" x2="1819.7942" y2="2779.2146">
				<stop  offset="0" style="stop-color:#444B8C"/>
				<stop  offset="0.9964" style="stop-color:#26264F"/>
			</linearGradient>
			<path style="fill:url(#SVGID_00000144298263241972868150000000296429665668324782_);" d="M2321.996,892.845v1910.093
				c0,28.564-22.011,53.145-48.972,54.628l-949.428,52.209c-29.316,1.612-53.355-21.514-53.355-51.394V860.263
				c0-29.88,24.04-53.529,53.355-52.554l949.428,31.573C2299.985,840.179,2321.996,864.281,2321.996,892.845z"/>
			
				<linearGradient id="SVGID_00000181776528559107802040000009692836150434468492_" gradientUnits="userSpaceOnUse" x1="1845.9323" y1="806.4677" x2="1663.1395" y2="4839.3301">
				<stop  offset="0" style="stop-color:#AA80F9"/>
				<stop  offset="0.9964" style="stop-color:#6165D7"/>
			</linearGradient>
			<path style="fill:url(#SVGID_00000181776528559107802040000009692836150434468492_);" d="M2291.982,997.919v1770.019
				c0,26.666-20.78,49.594-45.97,50.943l-892.83,47.517c-27.277,1.437-49.702-20.155-49.702-47.984V971.882
				c0-18.457,9.784-34.411,24.369-42.829c7.418-4.293,16.028-6.617,25.213-6.371l892.953,25.421
				C2271.205,948.829,2291.982,971.224,2291.982,997.919z"/>
			
				<linearGradient id="SVGID_00000177450650085105617530000002936095160927987383_" gradientUnits="userSpaceOnUse" x1="1844.8468" y1="830.4146" x2="1664.1604" y2="4816.8071">
				<stop  offset="0" style="stop-color:#AA80F9"/>
				<stop  offset="0.9964" style="stop-color:#6165D7"/>
			</linearGradient>
			<path style="opacity:0.3;fill:url(#SVGID_00000177450650085105617530000002936095160927987383_);" d="M2291.982,2632.565v135.373
				c0,26.666-20.78,49.594-45.97,50.943l-892.83,47.517c-27.277,1.437-49.702-20.155-49.702-47.984V971.882
				c0-18.457,9.784-34.411,24.369-42.829c73.394,25.025,287.939,144.368,305.142,688.995
				C1649.88,2151.668,2178.742,2275.075,2291.982,2632.565z"/>
			
				<linearGradient id="SVGID_00000013155237601321170530000012217918743935072691_" gradientUnits="userSpaceOnUse" x1="1780.8318" y1="-63.2471" x2="1855.4183" y2="2783.3894">
				<stop  offset="0" style="stop-color:#444B8C"/>
				<stop  offset="0.9964" style="stop-color:#26264F"/>
			</linearGradient>
			<path style="fill:url(#SVGID_00000013155237601321170530000012217918743935072691_);" d="M1590.954,865.3l-0.989,66.173
				c-0.351,23.456,17.795,42.784,40.534,43.17l348.807,5.921c22.848,0.388,41.659-18.365,42.012-41.885l0.996-66.354L1590.954,865.3
				z"/>
			<path style="fill:#DE8BDF;" d="M1779.422,916.261c0,10.114-7.883,18.075-17.614,17.782c-9.74-0.294-17.641-8.743-17.641-18.873
				c0-10.129,7.901-18.09,17.641-17.781C1771.539,897.698,1779.422,906.147,1779.422,916.261z"/>
			<path style="fill:#DE8BDF;" d="M1875.233,920.992c0,10.12-7.892,18.086-17.636,17.792c-9.751-0.294-17.662-8.749-17.662-18.885
				c0-10.135,7.911-18.101,17.662-17.791C1867.34,902.417,1875.233,910.872,1875.233,920.992z"/>
			<g style="opacity:0.8;">
				<g style="opacity:0.3;">
					
						<linearGradient id="SVGID_00000067948556385858365490000011817436933161121667_" gradientUnits="userSpaceOnUse" x1="1474.6619" y1="1785.9237" x2="2081.2571" y2="1785.9237">
						<stop  offset="0" style="stop-color:#FFC444"/>
						<stop  offset="0.9964" style="stop-color:#F36F56"/>
					</linearGradient>
					<path style="fill:url(#SVGID_00000067948556385858365490000011817436933161121667_);" d="M2065.608,1824.784l-569.538-0.635
						c-9.142-0.01-17.193-7.896-17.979-17.632l-3.366-41.673c-0.795-9.846,6.038-17.815,15.259-17.781l574.381,2.154
						c8.857,0.033,16.148,7.89,16.29,17.53l0.6,40.806C2081.395,1817.087,2074.392,1824.793,2065.608,1824.784z"/>
					
						<linearGradient id="SVGID_00000139290158686804832670000005678074207341493683_" gradientUnits="userSpaceOnUse" x1="1519.0248" y1="1950.1522" x2="2044.9355" y2="1950.1522">
						<stop  offset="0" style="stop-color:#FFC444"/>
						<stop  offset="0.9964" style="stop-color:#F36F56"/>
					</linearGradient>
					<path style="fill:url(#SVGID_00000139290158686804832670000005678074207341493683_);" d="M1519.025,1839.692l62.516,200.049
						c3.863,12.366,15.166,20.958,27.417,20.872l369.268-2.585c11.933-0.083,22.12-8.702,24.727-20.932l41.983-197.097
						L1519.025,1839.692z M1669.476,2028.673c0.478,7.794-5.186,14.142-12.649,14.19l-12.884,0.082
						c-7.474,0.048-13.953-6.23-14.467-14.035l-10.188-154.869c-0.533-8.093,5.227-14.665,12.858-14.666l13.155-0.001
						c7.62-0.001,14.2,6.561,14.695,14.643L1669.476,2028.673z M1741.453,2028.247c0.414,7.776-5.271,14.107-12.698,14.155
						l-12.82,0.082c-7.437,0.047-13.834-6.215-14.283-14.001l-8.911-154.486c-0.466-8.073,5.317-14.628,12.91-14.629l13.089-0.001
						c7.582-0.001,14.076,6.544,14.505,14.606L1741.453,2028.247z M1813.074,2027.823c0.35,7.757-5.356,14.073-12.747,14.121
						l-12.757,0.082c-7.4,0.047-13.716-6.201-14.102-13.968l-7.646-154.104c-0.4-8.052,5.406-14.591,12.96-14.592l13.023-0.001
						c7.544-0.001,13.953,6.528,14.317,14.569L1813.074,2027.823z M1884.342,2027.401c0.287,7.738-5.441,14.039-12.794,14.087
						l-12.694,0.081c-7.364,0.047-13.6-6.186-13.922-13.935l-6.394-153.725c-0.334-8.032,5.493-14.554,13.01-14.555l12.958-0.001
						c7.506-0.001,13.832,6.512,14.13,14.532L1884.342,2027.401z M1955.259,2026.982c0.226,7.719-5.524,14.005-12.841,14.052
						l-12.632,0.081c-7.327,0.047-13.483-6.172-13.743-13.901l-5.154-153.347c-0.269-8.012,5.58-14.518,13.059-14.519l12.893-0.001
						c7.468-0.001,13.712,6.495,13.946,14.496L1955.259,2026.982z"/>
					<g>
						<g>
							
								<linearGradient id="SVGID_00000037668816096416477470000000352097467445541544_" gradientUnits="userSpaceOnUse" x1="1538.4396" y1="1709.0786" x2="1580.2235" y2="1709.0786">
								<stop  offset="0" style="stop-color:#FFC444"/>
								<stop  offset="0.9964" style="stop-color:#F36F56"/>
							</linearGradient>
							<path style="fill:url(#SVGID_00000037668816096416477470000000352097467445541544_);" d="M1574.206,1726.086
								c-8.079,8.067-21.272,7.043-29.495-2.3c-8.243-9.367-8.382-23.557-0.283-31.681c8.109-8.134,21.371-7.077,29.595,2.347
								C1582.225,1703.853,1582.295,1718.01,1574.206,1726.086z"/>
							
								<linearGradient id="SVGID_00000167385774188576367150000001566798475444669608_" gradientUnits="userSpaceOnUse" x1="1557.4237" y1="1614.8463" x2="1749.4977" y2="1614.8463">
								<stop  offset="0" style="stop-color:#FFC444"/>
								<stop  offset="0.9964" style="stop-color:#F36F56"/>
							</linearGradient>
							<path style="fill:url(#SVGID_00000167385774188576367150000001566798475444669608_);" d="M1747.668,1520.679
								c-3.134-3.777-9.201-3.312-13.547,1.042l-172.869,173.15c-4.236,4.243-5.085,10.63-1.901,14.264
								c3.181,3.63,9.188,3.142,13.42-1.09l172.7-172.673C1749.813,1531.03,1750.798,1524.453,1747.668,1520.679z"/>
						</g>
						<g>
							
								<linearGradient id="SVGID_00000048463449045291971750000017141794516141435820_" gradientUnits="userSpaceOnUse" x1="1973.6031" y1="1711.2782" x2="2014.0485" y2="1711.2782">
								<stop  offset="0" style="stop-color:#FFC444"/>
								<stop  offset="0.9964" style="stop-color:#F36F56"/>
							</linearGradient>
							<path style="fill:url(#SVGID_00000048463449045291971750000017141794516141435820_);" d="M1980.978,1727.908
								c8.603,8.024,21.315,7.124,28.42-2.006c7.115-9.143,5.938-23.105-2.658-31.189c-8.616-8.103-21.397-7.215-28.52,1.989
								C1971.108,1705.892,1972.355,1719.866,1980.978,1727.908z"/>
							
								<linearGradient id="SVGID_00000017477140905581796520000010674557028556203164_" gradientUnits="userSpaceOnUse" x1="1789.452" y1="1616.2157" x2="1995.2477" y2="1616.2157">
								<stop  offset="0" style="stop-color:#FFC444"/>
								<stop  offset="0.9964" style="stop-color:#F36F56"/>
							</linearGradient>
							<path style="fill:url(#SVGID_00000017477140905581796520000010674557028556203164_);" d="M1790.808,1521.179
								c2.77-3.703,8.865-3.096,13.608,1.353l186.258,174.72c4.507,4.228,5.923,10.531,3.169,14.08
								c-2.753,3.547-8.635,3.007-13.142-1.208l-186.31-174.211C1789.646,1531.478,1788.04,1524.88,1790.808,1521.179z"/>
						</g>
					</g>
				</g>
				<g>
					<path style="fill:#FFFFFF;" d="M2074.202,1816.115l-570.557-0.241c-9.158-0.004-17.219-7.896-18.003-17.647l-3.354-41.736
						c-0.792-9.861,6.056-17.847,15.294-17.82l575.41,1.755c8.874,0.027,16.174,7.891,16.312,17.547l0.582,40.872
						C2090.022,1808.395,2083.002,1816.119,2074.202,1816.115z"/>
					<path style="fill:#FFFFFF;" d="M1526.633,1831.425l62.538,200.318c3.865,12.383,15.183,20.98,27.456,20.886l369.925-2.837
						c11.954-0.092,22.163-8.731,24.782-20.982l42.15-197.442L1526.633,1831.425z M1677.266,2020.599
						c0.475,7.806-5.201,14.167-12.677,14.22l-12.907,0.091c-7.487,0.053-13.975-6.231-14.486-14.048l-10.139-155.105
						c-0.53-8.106,5.243-14.692,12.887-14.698l13.178-0.01c7.634-0.006,14.222,6.561,14.715,14.655L1677.266,2020.599z
						 M1749.369,2020.124c0.411,7.787-5.287,14.133-12.727,14.186l-12.843,0.091c-7.45,0.053-13.856-6.216-14.303-14.014
						l-8.859-154.722c-0.463-8.085,5.333-14.655,12.939-14.661l13.112-0.01c7.595-0.006,14.098,6.545,14.524,14.619
						L1749.369,2020.124z M1821.118,2019.652c0.348,7.769-5.372,14.099-12.775,14.151l-12.78,0.09
						c-7.413,0.052-13.738-6.201-14.121-13.98l-7.591-154.343c-0.396-8.065,5.422-14.618,12.99-14.624l13.046-0.01
						c7.557-0.006,13.976,6.528,14.336,14.583L1821.118,2019.652z M1892.513,2019.182c0.285,7.75-5.457,14.065-12.823,14.117
						l-12.717,0.09c-7.377,0.052-13.621-6.187-13.94-13.947l-6.336-153.964c-0.331-8.045,5.51-14.582,13.04-14.587l12.981-0.01
						c7.52-0.006,13.855,6.512,14.149,14.546L1892.513,2019.182z M1963.559,2018.713c0.222,7.731-5.54,14.031-12.871,14.083
						l-12.655,0.089c-7.341,0.052-13.505-6.172-13.762-13.914l-5.094-153.588c-0.266-8.025,5.597-14.545,13.09-14.551l12.916-0.01
						c7.482-0.006,13.734,6.496,13.964,14.51L1963.559,2018.713z"/>
					<g>
						<g>
							<path style="fill:#FFFFFF;" d="M1581.96,1717.602c-8.097,8.085-21.313,7.069-29.546-2.283
								c-8.254-9.376-8.387-23.588-0.27-31.731c8.126-8.152,21.412-7.103,29.646,2.331
								C1590.003,1695.327,1590.067,1709.507,1581.96,1717.602z"/>
							<path style="fill:#FFFFFF;" d="M1755.821,1511.741c-3.138-3.781-9.216-3.311-13.572,1.052l-173.252,173.553
								c-4.246,4.253-5.099,10.651-1.91,14.288c3.185,3.633,9.202,3.14,13.444-1.101l173.083-173.075
								C1757.965,1522.107,1758.956,1515.518,1755.821,1511.741z"/>
						</g>
						<g>
							<path style="fill:#FFFFFF;" d="M1989.462,1719.141c8.615,8.031,21.35,7.121,28.473-2.029
								c7.133-9.163,5.96-23.147-2.649-31.239c-8.628-8.11-21.433-7.211-28.573,2.013
								C1979.584,1697.096,1980.827,1711.092,1989.462,1719.141z"/>
							<path style="fill:#FFFFFF;" d="M1799.039,1512.21c2.776-3.711,8.883-3.107,13.632,1.345l186.518,174.874
								c4.513,4.231,5.929,10.543,3.168,14.1c-2.759,3.555-8.651,3.018-13.166-1.201l-186.57-174.363
								C1797.87,1522.526,1796.264,1515.919,1799.039,1512.21z"/>
						</g>
					</g>
				</g>
			</g>
		</g>
		<g>
			
				<linearGradient id="SVGID_00000025429359770868389070000010583629973158984099_" gradientUnits="userSpaceOnUse" x1="3201.0725" y1="2897.8789" x2="2475.8521" y2="2279.2324">
				<stop  offset="0" style="stop-color:#444B8C"/>
				<stop  offset="0.9964" style="stop-color:#26264F"/>
			</linearGradient>
			<path style="fill:url(#SVGID_00000025429359770868389070000010583629973158984099_);" d="M3060.043,1627.524v1456.265
				c0,21.777-20.785,27.106-44.362,28.525l-813.341,62.781l-12.4,0.748c-25.453,1.534-46.32-15.775-46.32-38.468V1619.866
				c0-22.693,20.868-41.048,46.32-40.789l16.828,0.171l816.245,41.016C3046.586,1620.499,3060.043,1605.746,3060.043,1627.524z"/>
			
				<linearGradient id="SVGID_00000048469600546766441060000008571260956516673163_" gradientUnits="userSpaceOnUse" x1="-1365.6427" y1="3988.3469" x2="1250.0873" y2="4085.6497" gradientTransform="matrix(0 -1 1 0 -1389.0323 1734.3226)">
				<stop  offset="0" style="stop-color:#444B8C"/>
				<stop  offset="0.9964" style="stop-color:#26264F"/>
			</linearGradient>
			<path style="fill:url(#SVGID_00000048469600546766441060000008571260956516673163_);" d="M3085.201,1627.035v1455.982
				c0,21.773-19.244,40.748-42.812,42.169l-826.952,49.862c-25.443,1.534-46.302-15.772-46.302-38.461V1619.376
				c0-22.689,20.859-41.04,46.302-40.781l826.952,8.417C3065.957,1587.251,3085.201,1605.262,3085.201,1627.035z"/>
			<path style="fill:#FFFFFF;" d="M3020.726,1738.663V2978.7c0,18.682-16.322,34.967-36.106,36.182l-699.501,42.756
				c-21.318,1.293-38.842-13.557-38.842-33.002V1734.4c0-12.896,7.645-24.183,19.043-30.271c5.797-3.105,12.526-4.851,19.705-4.81
				l699.598,5.099C3004.406,1704.567,3020.726,1719.961,3020.726,1738.663z"/>
			<path style="fill:#FFFFFF;" d="M2667.057,1647.906c0,15.463-13.385,27.882-29.905,27.738
				c-16.529-0.144-29.936-12.81-29.936-28.289s13.407-27.898,29.936-27.737C2653.672,1619.778,2667.057,1632.443,2667.057,1647.906z
				"/>
			<path style="opacity:0.2;fill:#ACB4BF;" d="M3020.726,2883.861v94.839c0,18.682-16.322,34.967-36.106,36.182l-699.501,42.756
				c-21.318,1.293-38.842-13.557-38.842-33.002V1734.4c0-12.896,7.645-24.183,19.043-30.271
				c57.368,16.449,225.197,96.871,238.662,477.516C2517.202,2554.628,2931.8,2634.74,3020.726,2883.861z"/>
		</g>
		<g>
			
				<linearGradient id="SVGID_00000114039287879201250770000013374093883789348513_" gradientUnits="userSpaceOnUse" x1="2774.3813" y1="923.8165" x2="2720.9919" y2="1689.9514" gradientTransform="matrix(0.9976 0.0685 -0.0685 0.9976 -291.2641 -77.3934)">
				<stop  offset="0" style="stop-color:#FF9085"/>
				<stop  offset="1" style="stop-color:#FB6FBB"/>
			</linearGradient>
			<path style="fill:url(#SVGID_00000114039287879201250770000013374093883789348513_);" d="M2768.537,1373.278l-87.582,11.31
				l-13.296,1.708c0,0-1.108-2.949-3.207-8.461c-0.975-2.796-2.415-6.145-4.064-10.1c-1.574-4.004-3.674-8.457-5.985-13.499
				c-4.737-9.984-10.802-22.052-18.905-35.303c-8.086-13.231-18.003-27.772-30.25-42.635c-12.211-14.861-26.68-30.056-43.374-44.74
				c-8.483-7.189-17.28-14.526-26.851-21.287c-1.179-0.871-2.376-1.744-3.555-2.615c-1.217-0.838-2.453-1.658-3.67-2.496
				c-2.454-1.658-4.924-3.336-7.393-5.032c-5.1-3.133-10.144-6.532-15.469-9.519c-21.066-12.452-44.249-23.111-68.783-31.6
				c-12.279-4.201-24.928-7.727-37.768-10.817l-9.716-2.05c-1.612-0.326-3.272-0.727-4.833-1.014l-4.737-0.828l-4.735-0.846
				c-1.579-0.27-3.084-0.57-4.937-0.788l-10.602-1.428l-1.334-0.182l-0.609-0.804l-0.129-0.736l-0.16-0.011l-2.366,0.457
				l-5.016-0.151c-3.316-0.336-6.659-0.55-9.987-0.707l-9.997-0.58c-3.352-0.086-6.687-0.146-10.019-0.249
				c-13.339-0.269-26.679,0.004-39.882,1.143l-4.964,0.389l-4.921,0.547c-3.275,0.368-6.565,0.701-9.825,1.123
				c-6.512,0.971-13.016,1.819-19.424,3.102c-6.429,1.066-12.744,2.572-19.068,3.933c-3.139,0.754-6.249,1.582-9.354,2.374
				c-1.554,0.396-3.107,0.792-4.66,1.188c-1.539,0.451-3.06,0.903-4.582,1.356c-12.299,3.41-24.117,7.661-35.625,12.095
				c-5.708,2.337-11.375,4.587-16.846,7.138c-5.551,2.401-10.871,5.107-16.184,7.686c-21.071,10.618-40.066,22.653-56.813,34.878
				c-16.766,12.26-31.187,24.861-43.332,36.738c-12.144,11.877-21.943,23.053-29.771,32.48c-3.846,4.763-7.334,9.012-10.108,12.807
				c-2.827,3.791-5.289,6.962-7.169,9.759c-0.997,1.439-1.873,2.69-2.629,3.77c-1.592,2.278-4.523,3.118-7.039,2.119
				c-0.35-0.132-0.68-0.298-1.007-0.5l-0.413-0.263c-2.684-1.692-3.575-5.2-2.002-7.965c0.635-1.142,1.391-2.471,2.249-3.993
				c1.582-2.907,3.84-6.505,6.446-10.724c2.541-4.314,5.717-8.997,9.223-14.305c7.148-10.496,16.234-23.051,27.725-36.66
				c11.507-13.573,25.387-28.239,41.887-42.887c16.497-14.613,35.5-29.358,57.059-42.905c5.435-3.325,10.896-6.774,16.641-9.917
				c5.65-3.311,11.55-6.352,17.507-9.444c11.992-5.999,24.459-11.84,37.551-16.865c1.624-0.642,3.25-1.303,4.892-1.944
				c1.657-0.604,3.314-1.209,4.97-1.795c3.332-1.19,6.667-2.433,10.031-3.585c6.79-2.155,13.61-4.469,20.614-6.322
				c6.947-2.073,14.044-3.722,21.184-5.476c3.575-0.813,7.179-1.518,10.804-2.292l5.426-1.099l5.47-0.953
				c14.618-2.676,29.529-4.381,44.562-5.503c3.769-0.244,7.536-0.47,11.306-0.713l11.333-0.335c3.798-0.152,7.583-0.09,11.369-0.063
				l5.708,0.033l2.836,0.015l3.185,0.147l10.689,0.429c1.703,0.027,3.721,0.201,5.667,0.353l5.875,0.457l5.874,0.475
				c1.964,0.153,3.795,0.422,5.702,0.625c3.776,0.439,7.571,0.861,11.347,1.3c15.061,2.129,30.029,4.827,44.741,8.351
				c29.37,7.098,57.738,17.018,84.037,29.345c6.638,2.951,12.992,6.368,19.398,9.554c3.133,1.706,6.247,3.41,9.362,5.114
				c1.539,0.86,3.096,1.72,4.636,2.563c1.518,0.894,3.018,1.805,4.536,2.7c12.177,6.994,23.549,14.723,34.548,22.409
				c21.74,15.712,41.021,32.458,57.649,49.149c16.646,16.691,30.562,33.392,42.125,48.801s20.566,29.671,27.681,41.615
				c3.502,6.004,6.635,11.372,9.106,16.173c2.544,4.771,4.743,8.836,6.343,12.213
				C2756.176,1344.924,2768.537,1373.278,2768.537,1373.278z"/>
			
				<linearGradient id="SVGID_00000165919835578394752970000005878260065368059299_" gradientUnits="userSpaceOnUse" x1="2730.7407" y1="973.6303" x2="2685.7236" y2="1619.6241" gradientTransform="matrix(0.9976 0.0685 -0.0685 0.9976 -291.2641 -77.3934)">
				<stop  offset="0" style="stop-color:#FF9085"/>
				<stop  offset="1" style="stop-color:#FB6FBB"/>
			</linearGradient>
			<path style="opacity:0.3;fill:url(#SVGID_00000165919835578394752970000005878260065368059299_);" d="M2681.379,1380.757
				c-0.035,1.308-0.178,2.591-0.424,3.831l-13.296,1.708c0,0-1.108-2.949-3.207-8.461c-0.975-2.796-2.415-6.145-4.064-10.1
				c-1.574-4.004-3.674-8.457-5.985-13.499c-4.737-9.984-10.802-22.052-18.905-35.303c-8.086-13.231-18.003-27.772-30.25-42.635
				c-12.211-14.861-26.68-30.056-43.374-44.74c-8.483-7.189-17.28-14.526-26.851-21.287c-1.179-0.871-2.376-1.744-3.555-2.615
				c-1.217-0.838-2.453-1.658-3.67-2.496c-2.454-1.658-4.924-3.336-7.393-5.032c-5.1-3.133-10.144-6.532-15.469-9.519
				c-21.066-12.452-44.249-23.111-68.783-31.6c-12.279-4.201-24.928-7.727-37.768-10.817l-9.716-2.05
				c-1.612-0.326-3.272-0.727-4.833-1.014l-4.737-0.828l-4.735-0.846c-1.579-0.27-3.084-0.57-4.937-0.788l-10.602-1.428
				l-1.334-0.182l-0.609-0.804l-0.129-0.736l-0.16-0.011l-2.366,0.457l-5.016-0.151c-3.316-0.336-6.659-0.55-9.987-0.707
				l-9.997-0.58c-3.352-0.086-6.687-0.146-10.019-0.249c-13.339-0.269-26.679,0.004-39.882,1.143l-4.964,0.389l-4.921,0.547
				c-3.275,0.368-6.565,0.701-9.825,1.123c-6.512,0.971-13.016,1.819-19.424,3.102c-6.429,1.066-12.744,2.572-19.068,3.933
				c-3.139,0.754-6.249,1.582-9.354,2.374c-1.554,0.396-3.107,0.792-4.66,1.188c-1.539,0.451-3.06,0.903-4.582,1.356
				c-12.299,3.41-24.117,7.661-35.625,12.095c-5.708,2.337-11.375,4.587-16.846,7.138c-5.551,2.401-10.871,5.107-16.184,7.686
				c-21.071,10.618-40.066,22.653-56.813,34.878c-16.766,12.26-31.187,24.861-43.332,36.738
				c-12.144,11.877-21.943,23.053-29.771,32.48c-3.846,4.763-7.334,9.012-10.108,12.807c-2.827,3.791-5.289,6.962-7.169,9.759
				c-0.997,1.439-1.873,2.69-2.629,3.77c-1.592,2.278-4.523,3.118-7.039,2.119c25.62-35.818,145.229-188.504,324.526-188.937
				C2504.646,1123.479,2684.894,1269.721,2681.379,1380.757z"/>
			
				<linearGradient id="SVGID_00000062166785173617434320000000509930952291468705_" gradientUnits="userSpaceOnUse" x1="3105.8596" y1="946.4066" x2="3052.1072" y2="1717.7523" gradientTransform="matrix(0.9976 0.0685 -0.0685 0.9976 -291.2641 -77.3934)">
				<stop  offset="0" style="stop-color:#FF9085"/>
				<stop  offset="1" style="stop-color:#FB6FBB"/>
			</linearGradient>
			<polygon style="fill:url(#SVGID_00000062166785173617434320000000509930952291468705_);" points="2804.525,1375.625 
				2726.719,1557.124 2601.97,1345.38 			"/>
			
				<linearGradient id="SVGID_00000031904046915706342640000010579342745292166020_" gradientUnits="userSpaceOnUse" x1="3105.8596" y1="946.4066" x2="3052.1072" y2="1717.7523" gradientTransform="matrix(0.9976 0.0685 -0.0685 0.9976 -291.2641 -77.3934)">
				<stop  offset="0" style="stop-color:#FF9085"/>
				<stop  offset="1" style="stop-color:#FB6FBB"/>
			</linearGradient>
			<polygon style="opacity:0.3;fill:url(#SVGID_00000031904046915706342640000010579342745292166020_);" points="2804.525,1375.625 
				2726.719,1557.124 2601.97,1345.38 			"/>
			
				<linearGradient id="SVGID_00000002343538350951019070000010141065608129475004_" gradientUnits="userSpaceOnUse" x1="3118.3413" y1="947.7277" x2="3064.6501" y2="1718.1912" gradientTransform="matrix(0.9976 0.0685 -0.0685 0.9976 -291.2641 -77.3934)">
				<stop  offset="0" style="stop-color:#FF9085"/>
				<stop  offset="1" style="stop-color:#FB6FBB"/>
			</linearGradient>
			<polygon style="fill:url(#SVGID_00000002343538350951019070000010141065608129475004_);" points="2817.034,1376.484 
				2728.059,1557.216 2614.41,1347.238 			"/>
		</g>
		<g>
			
				<linearGradient id="SVGID_00000085243427016306221510000011385443824972959127_" gradientUnits="userSpaceOnUse" x1="1164.3102" y1="3212.4177" x2="1112.4592" y2="3956.4763" gradientTransform="matrix(-0.974 0.2265 -0.2265 -0.974 3986.9448 5884.0723)">
				<stop  offset="0" style="stop-color:#FFC444"/>
				<stop  offset="0.9964" style="stop-color:#F36F56"/>
			</linearGradient>
			<path style="fill:url(#SVGID_00000085243427016306221510000011385443824972959127_);" d="M1698.895,2805.058l78.123-35.401
				l11.862-5.366c0,0,1.867,2.424,5.383,6.946c1.7,2.32,3.99,5.02,6.645,8.225c2.6,3.271,5.816,6.809,9.396,10.835
				c7.237,7.926,16.3,17.409,27.592,27.412c11.271,9.989,24.614,20.674,40.213,30.996c15.565,10.33,33.322,20.329,52.999,29.22
				c9.922,4.265,20.177,8.578,30.988,12.137c1.342,0.474,2.702,0.944,4.045,1.417c1.368,0.432,2.749,0.843,4.118,1.275
				c2.75,0.842,5.521,1.698,8.296,2.572c5.627,1.46,11.277,3.182,17.072,4.443c23.104,5.576,47.664,8.884,72.862,9.794
				c12.598,0.411,25.347,0.09,38.15-0.691l9.605-0.858c1.59-0.155,3.245-0.255,4.776-0.432l4.634-0.577l4.638-0.56
				c1.543-0.198,3.027-0.347,4.809-0.672l10.252-1.688l1.291-0.21l0.777,0.5l0.312,0.573l0.152-0.035l2.084-1.023l4.71-1.249
				c3.175-0.631,6.345-1.363,9.48-2.164l9.451-2.294c3.137-0.873,6.252-1.761,9.376-2.612c12.464-3.542,24.777-7.585,36.714-12.396
				l4.5-1.771l4.415-1.906c2.937-1.272,5.898-2.517,8.806-3.836c5.772-2.753,11.571-5.389,17.157-8.403
				c5.667-2.818,11.104-6.012,16.591-9.073c2.701-1.593,5.353-3.246,8.013-4.864c1.33-0.809,2.66-1.619,3.99-2.428
				c1.301-0.856,2.585-1.709,3.87-2.561c10.452-6.663,20.219-13.971,29.646-21.36c4.636-3.793,9.26-7.494,13.615-11.418
				c4.473-3.808,8.645-7.833,12.845-11.738c16.55-15.851,30.77-32.427,42.848-48.542c12.086-16.152,21.897-31.954,29.799-46.436
				c7.901-14.483,13.825-27.647,18.416-38.627c2.218-5.516,4.25-10.454,5.747-14.767c1.548-4.324,2.933-7.969,3.883-11.101
				c0.516-1.62,0.975-3.031,1.37-4.248c0.831-2.568,3.314-4.181,5.935-3.969c0.363,0.023,0.716,0.084,1.077,0.178l0.458,0.126
				c2.973,0.809,4.798,3.813,4.124,6.828c-0.265,1.241-0.589,2.69-0.954,4.348c-0.643,3.149-1.718,7.133-2.938,11.792
				c-1.133,4.729-2.751,9.981-4.499,15.906c-3.655,11.78-8.524,26.022-15.327,41.928c-6.828,15.876-15.55,33.442-26.709,51.736
				c-11.167,18.26-24.623,37.356-40.795,56.066c-4.102,4.633-8.194,9.389-12.636,13.94c-4.306,4.681-8.921,9.183-13.574,13.747
				c-9.432,8.981-19.349,17.948-30.079,26.337c-1.326,1.058-2.648,2.134-3.99,3.196c-1.367,1.032-2.734,2.065-4.106,3.08
				c-2.756,2.052-5.5,4.155-8.297,6.181c-5.694,3.931-11.369,8.019-17.347,11.731c-5.862,3.9-11.985,7.449-18.117,11.107
				c-3.089,1.772-6.236,3.451-9.383,5.2l-4.726,2.563l-4.809,2.44c-12.815,6.641-26.178,12.463-39.82,17.779
				c-3.431,1.297-6.866,2.578-10.297,3.876l-10.43,3.533c-3.484,1.221-7.017,2.239-10.541,3.291l-5.31,1.591l-2.638,0.792l-3,0.769
				l-10.049,2.64c-1.589,0.459-3.512,0.871-5.363,1.283l-5.586,1.246l-5.59,1.228c-1.867,0.416-3.644,0.687-5.473,1.041
				c-3.632,0.666-7.276,1.353-10.908,2.018c-14.592,2.304-29.26,4.053-43.925,4.963c-29.294,1.757-58.458,0.608-86.387-3.364
				c-7.003-0.854-13.876-2.22-20.731-3.359c-3.394-0.693-6.771-1.391-10.148-2.088c-1.674-0.361-3.364-0.718-5.034-1.062
				c-1.664-0.399-3.316-0.819-4.98-1.218c-13.297-3.034-26.055-6.979-38.455-10.991c-24.656-8.412-47.323-18.483-67.51-29.257
				c-20.204-10.769-37.875-22.323-52.994-33.346s-27.534-21.709-37.537-30.779c-4.959-4.58-9.394-8.675-13.054-12.431
				c-3.719-3.708-6.917-6.858-9.362-9.539C1718.435,2827.876,1698.895,2805.058,1698.895,2805.058z"/>
			
				<linearGradient id="SVGID_00000030478193588442335370000011638682242936719001_" gradientUnits="userSpaceOnUse" x1="1121.9268" y1="3260.7964" x2="1078.2069" y2="3888.1753" gradientTransform="matrix(-0.974 0.2265 -0.2265 -0.974 3986.9448 5884.0723)">
				<stop  offset="0" style="stop-color:#FFC444"/>
				<stop  offset="0.9964" style="stop-color:#F36F56"/>
			</linearGradient>
			<path style="opacity:0.3;fill:url(#SVGID_00000030478193588442335370000011638682242936719001_);" d="M1777.713,2773.335
				c-0.339-1.225-0.571-2.457-0.695-3.678l11.862-5.366c0,0,1.867,2.424,5.383,6.946c1.7,2.32,3.99,5.02,6.645,8.225
				c2.6,3.271,5.816,6.809,9.396,10.835c7.237,7.926,16.3,17.409,27.592,27.412c11.271,9.989,24.614,20.674,40.213,30.996
				c15.565,10.33,33.322,20.329,52.999,29.22c9.922,4.265,20.177,8.578,30.988,12.137c1.342,0.474,2.702,0.944,4.045,1.417
				c1.368,0.432,2.749,0.843,4.118,1.275c2.75,0.842,5.521,1.698,8.296,2.572c5.627,1.46,11.277,3.182,17.072,4.443
				c23.104,5.576,47.664,8.884,72.862,9.794c12.598,0.411,25.347,0.09,38.15-0.691l9.605-0.858c1.59-0.155,3.245-0.255,4.776-0.432
				l4.634-0.577l4.638-0.56c1.543-0.198,3.027-0.347,4.809-0.672l10.252-1.688l1.291-0.21l0.777,0.5l0.312,0.573l0.152-0.035
				l2.084-1.023l4.71-1.249c3.175-0.631,6.345-1.363,9.48-2.164l9.451-2.294c3.137-0.873,6.252-1.761,9.376-2.612
				c12.464-3.542,24.777-7.585,36.714-12.396l4.5-1.771l4.415-1.906c2.937-1.272,5.898-2.517,8.806-3.836
				c5.772-2.753,11.571-5.389,17.157-8.403c5.667-2.818,11.104-6.012,16.591-9.073c2.701-1.593,5.353-3.246,8.013-4.864
				c1.33-0.809,2.66-1.619,3.99-2.428c1.301-0.856,2.585-1.709,3.87-2.561c10.452-6.663,20.219-13.971,29.646-21.36
				c4.636-3.793,9.26-7.494,13.615-11.418c4.473-3.808,8.645-7.833,12.845-11.738c16.55-15.851,30.77-32.427,42.848-48.542
				c12.086-16.152,21.897-31.954,29.799-46.436c7.901-14.483,13.825-27.647,18.416-38.627c2.218-5.516,4.25-10.454,5.747-14.767
				c1.548-4.324,2.933-7.969,3.883-11.101c0.516-1.62,0.975-3.031,1.37-4.248c0.831-2.568,3.314-4.181,5.935-3.969
				c-13.611,40.547-81.288,216.347-247.679,267.718C2014.981,2962.03,1806.013,2877.453,1777.713,2773.335z"/>
			
				<linearGradient id="SVGID_00000111162819458005250450000010259187765140366269_" gradientUnits="userSpaceOnUse" x1="1486.2397" y1="3234.3567" x2="1434.0355" y2="3983.4858" gradientTransform="matrix(-0.974 0.2265 -0.2265 -0.974 3986.9448 5884.0723)">
				<stop  offset="0" style="stop-color:#FFC444"/>
				<stop  offset="0.9964" style="stop-color:#F36F56"/>
			</linearGradient>
			<polygon style="fill:url(#SVGID_00000111162819458005250450000010259187765140366269_);" points="1664.806,2813.108 
				1685.471,2622.432 1861.517,2783.616 			"/>
			
				<linearGradient id="SVGID_00000126285564278716312890000000428274719574625210_" gradientUnits="userSpaceOnUse" x1="1486.2397" y1="3234.3567" x2="1434.0355" y2="3983.4858" gradientTransform="matrix(-0.974 0.2265 -0.2265 -0.974 3986.9448 5884.0723)">
				<stop  offset="0" style="stop-color:#FFC444"/>
				<stop  offset="0.9964" style="stop-color:#F36F56"/>
			</linearGradient>
			<polygon style="opacity:0.3;fill:url(#SVGID_00000126285564278716312890000000428274719574625210_);" points="1664.806,2813.108 
				1685.471,2622.432 1861.517,2783.616 			"/>
			
				<linearGradient id="SVGID_00000008122664779735026530000012380587831446346928_" gradientUnits="userSpaceOnUse" x1="1498.3616" y1="3235.6401" x2="1446.2172" y2="3983.9119" gradientTransform="matrix(-0.974 0.2265 -0.2265 -0.974 3986.9448 5884.0723)">
				<stop  offset="0" style="stop-color:#FFC444"/>
				<stop  offset="0.9964" style="stop-color:#F36F56"/>
			</linearGradient>
			<polygon style="fill:url(#SVGID_00000008122664779735026530000012380587831446346928_);" points="1652.945,2815.866 
				1684.2,2622.727 1849.436,2785.427 			"/>
		</g>
		<g>
			
				<linearGradient id="SVGID_00000044166186835288433210000002066036432243028132_" gradientUnits="userSpaceOnUse" x1="599.1943" y1="3097.6021" x2="616.3063" y2="3405.6204" gradientTransform="matrix(-1 0 0 1 1716.9987 0)">
				<stop  offset="0" style="stop-color:#444B8C"/>
				<stop  offset="0.9964" style="stop-color:#26264F"/>
			</linearGradient>
			<path style="fill:url(#SVGID_00000044166186835288433210000002066036432243028132_);" d="M1074.94,3207.128
				c0,0-2.14,17.028-0.704,22.731c1.438,5.705,50.942,9.827,67.747,7.843c16.803-1.982-10.01-19.147-20.716-22.367
				C1110.562,3212.113,1074.94,3207.128,1074.94,3207.128z"/>
			
				<linearGradient id="SVGID_00000024004155557001282900000006118623734764398763_" gradientUnits="userSpaceOnUse" x1="631.512" y1="3249.3982" x2="622.4218" y2="2833.5281" gradientTransform="matrix(-1 0 0 1 1716.9987 0)">
				<stop  offset="0" style="stop-color:#FFC444"/>
				<stop  offset="0.9964" style="stop-color:#F36F56"/>
			</linearGradient>
			<path style="fill:url(#SVGID_00000024004155557001282900000006118623734764398763_);" d="M1099.86,3178.725l-5.218,34.161
				c0,0-13.306,5.98-19.703,0.07l-0.704-35.757L1099.86,3178.725z"/>
			
				<linearGradient id="SVGID_00000029739260924587063870000004808639419934438053_" gradientUnits="userSpaceOnUse" x1="908.9093" y1="3080.4019" x2="926.0204" y2="3388.4048" gradientTransform="matrix(-1 0 0 1 1716.9987 0)">
				<stop  offset="0" style="stop-color:#444B8C"/>
				<stop  offset="0.9964" style="stop-color:#26264F"/>
			</linearGradient>
			<path style="fill:url(#SVGID_00000029739260924587063870000004808639419934438053_);" d="M820.786,3177.199
				c0,0,10.505,7.795,7.704,17.13c-2.799,9.335-27.311,46.739-44.779,57.355c-17.467,10.616-11.992-11.501-6.909-25.277
				c5.083-13.777,18.073-44.121,23.142-49.208C805.015,3172.114,820.786,3177.199,820.786,3177.199z"/>
			
				<linearGradient id="SVGID_00000172412204334122546250000002291888285024292276_" gradientUnits="userSpaceOnUse" x1="904.1917" y1="3243.4373" x2="895.1015" y2="2827.5745" gradientTransform="matrix(-1 0 0 1 1716.9987 0)">
				<stop  offset="0" style="stop-color:#FFC444"/>
				<stop  offset="0.9964" style="stop-color:#F36F56"/>
			</linearGradient>
			<path style="fill:url(#SVGID_00000172412204334122546250000002291888285024292276_);" d="M839.681,3139.67
				c-5.078,14.153-9.962,25.789-13.783,34.372c-8.451,18.989-13.071,26.114-18.302,32.291c-4.563,5.38-15.363,16.861-18.266,14.949
				c-2.949-1.937,4.954-15.895,20.182-56.775c2.213-5.931,9.199-24.837,9.199-24.837l0,0H839.681z"/>
			
				<linearGradient id="SVGID_00000097459710012876915290000007224628682062877338_" gradientUnits="userSpaceOnUse" x1="499.4782" y1="2979.104" x2="672.1887" y2="2747.3081" gradientTransform="matrix(-1 0 0 1 1716.9987 0)">
				<stop  offset="0" style="stop-color:#AA80F9"/>
				<stop  offset="0.9964" style="stop-color:#6165D7"/>
			</linearGradient>
			<path style="fill:url(#SVGID_00000097459710012876915290000007224628682062877338_);" d="M1203.533,2548.26
				c3.622,35.576,7.099,90.792,1.901,157.806c-6.774,87.311-24.232,142.56-46.126,235.655
				c-13.381,56.892-31.411,140.627-47.727,245.35c-3.785,2.167-14.922,7.865-29.263,5.738c-8.028-1.193-14.033-4.384-17.579-6.679
				c-42.808-130.809-30.164-211.87-9.506-262.374c8.805-21.528,19.482-38.511,25.189-71.603c7.551-43.782-1.786-68.257-15.1-169.672
				c-9.491-72.283-7.847-83.457-1.533-94.296C1089.031,2544.844,1166.235,2545.691,1203.533,2548.26z"/>
			<path style="fill:#FFFFFF;" d="M1469.756,2182.22c0,0,6.008-23.564,16.007-29.786c9.998-6.219,24.131-12.87,27.369-15.601
				c3.238-2.733,7.02,5.435-2.311,11.685c-9.329,6.25-9.329,6.25-9.329,6.25c-0.195,1.724,0.067,3.065,0.382,4.009
				c1.478,4.425,6.52,7.457,12.752,8.031c23.941,5.014,33.295,5.259,36.947,4.19c0.542-0.159,2.624-0.834,3.504,0.091
				c1.408,1.484-1.124,6.187-2.205,7.835c-6.478,9.893-28.962,14.196-45.797,6.458c-6.149-2.824-8.503-5.859-12.99-5.097
				c-7.125,1.209-11.502,10.609-14.091,18.391L1469.756,2182.22z"/>
			
				<linearGradient id="SVGID_00000070808314694848519900000013969959404676452516_" gradientUnits="userSpaceOnUse" x1="627.7761" y1="3007.8706" x2="1032.2821" y2="2630.6348" gradientTransform="matrix(-1 0 0 1 1716.9987 0)">
				<stop  offset="0" style="stop-color:#AA80F9"/>
				<stop  offset="0.9964" style="stop-color:#6165D7"/>
			</linearGradient>
			<path style="fill:url(#SVGID_00000070808314694848519900000013969959404676452516_);" d="M1056.186,2563.472
				c-26.224,135.43-51.963,206.561-71.441,246.793c-4.803,9.921-20.83,41.932-35.979,87.825
				c-13.413,40.621-19.002,70.504-21.865,83.657c-9.042,41.513-31.386,102.127-91.512,181.628
				c-0.749,0.442-11.002,6.24-20.802,1.072c-4.96-2.618-7.433-6.79-8.416-8.735c7.861-76.009,16.884-139.882,24.715-189.176
				c1.645-10.339,8.881-55.574,20.231-115.336c4.442-23.388,10.95-57.655,18.747-92.853c9.706-43.831,24.591-103.46,47.531-174.912
				C963.658,2576.778,1009.922,2570.127,1056.186,2563.472z"/>
			
				<linearGradient id="SVGID_00000080902309264239613530000003429748631058703525_" gradientUnits="userSpaceOnUse" x1="1164.6129" y1="2152.2825" x2="1489.0658" y2="2152.2825">
				<stop  offset="0" style="stop-color:#FF9085"/>
				<stop  offset="1" style="stop-color:#FB6FBB"/>
			</linearGradient>
			<path style="fill:url(#SVGID_00000080902309264239613530000003429748631058703525_);" d="M1489.066,2189.692
				c-6.817-6.06-13.635-12.119-20.452-18.179c-2.495,2.521-38.889,38.035-89.764,27.27c-35.03-7.413-55.234-36.18-68.176-54.54
				c-38.872-55.152-15.624-95.618-57.478-133.093c-11.623-10.406-34.422-23.007-49.329-19.164
				c-35.516,9.155-55.964,115.966-21.59,199.98c6.938,16.957,45.143,110.327,131.807,120.443
				C1384.057,2320.575,1458.257,2271.273,1489.066,2189.692z"/>
			
				<linearGradient id="SVGID_00000047755989586776284000000001404176510175336617_" gradientUnits="userSpaceOnUse" x1="910.3793" y1="2332.5029" x2="790.6003" y2="2162.8162" gradientTransform="matrix(-1 0 0 1 1716.9987 0)">
				<stop  offset="0" style="stop-color:#444B8C"/>
				<stop  offset="0.9964" style="stop-color:#26264F"/>
			</linearGradient>
			<path style="fill:url(#SVGID_00000047755989586776284000000001404176510175336617_);" d="M1078.526,2027.79
				c14.872-13.747,43.325-29.595,57.596-66.437c4.297-11.089,19.515-50.38-2.935-80.436c-13.324-17.842-38.074-29.957-59.89-25.668
				c-18.642,3.665-21.556,16.649-53.233,42.78c-12.331,10.17-32.15,26.519-54.208,35.608c-37.791,15.575-60.496,0.92-98.435,2.591
				c-46.61,2.055-100.756,28.067-126.843,65.894c-46.302,67.137,20.771,135.241-29.944,213.892
				c-16.618,25.767-24.809,19.99-64.167,69.871c-39.412,49.947-59.118,74.917-55.612,105.52c4.867,42.472,50.614,83.043,93.693,85.8
				c42.081,2.697,68.831-30.411,90.255-15.929c15.249,10.304,6.53,30.35,22.725,54.44c20.876,31.06,61.909,37.25,68.536,38.246
				c61.51,9.279,144.444-62.848,179.669-148.298C1109.247,2251.574,997.671,2102.529,1078.526,2027.79z"/>
			
				<linearGradient id="SVGID_00000140727407738461995530000008587364028360829360_" gradientUnits="userSpaceOnUse" x1="521.5092" y1="2995.5193" x2="694.2194" y2="2763.7239" gradientTransform="matrix(-1 0 0 1 1716.9987 0)">
				<stop  offset="0" style="stop-color:#AA80F9"/>
				<stop  offset="0.9964" style="stop-color:#6165D7"/>
			</linearGradient>
			<path style="opacity:0.3;fill:url(#SVGID_00000140727407738461995530000008587364028360829360_);" d="M1055.235,2923.756
				c8.805-21.529,19.482-38.513,25.189-71.603c7.551-43.782-1.786-68.257-15.1-169.672c-9.491-72.283-7.847-83.457-1.533-94.296
				c13.717-23.552,42.785-34.004,72.451-38.272c-0.396,1.521-0.796,3.045-1.118,4.517c-15.565,71.083,43.838,114.455,17.043,192.594
				c-13.209,38.525-34.289,47.349-39.199,92.037c-4.601,41.861,12.085,50.582,8.521,88.628
				c-5.327,56.875-45.731,70.639-56.244,114.193c-6.831,28.302-1.078,69.684,48.816,129.585c-0.83,5.161-1.656,10.338-2.478,15.604
				c-3.787,2.167-14.922,7.865-29.263,5.738c-8.028-1.193-14.033-4.384-17.579-6.679
				C1021.933,3055.321,1034.577,2974.26,1055.235,2923.756z"/>
			
				<linearGradient id="SVGID_00000006692466828903583810000017813629182616179597_" gradientUnits="userSpaceOnUse" x1="227.9329" y1="2192.1885" x2="552.3846" y2="2192.1885" gradientTransform="matrix(-1 0 0 1 1716.9987 0)">
				<stop  offset="0" style="stop-color:#FF9085"/>
				<stop  offset="1" style="stop-color:#FB6FBB"/>
			</linearGradient>
			<path style="opacity:0.3;fill:url(#SVGID_00000006692466828903583810000017813629182616179597_);" d="M1211.82,2094.248
				c64.051,50.59,56.922,147.622,96.298,152.541c12.027,1.503,11.365-7.717,40.053-17.043c41.958-13.641,61.67,0.138,91.184-10.227
				c12.224-4.292,28.124-13.461,43.784-35.094c1.976,1.757,3.952,3.512,5.927,5.268c-30.809,81.581-105.009,130.883-174.982,122.715
				c-86.663-10.115-124.869-103.485-131.807-120.443c-16.129-39.421-20.187-83.86-16.282-120.875
				C1180.78,2075.404,1196.839,2082.415,1211.82,2094.248z"/>
			
				<linearGradient id="SVGID_00000116221324004836441790000016948756419845709455_" gradientUnits="userSpaceOnUse" x1="617.8625" y1="2349.5977" x2="1266.0996" y2="2349.5977">
				<stop  offset="0" style="stop-color:#FF9085"/>
				<stop  offset="1" style="stop-color:#FB6FBB"/>
			</linearGradient>
			<path style="fill:url(#SVGID_00000116221324004836441790000016948756419845709455_);" d="M1258.285,2017.55
				c-3.925-6.097-16.404-22.99-69.36-35.44c-26.541-6.239-75.611-16.93-138.758-3.549c-86.728,18.376-140.742,70.417-161.072,92.291
				c16.648,10.84,62.587,43.915,85.338,106.663c7.079,19.522,27.992,86.264-1.917,148.777
				c-17.232,36.022-47.717,63.064-70.869,83.608c-34.728,30.806-52.712,35.542-64.354,63.142
				c-12.678,30.055,0.097,44.711-15.648,65.287c-16.909,22.096-36.721,11.825-65.382,34.172
				c-29.36,22.887-18.912,41.726-45.63,67.021c-38.823,36.75-90.291,24.814-92.686,41.351
				c-2.062,14.226,34.516,33.526,65.594,41.353c61.543,15.501,115.224-10.517,131.186-18.538
				c44.196-22.203,36.561-36.573,70.257-53.501c56.421-28.342,94.98,3.197,223.488,6.444c69.592,1.761,104.78,2.156,124.057-21.388
				c17.606-21.507,8.351-45.097-2.214-146.762c0,0,0-0.003-0.001-0.012c-3.395-33.953-10.504-105.041-10.547-145.552
				c-0.026-23.941,8.277-63.058,24.883-141.294c0.98-4.615,9.967-46.881,17.228-103.344
				C1268.415,2047.435,1267.468,2031.821,1258.285,2017.55z"/>
			<g style="opacity:0.3;">
				
					<linearGradient id="SVGID_00000016074809086589938930000005219959724170855056_" gradientUnits="userSpaceOnUse" x1="781.116" y1="1973.0597" x2="879.9813" y2="2577.6606" gradientTransform="matrix(-1 0 0 1 1716.9987 0)">
					<stop  offset="0" style="stop-color:#FF9085"/>
					<stop  offset="1" style="stop-color:#FB6FBB"/>
				</linearGradient>
				<path style="fill:url(#SVGID_00000016074809086589938930000005219959724170855056_);" d="M710.632,2639.521
					c26.718-25.295,16.271-44.134,45.63-67.021c28.661-22.347,48.473-12.076,65.382-34.172
					c15.745-20.576,2.969-35.232,15.648-65.287c11.642-27.601,29.626-32.334,64.354-63.143
					c23.152-20.542,53.637-47.584,70.869-83.607c29.909-62.512,8.996-129.254,1.917-148.777
					c-22.751-62.748-68.69-95.823-85.338-106.663c1.602-1.728,3.493-3.694,5.515-5.765
					c109.681,15.073,173.631,78.449,181.539,97.216c18.283,43.378-10.66,59.317-11.407,184.425
					c-0.356,59.8,6.094,83.412-13.308,108.373c-22.191,28.546-47.763,19.712-79.852,57.037
					c-24.657,28.674-20.708,46.856-43.73,58.938c-24.755,12.989-40.523-2.15-68.445,3.804
					c-46.647,9.948-56.619,63.733-87.458,93.159c-23.319,22.252-66.434,37.809-151.466,21.111c-1.966-2.863-2.917-5.659-2.536-8.278
					C620.344,2664.335,671.809,2676.271,710.632,2639.521z"/>
			</g>
			
				<linearGradient id="SVGID_00000183229940414827112970000016995674759515909309_" gradientUnits="userSpaceOnUse" x1="785.9196" y1="2163.0444" x2="1044.4857" y2="2163.0444">
				<stop  offset="0" style="stop-color:#FF9085"/>
				<stop  offset="1" style="stop-color:#FB6FBB"/>
			</linearGradient>
			<path style="fill:url(#SVGID_00000183229940414827112970000016995674759515909309_);" d="M1042.878,2196.049
				c11.659,24.76-41.918,82.427-101.466,109.81c-12.132,5.581-99.261,45.642-138.093,7.12
				c-32.087-31.834-11.379-97.657-3.986-121.156c36.303-115.391,147.792-174.089,194.515-195.26
				c34.87,87.188,14.333,126.04,6.25,138.171c-8.444,12.672-32.01,39.291-57.037,62.742c-17.606,16.493-28.569,24.52-27.094,27.093
				c1.835,3.202,22.471-2.845,102.624-41.86C1027.883,2184.215,1038.893,2187.595,1042.878,2196.049z"/>
			<path style="fill:#FFFFFF;" d="M1085.766,1910.762c0,0-5.531,44.22-21.852,54.352c-16.322,10.125-42.707,23.361-45.614,26.954
				c-2.906,3.588,101.108,14.772,152.654-11.24l0,0c-16.987-3.543-21.606-4.846-21.606-4.846c-4.61-1.303-13.21-3.727-21.832-8.64
				c-5.868-3.341-15.327-9.87-24.002-22.198l0.19-24.485L1085.766,1910.762z"/>
			<path style="fill:#FFFFFF;" d="M1083.284,1926.424c0,0,10.642,14.606,27.33,8.519c14.943-5.449,6.024-44.043-5.828-48.446
				c-3.953-1.469-11.213-0.819-16.066,2.209c-3.414,2.129-12.527,13.451-7.302,26.14c-3.775-1.094-7.098-0.101-7.929,1.769
				c-1.057,2.371,2.141,5.6,2.863,6.332C1078.861,1925.483,1081.888,1926.192,1083.284,1926.424z"/>
			<path style="fill:#FFFFFF;" d="M1022.634,2190.26c0,0,48.86-49.994,68.744-57.379c19.884-7.387,7.953,3.409,0,9.658
				c-7.954,6.249-13.254,8.303-9.184,17.786c4.071,9.485,11.463,17.902-0.188,25.339c-11.649,7.437-16.195,10.278-25.286,11.413
				c-9.089,1.137-9.089,1.137-9.089,1.137l-11.932,6.361C1035.7,2204.576,1020.361,2202.759,1022.634,2190.26z"/>
		</g>
		<g>
			
				<linearGradient id="SVGID_00000097490949277571200810000009645917778056516753_" gradientUnits="userSpaceOnUse" x1="2758.8628" y1="2526.364" x2="2469.0444" y2="2619.3755">
				<stop  offset="0" style="stop-color:#FCB148"/>
				<stop  offset="0.0521" style="stop-color:#FDBA46"/>
				<stop  offset="0.1424" style="stop-color:#FFC244"/>
				<stop  offset="0.3183" style="stop-color:#FFC444"/>
				<stop  offset="0.4849" style="stop-color:#FDB946"/>
				<stop  offset="0.7754" style="stop-color:#F99C4D"/>
				<stop  offset="0.8658" style="stop-color:#F8924F"/>
				<stop  offset="1" style="stop-color:#F8924F"/>
			</linearGradient>
			<path style="fill:url(#SVGID_00000097490949277571200810000009645917778056516753_);" d="M3092.505,2515.848
				c0,134.45-105.132,240.216-239.503,236.089c-139.84-4.294-257.45-125.067-257.45-269.593c0-144.525,117.61-249.44,257.45-234.879
				C2987.373,2261.457,3092.505,2381.397,3092.505,2515.848z"/>
			
				<linearGradient id="SVGID_00000152224288430285459150000007907649459668799917_" gradientUnits="userSpaceOnUse" x1="2993.3088" y1="2237.8787" x2="2734.5769" y2="2808.6899">
				<stop  offset="0" style="stop-color:#FFDB44"/>
				<stop  offset="1" style="stop-color:#FEEF06"/>
			</linearGradient>
			<path style="fill:url(#SVGID_00000152224288430285459150000007907649459668799917_);" d="M3128.815,2504.255
				c0,134.45-105.132,240.215-239.503,236.089c-139.84-4.294-257.45-125.067-257.45-269.592c0-144.526,117.61-249.44,257.45-234.879
				C3023.683,2249.864,3128.815,2369.805,3128.815,2504.255z"/>
			
				<linearGradient id="SVGID_00000138531925977953767930000017749958319839808187_" gradientUnits="userSpaceOnUse" x1="2945.7151" y1="2840.5928" x2="2895.7922" y2="2567.8657">
				<stop  offset="0" style="stop-color:#FCB148"/>
				<stop  offset="0.0521" style="stop-color:#FDBA46"/>
				<stop  offset="0.1424" style="stop-color:#FFC244"/>
				<stop  offset="0.3183" style="stop-color:#FFC444"/>
				<stop  offset="0.4849" style="stop-color:#FDB946"/>
				<stop  offset="0.7754" style="stop-color:#F99C4D"/>
				<stop  offset="0.8658" style="stop-color:#F8924F"/>
				<stop  offset="1" style="stop-color:#F8924F"/>
			</linearGradient>
			<path style="fill:url(#SVGID_00000138531925977953767930000017749958319839808187_);" d="M3118.268,2503.544
				c0,128.53-100.592,229.467-228.956,225.31c-133.346-4.318-245.304-119.576-245.304-257.283s111.958-237.87,245.304-224.208
				C3017.676,2260.514,3118.268,2375.014,3118.268,2503.544z"/>
			
				<linearGradient id="SVGID_00000158025208648067106530000006968396425947519647_" gradientUnits="userSpaceOnUse" x1="2839.8691" y1="2399.1541" x2="3045.6079" y2="2835.8984">
				<stop  offset="0" style="stop-color:#FCB148"/>
				<stop  offset="0.0521" style="stop-color:#FDBA46"/>
				<stop  offset="0.1424" style="stop-color:#FFC244"/>
				<stop  offset="0.3183" style="stop-color:#FFC444"/>
				<stop  offset="0.4849" style="stop-color:#FDB946"/>
				<stop  offset="0.7754" style="stop-color:#F99C4D"/>
				<stop  offset="0.8658" style="stop-color:#F8924F"/>
				<stop  offset="1" style="stop-color:#F8924F"/>
			</linearGradient>
			<path style="fill:url(#SVGID_00000158025208648067106530000006968396425947519647_);" d="M3110.714,2503.035
				c0,124.289-97.335,221.777-221.402,217.612c-128.715-4.322-236.653-115.642-236.653-248.493s107.938-229.617,236.653-216.584
				C3013.379,2268.133,3110.714,2378.746,3110.714,2503.035z"/>
			<g>
				
					<linearGradient id="SVGID_00000134942285994758409420000005640243282615956405_" gradientUnits="userSpaceOnUse" x1="2831.6721" y1="2305.1724" x2="2935.1248" y2="2692.8943">
					<stop  offset="0" style="stop-color:#FFDB44"/>
					<stop  offset="1" style="stop-color:#FEEF06"/>
				</linearGradient>
				<path style="fill:url(#SVGID_00000134942285994758409420000005640243282615956405_);" d="M2888.042,2297.854L2888.042,2297.854
					c6.603,0.628,11.946,6.571,11.946,13.276v22.884c13.201,1.474,26.421,3.769,39.661,6.88c9.761,2.294,19.457,5.025,29.088,8.191
					c5.771,1.897,9.703,7.723,9.114,13.732l-2.81,28.695c-0.746,7.613-8.271,12.084-15.356,8.925
					c-6.344-2.829-12.848-5.252-19.514-7.269c-11.632-3.52-23.899-5.814-36.807-6.878l-3.375-0.278v65.536
					c34.44,9.635,59.734,22.599,76.08,38.903c16.267,16.226,24.372,36.449,24.372,60.727c0,26.254-8.961,47.277-26.953,63.132
					c-18.089,15.939-43.449,24.904-76.244,26.845v25.257c0,6.708-5.347,11.933-11.956,11.67l-0.212-0.008
					c-6.621-0.263-11.998-5.934-11.998-12.665v-24.915l-5.322-0.24c-15.374-0.694-30.1-2.262-44.17-4.709
					c-10.42-1.813-20.595-4.152-30.524-7.02c-6.005-1.735-10.126-7.455-9.576-13.6l3.307-36.887
					c0.715-7.974,8.725-12.615,16.307-9.623c8.838,3.486,17.787,6.423,26.845,8.812c14.115,3.722,28.423,6.11,42.919,7.17
					l0.213-72.9c-33.059-8.18-57.81-20.297-74.072-36.345c-16.337-16.125-24.535-36.76-24.535-61.849
					c0-25.965,8.889-46.007,26.599-60.073c17.62-13.995,42.669-20.957,74.984-20.939v-23.395
					C2876.054,2302.168,2881.426,2297.224,2888.042,2297.854z M2876.054,2385.334c-10.217,0.743-18.185,3.549-23.887,8.422
					c-5.712,4.881-8.571,11.44-8.571,19.672c0,7.799,2.645,14.318,7.929,19.551c5.276,5.224,13.459,9.396,24.529,12.513V2385.334z
					 M2897.243,2517.34v66.852c11.107,0.022,19.624-2.63,25.569-7.948c5.935-5.309,8.899-12.808,8.899-22.503
					c0-8.841-2.754-16.172-8.27-22.002C2917.917,2525.898,2909.192,2521.1,2897.243,2517.34z"/>
			</g>
			
				<linearGradient id="SVGID_00000064349400031544176350000013442958480867766684_" gradientUnits="userSpaceOnUse" x1="2779.3413" y1="2427.418" x2="2984.665" y2="2863.2813">
				<stop  offset="0" style="stop-color:#FCB148"/>
				<stop  offset="0.0521" style="stop-color:#FDBA46"/>
				<stop  offset="0.1424" style="stop-color:#FFC244"/>
				<stop  offset="0.3183" style="stop-color:#FFC444"/>
				<stop  offset="0.4849" style="stop-color:#FDB946"/>
				<stop  offset="0.7754" style="stop-color:#F99C4D"/>
				<stop  offset="0.8658" style="stop-color:#F8924F"/>
				<stop  offset="1" style="stop-color:#F8924F"/>
			</linearGradient>
			<path style="opacity:0.3;fill:url(#SVGID_00000064349400031544176350000013442958480867766684_);" d="M2849.247,2533.471
				c7.48-73.881,75.38-105.157,66.519-173.117c-5.461-41.886-37.208-77.186-72.624-104.747
				c-107.419,11.265-190.484,100.211-190.484,216.547c0,132.851,107.938,244.171,236.653,248.493
				c12.497,0.419,24.703-0.23,36.571-1.786C2874.765,2667.994,2842.82,2596.944,2849.247,2533.471z"/>
		</g>
		<g>
			
				<linearGradient id="SVGID_00000154402621920504791060000008531024240734776755_" gradientUnits="userSpaceOnUse" x1="2432.031" y1="2057.981" x2="2191.8413" y2="2135.0652">
				<stop  offset="0" style="stop-color:#FCB148"/>
				<stop  offset="0.0521" style="stop-color:#FDBA46"/>
				<stop  offset="0.1424" style="stop-color:#FFC244"/>
				<stop  offset="0.3183" style="stop-color:#FFC444"/>
				<stop  offset="0.4849" style="stop-color:#FDB946"/>
				<stop  offset="0.7754" style="stop-color:#F99C4D"/>
				<stop  offset="0.8658" style="stop-color:#F8924F"/>
				<stop  offset="1" style="stop-color:#F8924F"/>
			</linearGradient>
			<path style="fill:url(#SVGID_00000154402621920504791060000008531024240734776755_);" d="M2708.541,2049.266
				c0,111.427-87.129,199.081-198.49,195.661c-115.894-3.559-213.364-103.65-213.364-223.427
				c0-119.777,97.47-206.726,213.364-194.658C2621.412,1838.437,2708.541,1937.839,2708.541,2049.266z"/>
			
				<linearGradient id="SVGID_00000121960228358944993770000012770119042191076775_" gradientUnits="userSpaceOnUse" x1="2626.3308" y1="1818.8959" x2="2411.9041" y2="2291.9614">
				<stop  offset="0" style="stop-color:#FFDB44"/>
				<stop  offset="1" style="stop-color:#FEEF06"/>
			</linearGradient>
			<path style="fill:url(#SVGID_00000121960228358944993770000012770119042191076775_);" d="M2738.633,2039.658
				c0,111.427-87.129,199.081-198.49,195.661c-115.894-3.559-213.365-103.65-213.365-223.427
				c0-119.777,97.471-206.726,213.365-194.659C2651.503,1828.829,2738.633,1928.231,2738.633,2039.658z"/>
			
				<linearGradient id="SVGID_00000149368287761607156270000008494678700112207513_" gradientUnits="userSpaceOnUse" x1="2586.887" y1="2318.4014" x2="2545.5127" y2="2092.376">
				<stop  offset="0" style="stop-color:#FCB148"/>
				<stop  offset="0.0521" style="stop-color:#FDBA46"/>
				<stop  offset="0.1424" style="stop-color:#FFC244"/>
				<stop  offset="0.3183" style="stop-color:#FFC444"/>
				<stop  offset="0.4849" style="stop-color:#FDB946"/>
				<stop  offset="0.7754" style="stop-color:#F99C4D"/>
				<stop  offset="0.8658" style="stop-color:#F8924F"/>
				<stop  offset="1" style="stop-color:#F8924F"/>
			</linearGradient>
			<path style="fill:url(#SVGID_00000149368287761607156270000008494678700112207513_);" d="M2729.892,2039.068
				c0,106.521-83.367,190.173-189.75,186.728c-110.512-3.579-203.298-99.1-203.298-213.226
				c0-114.126,92.786-197.137,203.298-185.814C2646.525,1837.655,2729.892,1932.548,2729.892,2039.068z"/>
			
				<linearGradient id="SVGID_00000085930049739750359470000007730476010623620790_" gradientUnits="userSpaceOnUse" x1="2499.166" y1="1952.5546" x2="2669.6741" y2="2314.5107">
				<stop  offset="0" style="stop-color:#FCB148"/>
				<stop  offset="0.0521" style="stop-color:#FDBA46"/>
				<stop  offset="0.1424" style="stop-color:#FFC244"/>
				<stop  offset="0.3183" style="stop-color:#FFC444"/>
				<stop  offset="0.4849" style="stop-color:#FDB946"/>
				<stop  offset="0.7754" style="stop-color:#F99C4D"/>
				<stop  offset="0.8658" style="stop-color:#F8924F"/>
				<stop  offset="1" style="stop-color:#F8924F"/>
			</linearGradient>
			<path style="fill:url(#SVGID_00000085930049739750359470000007730476010623620790_);" d="M2723.632,2038.646
				c0,103.006-80.667,183.8-183.489,180.348c-106.674-3.582-196.129-95.84-196.129-205.941s89.455-190.298,196.129-179.496
				C2642.964,1843.969,2723.632,1935.641,2723.632,2038.646z"/>
			<g>
				
					<linearGradient id="SVGID_00000166638659014082469980000005322753771048543374_" gradientUnits="userSpaceOnUse" x1="2492.3728" y1="1874.6663" x2="2578.1101" y2="2195.9946">
					<stop  offset="0" style="stop-color:#FFDB44"/>
					<stop  offset="1" style="stop-color:#FEEF06"/>
				</linearGradient>
				<path style="fill:url(#SVGID_00000166638659014082469980000005322753771048543374_);" d="M2539.09,1868.6L2539.09,1868.6
					c5.472,0.52,9.9,5.446,9.9,11.003v18.965c10.941,1.221,21.897,3.124,32.869,5.702c8.09,1.901,16.125,4.165,24.107,6.789
					c4.782,1.572,8.041,6.401,7.553,11.381l-2.329,23.782c-0.618,6.309-6.855,10.015-12.727,7.396
					c-5.257-2.344-10.648-4.353-16.172-6.024c-9.64-2.917-19.806-4.818-30.504-5.7l-2.797-0.23v54.313
					c28.543,7.985,49.505,18.729,63.052,32.241c13.482,13.448,20.198,30.208,20.198,50.328c0,21.759-7.426,39.181-22.337,52.322
					c-14.991,13.21-36.009,20.64-63.188,22.248v20.932c0,5.559-4.432,9.889-9.908,9.672l-0.175-0.007
					c-5.487-0.218-9.943-4.917-9.943-10.496v-20.649l-4.411-0.199c-12.741-0.575-24.946-1.875-36.606-3.903
					c-8.635-1.502-17.068-3.441-25.297-5.818c-4.976-1.437-8.392-6.178-7.936-11.271l2.741-30.571
					c0.592-6.609,7.23-10.454,13.515-7.975c7.325,2.889,14.741,5.323,22.248,7.303c11.698,3.085,23.556,5.064,35.57,5.942
					l0.176-60.417c-27.398-6.779-47.911-16.821-61.387-30.121c-13.54-13.363-20.334-30.465-20.334-51.258
					c0-21.518,7.367-38.128,22.044-49.786c14.603-11.598,35.362-17.368,62.144-17.354v-19.389
					C2529.155,1872.176,2533.607,1868.079,2539.09,1868.6z M2529.155,1941.101c-8.468,0.616-15.071,2.942-19.797,6.979
					c-4.734,4.045-7.104,9.481-7.104,16.304c0,6.463,2.192,11.866,6.571,16.203c4.373,4.33,11.155,7.787,20.329,10.371V1941.101z
					 M2546.715,2050.502v55.404c9.205,0.018,16.263-2.179,21.191-6.587c4.919-4.4,7.375-10.615,7.375-18.65
					c0-7.327-2.283-13.403-6.854-18.235C2563.848,2057.595,2556.618,2053.618,2546.715,2050.502z"/>
			</g>
			
				<linearGradient id="SVGID_00000028289018526668753990000002661100169455610248_" gradientUnits="userSpaceOnUse" x1="2449.0029" y1="1975.9785" x2="2619.167" y2="2337.2046">
				<stop  offset="0" style="stop-color:#FCB148"/>
				<stop  offset="0.0521" style="stop-color:#FDBA46"/>
				<stop  offset="0.1424" style="stop-color:#FFC244"/>
				<stop  offset="0.3183" style="stop-color:#FFC444"/>
				<stop  offset="0.4849" style="stop-color:#FDB946"/>
				<stop  offset="0.7754" style="stop-color:#F99C4D"/>
				<stop  offset="0.8658" style="stop-color:#F8924F"/>
				<stop  offset="1" style="stop-color:#F8924F"/>
			</linearGradient>
			<path style="opacity:0.3;fill:url(#SVGID_00000028289018526668753990000002661100169455610248_);" d="M2506.938,2063.871
				c6.199-61.23,62.472-87.151,55.128-143.472c-4.526-34.713-30.837-63.968-60.188-86.81
				c-89.025,9.336-157.865,83.051-157.865,179.465c0,110.102,89.455,202.359,196.129,205.941c10.357,0.348,20.473-0.191,30.309-1.48
				C2528.087,2175.359,2501.612,2116.475,2506.938,2063.871z"/>
		</g>
	</g>
</g>
</svg>
