<?xml version="1.0" encoding="utf-8"?>
<!-- Generator: Adobe Illustrator 27.5.0, SVG Export Plug-In . SVG Version: 6.00 Build 0)  -->
<svg version="1.1" xmlns="http://www.w3.org/2000/svg" xmlns:xlink="http://www.w3.org/1999/xlink" x="0px" y="0px"
	 viewBox="0 0 500 500" style="enable-background:new 0 0 500 500;" xml:space="preserve">
<g id="BACKGROUND">
	<rect style="fill:#F4E5CB;" width="500" height="500"/>
</g>
<g id="OBJECTS">
	<g>
		<g>
			<g>
				<g>
					<g>
						<circle style="fill:#64BCBC;" cx="249.095" cy="260.529" r="166.316"/>
					</g>
					<g>
						<path style="fill:#359BA5;" d="M316.606,127.92c2.669,2.986,7.409,2.144,11.384,1.654c3.974-0.49,9.248,0.644,9.724,4.62
							c0.176,1.469-0.426,2.919-1.147,4.212c-3.742,6.715-11.258,11.153-18.946,11.186c-9.502,0.041-19.084-6.048-28.013-2.797
							c-8.78,3.196-12.191,13.768-13.101,23.067c-0.542,5.536,1.849,13.382,7.292,12.236c1.183-0.249,2.407-0.953,3.518-0.478
							c1.132,0.485,1.453,1.89,1.961,3.012c2.363,5.217,10.37,5.026,14.779,1.371s6.493-9.32,9.523-14.18
							c3.03-4.86,8.178-9.412,13.811-8.375c2.731,0.503,5.4,2.96,4.859,5.684c-0.584,2.941-4.524,4.867-3.942,7.808
							c0.627,3.166,5.413,2.866,8.073,1.038c2.66-1.828,5.536-4.518,8.603-3.514c0.539,6.772-0.658,14.012-5.016,19.224
							c-4.357,5.212-12.414,7.633-18.261,4.174c-1.849-1.094-3.471-2.721-5.578-3.139c-5.067-1.005-8.683,5.241-13.735,6.32
							c-4.941,1.056-9.453-3.045-14.436-3.881c-9.335-1.567-16.315,8.071-20.81,16.401c-3.383,6.268-6.765,12.536-10.148,18.804
							c-3.17,5.874-6.443,12.415-4.977,18.926c1.466,6.511,10.395,11.228,15.046,6.441c3.966-4.082,2.236-11.96,6.884-15.244
							c6.002-4.241,13.844,4.249,21.066,2.89c4.37-0.823,7.15-4.956,10.194-8.198c3.044-3.242,8.171-5.875,11.719-3.193
							c5.366,4.057-0.427,13.228,2.636,19.218c3.357,6.565,13.295,3.987,19.589,0.145s15.316-7.73,20.085-2.106
							c3.832,4.52,1.239,11.324-1.065,16.783c-2.305,5.459-3.522,13.101,1.551,16.164c1.503,0.907,3.319,1.189,4.822,2.097
							c5.03,3.037,2.899,12.07-2.772,13.608c-5.671,1.537-11.687-3.377-12.701-9.165c-0.51-2.911-0.041-5.94-0.664-8.83
							s-2.955-5.824-5.898-5.55c-3.588,0.333-6.292,5.172-9.676,3.934c-0.897-0.328-1.582-1.045-2.325-1.645
							c-4.935-3.985-13.436-1.961-16.046,3.82s1.495,13.496,7.748,14.562c4.259,0.726,10.405-0.109,11.273,4.122
							c0.299,1.458-0.33,2.932-0.979,4.272c-3.108,6.423-7.069,12.685-7.882,19.774s2.881,15.408,9.89,16.746
							c3.031,0.579,6.36-0.184,9.11,1.217c3.53,1.798,4.544,6.868,2.581,10.308c-1.963,3.44-6.17,5.183-10.126,4.996
							c-2.732-0.129-5.525-1.042-8.142-0.25c-3.801,1.15-5.719,5.443-6.2,9.385c-0.481,3.942-0.027,8.04-1.274,11.811
							c-1.414,4.275-4.809,7.542-7.353,11.257s-4.241,8.764-1.924,12.625c3.931,6.552,15.681,4.648,22.19,0.647
							c41.913-25.769,62.491-57.95,75.659-97.672c7.13-21.509,7.101-46.996,4.328-69.486c-1.645-13.341-4.83-26.559-9.905-39.006
							c-24.723-60.639-72.93-82.949-76.611-84.398c-3.452-1.359-7.499-3.336-11.225-3.635c-3.687-0.296-7.283,2.101-5.228,5.93
							c1.143,2.129,2.841,3.779,3.69,6.091C314.854,123.839,315.07,126.201,316.606,127.92z"/>
					</g>
					<g>
						<path style="fill:#359BA5;" d="M295.61,420.252c2.139-5.189,0.055-11.723-4.967-14.229c-3.789-1.891-8.779-1.736-9.45-8.428
							c-0.346-3.45,0.952-6.818,3.232-9.431c3.947-4.526,7.542-14.635,1.438-17.629c-1.334-0.654-2.898-0.758-4.19-1.491
							c-3.094-1.755-3.288-6.259-1.974-9.565c1.683-4.233,5.12-7.731,4.924-12.668c-0.25-6.299-5.184-11.427-11.483-11.677
							c-3.834-0.152-7.724,1.283-11.323,2.814c-5.364,2.283-10.997,4.888-16.893,2.901c-2.937-0.99-5.299-3.389-5.787-6.45
							c-0.798-5.005,3.642-8.29,8.015-9.361c3.669-0.899,7.535-0.705,11.215-1.56c8.501-1.975,14.248-10.389,14.944-18.951
							c0.46-5.664-6.839-8.417-10.414-3.999l-10.154,12.545c-1.189,1.469-2.888,2.504-4.77,2.67
							c-6.125,0.54-6.946-7.609-11.352-10.904c-6.365,0.324-10.311,7.112-11.844,13.298c-1.533,6.186-2.099,13.094-6.489,17.714
							c-4.771-4.197-12.997-1.207-15.966,4.41c-2.969,5.617-1.973,12.508,0.045,18.533c2.017,6.025,4.988,11.804,5.848,18.099
							c0.643,4.705-0.069,9.907-3.772,13.16c-1.86,1.634-4.374,2.441-6.816,2.031c-6.277-1.056-6.025-8.707-10.628-11.252
							c-5.382-2.975-11.041,3.386-13.825,8.868c-5.232-1.228-11.462,4.229-7.939,10.483c0.952,1.69,4.348,6.557,6.096,7.397
							c19.791,9.509,37.422,16.607,59.307,18.241C252.936,427.488,270.719,427.383,295.61,420.252z"/>
					</g>
					<g>
						<path style="fill:#359BA5;" d="M171.969,299.635c-1.395,1.012-3.256,0.996-4.925,1.425c-4.573,1.174-7.512,5.668-9.041,10.136
							c-3.544,10.358-1.602,22.424,5.014,31.147c1.861,2.453,4.134,4.699,6.969,5.901c2.835,1.202,6.307,1.208,8.829-0.558
							c4.738-3.316,4.365-11.039,8.957-14.555c3.859-2.954,9.391-1.645,14.111-2.803c4.516-1.108,8.325-4.734,9.654-9.189
							c1.329-4.456,0.129-9.576-3.042-12.976c-1.297-1.391-2.893-2.51-3.99-4.063c-1.169-1.655-1.691-3.755-1.434-5.765
							c0.283-2.206,1.459-4.288,1.337-6.509c-0.448-8.184-10.588-6.11-15.741-5.868c-5.315,0.249-13.008-2.188-14.273,5.027
							C173.901,293.802,174.627,297.707,171.969,299.635z"/>
					</g>
					<g>
						<path style="fill:#359BA5;" d="M84.151,280.66c2.934,3,10.043,4.559,12.362,1.062c2.319-3.497,2.501-7.926,3.039-12.087
							c1.235-9.543,7.9-20.745,17.351-18.933c2.807,0.538,5.52,2.24,8.319,1.666c3.753-0.77,5.443-5.011,7.048-8.49
							c4.484-9.719,14.855-17.948,25.267-15.466c7.934,1.891,13.214,9.101,18.555,15.266c5.34,6.165,12.869,12.16,20.821,10.344
							c7.283-1.664,13.286-9.635,20.489-7.656c1.747,0.48,3.384,1.549,5.193,1.47c4.113-0.181,5.457-6.327,2.938-9.584
							c-2.52-3.257-6.907-4.269-10.914-5.218c-4.006-0.949-8.391-2.353-10.409-5.942c-5.1-9.074,9.669-18.021,9.258-28.422
							c-0.335-8.495-10.123-12.863-18.327-15.091c-8.205-2.228-18.056-5.982-19.14-14.414c-0.651-5.069,2.073-11.188-1.551-14.792
							c-5.682-5.651-15.799,4.712-22.87,0.939c-4.146-2.212-4.585-7.831-4.994-12.513c-0.409-4.682-0.025-8.865-4.714-9.187
							c-23.422,16.977-41.968,47.524-50.848,75.055S82.135,262.135,84.151,280.66z"/>
					</g>
					<g>
						<path style="fill:#359BA5;" d="M203.545,140.315c-3.934,4.658-7.108,11.777-3.238,16.488c3.122,3.8,9.125,3.688,12.89,6.85
							c3.189,2.678,4.131,7.091,5.599,10.988c1.468,3.897,4.416,8.009,8.58,7.968c5.096-0.05,7.842-6.145,8.036-11.237
							c0.194-5.092-0.759-10.649,2.013-14.925c2.711-4.183,8.113-5.658,13.078-6.104c4.965-0.445,10.16-0.237,14.677-2.345
							c7.588-3.542,11.062-13.29,8.804-21.354s-9.248-14.226-17.118-17.087c-6.177-2.245-12.351-2.173-18.804-2.418
							c-4.264-0.162-8.494-0.945-12.759-1.014c-3.391-0.055-6.545,0.64-9.11,2.98c-1.59,1.45-2.833,3.302-3.847,5.188
							c-1.766,3.284-1.076,5.735-0.543,9.227C212.856,130.399,207.617,135.493,203.545,140.315z"/>
					</g>
				</g>
				<g>
					<g>
						<g>
							<path style="fill:#FFFFFF;" d="M317.979,134.661l-4.018,0.043c-8.978,0.096-17.539,3.808-23.746,10.296l-101.602,99.522
								c-1.73,1.808-1.861,4.615-0.307,6.576v0c1.609,2.031,4.501,2.501,6.67,1.083L311.81,172.14
								c8.199-5.36,13.628-14.054,14.845-23.774l0.437-3.49C327.776,139.413,323.484,134.602,317.979,134.661z"/>
						</g>
						<g>
							<path style="fill:#359BA5;" d="M303.715,142.641c0,0,8.761,4.913,12.467,15.735c0,0,10.717-8.365,4.17-16.11
								C313.961,134.704,303.715,142.641,303.715,142.641z"/>
						</g>
						<g>
							
								<rect x="314.405" y="137.065" transform="matrix(0.621 0.7838 -0.7838 0.621 233.9544 -191.7804)" style="fill:#FFFFFF;" width="1.76" height="17.923"/>
						</g>
					</g>
					<g>
						<g>
							<g>
								<path style="fill:#FFFFFF;" d="M289.736,150.703l-64.72-25.024c-6.967-2.694-14.84-1.5-20.695,3.139l0,0l66.281,44.857
									L289.736,150.703z"/>
							</g>
							<g>
								<path style="fill:#FFFFFF;" d="M264.129,149.805l-4.173-5.267l7.705-6.105c1.454-1.152,3.568-0.907,4.72,0.547l0,0
									c1.152,1.454,0.907,3.568-0.547,4.72L264.129,149.805z"/>
							</g>
							<g>
								<path style="fill:#FFFFFF;" d="M244.227,141.918l-4.173-5.267l7.705-6.105c1.454-1.152,3.568-0.907,4.72,0.547l0,0
									c1.152,1.454,0.907,3.568-0.547,4.72L244.227,141.918z"/>
							</g>
						</g>
						<g>
							<g>
								<path style="fill:#FFFFFF;" d="M305.981,171.209l9.556,68.728c1.029,7.399-1.935,14.79-7.79,19.428v0l-28.507-74.784
									L305.981,171.209z"/>
							</g>
							<g>
								<path style="fill:#FFFFFF;" d="M300.998,196.342l4.173,5.267l7.705-6.105c1.454-1.152,1.699-3.265,0.547-4.72v0
									c-1.152-1.454-3.265-1.699-4.72-0.547L300.998,196.342z"/>
							</g>
							<g>
								<path style="fill:#FFFFFF;" d="M304.124,217.52l4.173,5.267l7.705-6.105c1.454-1.152,1.699-3.265,0.547-4.72l0,0
									c-1.152-1.454-3.265-1.699-4.72-0.547L304.124,217.52z"/>
							</g>
						</g>
					</g>
					<g>
						<g>
							<path style="fill:#FFFFFF;" d="M209.896,224.335l-21.299-8.974c-6.842-2.883-14.609-2.59-21.214,0.799l-9.294,4.769
								l34.123,22.765L209.896,224.335z"/>
						</g>
						<g>
							<path style="fill:#FFFFFF;" d="M216.04,232.09l3.865,22.787c1.241,7.32-0.82,14.814-5.63,20.469l-6.768,7.957l-14.356-38.426
								L216.04,232.09z"/>
						</g>
					</g>
					<g>
						<g>
							<path style="fill:#9FC1C0;" d="M307.055,175.088c-8.534,5.613-17.067,11.227-25.601,16.84
								c-0.511,0.336-0.033,1.162,0.482,0.824c8.534-5.613,17.067-11.227,25.601-16.84
								C308.047,175.576,307.57,174.749,307.055,175.088L307.055,175.088z"/>
						</g>
					</g>
					<g>
						<g>
							<path style="fill:#9FC1C0;" d="M285.899,148.559c-3.899,3.696-7.798,7.392-11.697,11.088
								c-1.898,1.799-3.796,3.599-5.694,5.398c-0.974,0.924-1.964,1.834-2.924,2.772c-0.663,0.648-1.157,1.253-1.266,2.192
								c-0.071,0.609,0.884,0.604,0.954,0c0.131-1.129,1.599-2.099,2.372-2.831c0.923-0.875,1.847-1.751,2.77-2.626
								c1.796-1.702,3.591-3.404,5.387-5.106c3.591-3.404,7.182-6.808,10.773-10.212C287.02,148.81,286.345,148.136,285.899,148.559
								L285.899,148.559z"/>
						</g>
					</g>
					<g>
						<g>
							<path style="fill:#9FC1C0;" d="M290.307,186.681c3.346,18.661,7.815,37.116,13.405,55.233
								c1.601,5.188,3.295,10.346,5.074,15.476c0.2,0.577,1.122,0.329,0.92-0.254c-6.212-17.912-11.344-36.194-15.333-54.729
								c-1.142-5.308-2.188-10.636-3.146-15.98C291.119,185.824,290.199,186.08,290.307,186.681L290.307,186.681z"/>
						</g>
					</g>
					<g>
						<g>
							<path style="fill:#9FC1C0;" d="M304.387,194.098c-0.409,1.154-0.635,2.467-0.14,3.632c0.4,0.942,1.338,1.589,2.362,1.64
								c0.563,0.028,1.118-0.176,1.515-0.577c0.432-0.437-0.242-1.112-0.675-0.675c-0.268,0.27-0.649,0.351-1.018,0.276
								c-0.435-0.089-0.797-0.296-1.085-0.646c-0.3-0.364-0.431-0.978-0.43-1.494c0.002-0.653,0.174-1.29,0.391-1.902
								c0.086-0.243-0.098-0.522-0.333-0.587C304.71,193.692,304.473,193.854,304.387,194.098L304.387,194.098z"/>
						</g>
					</g>
					<g>
						<g>
							<path style="fill:#9FC1C0;" d="M308.078,215.332c-0.38,1.137-0.335,2.507,0.342,3.529c0.654,0.987,1.805,1.474,2.971,1.282
								c0.627-0.103,1.158-0.445,1.536-0.949c0.155-0.206,0.033-0.533-0.171-0.653c-0.244-0.143-0.497-0.036-0.653,0.171
								c0.033-0.044-0.04,0.045-0.051,0.057c-0.033,0.036-0.068,0.07-0.104,0.103c-0.013,0.012-0.104,0.085-0.054,0.048
								c-0.045,0.034-0.093,0.064-0.141,0.093c-0.042,0.025-0.084,0.047-0.127,0.069c-0.021,0.011-0.043,0.021-0.066,0.031
								c0.01-0.004,0.053-0.021,0.002-0.002c-0.107,0.04-0.216,0.072-0.328,0.094c-0.025,0.005-0.13,0.022-0.107,0.019
								c0.023-0.003-0.084,0.006-0.109,0.008c-0.108,0.006-0.217,0.005-0.325-0.004c-0.019-0.001-0.139-0.016-0.073-0.006
								c-0.05-0.007-0.1-0.017-0.149-0.028c-0.107-0.023-0.212-0.054-0.316-0.09c-0.317-0.108-0.659-0.36-0.879-0.678
								c-0.252-0.365-0.41-0.803-0.459-1.218c-0.067-0.567,0.001-1.087,0.181-1.623c0.082-0.244-0.094-0.521-0.333-0.587
								C308.405,214.927,308.16,215.086,308.078,215.332L308.078,215.332z"/>
						</g>
					</g>
					<g>
						<g>
							<path style="fill:#9FC1C0;" d="M271.983,161.528c-16.763-8.762-33.527-17.524-50.29-26.286
								c-4.825-2.522-9.649-5.044-14.474-7.565c-0.544-0.284-1.026,0.539-0.481,0.824c16.763,8.762,33.527,17.524,50.29,26.286
								c4.825,2.522,9.649,5.044,14.474,7.565C272.045,162.636,272.528,161.813,271.983,161.528L271.983,161.528z"/>
						</g>
					</g>
					<g>
						<g>
							<path style="fill:#9FC1C0;" d="M243.175,133.775c-0.708,0.963-0.375,2.294,0.33,3.152c0.786,0.956,2.084,1.323,3.228,1.635
								c0.593,0.162,0.846-0.758,0.254-0.92c-0.943-0.258-1.998-0.524-2.694-1.261c-0.28-0.296-0.46-0.668-0.537-1.076
								c-0.069-0.364,0.004-0.725,0.243-1.049c0.153-0.208,0.035-0.532-0.171-0.653
								C243.585,133.462,243.328,133.566,243.175,133.775L243.175,133.775z"/>
						</g>
					</g>
					<g>
						<g>
							<path style="fill:#9FC1C0;" d="M263.932,141.488c-0.882,0.484-1.146,1.57-0.915,2.495c0.27,1.081,1.216,1.776,2.265,2.021
								c0.63,0.147,1.284,0.16,1.925,0.09c0.256-0.028,0.477-0.199,0.477-0.477c0-0.236-0.219-0.505-0.477-0.477
								c-0.599,0.066-1.2,0.066-1.754-0.076c-0.292-0.075-0.506-0.158-0.759-0.315c-0.127-0.079-0.199-0.132-0.303-0.229
								c-0.046-0.043-0.091-0.088-0.133-0.135c-0.02-0.022-0.039-0.045-0.057-0.068c0.025,0.032,0.028,0.035,0.008,0.008
								c-0.157-0.227-0.197-0.312-0.262-0.552c-0.016-0.058-0.029-0.116-0.04-0.175c-0.005-0.029-0.01-0.059-0.015-0.088
								c0.007,0.053,0.008,0.051,0.002-0.006c-0.005-0.119-0.005-0.234-0.001-0.353c0.006-0.057,0.005-0.058-0.002-0.003
								c0.004-0.029,0.009-0.057,0.015-0.085c0.011-0.056,0.024-0.112,0.041-0.166c0.005-0.018,0.066-0.182,0.024-0.084
								c0.022-0.051,0.048-0.101,0.075-0.149c0.102-0.178,0.181-0.25,0.366-0.351C264.952,142.016,264.471,141.192,263.932,141.488
								L263.932,141.488z"/>
						</g>
					</g>
					<g>
						<g>
							<path style="fill:#9FC1C0;" d="M287.43,163.125c2.863-0.18,5.741-0.073,8.58,0.345c0.601,0.088,0.86-0.831,0.254-0.92
								c-2.927-0.43-5.881-0.565-8.834-0.379C286.82,162.209,286.815,163.164,287.43,163.125L287.43,163.125z"/>
						</g>
					</g>
					<g>
						<g>
							<path style="fill:#9FC1C0;" d="M289.852,166.756c0.935,0.071,1.87,0.141,2.805,0.212c0.249,0.019,0.488-0.233,0.477-0.477
								c-0.012-0.275-0.21-0.457-0.477-0.477c-0.935-0.071-1.87-0.141-2.805-0.212c-0.249-0.019-0.488,0.233-0.477,0.477
								C289.388,166.553,289.585,166.736,289.852,166.756L289.852,166.756z"/>
						</g>
					</g>
					<g>
						<g>
							<path style="fill:#9FC1C0;" d="M208.416,223.898c-3.455,2.988-6.864,6.028-10.223,9.124
								c-1.657,1.527-3.302,3.068-4.934,4.622c-1.399,1.332-2.797,2.678-3.679,4.422c-0.276,0.547,0.546,1.03,0.824,0.482
								c0.902-1.783,2.366-3.123,3.795-4.48c1.634-1.552,3.279-3.091,4.938-4.617c3.271-3.011,6.591-5.969,9.954-8.877
								C209.556,224.171,208.879,223.498,208.416,223.898L208.416,223.898z"/>
						</g>
					</g>
					<g>
						<g>
							<path style="fill:#9FC1C0;" d="M216.492,235.699c-6.445,5.334-13.107,10.4-19.967,15.187c-0.5,0.349-0.024,1.176,0.482,0.824
								c6.927-4.834,13.653-9.951,20.16-15.337C217.64,235.981,216.962,235.31,216.492,235.699L216.492,235.699z"/>
						</g>
					</g>
					<g>
						<g>
							<path style="fill:#9FC1C0;" d="M160.868,220.937c12.54,3.799,25.08,7.598,37.62,11.396c0.589,0.178,0.841-0.742,0.254-0.92
								c-12.54-3.799-25.08-7.598-37.62-11.396C160.532,219.839,160.281,220.76,160.868,220.937L160.868,220.937z"/>
						</g>
					</g>
					<g>
						<g>
							<path style="fill:#9FC1C0;" d="M208.754,276.138c-0.897-10.458-1.608-20.93-2.132-31.413c-0.031-0.611-0.985-0.615-0.954,0
								c0.525,10.483,1.236,20.955,2.132,31.413C207.852,276.745,208.807,276.751,208.754,276.138L208.754,276.138z"/>
						</g>
					</g>
					<g>
						<g>
							<path style="fill:#9FC1C0;" d="M223.171,221.325c4.162-0.893,8.348-1.669,12.554-2.328c0.605-0.095,0.348-1.014-0.254-0.92
								c-4.206,0.659-8.392,1.435-12.554,2.328C222.317,220.533,222.571,221.453,223.171,221.325L223.171,221.325z"/>
						</g>
					</g>
					<g>
						<g>
							<path style="fill:#9FC1C0;" d="M228.224,223.633c1.187,0.026,2.381-0.166,3.498-0.571c0.242-0.088,0.405-0.324,0.333-0.587
								c-0.064-0.234-0.343-0.421-0.587-0.333c-1.049,0.381-2.131,0.562-3.244,0.537c-0.258-0.006-0.477,0.223-0.477,0.477
								C227.747,223.419,227.965,223.627,228.224,223.633L228.224,223.633z"/>
						</g>
					</g>
				</g>
				<g>
					<g>
						<path style="fill:#FFFFFF;" d="M121.827,417.92c-0.237,0-0.473-0.001-0.71-0.004c-0.556-0.007-1.002-0.462-0.996-1.019
							c0.007-0.556,0.465-0.984,1.018-0.995c1.491,0.015,2.988-0.022,4.454-0.115c0.543-0.034,1.034,0.385,1.069,0.941
							c0.036,0.554-0.386,1.034-0.941,1.069C124.439,417.878,123.132,417.92,121.827,417.92z"/>
					</g>
					<g>
						<path style="fill:#FFFFFF;" d="M112.042,417.138c-0.053,0-0.106-0.004-0.16-0.012c-3.006-0.479-6.04-1.178-9.02-2.081
							c-0.532-0.161-0.833-0.723-0.672-1.255c0.161-0.533,0.728-0.83,1.255-0.672c2.892,0.876,5.837,1.555,8.753,2.018
							c0.549,0.088,0.923,0.604,0.836,1.153C112.956,416.786,112.528,417.138,112.042,417.138z M94.613,411.892
							c-0.138,0-0.277-0.028-0.411-0.088c-2.779-1.245-5.535-2.683-8.192-4.277c-0.477-0.286-0.632-0.905-0.346-1.381
							c0.286-0.476,0.903-0.635,1.382-0.346c2.588,1.553,5.273,2.955,7.979,4.167c0.507,0.228,0.735,0.824,0.507,1.33
							C95.365,411.671,94.997,411.892,94.613,411.892z M78.987,402.534c-0.214,0-0.43-0.067-0.613-0.208
							c-2.432-1.864-4.788-3.89-7.003-6.02c-0.401-0.385-0.414-1.023-0.028-1.424c0.384-0.403,1.023-0.413,1.424-0.028
							c2.162,2.078,4.461,4.055,6.834,5.875c0.441,0.337,0.525,0.97,0.186,1.412C79.588,402.399,79.289,402.534,78.987,402.534z
							 M65.854,389.909c-0.289,0-0.576-0.124-0.775-0.364c-0.725-0.871-1.43-1.757-2.116-2.656c-1.167-1.529-2.307-3.128-3.39-4.751
							c-0.308-0.463-0.183-1.088,0.28-1.396c0.462-0.31,1.088-0.182,1.396,0.279c1.058,1.589,2.173,3.152,3.314,4.647
							c0.669,0.878,1.357,1.742,2.064,2.591c0.356,0.427,0.297,1.062-0.13,1.418C66.309,389.833,66.08,389.909,65.854,389.909z
							 M55.73,374.755c-0.36,0-0.707-0.193-0.889-0.532c-1.423-2.661-2.759-5.458-3.972-8.314c-0.218-0.512,0.021-1.104,0.533-1.321
							c0.513-0.221,1.103,0.022,1.321,0.533c1.19,2.802,2.5,5.544,3.895,8.151c0.262,0.49,0.077,1.101-0.413,1.363
							C56.053,374.717,55.89,374.755,55.73,374.755z M48.589,357.979c-0.423,0-0.817-0.268-0.956-0.692
							c-0.944-2.865-1.797-5.84-2.537-8.844c-0.133-0.54,0.197-1.086,0.737-1.219c0.54-0.129,1.086,0.197,1.219,0.737
							c0.728,2.955,1.567,5.88,2.495,8.697c0.174,0.527-0.113,1.097-0.641,1.271C48.8,357.963,48.693,357.979,48.589,357.979z
							 M44.207,340.274c-0.481,0-0.907-0.346-0.991-0.836c-0.513-2.973-0.936-6.037-1.258-9.107
							c-0.058-0.553,0.343-1.049,0.896-1.107c0.564-0.046,1.049,0.344,1.107,0.896c0.317,3.026,0.735,6.046,1.24,8.975
							c0.094,0.548-0.273,1.069-0.821,1.164C44.321,340.27,44.264,340.274,44.207,340.274z M42.291,322.132
							c-0.537,0-0.983-0.423-1.005-0.965c-0.031-0.734-0.057-1.468-0.077-2.203c-0.035-1.276-0.053-2.554-0.053-3.835
							c0-1.049,0.012-2.1,0.035-3.151c0.012-0.556,0.455-1.012,1.029-0.984c0.556,0.013,0.997,0.473,0.985,1.03
							c-0.023,1.036-0.035,2.071-0.035,3.105c0,1.261,0.017,2.522,0.052,3.779c0.02,0.725,0.045,1.45,0.076,2.173
							c0.023,0.556-0.408,1.025-0.964,1.048C42.32,322.132,42.305,322.132,42.291,322.132z M42.702,303.897
							c-0.029,0-0.059-0.001-0.089-0.003c-0.554-0.049-0.964-0.537-0.915-1.092c0.266-3.038,0.635-6.108,1.096-9.125
							c0.084-0.549,0.598-0.935,1.147-0.843c0.55,0.084,0.928,0.597,0.844,1.147c-0.455,2.975-0.818,6.003-1.081,8.997
							C43.658,303.502,43.218,303.897,42.702,303.897z M45.456,285.861c-0.072,0-0.144-0.008-0.216-0.023
							c-0.543-0.119-0.887-0.656-0.768-1.199c0.653-2.983,1.411-5.982,2.253-8.912c0.154-0.535,0.708-0.846,1.246-0.69
							c0.534,0.154,0.843,0.712,0.69,1.246c-0.831,2.89-1.578,5.845-2.222,8.786C46.335,285.54,45.919,285.861,45.456,285.861z
							 M50.501,268.328c-0.113,0-0.228-0.018-0.341-0.06c-0.524-0.189-0.795-0.765-0.606-1.289c1.041-2.887,2.187-5.761,3.407-8.542
							c0.224-0.51,0.817-0.74,1.327-0.518c0.509,0.224,0.741,0.818,0.518,1.327c-1.202,2.739-2.331,5.571-3.357,8.416
							C51.301,268.073,50.914,268.328,50.501,268.328z M57.84,251.624c-0.158,0-0.318-0.037-0.467-0.115
							c-0.493-0.259-0.682-0.868-0.423-1.361c1.433-2.727,2.972-5.412,4.575-7.984c0.294-0.472,0.914-0.617,1.387-0.322
							c0.472,0.295,0.616,0.916,0.322,1.388c-1.577,2.529-3.091,5.173-4.501,7.856C58.552,251.429,58.202,251.624,57.84,251.624z
							 M130.29,245.132h-0.164c-2.725-0.022-5.399-0.52-7.956-1.48c-0.521-0.195-0.785-0.776-0.589-1.297
							c0.196-0.522,0.776-0.783,1.297-0.589c2.336,0.877,4.778,1.331,7.257,1.352h0.156c0.375,0,0.75-0.011,1.125-0.033
							c0.543-0.037,1.031,0.393,1.063,0.947c0.032,0.556-0.392,1.032-0.947,1.064C131.119,245.121,130.705,245.132,130.29,245.132z
							 M140.226,242.74c-0.37,0-0.726-0.205-0.902-0.559c-0.247-0.498-0.044-1.102,0.454-1.35c2.605-1.293,4.996-3.114,6.915-5.266
							c0.369-0.416,1.007-0.453,1.421-0.081c0.416,0.37,0.452,1.006,0.081,1.421c-2.088,2.342-4.689,4.323-7.521,5.729
							C140.529,242.706,140.377,242.74,140.226,242.74z M114.767,239.005c-0.235,0-0.471-0.081-0.662-0.248
							c-2.277-1.992-4.327-4.391-6.092-7.131c-0.302-0.468-0.167-1.09,0.301-1.392c0.468-0.303,1.092-0.167,1.392,0.301
							c1.663,2.581,3.589,4.837,5.725,6.705c0.419,0.366,0.461,1.002,0.095,1.421C115.327,238.889,115.048,239.005,114.767,239.005z
							 M67.499,236.15c-0.208,0-0.417-0.063-0.596-0.196c-0.448-0.33-0.544-0.96-0.214-1.408c1.828-2.483,3.764-4.902,5.754-7.189
							c0.365-0.419,1.001-0.464,1.42-0.099c0.42,0.365,0.464,1.001,0.099,1.42c-1.954,2.246-3.855,4.621-5.65,7.061
							C68.113,236.008,67.808,236.15,67.499,236.15z M151.967,229.394c-0.101,0-0.204-0.016-0.306-0.048
							c-0.53-0.169-0.822-0.735-0.653-1.265c0.653-2.049,0.985-4.219,0.985-6.451c-0.001-0.72-0.036-1.449-0.105-2.166
							c-0.053-0.553,0.353-1.045,0.907-1.099c0.553-0.05,1.045,0.353,1.099,0.907c0.075,0.78,0.113,1.573,0.113,2.357
							c0,2.44-0.363,4.817-1.08,7.063C152.79,229.12,152.394,229.394,151.967,229.394z M104.879,223.895
							c-0.416,0-0.806-0.26-0.951-0.675c-1.041-2.98-1.728-6.048-2.044-9.118c-0.057-0.553,0.345-1.048,0.898-1.105
							c0.558-0.06,1.048,0.346,1.105,0.898c0.3,2.914,0.953,5.828,1.942,8.66c0.183,0.525-0.093,1.1-0.618,1.283
							C105.101,223.877,104.989,223.895,104.879,223.895z M79.477,222.402c-0.263,0-0.526-0.103-0.724-0.307
							c-0.387-0.4-0.377-1.037,0.023-1.424c2.215-2.144,4.536-4.198,6.898-6.105c0.433-0.349,1.067-0.281,1.416,0.151
							c0.349,0.433,0.282,1.067-0.151,1.416c-2.315,1.869-4.59,3.883-6.762,5.985C79.982,222.308,79.729,222.402,79.477,222.402z
							 M150.333,211.67c-0.365,0-0.716-0.199-0.895-0.545c-1.165-2.255-2.669-4.229-4.469-5.869
							c-0.321-0.293-0.649-0.574-0.982-0.844c-0.432-0.35-0.499-0.984-0.149-1.416c0.348-0.432,0.984-0.5,1.416-0.149
							c0.363,0.294,0.72,0.601,1.071,0.92c1.977,1.801,3.626,3.965,4.902,6.433c0.256,0.494,0.062,1.101-0.432,1.357
							C150.647,211.633,150.489,211.67,150.333,211.67z M93.662,210.964c-0.327,0-0.647-0.158-0.84-0.45
							c-0.307-0.463-0.181-1.088,0.283-1.396c2.563-1.7,5.227-3.287,7.917-4.719c0.35-0.186,0.759-0.145,1.06,0.07
							c0.38-2.938,1.039-5.892,1.959-8.784c0.169-0.53,0.735-0.822,1.265-0.654c0.53,0.169,0.823,0.735,0.654,1.265
							c-0.914,2.871-1.558,5.805-1.917,8.718c-0.067,0.551-0.566,0.949-1.123,0.876c-0.189-0.023-0.359-0.097-0.499-0.207
							c-0.087,0.205-0.241,0.381-0.453,0.494c-2.633,1.401-5.24,2.956-7.75,4.62C94.046,210.91,93.853,210.964,93.662,210.964z
							 M109.785,202.494c-0.407,0-0.79-0.249-0.942-0.653c-0.196-0.52,0.067-1.101,0.588-1.297c2.98-1.121,5.979-1.989,8.914-2.581
							c0.545-0.102,1.077,0.243,1.187,0.788c0.11,0.545-0.243,1.076-0.788,1.187c-2.83,0.57-5.724,1.409-8.604,2.491
							C110.022,202.473,109.902,202.494,109.785,202.494z M136.606,200.388c-0.1,0-0.201-0.015-0.301-0.046
							c-2.654-0.828-5.582-1.264-8.705-1.294c-0.556-0.005-1.003-0.461-0.997-1.017c0.005-0.556,0.487-1.042,1.017-0.997
							c3.32,0.033,6.444,0.499,9.285,1.386c0.531,0.166,0.827,0.731,0.661,1.261C137.432,200.111,137.035,200.388,136.606,200.388z
							 M108.505,188.585c-0.156,0-0.315-0.037-0.464-0.114c-0.493-0.257-0.685-0.865-0.429-1.359
							c1.412-2.714,3.071-5.358,4.93-7.859c0.334-0.445,0.965-0.537,1.41-0.207c0.446,0.332,0.539,0.963,0.207,1.41
							c-1.796,2.415-3.397,4.967-4.759,7.587C109.221,188.387,108.87,188.585,108.505,188.585z M119.337,173.981
							c-0.26,0-0.52-0.1-0.717-0.299c-0.391-0.396-0.387-1.034,0.009-1.424c2.199-2.171,4.579-4.189,7.072-5.997
							c0.451-0.327,1.08-0.226,1.407,0.225c0.327,0.45,0.226,1.08-0.225,1.406c-2.41,1.748-4.712,3.699-6.839,5.799
							C119.848,173.885,119.592,173.981,119.337,173.981z M134.066,163.318c-0.366,0-0.72-0.201-0.898-0.55
							c-0.252-0.495-0.055-1.102,0.44-1.355c2.717-1.385,5.588-2.598,8.532-3.605c0.527-0.179,1.099,0.1,1.279,0.627
							c0.18,0.526-0.1,1.099-0.627,1.279c-2.855,0.977-5.637,2.152-8.269,3.494C134.377,163.282,134.221,163.318,134.066,163.318z
							 M151.273,157.402c-0.47,0-0.891-0.331-0.986-0.811c-0.109-0.545,0.245-1.075,0.79-1.184c2.975-0.594,6.057-1.012,9.161-1.243
							c0.554-0.047,1.037,0.375,1.079,0.929c0.041,0.555-0.375,1.038-0.929,1.079c-3.021,0.225-6.022,0.632-8.917,1.21
							C151.405,157.396,151.339,157.402,151.273,157.402z M178.518,156.891c-0.049,0-0.1-0.003-0.15-0.011
							c-2.985-0.448-6.004-0.735-8.974-0.855c-0.556-0.023-0.988-0.492-0.966-1.047c0.023-0.556,0.466-0.98,1.047-0.966
							c3.042,0.123,6.134,0.418,9.191,0.876c0.55,0.082,0.929,0.595,0.847,1.145C179.438,156.533,179.008,156.891,178.518,156.891z"
							/>
					</g>
					<g>
						<path style="fill:#FFFFFF;" d="M191.941,160.011c-0.1,0-0.203-0.015-0.304-0.048c-1.422-0.45-2.871-0.869-4.304-1.243
							c-0.538-0.141-0.86-0.691-0.72-1.229c0.141-0.538,0.693-0.86,1.229-0.72c1.467,0.384,2.949,0.812,4.404,1.273
							c0.53,0.168,0.824,0.734,0.655,1.264C192.765,159.737,192.369,160.011,191.941,160.011z"/>
					</g>
				</g>
				<g>
					<g>
						<path style="fill:#FFFFFF;" d="M339.901,180.878c-0.048,0-0.095-0.003-0.144-0.01c-1.447-0.207-2.908-0.286-4.341-0.236
							c-0.497,0.025-1.022-0.414-1.042-0.971c-0.021-0.556,0.414-1.023,0.97-1.042c1.551-0.055,3.134,0.031,4.699,0.256
							c0.55,0.079,0.932,0.589,0.854,1.14C340.824,180.516,340.393,180.878,339.901,180.878z"/>
					</g>
					<g>
						<path style="fill:#FFFFFF;" d="M407.681,316.423c-0.519,0-0.959-0.398-1.003-0.924c-0.046-0.554,0.367-1.041,0.921-1.086
							c2.95-0.243,5.923-0.8,8.839-1.656c0.538-0.153,1.094,0.151,1.25,0.684s-0.15,1.093-0.684,1.25
							c-3.045,0.893-6.155,1.476-9.24,1.73C407.736,316.422,407.708,316.423,407.681,316.423z M425.274,311.33
							c-0.368,0-0.723-0.202-0.9-0.552c-0.252-0.497-0.052-1.102,0.444-1.353c2.625-1.327,5.22-2.917,7.716-4.725
							c0.452-0.326,1.08-0.225,1.407,0.225c0.326,0.451,0.226,1.081-0.225,1.407c-2.582,1.871-5.27,3.516-7.989,4.89
							C425.582,311.295,425.427,311.33,425.274,311.33z M440.183,300.602c-0.264,0-0.527-0.103-0.725-0.308
							c-0.386-0.4-0.374-1.037,0.026-1.424c2.148-2.072,4.21-4.329,6.125-6.711c0.348-0.433,0.981-0.501,1.416-0.153
							c0.433,0.348,0.501,0.982,0.153,1.416c-1.968,2.447-4.086,4.768-6.297,6.898C440.686,300.509,440.435,300.602,440.183,300.602
							z M451.722,286.283c-0.181,0-0.366-0.049-0.532-0.152c-0.472-0.294-0.616-0.915-0.322-1.388
							c0.764-1.227,1.5-2.487,2.185-3.745c0.76-1.395,1.487-2.823,2.159-4.245c0.239-0.502,0.838-0.719,1.341-0.48
							c0.502,0.239,0.717,0.839,0.48,1.341c-0.689,1.456-1.433,2.919-2.211,4.347c-0.704,1.292-1.459,2.586-2.244,3.847
							C452.387,286.115,452.058,286.283,451.722,286.283z M459.617,269.669c-0.11,0-0.221-0.017-0.331-0.056
							c-0.525-0.182-0.803-0.756-0.62-1.281c0.996-2.859,1.85-5.801,2.539-8.745c0.127-0.541,0.669-0.874,1.21-0.752
							c0.543,0.127,0.878,0.668,0.752,1.21c-0.705,3.013-1.58,6.024-2.6,8.949C460.423,269.408,460.033,269.669,459.617,269.669z
							 M463.806,251.754c-0.041,0-0.082-0.002-0.125-0.008c-0.551-0.068-0.944-0.571-0.876-1.123
							c0.373-3.023,0.583-6.079,0.623-9.079c0.008-0.552,0.457-0.994,1.007-0.994c0.004,0,0.009,0,0.013,0
							c0.557,0.008,1.002,0.464,0.994,1.02c-0.041,3.075-0.256,6.203-0.638,9.3C464.741,251.381,464.307,251.754,463.806,251.754z
							 M464.038,233.362c-0.511,0-0.948-0.387-1-0.906c-0.306-3.031-0.792-6.05-1.445-8.974c-0.122-0.543,0.22-1.081,0.764-1.203
							c0.54-0.119,1.081,0.22,1.202,0.763c0.671,3.002,1.17,6.101,1.482,9.212c0.056,0.553-0.347,1.047-0.901,1.103
							C464.105,233.361,464.072,233.362,464.038,233.362z M350.301,226.992c-0.058,0-0.117-0.005-0.176-0.015
							c-3.181-0.562-6.178-2.984-7.635-6.173c-0.231-0.506-0.009-1.103,0.497-1.334c0.508-0.233,1.104-0.009,1.335,0.497
							c1.171,2.563,3.644,4.583,6.152,5.026c0.548,0.097,0.914,0.619,0.817,1.167C351.205,226.648,350.781,226.992,350.301,226.992z
							 M358.137,223.183c-0.21,0-0.424-0.066-0.605-0.203c-0.444-0.335-0.533-0.966-0.197-1.411
							c0.298-0.396,0.578-0.805,0.841-1.217c1.297-2.043,2.293-4.3,2.961-6.707c0.15-0.537,0.709-0.849,1.239-0.701
							c0.536,0.149,0.85,0.704,0.701,1.24c-0.72,2.599-1.798,5.037-3.201,7.248c-0.292,0.458-0.602,0.912-0.933,1.351
							C358.744,223.044,358.443,223.183,358.137,223.183z M460.013,215.424c-0.412,0-0.8-0.256-0.947-0.666
							c-0.503-1.396-1.055-2.788-1.638-4.134c-0.608-1.404-1.277-2.811-1.99-4.183c-0.257-0.493-0.065-1.101,0.429-1.358
							c0.494-0.257,1.101-0.065,1.357,0.429c0.736,1.414,1.426,2.865,2.053,4.312c0.6,1.385,1.166,2.816,1.684,4.252
							c0.189,0.523-0.082,1.1-0.605,1.289C460.242,215.404,460.125,215.424,460.013,215.424z M342.665,212.345
							c-0.059,0-0.118-0.005-0.178-0.016c-0.548-0.098-0.913-0.621-0.815-1.168c0.265-1.481,0.672-3.031,1.245-4.741
							c0.479-1.428,1.031-2.855,1.642-4.241c0.224-0.51,0.816-0.741,1.327-0.516c0.509,0.224,0.74,0.819,0.515,1.328
							c-0.585,1.33-1.115,2.699-1.574,4.07c-0.541,1.615-0.924,3.072-1.171,4.455C343.567,212.002,343.143,212.345,342.665,212.345z
							 M363.067,205.798c-0.528,0-0.972-0.412-1.004-0.947c-0.179-3.014-0.847-5.909-1.985-8.605
							c-0.216-0.513,0.024-1.104,0.536-1.319c0.511-0.217,1.104,0.023,1.319,0.536c1.227,2.908,1.947,6.026,2.139,9.269
							c0.034,0.555-0.39,1.032-0.945,1.065C363.107,205.797,363.088,205.798,363.067,205.798z M451.542,199.117
							c-0.317,0-0.628-0.149-0.825-0.428c-1.732-2.46-3.648-4.838-5.698-7.068c-0.377-0.41-0.349-1.047,0.06-1.423
							c0.407-0.375,1.044-0.35,1.423,0.06c2.108,2.294,4.081,4.74,5.863,7.272c0.32,0.455,0.211,1.083-0.244,1.403
							C451.944,199.057,451.741,199.117,451.542,199.117z M349.939,195.544c-0.194,0-0.391-0.056-0.564-0.174
							c-0.46-0.312-0.581-0.938-0.268-1.399c1.476-2.177,3.136-4.277,4.945-6.259c-1.751-1.622-3.724-3.006-5.882-4.126
							c-0.494-0.257-0.687-0.864-0.431-1.358c0.256-0.493,0.866-0.685,1.357-0.43c2.389,1.24,4.566,2.78,6.491,4.592
							c0.295-0.043,0.611,0.045,0.845,0.269c0.244,0.234,0.345,0.562,0.299,0.873c0.354,0.404,0.328,1.018-0.065,1.392
							c-0.316,0.302-0.778,0.356-1.148,0.169c-1.736,1.904-3.329,3.921-4.745,6.009
							C350.579,195.389,350.262,195.544,349.939,195.544z M439.104,185.582c-0.229,0-0.459-0.077-0.648-0.236
							c-2.323-1.95-4.785-3.758-7.318-5.372c-0.469-0.298-0.607-0.921-0.308-1.39c0.299-0.47,0.92-0.607,1.391-0.308
							c2.606,1.66,5.14,3.521,7.53,5.528c0.425,0.358,0.481,0.993,0.124,1.419C439.676,185.46,439.391,185.582,439.104,185.582z
							 M362.618,182.279c-0.305,0-0.605-0.137-0.804-0.399c-0.335-0.443-0.248-1.075,0.195-1.411
							c2.475-1.873,5.123-3.577,7.871-5.065c0.492-0.265,1.1-0.082,1.365,0.406c0.265,0.489,0.084,1.1-0.406,1.365
							c-2.659,1.439-5.221,3.088-7.615,4.9C363.043,182.213,362.829,182.279,362.618,182.279z M423.597,175.72
							c-0.14,0-0.283-0.03-0.419-0.092c-2.768-1.272-5.623-2.345-8.484-3.189c-0.533-0.157-0.838-0.717-0.68-1.251
							c0.157-0.534,0.716-0.839,1.251-0.681c2.954,0.871,5.898,1.979,8.753,3.29c0.506,0.232,0.727,0.83,0.495,1.336
							C424.343,175.502,423.979,175.72,423.597,175.72z M378.763,173.533c-0.412,0-0.8-0.256-0.947-0.666
							c-0.189-0.523,0.082-1.1,0.605-1.289c2.949-1.062,5.985-1.9,9.025-2.491c0.545-0.102,1.075,0.25,1.181,0.796
							c0.106,0.546-0.251,1.075-0.796,1.181c-2.937,0.571-5.873,1.381-8.725,2.408C378.992,173.514,378.875,173.533,378.763,173.533
							z M405.979,170.55c-0.044,0-0.09-0.003-0.136-0.009c-1.474-0.199-2.97-0.342-4.45-0.425c-1.507-0.085-3.053-0.103-4.577-0.059
							c-0.557,0.028-1.021-0.42-1.037-0.977c-0.016-0.556,0.421-1.02,0.977-1.036c1.585-0.047,3.186-0.027,4.75,0.061
							c1.532,0.086,3.082,0.234,4.606,0.441c0.551,0.074,0.938,0.582,0.864,1.133C406.908,170.183,406.475,170.55,405.979,170.55z"
							/>
					</g>
					<g>
						<path style="fill:#FFFFFF;" d="M398.507,315.457c-0.14,0-0.282-0.029-0.419-0.091c-1.758-0.806-3.011-1.995-3.725-3.537
							c-0.234-0.505-0.014-1.104,0.49-1.337c0.507-0.238,1.104-0.014,1.337,0.49c0.507,1.094,1.428,1.952,2.738,2.552
							c0.506,0.232,0.727,0.83,0.496,1.336C399.254,315.238,398.888,315.457,398.507,315.457z"/>
					</g>
				</g>
				<g>
					<g>
						<path style="fill:#FFFFFF;" d="M195.663,109.891c-0.035,0-0.069-0.002-0.105-0.005c-0.553-0.058-0.955-0.552-0.897-1.106
							c0.159-1.534,0.423-3.079,0.785-4.594c0.129-0.541,0.674-0.875,1.213-0.745c0.541,0.129,0.875,0.672,0.745,1.213
							c-0.341,1.43-0.59,2.887-0.741,4.334C196.609,109.506,196.172,109.891,195.663,109.891z"/>
					</g>
					<g>
						<path style="fill:#FFFFFF;" d="M277.503,127.953c-1.481,0-2.964-0.178-4.411-0.528c-0.54-0.131-0.872-0.675-0.741-1.216
							c0.13-0.541,0.674-0.874,1.216-0.741c2.801,0.679,5.781,0.619,8.384-0.174c0.54-0.159,1.095,0.139,1.258,0.67
							c0.162,0.532-0.138,1.095-0.669,1.257C280.945,127.705,279.25,127.952,277.503,127.953z M356.903,126.015
							c-0.021,0-0.041-0.001-0.063-0.002c-0.554-0.034-0.978-0.512-0.943-1.067c0.05-0.828,0.076-1.688,0.076-2.558
							c0.001-2.01-0.139-4.115-0.415-6.254c-0.072-0.552,0.318-1.057,0.869-1.128c0.566-0.071,1.057,0.319,1.127,0.87
							c0.288,2.226,0.433,4.417,0.432,6.513c0,0.91-0.027,1.812-0.08,2.68C357.874,125.604,357.431,126.015,356.903,126.015z
							 M265.58,123.083c-0.27,0-0.54-0.109-0.739-0.323c-1.713-1.85-2.789-4.006-3.193-6.408c-0.133-0.792-0.201-1.593-0.201-2.382
							v-0.116c0-0.556,0.45-1.007,1.007-1.007s1.007,0.451,1.007,1.007v0.116c0,0.677,0.059,1.366,0.173,2.047
							c0.339,2.008,1.242,3.817,2.686,5.374c0.378,0.408,0.354,1.045-0.054,1.423C266.071,122.995,265.825,123.083,265.58,123.083z
							 M289.544,122.199c-0.222,0-0.446-0.073-0.633-0.224c-0.432-0.35-0.499-0.984-0.149-1.417c1.734-2.142,2.959-4.723,3.64-7.671
							c0.125-0.542,0.667-0.884,1.208-0.754c0.541,0.125,0.88,0.666,0.754,1.208c-0.751,3.249-2.109,6.104-4.038,8.485
							C290.129,122.071,289.838,122.199,289.544,122.199z M354.735,108.184c-0.441,0-0.845-0.292-0.969-0.737
							c-0.183-0.656-0.375-1.308-0.576-1.955c-0.683-2.201-1.479-4.362-2.367-6.424c-0.22-0.511,0.015-1.104,0.526-1.323
							c0.51-0.219,1.102,0.015,1.323,0.527c0.916,2.127,1.737,4.355,2.44,6.623c0.207,0.666,0.406,1.336,0.594,2.012
							c0.15,0.535-0.164,1.091-0.7,1.24C354.916,108.171,354.825,108.184,354.735,108.184z M265.171,106.384
							c-0.181,0-0.366-0.049-0.532-0.152c-0.472-0.294-0.616-0.915-0.322-1.387c1.432-2.3,3.387-4.613,5.973-7.07
							c0.401-0.381,1.038-0.366,1.424,0.037c0.383,0.403,0.367,1.041-0.037,1.424c-2.461,2.337-4.309,4.52-5.65,6.674
							C265.836,106.216,265.507,106.384,265.171,106.384z M293.754,105.155c-0.495,0-0.927-0.365-0.996-0.869
							c-0.344-2.484-1.047-4.846-2.09-7.02c-0.189-0.396-0.386-0.784-0.592-1.167c-0.264-0.49-0.08-1.101,0.409-1.364
							c0.492-0.266,1.101-0.08,1.364,0.409c0.221,0.411,0.434,0.829,0.636,1.252c1.133,2.362,1.897,4.924,2.268,7.615
							c0.077,0.551-0.308,1.059-0.859,1.136C293.846,105.152,293.8,105.155,293.754,105.155z M199.57,96.993
							c-0.155,0-0.313-0.036-0.46-0.112c-0.494-0.255-0.689-0.862-0.434-1.356c1.386-2.689,3.101-5.275,5.099-7.684
							c0.356-0.428,0.991-0.486,1.418-0.132c0.428,0.355,0.487,0.99,0.132,1.418c-1.905,2.298-3.541,4.761-4.859,7.32
							C200.288,96.794,199.936,96.993,199.57,96.993z M277.866,93.675c-0.295,0-0.587-0.129-0.787-0.376
							c-0.348-0.434-0.279-1.068,0.155-1.416c1.721-1.382,3.71-2.967,5.804-4.555c-1.493-1.341-3.148-2.622-4.941-3.824
							c-0.461-0.31-0.585-0.935-0.276-1.397c0.309-0.463,0.934-0.586,1.398-0.276c2.014,1.35,3.863,2.797,5.519,4.319
							c0.38-0.097,0.805,0.039,1.055,0.377c0.179,0.24,0.234,0.534,0.178,0.806c0.12,0.121,0.24,0.242,0.358,0.364
							c0.387,0.399,0.378,1.036-0.021,1.424c-0.4,0.388-1.037,0.378-1.425-0.021c-0.119-0.123-0.24-0.245-0.362-0.368
							c-2.171,1.641-4.243,3.29-6.025,4.722C278.31,93.603,278.088,93.675,277.866,93.675z M347.564,91.691
							c-0.334,0-0.66-0.165-0.852-0.468c-1.641-2.59-3.459-4.927-5.405-6.948c-0.386-0.401-0.374-1.038,0.026-1.424
							c0.399-0.386,1.037-0.375,1.424,0.027c2.04,2.118,3.943,4.563,5.656,7.268c0.297,0.47,0.158,1.092-0.311,1.389
							C347.935,91.641,347.748,91.691,347.564,91.691z M210.97,83.17c-0.294,0-0.585-0.128-0.785-0.375
							c-0.349-0.433-0.281-1.067,0.152-1.416c2.395-1.931,4.984-3.631,7.695-5.053c0.494-0.259,1.101-0.068,1.36,0.424
							c0.258,0.493,0.068,1.101-0.424,1.36c-2.595,1.36-5.074,2.988-7.367,4.837C211.415,83.098,211.192,83.17,210.97,83.17z
							 M292.428,83.037c-0.337,0-0.666-0.169-0.857-0.477c-0.293-0.473-0.146-1.093,0.326-1.386c2.775-1.718,5.41-3.134,8.06-4.328
							c0.507-0.231,1.102-0.003,1.331,0.504c0.229,0.507,0.003,1.104-0.505,1.332c-2.567,1.157-5.128,2.533-7.826,4.204
							C292.793,82.988,292.609,83.037,292.428,83.037z M270.787,79.275c-0.142,0-0.288-0.031-0.425-0.095
							c-0.5-0.234-1.003-0.46-1.506-0.68c-2.214-0.967-4.492-1.829-6.77-2.561c-0.53-0.17-0.82-0.737-0.651-1.267
							c0.17-0.53,0.741-0.821,1.267-0.65c2.343,0.753,4.684,1.639,6.96,2.633c0.52,0.227,1.037,0.461,1.553,0.701
							c0.503,0.235,0.722,0.834,0.486,1.338C271.53,79.06,271.167,79.275,270.787,79.275z M335.034,78.933
							c-0.178,0-0.357-0.047-0.521-0.145c-1.616-0.978-3.314-1.796-5.046-2.432c-0.961-0.353-1.961-0.658-2.97-0.908
							c-0.54-0.134-0.869-0.68-0.736-1.22c0.135-0.54,0.681-0.869,1.22-0.736c1.08,0.267,2.148,0.595,3.178,0.972
							c1.854,0.68,3.67,1.554,5.397,2.6c0.475,0.288,0.627,0.907,0.34,1.383C335.707,78.76,335.375,78.933,335.034,78.933z
							 M308.875,75.803c-0.451,0-0.863-0.307-0.977-0.765c-0.133-0.54,0.195-1.086,0.735-1.22c3.092-0.768,6.165-1.198,9.134-1.28
							c0.535-0.052,1.019,0.424,1.034,0.979c0.015,0.556-0.423,1.019-0.98,1.034c-2.823,0.078-5.752,0.489-8.702,1.221
							C309.038,75.793,308.956,75.803,308.875,75.803z M226.854,74.86c-0.435,0-0.836-0.284-0.965-0.722
							c-0.157-0.534,0.147-1.094,0.68-1.251c2.886-0.852,5.915-1.464,9.003-1.817c0.555-0.06,1.052,0.334,1.115,0.886
							c0.063,0.552-0.333,1.051-0.886,1.115c-2.973,0.341-5.887,0.929-8.662,1.748C227.044,74.847,226.948,74.86,226.854,74.86z
							 M253.653,73.78c-0.061,0-0.122-0.005-0.183-0.016c-2.951-0.543-5.917-0.879-8.817-1c-0.556-0.023-0.987-0.493-0.965-1.048
							c0.023-0.556,0.487-0.975,1.048-0.965c2.993,0.125,6.054,0.472,9.098,1.031c0.547,0.101,0.908,0.626,0.808,1.173
							C254.554,73.44,254.129,73.78,253.653,73.78z"/>
					</g>
					<g>
						<path style="fill:#FFFFFF;" d="M353.566,139.179c-0.149,0-0.301-0.034-0.443-0.104c-0.499-0.246-0.705-0.849-0.46-1.348
							c0.636-1.294,1.188-2.661,1.641-4.064c0.169-0.529,0.735-0.82,1.267-0.65c0.53,0.171,0.82,0.738,0.649,1.267
							c-0.482,1.495-1.07,2.954-1.749,4.335C354.295,138.972,353.938,139.179,353.566,139.179z"/>
					</g>
				</g>
				<g>
					<g>
						<g>
							<g>
								<g>
									<path style="fill:#1A3542;" d="M384.752,419.273l-89.596-25.949c-3.444-0.997-5.427-4.597-4.429-8.041l37.438-129.261
										c0.997-3.444,4.597-5.427,8.041-4.429l89.596,25.949c3.444,0.997,5.427,4.597,4.429,8.041l-37.438,129.261
										C391.795,418.288,388.195,420.271,384.752,419.273z"/>
								</g>
								<g>
									
										<rect x="316.328" y="270.224" transform="matrix(0.9605 0.2782 -0.2782 0.9605 107.5486 -87.0403)" style="fill:#FFFFFF;" width="88.294" height="130.442"/>
								</g>
							</g>
							<g>
								<g>
									
										<rect x="338.63" y="284.814" transform="matrix(0.9605 0.2782 -0.2782 0.9605 94.8776 -92.7425)" style="fill:#64BCBC;" width="71.205" height="6.263"/>
								</g>
								<g>
									<g>
										<g>
											<g>
												<path style="fill:#9FC1C0;" d="M370.73,328.691c-0.038,0-0.076-0.005-0.114-0.016l-30.031-8.698
													c-0.218-0.063-0.343-0.291-0.28-0.508c0.063-0.218,0.294-0.34,0.508-0.28l30.031,8.698
													c0.218,0.063,0.343,0.291,0.28,0.508C371.072,328.575,370.908,328.691,370.73,328.691z"/>
											</g>
											<g>
												<path style="fill:#9FC1C0;" d="M394.237,341.182c-0.038,0-0.076-0.005-0.114-0.016l-55.057-15.946
													c-0.218-0.063-0.343-0.291-0.28-0.508c0.064-0.218,0.293-0.339,0.508-0.28l55.057,15.946
													c0.218,0.063,0.343,0.291,0.28,0.508C394.579,341.066,394.415,341.182,394.237,341.182z"/>
											</g>
											<g>
												<path style="fill:#9FC1C0;" d="M392.718,346.427c-0.038,0-0.076-0.005-0.114-0.016l-55.056-15.946
													c-0.218-0.063-0.343-0.291-0.28-0.508c0.064-0.218,0.293-0.339,0.508-0.28l55.056,15.946
													c0.218,0.063,0.343,0.291,0.28,0.508C393.06,346.31,392.896,346.427,392.718,346.427z"/>
											</g>
										</g>
										<g>
											<circle style="fill:#64BCBC;" cx="331.998" cy="322.747" r="3.026"/>
										</g>
									</g>
									<g>
										<g>
											<g>
												<g>
													<path style="fill:#9FC1C0;" d="M377.923,303.855c-0.038,0-0.076-0.005-0.114-0.016l-30.031-8.697
														c-0.218-0.063-0.343-0.291-0.28-0.508c0.063-0.218,0.295-0.34,0.508-0.28l30.031,8.697
														c0.218,0.063,0.343,0.291,0.28,0.508C378.265,303.739,378.101,303.855,377.923,303.855z"/>
												</g>
												<g>
													<path style="fill:#9FC1C0;" d="M401.43,316.347c-0.038,0-0.076-0.005-0.114-0.016l-55.056-15.946
														c-0.218-0.063-0.343-0.291-0.28-0.508c0.064-0.218,0.292-0.342,0.508-0.28l55.056,15.946
														c0.218,0.063,0.343,0.291,0.28,0.508C401.772,316.231,401.608,316.347,401.43,316.347z"/>
												</g>
												<g>
													<path style="fill:#9FC1C0;" d="M399.911,321.59c-0.038,0-0.076-0.005-0.114-0.016l-55.056-15.946
														c-0.218-0.063-0.343-0.291-0.28-0.508c0.063-0.218,0.293-0.341,0.508-0.28l55.056,15.946
														c0.218,0.063,0.343,0.291,0.28,0.508C400.252,321.474,400.089,321.59,399.911,321.59z"/>
												</g>
											</g>
											<g>
												<circle style="fill:#64BCBC;" cx="339.191" cy="297.911" r="3.026"/>
											</g>
										</g>
										<g>
											<g>
												<g>
													<path style="fill:#9FC1C0;" d="M363.537,353.526c-0.038,0-0.076-0.005-0.114-0.016l-30.031-8.698
														c-0.218-0.063-0.343-0.291-0.28-0.508c0.063-0.218,0.294-0.34,0.508-0.28l30.031,8.698
														c0.218,0.063,0.343,0.291,0.28,0.508C363.879,353.41,363.715,353.526,363.537,353.526z"/>
												</g>
												<g>
													<path style="fill:#9FC1C0;" d="M387.044,366.019c-0.038,0-0.076-0.005-0.114-0.016l-55.058-15.946
														c-0.218-0.063-0.343-0.291-0.28-0.508c0.064-0.218,0.292-0.34,0.508-0.28l55.057,15.946
														c0.218,0.063,0.343,0.291,0.28,0.508C387.386,365.902,387.222,366.019,387.044,366.019z"/>
												</g>
												<g>
													<path style="fill:#9FC1C0;" d="M385.525,371.262c-0.038,0-0.076-0.005-0.114-0.016l-55.056-15.946
														c-0.218-0.063-0.343-0.291-0.28-0.508c0.064-0.218,0.292-0.339,0.508-0.28l55.056,15.946
														c0.218,0.063,0.343,0.291,0.28,0.508C385.867,371.146,385.703,371.262,385.525,371.262z"/>
												</g>
											</g>
											<g>
												<circle style="fill:#64BCBC;" cx="324.805" cy="347.582" r="3.026"/>
											</g>
										</g>
									</g>
								</g>
							</g>
						</g>
						<g>
							<path style="fill:#FF8500;" d="M397.896,260.475c0.014-6.55-4.264-12.59-10.87-14.504c-6.965-2.017-14.203,1.22-17.484,7.373
								l-12.402-3.119l-4.448,21.261l47.192,13.668l10.674-21.495L397.896,260.475z M375.47,255.721
								c12.997-11.432,16.027,4.642,16.027,4.642L375.47,255.721z"/>
						</g>
						<g>
							<g>
								<path style="fill:#FEAE0D;" d="M360.511,261.37c0.519,3.286,1.038,6.572,1.556,9.858c0.058,0.367,0.512,0.563,0.839,0.477
									c0.389-0.103,0.534-0.477,0.477-0.839c-0.519-3.286-1.038-6.572-1.556-9.858c-0.058-0.367-0.512-0.563-0.839-0.477
									C360.599,260.634,360.454,261.008,360.511,261.37L360.511,261.37z"/>
							</g>
						</g>
						<g>
							<g>
								<path style="fill:#FEAE0D;" d="M363.807,260.323c0.451,1.65,0.902,3.299,1.353,4.949c0.097,0.355,0.485,0.574,0.839,0.477
									c0.357-0.098,0.574-0.483,0.477-0.839c-0.451-1.65-0.902-3.299-1.353-4.949c-0.097-0.355-0.485-0.574-0.839-0.477
									C363.926,259.582,363.709,259.967,363.807,260.323L363.807,260.323z"/>
							</g>
						</g>
						<g>
							<g>
								<path style="fill:#FEAE0D;" d="M394.348,265.902c1.29,2.06,2.263,4.286,2.896,6.633c0.228,0.847,1.545,0.488,1.316-0.363
									c-0.661-2.453-1.685-4.806-3.033-6.959C395.061,264.47,393.88,265.154,394.348,265.902L394.348,265.902z"/>
							</g>
						</g>
						<g>
							<g>
								<path style="fill:#FEAE0D;" d="M391.525,270.523c0.972,1.764,1.944,3.528,2.915,5.292c0.424,0.769,1.603,0.082,1.178-0.689
									c-0.972-1.764-1.944-3.528-2.915-5.292C392.28,269.064,391.101,269.752,391.525,270.523L391.525,270.523z"/>
							</g>
						</g>
					</g>
					<g>
						<g>
							<g>
								<circle style="fill:#FFFFFF;" cx="111.24" cy="321.772" r="53.854"/>
								<path style="fill:#1A3542;" d="M111.24,377.64c-30.806,0-55.868-25.062-55.868-55.868s25.062-55.868,55.868-55.868
									c30.806,0,55.869,25.062,55.869,55.868S142.046,377.64,111.24,377.64z M111.24,269.931c-28.585,0-51.84,23.255-51.84,51.84
									c0,28.585,23.256,51.84,51.84,51.84c28.585,0,51.841-23.255,51.841-51.84C163.081,293.187,139.825,269.931,111.24,269.931z"
									/>
							</g>
							<g>
								<g>
									<rect x="109.926" y="274.748" style="fill:#1A3542;" width="2.627" height="8.932"/>
								</g>
								<g>
									<rect x="109.926" y="361.046" style="fill:#1A3542;" width="2.627" height="8.932"/>
								</g>
							</g>
							<g>
								<g>
									
										<rect x="79.415" y="287.386" transform="matrix(0.7071 -0.7071 0.7071 0.7071 -182.7253 142.5654)" style="fill:#1A3542;" width="2.627" height="8.932"/>
								</g>
								<g>
									
										<rect x="140.438" y="348.408" transform="matrix(0.7071 -0.7071 0.7071 0.7071 -208.0015 203.5875)" style="fill:#1A3542;" width="2.627" height="8.932"/>
								</g>
							</g>
							<g>
								<g>
									
										<rect x="66.777" y="317.897" transform="matrix(4.466034e-11 -1 1 4.466034e-11 -254.2719 390.4536)" style="fill:#1A3542;" width="2.627" height="8.932"/>
								</g>
								<g>
									
										<rect x="153.076" y="317.897" transform="matrix(4.396845e-11 -1 1 4.396845e-11 -167.9736 476.7519)" style="fill:#1A3542;" width="2.627" height="8.932"/>
								</g>
							</g>
							<g>
								<g>
									
										<rect x="79.415" y="348.408" transform="matrix(-0.7071 -0.7071 0.7071 -0.7071 -111.7066 659.4772)" style="fill:#1A3542;" width="2.627" height="8.932"/>
								</g>
								<g>
									
										<rect x="140.438" y="287.386" transform="matrix(-0.7071 -0.7071 0.7071 -0.7071 35.6139 598.4551)" style="fill:#1A3542;" width="2.627" height="8.932"/>
								</g>
							</g>
						</g>
						<g>
							<polygon style="fill:#1A3542;" points="87.597,326.747 111.24,321.049 130.417,294.976 127.922,293.794 109.926,319.604 
								87.597,323.676 							"/>
						</g>
					</g>
					<g>
						<g>
							<g>
								<g>
									<rect x="104.584" y="383.57" style="fill:#FFFFFF;" width="71.836" height="71.836"/>
								</g>
								<g>
									<rect x="176.42" y="383.57" style="fill:#9FC1C0;" width="31.857" height="71.836"/>
								</g>
							</g>
							<g>
								<rect x="131.382" y="383.57" style="fill:#9FC1C0;" width="12.723" height="26.202"/>
							</g>
							<g>
								<rect x="131.382" y="430.645" style="fill:#9FC1C0;" width="12.723" height="24.761"/>
							</g>
							<g>
								<rect x="152.375" y="388.898" style="fill:#9FC1C0;" width="15.506" height="8.553"/>
							</g>
							<g>
								<rect x="191.742" y="383.57" style="fill:#FFFFFF;" width="1.213" height="71.836"/>
							</g>
						</g>
						<g>
							<g>
								<g>
									<rect x="130.137" y="333.804" style="fill:#FFBF73;" width="49.766" height="49.766"/>
								</g>
								<g>
									<rect x="179.903" y="333.804" style="fill:#CE7F49;" width="22.07" height="49.766"/>
								</g>
							</g>
							<g>
								<rect x="148.702" y="333.804" style="fill:#CE7F49;" width="8.814" height="18.152"/>
							</g>
							<g>
								<rect x="148.702" y="366.416" style="fill:#CE7F49;" width="8.814" height="17.154"/>
							</g>
							<g>
								<rect x="163.245" y="337.495" style="fill:#CE7F49;" width="10.742" height="5.925"/>
							</g>
							<g>
								<rect x="190.331" y="333.804" style="fill:#FFBF73;" width="1.213" height="49.766"/>
							</g>
						</g>
						<g>
							<g>
								<g>
									<rect x="281.214" y="339.611" style="fill:#FFBF73;" width="49.766" height="49.766"/>
								</g>
								<g>
									<rect x="330.98" y="339.611" style="fill:#CE7F49;" width="22.07" height="49.766"/>
								</g>
							</g>
							<g>
								<rect x="299.779" y="339.611" style="fill:#CE7F49;" width="8.814" height="18.152"/>
							</g>
							<g>
								<rect x="299.779" y="372.224" style="fill:#CE7F49;" width="8.814" height="17.154"/>
							</g>
							<g>
								<rect x="314.322" y="343.302" style="fill:#CE7F49;" width="10.742" height="5.925"/>
							</g>
							<g>
								<rect x="341.408" y="339.611" style="fill:#FFBF73;" width="1.213" height="49.767"/>
							</g>
						</g>
						<g>
							<g>
								<g>
									<rect x="278.136" y="388.898" style="fill:#FFFFFF;" width="71.836" height="71.836"/>
								</g>
								<g>
									<rect x="349.972" y="388.898" style="fill:#9FC1C0;" width="31.857" height="71.836"/>
								</g>
							</g>
							<g>
								<rect x="304.934" y="388.898" style="fill:#9FC1C0;" width="12.723" height="26.202"/>
							</g>
							<g>
								<rect x="304.934" y="435.973" style="fill:#9FC1C0;" width="12.723" height="24.761"/>
							</g>
							<g>
								<rect x="325.927" y="394.225" style="fill:#9FC1C0;" width="15.506" height="8.553"/>
							</g>
							<g>
								<rect x="365.294" y="388.897" style="fill:#FFFFFF;" width="1.213" height="71.836"/>
							</g>
						</g>
						<g>
							<g>
								<g>
									<rect x="201.973" y="323.929" style="fill:#FFFFFF;" width="57.408" height="81.13"/>
								</g>
								<g>
									<rect x="259.38" y="323.929" style="fill:#9FC1C0;" width="25.458" height="81.13"/>
								</g>
							</g>
							<g>
								<rect x="223.388" y="323.929" style="fill:#9FC1C0;" width="10.168" height="29.592"/>
							</g>
							<g>
								<rect x="223.388" y="377.095" style="fill:#9FC1C0;" width="10.168" height="27.964"/>
							</g>
							<g>
								<rect x="240.165" y="329.946" style="fill:#9FC1C0;" width="12.392" height="9.66"/>
							</g>
							<g>
								<rect x="271.534" y="323.929" style="fill:#FFFFFF;" width="1.152" height="81.131"/>
							</g>
						</g>
						<g>
							<g>
								<g>
									<rect x="187.862" y="403.966" style="fill:#FFBF73;" width="71.836" height="71.836"/>
								</g>
								<g>
									<rect x="259.698" y="403.966" style="fill:#CE7F49;" width="31.857" height="71.836"/>
								</g>
							</g>
							<g>
								<rect x="214.66" y="403.966" style="fill:#CE7F49;" width="12.723" height="26.202"/>
							</g>
							<g>
								<rect x="214.66" y="451.041" style="fill:#CE7F49;" width="12.723" height="24.761"/>
							</g>
							<g>
								<rect x="235.653" y="409.294" style="fill:#CE7F49;" width="15.506" height="8.553"/>
							</g>
							<g>
								<rect x="275.019" y="403.966" style="fill:#FFBF73;" width="1.213" height="71.836"/>
							</g>
						</g>
					</g>
				</g>
				<g>
					<g>
						<path style="fill:#E85454;" d="M183.538,110.463c0,10.186-18.443,37.523-18.443,37.523s-18.443-27.337-18.443-37.523
							s8.257-18.443,18.443-18.443C175.28,92.02,183.538,100.277,183.538,110.463z"/>
					</g>
					<g>
						<circle style="fill:#FFFFFF;" cx="165.31" cy="110.679" r="10.42"/>
					</g>
				</g>
				<g>
					<g>
						<path style="fill:#E85454;" d="M291.596,269.258c0,8.436-15.275,31.078-15.275,31.078s-15.275-22.642-15.275-31.078
							c0-8.436,6.839-15.275,15.275-15.275C284.757,253.983,291.596,260.822,291.596,269.258z"/>
					</g>
					<g>
						<circle style="fill:#FFFFFF;" cx="276.499" cy="269.437" r="8.63"/>
					</g>
				</g>
				<g>
					<g>
						<path style="fill:#E85454;" d="M367.546,142.418c0,7.914-14.329,29.153-14.329,29.153s-14.329-21.239-14.329-29.153
							s6.415-14.329,14.329-14.329C361.131,128.089,367.546,134.504,367.546,142.418z"/>
					</g>
					<g>
						<circle style="fill:#FFFFFF;" cx="353.384" cy="142.585" r="8.096"/>
					</g>
				</g>
				<g>
					<g>
						<path style="fill:#E85454;" d="M77.954,201.256c0,7.914-14.329,29.153-14.329,29.153s-14.329-21.239-14.329-29.153
							s6.415-14.329,14.329-14.329S77.954,193.342,77.954,201.256z"/>
					</g>
					<g>
						<circle style="fill:#FFFFFF;" cx="63.792" cy="201.424" r="8.096"/>
					</g>
				</g>
				<g>
					<g>
						<path style="fill:#E85454;" d="M457.368,246.571c0,7.914-14.329,29.153-14.329,29.153s-14.329-21.239-14.329-29.153
							s6.415-14.329,14.329-14.329C450.952,232.242,457.368,238.658,457.368,246.571z"/>
					</g>
					<g>
						<circle style="fill:#FFFFFF;" cx="443.206" cy="246.739" r="8.096"/>
					</g>
				</g>
			</g>
			<g>
				<path style="fill:#FFFFFF;" d="M20.59,226.47c16.406-58.782,56.083-110.726,108.479-142.017
					c-2.118-5.212-9.114-9.964-14.605-8.743c-5.492,1.221-9.69,6.738-9.401,12.356c-8.615-11.462-29.225-17.961-40.354-8.92
					c-5.713,4.641-8.656,12.042-9.309,19.374s0.745,14.683,2.399,21.855c0.498,2.159,1.982,4.903,4.087,4.212
					c-2.083-4.2-9.412-6.677-13.495-4.374s-6.242,7.132-6.481,11.814c-0.238,4.682,1.155,9.284,2.71,13.707
					c-5.084-4.47-16.485,0.894-18.455,7.371s1.193,13.501,5.645,18.601c-4.362-4.86-15.336,0.311-16.789,6.679
					c-1.453,6.367,3.403,12.926,9.525,15.201c-3.367,0.19-6.536,2.761-7.165,6.074c-0.629,3.313,1.237,6.937,4.299,8.349
					c-3.985,0.6-7.33,4.838-6.941,8.849C15.127,220.866,17.288,224.159,20.59,226.47z"/>
				<path style="fill:#FFFFFF;" d="M480.008,225.619c-16.406-58.782-56.083-110.726-108.479-142.017
					c2.118-5.212,9.114-9.964,14.605-8.743c5.492,1.221,9.69,6.738,9.401,12.356c8.615-11.462,29.225-17.961,40.354-8.92
					c5.713,4.641,8.656,12.042,9.309,19.374c0.653,7.331-0.745,14.683-2.399,21.855c-0.498,2.159-1.982,4.903-4.087,4.212
					c2.083-4.2,9.412-6.677,13.495-4.374c4.083,2.303,6.242,7.132,6.481,11.814c0.238,4.682-1.155,9.284-2.71,13.707
					c5.084-4.47,16.485,0.894,18.455,7.371c1.97,6.477-1.193,13.501-5.645,18.601c4.362-4.86,15.336,0.311,16.789,6.679
					c1.453,6.367-3.403,12.926-9.525,15.201c3.367,0.19,6.536,2.761,7.165,6.074s-1.237,6.937-4.299,8.349
					c3.985,0.6,7.33,4.838,6.941,8.849S483.309,223.308,480.008,225.619z"/>
				<path style="fill:#FFFFFF;" d="M295.274,65.806c-40.054-15.79-86.166-15.576-126.072,0.583
					c-2.031-3.41-1.727-9.368,1.298-11.939c3.024-2.57,7.915-2.583,10.953-0.03c-2.782-9.726,2.334-24.087,12.158-26.5
					c5.043-1.239,10.459,0.256,14.862,3.009s7.944,6.669,11.275,10.652c1.003,1.199,1.915,3.202,0.63,4.092
					c-1.476-2.959,0.249-8.137,3.283-9.454c3.034-1.317,6.669-0.477,9.405,1.382c2.736,1.859,4.732,4.601,6.558,7.358
					c-0.351-4.763,7.519-8.894,12.002-7.246c4.482,1.648,7.088,6.418,8.062,11.093c-0.878-4.523,6.703-8.496,10.903-6.603
					c4.201,1.893,5.823,7.416,4.498,11.829c1.54-1.813,4.335-2.502,6.467-1.446c2.132,1.056,3.376,3.649,2.867,5.972
					c2.034-1.987,5.842-2.064,7.933-0.138C294.447,60.347,295.38,62.965,295.274,65.806z"/>
			</g>
		</g>
	</g>
</g>
</svg>
